<?xml version="1.0" standalone="no"?><!DOCTYPE svg PUBLIC "-//W3C//DTD SVG 1.1//EN" "http://www.w3.org/Graphics/SVG/1.1/DTD/svg11.dtd" ><svg xmlns="http://www.w3.org/2000/svg" xmlns:xlink="http://www.w3.org/1999/xlink" version="1.1"><metadata>
Created by FontForge 20190801 at Fri Mar 22 06:04:17 2013
 By www-data
Copyright (c) 2010 by International TypeFounders, Inc. All rights reserved.
</metadata><defs><font id="PhosphateProSolid" horiz-adv-x="626" ><font-face 
    font-family="PhosphateProSolid"
    font-weight="400"
    font-stretch="normal"
    units-per-em="1000"
    panose-1="2 0 5 6 5 0 0 2 0 4"
    ascent="976"
    descent="-24"
    x-height="667"
    cap-height="667"
    bbox="-149 -260 1098 1045"
    underline-thickness="73"
    underline-position="-187"
    unicode-range="U+001D-FB02"
  /><missing-glyph horiz-adv-x="452" 
d="M25 -87v837h402v-837h-402zM68 707v-751h315v751h-315z" /><glyph glyph-name="uniFB01" unicode="fi" horiz-adv-x="744" 
d="M35 0v667h393v-175h-180v-74h177v-166h-177v-252h-213zM483 0v667h226v-667h-226z" /><glyph glyph-name="uniFB02" unicode="fl" horiz-adv-x="889" 
d="M35 0v667h393v-175h-180v-74h177v-166h-177v-252h-213zM483 0v667h222v-492h184v-175h-406z" /><glyph glyph-name=".notdef" horiz-adv-x="452" 
d="M25 -87v837h402v-837h-402zM68 707v-751h315v751h-315z" /><glyph glyph-name=".null" horiz-adv-x="0" 
 /><glyph glyph-name=".null" horiz-adv-x="0" 
 /><glyph glyph-name="nonmarkingreturn" horiz-adv-x="333" 
 /><glyph glyph-name="space" unicode=" " horiz-adv-x="200" 
 /><glyph glyph-name="space" unicode="&#xa0;" horiz-adv-x="200" 
 /><glyph glyph-name="exclam" unicode="!" horiz-adv-x="288" 
d="M64 197l-34 470h228l-34 -470h-160zM37 0v167h214v-167h-214z" /><glyph glyph-name="quotedbl" unicode="&#x22;" horiz-adv-x="378" 
d="M24 377l-14 290h164l-14 -290h-136zM218 377l-14 290h164l-14 -290h-136z" /><glyph glyph-name="numbersign" unicode="#" horiz-adv-x="467" 
d="M38 134l14 98h-52l19 139h53l8 59h-52l19 139h52l14 98h141l-14 -98h34l14 98h141l-14 -98h52l-19 -139h-52l-9 -59h52l-19 -139h-52l-14 -98h-141l14 98h-34l-14 -98h-141zM221 430l-9 -59h34l9 59h-34z" /><glyph glyph-name="dollar" unicode="$" horiz-adv-x="450" 
d="M143 -83v69q-28 1 -59.5 6.5t-49.5 9.5l-17 5v200q76 -23 140 -23q49 0 49 35q0 14 -19.5 31.5t-48 39t-56.5 48t-47.5 67t-19.5 86.5q0 65 34 111t94 67v80h146v-68l81 -11v-187q-29 5 -57 5q-52 0 -52 -24q0 -9 18.5 -24.5t44.5 -37.5t52.5 -50t45 -69.5t18.5 -88.5
q0 -72 -37 -125.5t-114 -75.5v-76h-146z" /><glyph glyph-name="percent" unicode="%" horiz-adv-x="719" 
d="M704 183q0 -92 -39 -142t-109 -50t-109 50t-39 142t39 142.5t109 50.5t109 -50.5t39 -142.5zM591 183q0 86 -35 86t-35 -86t35 -86t35 86zM15 484q0 92 39 142t109 50t109 -50t39 -142t-39 -142.5t-109 -50.5t-109 50.5t-39 142.5zM128 484q0 -86 35 -86t35 86t-35 86
t-35 -86zM168 0l265 667h118l-265 -667h-118z" /><glyph glyph-name="ampersand" unicode="&#x26;" horiz-adv-x="661" 
d="M15 185q0 108 100 173q-53 56 -53 130q0 84 60 139.5t148 55.5q98 0 157 -56t59 -143t-92 -155l91 -76q14 14 27 29t19 23l6 8l134 -114q-6 -9 -16.5 -23.5t-48.5 -51.5t-80 -65.5t-108.5 -52t-137.5 -23.5q-131 0 -198 56t-67 146zM285 152q28 0 60 10l-97 82
q-25 -19 -25 -45q0 -23 18 -35t44 -12zM236 491q0 -28 32 -56q43 26 43 56q0 17 -10 27t-27 10q-16 0 -27 -10.5t-11 -26.5z" /><glyph glyph-name="quotesingle" unicode="'" horiz-adv-x="184" 
d="M24 377l-14 290h164l-14 -290h-136z" /><glyph glyph-name="parenleft" unicode="(" horiz-adv-x="278" 
d="M25 333q0 121 25.5 229.5t50.5 156.5l25 48h182q-4 -8 -10.5 -22t-23 -59.5t-29.5 -93t-23.5 -119t-10.5 -140.5q0 -110 24.5 -218.5t48.5 -162.5l24 -53h-182q-4 7 -11 19.5t-24.5 55t-30.5 89t-24 120.5t-11 150z" /><glyph glyph-name="parenright" unicode=")" horiz-adv-x="278" 
d="M253 333q0 -121 -25.5 -229.5t-50.5 -156.5l-25 -48h-182q4 8 10.5 22t23 59.5t29.5 93t23.5 119t10.5 140.5t-10 139.5t-24.5 121t-28.5 91.5t-24 61l-10 21h182q4 -7 11 -19.5t24.5 -55t30.5 -89t24 -120.5t11 -150z" /><glyph glyph-name="asterisk" unicode="*" horiz-adv-x="384" 
d="M10 461l161 68l140 106l63 -110l-162 -68l-139 -106zM129 319l22 174l-22 174h126l-22 -174l22 -174h-126zM213 529l161 -68l-63 -110l-139 106l-162 68l63 110z" /><glyph glyph-name="plus" unicode="+" horiz-adv-x="460" 
d="M147 60v127h-127v166h127v127h166v-127h127v-166h-127v-127h-166z" /><glyph glyph-name="comma" unicode="," horiz-adv-x="274" 
d="M0 -103l67 270h190l-87 -270h-170z" /><glyph glyph-name="hyphen" unicode="-" horiz-adv-x="314" 
d="M25 250v167h264v-167h-264z" /><glyph glyph-name="hyphen" unicode="&#xad;" horiz-adv-x="314" 
d="M25 250v167h264v-167h-264z" /><glyph glyph-name="period" unicode="." horiz-adv-x="274" 
d="M30 0v167h214v-167h-214z" /><glyph glyph-name="slash" unicode="/" horiz-adv-x="436" 
d="M-10 -16l287 699h169l-287 -699h-169z" /><glyph glyph-name="zero" unicode="0" horiz-adv-x="578" 
d="M558 333q0 -168 -71 -259t-198 -91t-198 91t-71 259t71 259t198 91t198 -91t71 -259zM353 333q0 157 -64 157t-64 -157t64 -157t64 157z" /><glyph glyph-name="one" unicode="1" horiz-adv-x="316" 
d="M65 0v407l-90 105l146 155h160v-667h-216z" /><glyph glyph-name="two" unicode="2" horiz-adv-x="430" 
d="M-25 0l168 320q33 62 33 98q0 32 -21.5 49.5t-60.5 17.5l-41 -3v185q46 10 95 10q51 0 95 -11t82.5 -34t61 -64.5t22.5 -97.5q0 -49 -21.5 -102t-80.5 -168l-13 -25h126l-57 -175h-388z" /><glyph glyph-name="three" unicode="3" horiz-adv-x="401" 
d="M20 -7v186q14 -2 39 -2q59 0 85 22t26 55q0 20 -13 39t-37.5 36t-42 27t-44.5 23q94 59 94 95q0 31 -43 31q-15 0 -31 -2.5t-25 -4.5l-8 -3v168q42 12 136 12q95 0 143 -43t48 -118q0 -29 -12.5 -57.5t-25.5 -42.5l-13 -14q4 -3 10 -8t21.5 -22t27.5 -36t21.5 -48
t9.5 -59q0 -117 -88.5 -176t-222.5 -59q-31 0 -55 1z" /><glyph glyph-name="four" unicode="4" horiz-adv-x="476" 
d="M-5 206l272 461h169v-440h40v-134h-40v-93h-197v93h-244v113zM239 375l-88 -148h88v148z" /><glyph glyph-name="five" unicode="5" horiz-adv-x="406" 
d="M13 -13v190q73 0 113 26.5t40 72.5q0 97 -166 97l120 294h271v-187h-125q5 -3 12.5 -8.5t27.5 -25.5t35.5 -42.5t28 -59.5t12.5 -77q0 -70 -29.5 -125.5t-79.5 -89t-110 -50.5t-125 -17z" /><glyph glyph-name="six" unicode="6" horiz-adv-x="544" 
d="M15 246q0 63 22 129.5t53.5 116.5t62.5 91t53 63l22 21h242q-80 -78 -141 -186q90 -18 145 -85.5t55 -160.5q0 -106 -72 -179t-179 -73q-113 0 -188 74.5t-75 188.5zM212 241q0 -25 17.5 -43t42.5 -18t42.5 17.5t17.5 42.5t-17.5 42.5t-42.5 17.5q-24 0 -42 -17.5
t-18 -41.5z" /><glyph glyph-name="seven" unicode="7" horiz-adv-x="453" 
d="M-15 0l190 481h-183l74 186h407l-263 -667h-225z" /><glyph glyph-name="eight" unicode="8" horiz-adv-x="514" 
d="M203 231q0 -23 15.5 -38.5t38.5 -15.5t38.5 15.5t15.5 38.5t-15.5 38.5t-38.5 15.5t-38.5 -15.5t-15.5 -38.5zM223 475q0 -14 10 -24t24 -10t24 10t10 24t-10 24t-24 10t-24 -10t-10 -24zM257 -17q-104 0 -175.5 65.5t-71.5 166.5q0 31 7.5 59t19 46.5t22.5 33t19 20.5
l7 7q-37 39 -37 108q0 82 61 138t148 56t148 -56t61 -138q0 -31 -9 -58t-19 -39l-9 -11q3 -2 8 -6.5t18 -20.5t23 -33.5t18 -46t8 -59.5q0 -101 -71.5 -166.5t-175.5 -65.5z" /><glyph glyph-name="nine" unicode="9" horiz-adv-x="544" 
d="M529 421q0 -63 -22 -129.5t-53.5 -116.5t-62.5 -91t-53 -62l-22 -22h-242q80 78 141 186q-90 18 -145 85.5t-55 160.5q0 106 72 179t179 73q113 0 188 -74.5t75 -188.5zM332 426q0 25 -17.5 43t-42.5 18t-42.5 -17.5t-17.5 -42.5t17.5 -42.5t42.5 -17.5q24 0 42 17.5
t18 41.5z" /><glyph glyph-name="colon" unicode=":" horiz-adv-x="274" 
d="M30 0v167h214v-167h-214zM30 270v167h214v-167h-214z" /><glyph glyph-name="semicolon" unicode=";" horiz-adv-x="274" 
d="M0 -103l67 270h190l-87 -270h-170zM43 270v167h214v-167h-214z" /><glyph glyph-name="less" unicode="&#x3c;" horiz-adv-x="470" 
d="M25 170v124l420 170v-166l-164 -66l164 -66v-166z" /><glyph glyph-name="equal" unicode="=" horiz-adv-x="460" 
d="M440 264v-145h-420v145h420zM440 294h-420v145h420v-145z" /><glyph glyph-name="greater" unicode="&#x3e;" horiz-adv-x="470" 
d="M445 294v-124l-420 -170v166l164 66l-164 66v166z" /><glyph glyph-name="question" unicode="?" horiz-adv-x="382" 
d="M42 197q0 43 14 81.5t31 61t31 46.5t14 42q0 34 -25.5 46.5t-70.5 12.5h-21v186q54 10 102 10q113 0 181.5 -56t68.5 -149q0 -39 -17.5 -79.5t-38.5 -69t-38.5 -65t-17.5 -67.5h-213zM42 0v167h214v-167h-214z" /><glyph glyph-name="at" unicode="@" horiz-adv-x="874" 
d="M355 321q0 -29 21.5 -50.5t50.5 -21.5t50.5 21.5t21.5 50.5t-21.5 50.5t-50.5 21.5t-50.5 -21.5t-21.5 -50.5zM819 333q0 -91 -48.5 -146t-137.5 -55q-29 0 -54 8.5t-36 17.5l-11 8q-6 -5 -17 -12.5t-43.5 -19.5t-64.5 -12q-87 0 -143 59.5t-56 139.5t56 139.5t143 59.5
q37 0 81 -18v15h150v-233q0 -28 13.5 -40t32.5 -12q28 0 45 27t17 74q0 143 -89.5 223.5t-219.5 80.5t-219.5 -80.5t-89.5 -223.5q0 -134 88.5 -219t220.5 -85q53 0 100 9t67 18l20 9l24 -46q-10 -5 -28 -13t-76.5 -21t-118.5 -13q-167 0 -268.5 106t-101.5 255
q0 156 110 261.5t272 105.5t272 -105.5t110 -261.5z" /><glyph glyph-name="A" unicode="A" 
d="M-20 0l253 667h160l253 -667h-210l-22 60h-202l-22 -60h-210zM268 207h90l-45 117z" /><glyph glyph-name="B" unicode="B" horiz-adv-x="561" 
d="M35 0v667h261q103 0 164 -46.5t61 -133.5q0 -37 -12.5 -67.5t-24.5 -42.5l-13 -12q3 -2 8.5 -5.5t19.5 -17t24.5 -29.5t19 -44t8.5 -59q0 -97 -66 -153.5t-178 -56.5h-272zM241 157h24q76 0 76 58t-76 58h-24v-116zM315 464q0 46 -50 46h-24v-92h24q50 0 50 46z" /><glyph glyph-name="C" unicode="C" horiz-adv-x="614" 
d="M20 333q0 156 102.5 253t249.5 97q42 0 82.5 -7.5t68 -17.5t49 -20.5t32.5 -17.5l10 -8l-105 -185q-6 5 -16 12.5t-43.5 20.5t-69.5 13q-61 0 -102.5 -41t-41.5 -99t43 -99t106 -41q38 0 71.5 13t47.5 26l15 13l105 -185q-4 -3 -11 -8.5t-30.5 -18.5t-50 -23t-68 -18.5
t-84.5 -8.5q-157 0 -258.5 97.5t-101.5 252.5z" /><glyph glyph-name="D" unicode="D" horiz-adv-x="635" 
d="M220 0h-185v667h185q190 0 292.5 -85t102.5 -248t-103 -248.5t-292 -85.5zM248 477v-287q157 0 157 144q0 143 -157 143z" /><glyph glyph-name="E" unicode="E" horiz-adv-x="460" 
d="M35 0v667h393v-175h-180v-74h177v-166h-177v-77h187v-175h-400z" /><glyph glyph-name="F" unicode="F" horiz-adv-x="448" 
d="M35 0v667h393v-175h-180v-74h177v-166h-177v-252h-213z" /><glyph glyph-name="G" unicode="G" horiz-adv-x="697" 
d="M581 612l-121 -172q-38 33 -98 33q-58 0 -95 -39.5t-37 -100.5q0 -60 41 -100t99 -40q67 0 110 54h-60v140h257v-222q-46 -83 -128 -132.5t-179 -49.5q-145 0 -247.5 101.5t-102.5 248.5q0 146 98 248t242 102q41 0 79 -7.5t63 -17.5t43.5 -20.5t26.5 -17.5z" /><glyph glyph-name="H" unicode="H" horiz-adv-x="616" 
d="M35 0v667h213v-227h119v227h214v-667h-214v247h-119v-247h-213z" /><glyph glyph-name="I" unicode="I" horiz-adv-x="296" 
d="M35 0v667h226v-667h-226z" /><glyph glyph-name="J" unicode="J" horiz-adv-x="379" 
d="M0 0v160h73q30 0 42 11.5t12 34.5v461h220v-498q0 -92 -42 -130.5t-136 -38.5h-169z" /><glyph glyph-name="K" unicode="K" horiz-adv-x="635" 
d="M35 0v667h216v-154l126 154h261l-235 -305l247 -362h-257l-142 206v-206h-216z" /><glyph glyph-name="L" unicode="L" horiz-adv-x="441" 
d="M35 0v667h222v-492h184v-175h-406z" /><glyph glyph-name="M" unicode="M" horiz-adv-x="769" 
d="M35 0v667h176l174 -256l173 256h176v-667h-213v240l-136 -200l-137 200v-240h-213z" /><glyph glyph-name="N" unicode="N" horiz-adv-x="638" 
d="M35 0v667h175l184 -257v257h209v-667h-176l-183 256v-256h-209z" /><glyph glyph-name="O" unicode="O" horiz-adv-x="740" 
d="M20 333q0 145 102.5 247.5t247.5 102.5t247.5 -102.5t102.5 -247.5t-102.5 -247.5t-247.5 -102.5t-247.5 102.5t-102.5 247.5zM230 333q0 -58 41 -99t99 -41t99 41t41 99t-41 99t-99 41t-99 -41t-41 -99z" /><glyph glyph-name="P" unicode="P" horiz-adv-x="569" 
d="M554 413q0 -67 -23.5 -117t-66 -79.5t-96.5 -43.5t-120 -14v-159h-213v667h213q66 0 120 -14t96.5 -43.5t66 -79.5t23.5 -117zM248 487v-148h9q79 0 79 74t-79 74h-9z" /><glyph glyph-name="Q" unicode="Q" horiz-adv-x="740" 
d="M230 333q0 -58 41 -99t99 -41t99 41t41 99t-41 99t-99 41t-99 -41t-41 -99zM20 333q0 145 102.5 247.5t247.5 102.5t247.5 -102.5t102.5 -247.5q0 -84 -38 -158h62l-90 -175h-177q-53 -17 -107 -17q-145 0 -247.5 102.5t-102.5 247.5z" /><glyph glyph-name="R" unicode="R" horiz-adv-x="583" 
d="M35 0v667h230q132 0 215 -68.5t83 -191.5q0 -37 -9.5 -70t-22.5 -53.5t-26 -35.5t-23 -22l-9 -6l125 -220h-250l-100 169v-169h-213zM248 487v-148h11q41 0 66 18t25 56t-25 56t-66 18h-11z" /><glyph glyph-name="S" unicode="S" horiz-adv-x="450" 
d="M17 7v200q76 -22 143 -22q46 0 46 34q0 14 -19.5 31.5t-48 39t-56.5 48t-47.5 67t-19.5 86.5q0 91 62.5 141.5t158.5 50.5q29 0 62.5 -3.5t52.5 -6.5l19 -3v-187q-29 5 -57 5q-52 0 -52 -24q0 -9 18.5 -24.5t44.5 -37.5t52.5 -50t45 -69.5t18.5 -88.5q0 -94 -60.5 -152.5
t-181.5 -58.5q-44 0 -89 6t-69 12z" /><glyph glyph-name="T" unicode="T" horiz-adv-x="466" 
d="M123 0v492h-123v175h466v-175h-123v-492h-220z" /><glyph glyph-name="U" unicode="U" horiz-adv-x="617" 
d="M308 -17q-130 0 -203 65.5t-73 194.5v424h213v-415q0 -72 63 -72t63 72v415h214v-424q0 -129 -73.5 -194.5t-203.5 -65.5z" /><glyph glyph-name="V" unicode="V" horiz-adv-x="653" 
d="M-20 667h233l113 -290l114 290h233l-260 -667h-173z" /><glyph glyph-name="W" unicode="W" horiz-adv-x="866" 
d="M200 0l-220 667h226l77 -233l77 233h146l77 -233l77 233h226l-220 -667h-166l-67 202l-67 -202h-166z" /><glyph glyph-name="X" unicode="X" horiz-adv-x="573" 
d="M-20 0l190 345l-177 322h233l60 -109l60 109h234l-177 -322l190 -345h-233l-74 133l-73 -133h-233z" /><glyph glyph-name="Y" unicode="Y" horiz-adv-x="587" 
d="M187 0v287l-207 380h237l77 -141l76 141h237l-207 -380v-287h-213z" /><glyph glyph-name="Z" unicode="Z" horiz-adv-x="518" 
d="M-20 0l232 492h-184l68 175h427l-232 -492h219l-67 -175h-463z" /><glyph glyph-name="bracketleft" unicode="[" horiz-adv-x="295" 
d="M25 -101v868h265v-169h-89v-530h89v-169h-265z" /><glyph glyph-name="backslash" unicode="\" horiz-adv-x="436" 
d="M159 683l287 -699h-169l-287 699h169z" /><glyph glyph-name="bracketright" unicode="]" horiz-adv-x="295" 
d="M270 767v-868h-265v169h89v530h-89v169h265z" /><glyph glyph-name="asciicircum" unicode="^" horiz-adv-x="510" 
d="M352 435l-98 131l-96 -131h-133l131 232h198l131 -232h-133z" /><glyph glyph-name="underscore" unicode="_" horiz-adv-x="439" 
d="M0 -153v73h439v-73h-439z" /><glyph glyph-name="grave" unicode="`" horiz-adv-x="280" 
d="M255 516h-110l-120 155h147z" /><glyph glyph-name="a" unicode="a" 
d="M-20 0l253 667h160l253 -667h-210l-22 60h-202l-22 -60h-210zM268 207h90l-45 117z" /><glyph glyph-name="b" unicode="b" horiz-adv-x="561" 
d="M35 0v667h261q103 0 164 -46.5t61 -133.5q0 -37 -12.5 -67.5t-24.5 -42.5l-13 -12q3 -2 8.5 -5.5t19.5 -17t24.5 -29.5t19 -44t8.5 -59q0 -97 -66 -153.5t-178 -56.5h-272zM241 157h24q76 0 76 58t-76 58h-24v-116zM315 464q0 46 -50 46h-24v-92h24q50 0 50 46z" /><glyph glyph-name="c" unicode="c" horiz-adv-x="614" 
d="M20 333q0 156 102.5 253t249.5 97q42 0 82.5 -7.5t68 -17.5t49 -20.5t32.5 -17.5l10 -8l-105 -185q-6 5 -16 12.5t-43.5 20.5t-69.5 13q-61 0 -102.5 -41t-41.5 -99t43 -99t106 -41q38 0 71.5 13t47.5 26l15 13l105 -185q-4 -3 -11 -8.5t-30.5 -18.5t-50 -23t-68 -18.5
t-84.5 -8.5q-157 0 -258.5 97.5t-101.5 252.5z" /><glyph glyph-name="d" unicode="d" horiz-adv-x="635" 
d="M220 0h-185v667h185q190 0 292.5 -85t102.5 -248t-103 -248.5t-292 -85.5zM248 477v-287q157 0 157 144q0 143 -157 143z" /><glyph glyph-name="e" unicode="e" horiz-adv-x="460" 
d="M35 0v667h393v-175h-180v-74h177v-166h-177v-77h187v-175h-400z" /><glyph glyph-name="f" unicode="f" horiz-adv-x="448" 
d="M35 0v667h393v-175h-180v-74h177v-166h-177v-252h-213z" /><glyph glyph-name="g" unicode="g" horiz-adv-x="697" 
d="M581 612l-121 -172q-38 33 -98 33q-58 0 -95 -39.5t-37 -100.5q0 -60 41 -100t99 -40q67 0 110 54h-60v140h257v-222q-46 -83 -128 -132.5t-179 -49.5q-145 0 -247.5 101.5t-102.5 248.5q0 146 98 248t242 102q41 0 79 -7.5t63 -17.5t43.5 -20.5t26.5 -17.5z" /><glyph glyph-name="h" unicode="h" horiz-adv-x="616" 
d="M35 0v667h213v-227h119v227h214v-667h-214v247h-119v-247h-213z" /><glyph glyph-name="i" unicode="i" horiz-adv-x="296" 
d="M35 0v667h226v-667h-226z" /><glyph glyph-name="j" unicode="j" horiz-adv-x="379" 
d="M0 0v160h73q30 0 42 11.5t12 34.5v461h219v-498q0 -92 -42 -130.5t-136 -38.5h-168z" /><glyph glyph-name="k" unicode="k" horiz-adv-x="635" 
d="M35 0v667h216v-154l126 154h261l-235 -305l247 -362h-257l-142 206v-206h-216z" /><glyph glyph-name="l" unicode="l" horiz-adv-x="441" 
d="M35 0v667h222v-492h184v-175h-406z" /><glyph glyph-name="m" unicode="m" horiz-adv-x="769" 
d="M35 0v667h176l174 -256l173 256h176v-667h-213v240l-136 -200l-137 200v-240h-213z" /><glyph glyph-name="n" unicode="n" horiz-adv-x="638" 
d="M35 0v667h175l184 -257v257h209v-667h-176l-183 256v-256h-209z" /><glyph glyph-name="o" unicode="o" horiz-adv-x="740" 
d="M20 333q0 145 102.5 247.5t247.5 102.5t247.5 -102.5t102.5 -247.5t-102.5 -247.5t-247.5 -102.5t-247.5 102.5t-102.5 247.5zM230 333q0 -58 41 -99t99 -41t99 41t41 99t-41 99t-99 41t-99 -41t-41 -99z" /><glyph glyph-name="p" unicode="p" horiz-adv-x="569" 
d="M554 413q0 -67 -23.5 -117t-66 -79.5t-96.5 -43.5t-120 -14v-159h-213v667h213q66 0 120 -14t96.5 -43.5t66 -79.5t23.5 -117zM248 487v-148h9q79 0 79 74t-79 74h-9z" /><glyph glyph-name="q" unicode="q" horiz-adv-x="740" 
d="M230 333q0 -58 41 -99t99 -41t99 41t41 99t-41 99t-99 41t-99 -41t-41 -99zM20 333q0 145 102.5 247.5t247.5 102.5t247.5 -102.5t102.5 -247.5q0 -84 -38 -158h62l-90 -175h-177q-53 -17 -107 -17q-145 0 -247.5 102.5t-102.5 247.5z" /><glyph glyph-name="r" unicode="r" horiz-adv-x="583" 
d="M35 0v667h230q132 0 215 -68.5t83 -191.5q0 -37 -9.5 -70t-22.5 -53.5t-26 -35.5t-23 -22l-9 -6l125 -220h-250l-100 169v-169h-213zM248 487v-148h11q41 0 66 18t25 56t-25 56t-66 18h-11z" /><glyph glyph-name="s" unicode="s" horiz-adv-x="450" 
d="M17 7v200q76 -22 143 -22q46 0 46 34q0 14 -19.5 31.5t-48 39t-56.5 48t-47.5 67t-19.5 86.5q0 91 62.5 141.5t158.5 50.5q29 0 62.5 -3.5t52.5 -6.5l19 -3v-187q-29 5 -57 5q-52 0 -52 -24q0 -9 18.5 -24.5t44.5 -37.5t52.5 -50t45 -69.5t18.5 -88.5q0 -94 -60.5 -152.5
t-181.5 -58.5q-44 0 -89 6t-69 12z" /><glyph glyph-name="t" unicode="t" horiz-adv-x="466" 
d="M123 0v492h-123v175h466v-175h-123v-492h-220z" /><glyph glyph-name="u" unicode="u" horiz-adv-x="617" 
d="M308 -17q-130 0 -203 65.5t-73 194.5v424h213v-415q0 -72 63 -72t63 72v415h214v-424q0 -129 -73.5 -194.5t-203.5 -65.5z" /><glyph glyph-name="v" unicode="v" horiz-adv-x="653" 
d="M-20 667h233l113 -290l114 290h233l-260 -667h-173z" /><glyph glyph-name="w" unicode="w" horiz-adv-x="866" 
d="M200 0l-220 667h226l77 -233l77 233h146l77 -233l77 233h226l-220 -667h-166l-67 202l-67 -202h-166z" /><glyph glyph-name="x" unicode="x" horiz-adv-x="573" 
d="M-20 0l190 345l-177 322h233l60 -109l60 109h234l-177 -322l190 -345h-233l-74 133l-73 -133h-233z" /><glyph glyph-name="y" unicode="y" horiz-adv-x="587" 
d="M187 0v287l-207 380h237l77 -141l76 141h237l-207 -380v-287h-213z" /><glyph glyph-name="z" unicode="z" horiz-adv-x="518" 
d="M-20 0l232 492h-184l68 175h427l-232 -492h219l-67 -175h-463z" /><glyph glyph-name="braceleft" unicode="{" horiz-adv-x="349" 
d="M32 253h-22v160h22q47 0 47 46v144q0 164 149 164h116v-169h-75q-14 0 -14 -17v-142q0 -24 -6.5 -44t-16 -31t-18.5 -18.5t-16 -9.5l-6 -3q3 -1 7 -3t15 -10t19 -18.5t15 -30.5t7 -44v-142q0 -17 14 -17h75v-169h-116q-149 0 -149 164v144q0 46 -47 46z" /><glyph glyph-name="bar" unicode="|" horiz-adv-x="214" 
d="M50 693h114v-719h-114v719z" /><glyph glyph-name="braceright" unicode="}" horiz-adv-x="349" 
d="M339 253h-22q-47 0 -47 -46v-144q0 -164 -149 -164h-116v169h75q14 0 14 17v142q0 24 6.5 44t16 31t18.5 18.5t15 9.5l7 3q-3 1 -7 3t-15 10t-19 18.5t-15 30.5t-7 44v142q0 17 -14 17h-75v169h116q149 0 149 -164v-144q0 -46 47 -46h22v-160z" /><glyph glyph-name="asciitilde" unicode="~" horiz-adv-x="511" 
d="M129 294h-104q0 187 143 187q37 0 70.5 -17t59 -34t40.5 -17q44 0 44 64h104q0 -187 -143 -187q-37 0 -70.5 17t-59 34t-40.5 17q-44 0 -44 -64z" /><glyph glyph-name="exclamdown" unicode="&#xa1;" horiz-adv-x="288" 
d="M30 0l34 470h160l34 -470h-228zM37 500v167h214v-167h-214z" /><glyph glyph-name="cent" unicode="&#xa2;" horiz-adv-x="382" 
d="M160 461q0 -34 21 -54t53 -20q21 0 40 6.5t28 12.5l8 7l72 -127q-37 -24 -81 -37v-76h-146v81q-65 24 -105 76.5t-40 130.5q0 73 39.5 129.5t105.5 76.5v82h146v-77q20 -4 40 -13t31 -16l10 -7l-72 -127q-29 26 -76 26q-32 0 -53 -20t-21 -54z" /><glyph glyph-name="sterling" unicode="&#xa3;" horiz-adv-x="502" 
d="M-10 247l32 160h63l16 75q20 97 78 149t149 52q55 0 99.5 -17.5t62.5 -34.5l17 -17l-102 -142q-21 19 -53 19q-53 0 -64 -62l-4 -22h94l-33 -160h-93l-15 -72h270l-63 -175h-443l51 247h-62z" /><glyph glyph-name="currency" unicode="&#xa4;" horiz-adv-x="492" 
d="M107 551l55 -56q40 21 84 21q43 0 83 -21l56 56l77 -77l-56 -56q21 -40 21 -83q0 -44 -21 -84l56 -55l-77 -77l-56 55q-38 -20 -83 -20q-46 0 -84 20l-55 -55l-77 77l55 55q-20 38 -20 84q0 45 20 83l-55 56zM197 335q0 -20 14.5 -34.5t34.5 -14.5t34.5 14.5t14.5 34.5
t-14.5 34.5t-34.5 14.5t-34.5 -14.5t-14.5 -34.5z" /><glyph glyph-name="yen" unicode="&#xa5;" horiz-adv-x="557" 
d="M500 247h-115v-247h-212v247h-116v160h54l-131 260h232l68 -141l67 141h230l-132 -260h55v-160z" /><glyph glyph-name="brokenbar" unicode="&#xa6;" horiz-adv-x="214" 
d="M50 693h114v-322h-114v322zM50 296h114v-322h-114v322z" /><glyph glyph-name="section" unicode="&#xa7;" horiz-adv-x="451" 
d="M17 -171v200q80 -22 147 -22q45 0 45 30q0 11 -20 23t-48.5 27.5t-57 36t-48.5 57t-20 82.5q0 62 33 108q-33 51 -33 111q0 92 59.5 146.5t164.5 54.5q29 0 61.5 -3.5t51.5 -6.5l18 -3v-187q-39 5 -67 5q-51 0 -51 -27q0 -11 29.5 -30.5t65 -41.5t65 -65t29.5 -96
q0 -63 -35 -110q34 -51 34 -102q0 -93 -63.5 -152t-184.5 -59q-44 0 -88 6t-66 12zM205 230l57 -32q10 13 10 32q0 27 -23 40l-57 32q-10 -13 -10 -32q0 -27 23 -40z" /><glyph glyph-name="dieresis" unicode="&#xa8;" horiz-adv-x="350" 
d="M25 516v121h128v-121h-128zM197 516v121h128v-121h-128z" /><glyph glyph-name="copyright" unicode="&#xa9;" horiz-adv-x="740" 
d="M169 327q0 94 61.5 152t150.5 58q40 0 76.5 -10.5t52.5 -21.5l16 -11l-61 -107q-32 28 -80 28q-37 0 -63.5 -25t-26.5 -63t27.5 -63t65.5 -25q23 0 43.5 7.5t30.5 15.5l9 8l61 -107q-6 -5 -17.5 -12.5t-50 -20.5t-79.5 -13q-94 0 -155 58.5t-61 151.5zM20 333
q0 145 102.5 247.5t247.5 102.5t247.5 -102.5t102.5 -247.5t-102.5 -247.5t-247.5 -102.5t-247.5 102.5t-102.5 247.5zM57 333q0 -130 91.5 -221.5t221.5 -91.5t221.5 91.5t91.5 221.5t-91.5 221.5t-221.5 91.5t-221.5 -91.5t-91.5 -221.5z" /><glyph glyph-name="ordfeminine" unicode="&#xaa;" horiz-adv-x="415" 
d="M-15 233l164 434h116l165 -434h-138l-11 29h-149l-11 -29h-136zM176 378h61l-30 81z" /><glyph glyph-name="guillemotleft" unicode="&#xab;" horiz-adv-x="530" 
d="M132 0l-132 227l132 226h168l-122 -226l122 -227h-168zM352 0l-132 227l132 226h168l-122 -226l122 -227h-168z" /><glyph glyph-name="logicalnot" unicode="&#xac;" horiz-adv-x="533" 
d="M337 86v160h-307v165h473v-325h-166z" /><glyph glyph-name="registered" unicode="&#xae;" horiz-adv-x="596" 
d="M193 251v300h103q60 0 97 -29t37 -84q0 -26 -10.5 -47t-21.5 -29l-10 -8l58 -103h-100l-46 86h-16v-86h-91zM284 474v-74h13q18 0 29.5 10t11.5 27t-11.5 27t-29.5 10h-13zM15 400q0 117 83 200t200 83t200 -83t83 -200t-83 -200t-200 -83t-200 83t-83 200zM52 400
q0 -102 72 -174t174 -72t174 72t72 174t-72 174t-174 72t-174 -72t-72 -174z" /><glyph glyph-name="macron" unicode="&#xaf;" horiz-adv-x="330" 
d="M25 516v91h280v-91h-280z" /><glyph glyph-name="degree" unicode="&#xb0;" horiz-adv-x="344" 
d="M329 526q0 -65 -46 -111t-111 -46t-111 46t-46 111t46 111t111 46t111 -46t46 -111zM137 526q0 -14 10.5 -24.5t24.5 -10.5t24.5 10.5t10.5 24.5t-10.5 24.5t-24.5 10.5t-24.5 -10.5t-10.5 -24.5z" /><glyph glyph-name="plusminus" unicode="&#xb1;" horiz-adv-x="460" 
d="M147 190v127h-127v166h127v127h166v-127h127v-166h-127v-127h-166zM440 0h-420v166h420v-166z" /><glyph glyph-name="uni00B2" unicode="&#xb2;" horiz-adv-x="230" 
d="M-20 300l92 176q19 37 19 54q0 37 -45 37l-23 -2v102q26 5 52 5q60 0 102 -27.5t42 -86.5q0 -27 -11.5 -55.5t-43.5 -91.5l-8 -15h69l-31 -96h-214z" /><glyph glyph-name="uni00B3" unicode="&#xb3;" horiz-adv-x="216" 
d="M5 296v102q8 -1 21 -1q62 0 62 43q0 33 -76 68q57 36 57 53t-25 17l-39 -6v95q33 4 75 4q52 0 81 -24t29 -64q0 -16 -8 -31.5t-16 -23.5l-9 -8q5 -4 13.5 -11.5t22 -32.5t13.5 -51q0 -64 -49 -96.5t-122 -32.5h-30z" /><glyph glyph-name="acute" unicode="&#xb4;" horiz-adv-x="280" 
d="M135 516h-110l83 155h147z" /><glyph glyph-name="mu" unicode="&#xb5;" horiz-adv-x="490" 
d="M245 -2q-16 0 -30 3.5t-20 6.5l-6 4v-171h-159v597h182v-238q0 -40 33 -40t33 40v238h182v-438h-149v18q-22 -20 -66 -20z" /><glyph glyph-name="mu" unicode="&#x3bc;" horiz-adv-x="490" 
d="M245 -2q-16 0 -30 3.5t-20 6.5l-6 4v-171h-159v597h182v-238q0 -40 33 -40t33 40v238h182v-438h-149v18q-22 -20 -66 -20z" /><glyph glyph-name="paragraph" unicode="&#xb6;" horiz-adv-x="635" 
d="M281 339v148q-78 0 -78 -74t78 -74zM605 -193h-144v680h-37v-680h-143v352q-119 0 -192.5 68.5t-73.5 185.5t73.5 185.5t192.5 68.5h324v-860z" /><glyph glyph-name="periodcentered" unicode="&#xb7;" horiz-adv-x="274" 
d="M30 250v167h214v-167h-214z" /><glyph glyph-name="cedilla" unicode="&#xb8;" horiz-adv-x="311" 
d="M25 -248l20 77q36 -11 71 -11q27 0 43.5 10.5t16.5 29.5q0 36 -54 36l-42 -5l56 111h75l-24 -48q4 0 10.5 -0.5t24 -6t30.5 -14.5t23.5 -28.5t10.5 -45.5q0 -47 -36.5 -82t-118.5 -35q-26 0 -52.5 3t-40.5 6z" /><glyph glyph-name="uni00B9" unicode="&#xb9;" horiz-adv-x="174" 
d="M35 300v224l-50 58l81 85h88v-367h-119z" /><glyph glyph-name="ordmasculine" unicode="&#xba;" horiz-adv-x="505" 
d="M25 453q0 94 66.5 161t160.5 67t161 -66.5t67 -161.5q0 -94 -67 -160.5t-161 -66.5t-160.5 66.5t-66.5 160.5zM172 453q0 -33 23.5 -56.5t56.5 -23.5t56.5 23.5t23.5 56.5t-23.5 56.5t-56.5 23.5t-56.5 -23.5t-23.5 -56.5z" /><glyph glyph-name="guillemotright" unicode="&#xbb;" horiz-adv-x="530" 
d="M310 227l-132 -227h-168l122 227l-122 226h168zM530 227l-132 -227h-168l122 227l-122 226h168z" /><glyph glyph-name="onequarter" unicode="&#xbc;" horiz-adv-x="519" 
d="M40 300v224l-50 58l81 85h88v-367h-119zM58 0l265 667h114l-265 -667h-114zM239 109l160 258h93v-246h22v-70h-22v-51h-104v51h-149v58zM388 223l-63 -102h63v102z" /><glyph glyph-name="onehalf" unicode="&#xbd;" horiz-adv-x="548" 
d="M40 300v224l-50 58l81 85h88v-367h-119zM293 0l92 176q19 37 19 54q0 37 -45 37l-23 -2v102q26 5 52 5q60 0 102 -27.5t42 -86.5q0 -27 -11.5 -55.5t-43.5 -91.5l-8 -15h69l-31 -96h-214zM58 0l265 667h114l-265 -667h-114z" /><glyph glyph-name="threequarters" unicode="&#xbe;" horiz-adv-x="539" 
d="M78 0l265 667h114l-265 -667h-114zM10 296v102q8 -1 21 -1q62 0 62 43q0 33 -76 68q57 36 57 53t-25 17l-39 -6v95q33 4 75 4q52 0 81 -24t29 -64q0 -16 -8.5 -31.5t-16.5 -23.5l-8 -8q5 -4 13.5 -11.5t22 -32.5t13.5 -51q0 -64 -49 -96.5t-122 -32.5h-30zM259 109
l160 258h93v-246h22v-70h-22v-51h-104v51h-149v58zM408 223l-63 -102h63v102z" /><glyph glyph-name="questiondown" unicode="&#xbf;" horiz-adv-x="382" 
d="M340 470q0 -43 -14 -81.5t-31 -61t-31 -46.5t-14 -42q0 -34 25.5 -46.5t70.5 -12.5h21v-186q-54 -10 -102 -10q-113 0 -181.5 56t-68.5 149q0 39 17.5 79.5t38.5 69t38.5 65t17.5 67.5h213zM340 667v-167h-214v167h214z" /><glyph glyph-name="Agrave" unicode="&#xc0;" 
d="M-20 0l253 667h160l253 -667h-210l-22 60h-202l-22 -60h-210zM268 207h90l-45 117zM368 706h-110l-120 155h147z" /><glyph glyph-name="Aacute" unicode="&#xc1;" 
d="M-20 0l253 667h160l253 -667h-210l-22 60h-202l-22 -60h-210zM268 207h90l-45 117zM368 706h-110l83 155h147z" /><glyph glyph-name="Acircumflex" unicode="&#xc2;" 
d="M-20 0l253 667h160l253 -667h-210l-22 60h-202l-22 -60h-210zM268 207h90l-45 117zM156 706l83 155h146l83 -155h-114l-42 71l-42 -71h-114z" /><glyph glyph-name="Atilde" unicode="&#xc3;" 
d="M-20 0l253 667h160l253 -667h-210l-22 60h-202l-22 -60h-210zM268 207h90l-45 117zM238 706h-85q0 134 104 134q28 0 64.5 -16t42.5 -16q23 0 23 32h85q0 -134 -104 -134q-28 0 -64.5 15.5t-42.5 15.5q-23 0 -23 -31z" /><glyph glyph-name="Adieresis" unicode="&#xc4;" 
d="M-20 0l253 667h160l253 -667h-210l-22 60h-202l-22 -60h-210zM268 207h90l-45 117zM163 706v121h128v-121h-128zM335 706v121h128v-121h-128z" /><glyph glyph-name="Aring" unicode="&#xc5;" 
d="M-20 0l253 667h160l253 -667h-210l-22 60h-202l-22 -60h-210zM268 207h90l-45 117zM186 816q0 53 37 90t89 37t89.5 -37.5t37.5 -89.5t-37 -89t-90 -37q-52 0 -89 37t-37 89zM268 816q0 -19 12.5 -31.5t31.5 -12.5t32 12.5t13 31.5t-13 32t-32 13t-31.5 -13t-12.5 -32z
" /><glyph glyph-name="AE" unicode="&#xc6;" horiz-adv-x="879" 
d="M268 207h90l-45 117zM-20 0l253 667h160l61 -162v162h393v-175h-180v-74h177v-166h-177v-77h187v-175h-418l-22 60h-202l-22 -60h-210z" /><glyph glyph-name="Ccedilla" unicode="&#xc7;" horiz-adv-x="614" 
d="M20 333q0 156 102.5 253t249.5 97q42 0 82.5 -7.5t68 -17.5t49 -20.5t32.5 -17.5l10 -8l-105 -185q-6 5 -16 12.5t-43.5 20.5t-69.5 13q-61 0 -102.5 -41t-41.5 -99t43 -99t106 -41q38 0 71.5 13t47.5 26l15 13l105 -185q-4 -3 -10.5 -8t-30 -18t-49 -23t-66 -18.5
t-82.5 -9.5l-15 -31q4 0 10.5 -0.5t24 -6t30.5 -14.5t23.5 -28.5t10.5 -45.5q0 -47 -36.5 -82t-118.5 -35q-26 0 -52.5 3t-40.5 6l-13 3l20 77q36 -11 71 -11q27 0 43.5 10.5t16.5 29.5q0 36 -54 36l-42 -5l50 99q-132 20 -213 114t-81 231z" /><glyph glyph-name="Egrave" unicode="&#xc8;" horiz-adv-x="460" 
d="M35 0v667h393v-175h-180v-74h177v-166h-177v-77h187v-175h-400zM295 706h-110l-120 155h147z" /><glyph glyph-name="Eacute" unicode="&#xc9;" horiz-adv-x="460" 
d="M35 0v667h393v-175h-180v-74h177v-166h-177v-77h187v-175h-400zM275 706h-110l83 155h147z" /><glyph glyph-name="Ecircumflex" unicode="&#xca;" horiz-adv-x="460" 
d="M35 0v667h393v-175h-180v-74h177v-166h-177v-77h187v-175h-400zM73 706l83 155h146l83 -155h-114l-42 71l-42 -71h-114z" /><glyph glyph-name="Edieresis" unicode="&#xcb;" horiz-adv-x="460" 
d="M35 0v667h393v-175h-180v-74h177v-166h-177v-77h187v-175h-400zM80 706v121h128v-121h-128zM252 706v121h128v-121h-128z" /><glyph glyph-name="Igrave" unicode="&#xcc;" horiz-adv-x="296" 
d="M35 0v667h226v-667h-226zM223 706h-110l-120 155h147z" /><glyph glyph-name="Iacute" unicode="&#xcd;" horiz-adv-x="296" 
d="M35 0v667h226v-667h-226zM183 706h-110l83 155h147z" /><glyph glyph-name="Icircumflex" unicode="&#xce;" horiz-adv-x="296" 
d="M35 0v667h226v-667h-226zM-8 706l83 155h146l83 -155h-114l-42 71l-42 -71h-114z" /><glyph glyph-name="Idieresis" unicode="&#xcf;" horiz-adv-x="296" 
d="M35 0v667h226v-667h-226zM-2 706v121h128v-121h-128zM170 706v121h128v-121h-128z" /><glyph glyph-name="Eth" unicode="&#xd0;" horiz-adv-x="635" 
d="M220 0h-185v266h-35v155h35v246h185q190 0 292.5 -85t102.5 -248t-103 -248.5t-292 -85.5zM248 266v-76q157 0 157 144q0 143 -157 143v-56h92v-155h-92z" /><glyph glyph-name="Ntilde" unicode="&#xd1;" horiz-adv-x="638" 
d="M35 0v667h175l184 -257v257h209v-667h-176l-183 256v-256h-209zM244 706h-85q0 134 104 134q28 0 64.5 -16t42.5 -16q23 0 23 32h85q0 -134 -104 -134q-28 0 -64.5 15.5t-42.5 15.5q-23 0 -23 -31z" /><glyph glyph-name="Ograve" unicode="&#xd2;" horiz-adv-x="740" 
d="M20 333q0 145 102.5 247.5t247.5 102.5t247.5 -102.5t102.5 -247.5t-102.5 -247.5t-247.5 -102.5t-247.5 102.5t-102.5 247.5zM230 333q0 -58 41 -99t99 -41t99 41t41 99t-41 99t-99 41t-99 -41t-41 -99zM445 706h-110l-120 155h147z" /><glyph glyph-name="Oacute" unicode="&#xd3;" horiz-adv-x="740" 
d="M20 333q0 145 102.5 247.5t247.5 102.5t247.5 -102.5t102.5 -247.5t-102.5 -247.5t-247.5 -102.5t-247.5 102.5t-102.5 247.5zM230 333q0 -58 41 -99t99 -41t99 41t41 99t-41 99t-99 41t-99 -41t-41 -99zM405 706h-110l83 155h147z" /><glyph glyph-name="Ocircumflex" unicode="&#xd4;" horiz-adv-x="740" 
d="M20 333q0 145 102.5 247.5t247.5 102.5t247.5 -102.5t102.5 -247.5t-102.5 -247.5t-247.5 -102.5t-247.5 102.5t-102.5 247.5zM230 333q0 -58 41 -99t99 -41t99 41t41 99t-41 99t-99 41t-99 -41t-41 -99zM213 706l83 155h146l83 -155h-114l-42 71l-42 -71h-114z" /><glyph glyph-name="Otilde" unicode="&#xd5;" horiz-adv-x="740" 
d="M20 333q0 145 102.5 247.5t247.5 102.5t247.5 -102.5t102.5 -247.5t-102.5 -247.5t-247.5 -102.5t-247.5 102.5t-102.5 247.5zM230 333q0 -58 41 -99t99 -41t99 41t41 99t-41 99t-99 41t-99 -41t-41 -99zM295 706h-85q0 134 104 134q28 0 64.5 -16t42.5 -16q23 0 23 32
h85q0 -134 -104 -134q-28 0 -64.5 15.5t-42.5 15.5q-23 0 -23 -31z" /><glyph glyph-name="Odieresis" unicode="&#xd6;" horiz-adv-x="740" 
d="M20 333q0 145 102.5 247.5t247.5 102.5t247.5 -102.5t102.5 -247.5t-102.5 -247.5t-247.5 -102.5t-247.5 102.5t-102.5 247.5zM230 333q0 -58 41 -99t99 -41t99 41t41 99t-41 99t-99 41t-99 -41t-41 -99zM220 706v121h128v-121h-128zM392 706v121h128v-121h-128z" /><glyph glyph-name="multiply" unicode="&#xd7;" horiz-adv-x="456" 
d="M10 170l101 100l-101 100l118 118l100 -101l100 101l118 -118l-101 -100l101 -100l-118 -118l-100 101l-100 -101z" /><glyph glyph-name="Oslash" unicode="&#xd8;" horiz-adv-x="740" 
d="M230 333q0 -58 41 -99t99 -41t99 41t41 99t-41 99t-99 41t-99 -41t-41 -99zM20 333q0 145 102.5 247.5t247.5 102.5q70 0 139 -29l51 56l165 -148l-51 -56q46 -81 46 -173q0 -145 -102.5 -247.5t-247.5 -102.5q-71 0 -140 29l-50 -55l-165 148l50 56q-45 79 -45 172z" /><glyph glyph-name="Ugrave" unicode="&#xd9;" horiz-adv-x="617" 
d="M308 -17q-130 0 -203 65.5t-73 194.5v424h213v-415q0 -72 63 -72t63 72v415h214v-424q0 -129 -73.5 -194.5t-203.5 -65.5zM383 706h-110l-120 155h147z" /><glyph glyph-name="Uacute" unicode="&#xda;" horiz-adv-x="617" 
d="M308 -17q-130 0 -203 65.5t-73 194.5v424h213v-415q0 -72 63 -72t63 72v415h214v-424q0 -129 -73.5 -194.5t-203.5 -65.5zM343 706h-110l83 155h147z" /><glyph glyph-name="Ucircumflex" unicode="&#xdb;" horiz-adv-x="617" 
d="M308 -17q-130 0 -203 65.5t-73 194.5v424h213v-415q0 -72 63 -72t63 72v415h214v-424q0 -129 -73.5 -194.5t-203.5 -65.5zM152 706l83 155h146l83 -155h-114l-42 71l-42 -71h-114z" /><glyph glyph-name="Udieresis" unicode="&#xdc;" horiz-adv-x="617" 
d="M308 -17q-130 0 -203 65.5t-73 194.5v424h213v-415q0 -72 63 -72t63 72v415h214v-424q0 -129 -73.5 -194.5t-203.5 -65.5zM158 706v121h128v-121h-128zM330 706v121h128v-121h-128z" /><glyph glyph-name="Yacute" unicode="&#xdd;" horiz-adv-x="587" 
d="M187 0v287l-207 380h237l77 -141l76 141h237l-207 -380v-287h-213zM328 706h-110l83 155h147z" /><glyph glyph-name="Thorn" unicode="&#xde;" horiz-adv-x="569" 
d="M248 407v-148h9q79 0 79 74t-79 74h-9zM35 0v667h213v-80q66 0 120 -14t96.5 -43.5t66 -79.5t23.5 -117t-23.5 -117t-66 -79.5t-96.5 -43.5t-120 -14v-79h-213z" /><glyph glyph-name="germandbls" unicode="&#xdf;" horiz-adv-x="895" 
d="M17 7v200q76 -22 143 -22q46 0 46 34q0 14 -19.5 31.5t-48 39t-56.5 48t-47.5 67t-19.5 86.5q0 91 62.5 141.5t158.5 50.5q29 0 62.5 -3.5t52.5 -6.5l19 -3v-187q-29 5 -57 5q-52 0 -52 -24q0 -9 18.5 -24.5t44.5 -37.5t52.5 -50t45 -69.5t18.5 -88.5q0 -94 -60.5 -152.5
t-181.5 -58.5q-44 0 -89 6t-69 12zM462 7v200q76 -22 143 -22q46 0 46 34q0 14 -19.5 31.5t-47.5 39t-56.5 48t-48 67t-19.5 86.5q0 91 62.5 141.5t158.5 50.5q29 0 62.5 -3.5t52.5 -6.5l19 -3v-187q-29 5 -57 5q-52 0 -52 -24q0 -9 18.5 -24.5t45 -37.5t52.5 -50
t44.5 -69.5t18.5 -88.5q0 -94 -60.5 -152.5t-181.5 -58.5q-44 0 -89 6t-68 12z" /><glyph glyph-name="agrave" unicode="&#xe0;" 
d="M-20 0l253 667h160l253 -667h-210l-22 60h-202l-22 -60h-210zM268 207h90l-45 117zM368 706h-110l-120 155h147z" /><glyph glyph-name="aacute" unicode="&#xe1;" 
d="M-20 0l253 667h160l253 -667h-210l-22 60h-202l-22 -60h-210zM268 207h90l-45 117zM368 706h-110l83 155h147z" /><glyph glyph-name="acircumflex" unicode="&#xe2;" 
d="M-20 0l253 667h160l253 -667h-210l-22 60h-202l-22 -60h-210zM268 207h90l-45 117zM156 706l83 155h146l83 -155h-114l-42 71l-42 -71h-114z" /><glyph glyph-name="atilde" unicode="&#xe3;" 
d="M-20 0l253 667h160l253 -667h-210l-22 60h-202l-22 -60h-210zM268 207h90l-45 117zM238 706h-85q0 134 104 134q28 0 64.5 -16t42.5 -16q23 0 23 32h85q0 -134 -104 -134q-28 0 -64.5 15.5t-42.5 15.5q-23 0 -23 -31z" /><glyph glyph-name="adieresis" unicode="&#xe4;" 
d="M-20 0l253 667h160l253 -667h-210l-22 60h-202l-22 -60h-210zM268 207h90l-45 117zM163 706v121h128v-121h-128zM335 706v121h128v-121h-128z" /><glyph glyph-name="aring" unicode="&#xe5;" 
d="M-20 0l253 667h160l253 -667h-210l-22 60h-202l-22 -60h-210zM268 207h90l-45 117zM186 816q0 53 37 90t89 37t89.5 -37.5t37.5 -89.5t-37 -89t-90 -37q-52 0 -89 37t-37 89zM268 816q0 -19 12.5 -31.5t31.5 -12.5t32 12.5t13 31.5t-13 32t-32 13t-31.5 -13t-12.5 -32z
" /><glyph glyph-name="ae" unicode="&#xe6;" horiz-adv-x="879" 
d="M268 207h90l-45 117zM-20 0l253 667h160l61 -162v162h393v-175h-180v-74h177v-166h-177v-77h187v-175h-418l-22 60h-202l-22 -60h-210z" /><glyph glyph-name="ccedilla" unicode="&#xe7;" horiz-adv-x="614" 
d="M20 333q0 156 102.5 253t249.5 97q42 0 82.5 -7.5t68 -17.5t49 -20.5t32.5 -17.5l10 -8l-105 -185q-6 5 -16 12.5t-43.5 20.5t-69.5 13q-61 0 -102.5 -41t-41.5 -99t43 -99t106 -41q38 0 71.5 13t47.5 26l15 13l105 -185q-4 -3 -10.5 -8t-30 -18t-49 -23t-66 -18.5
t-82.5 -9.5l-15 -31q4 0 10.5 -0.5t24 -6t30.5 -14.5t23.5 -28.5t10.5 -45.5q0 -47 -36.5 -82t-118.5 -35q-26 0 -52.5 3t-40.5 6l-13 3l20 77q36 -11 71 -11q27 0 43.5 10.5t16.5 29.5q0 36 -54 36l-42 -5l50 99q-132 20 -213 114t-81 231z" /><glyph glyph-name="egrave" unicode="&#xe8;" horiz-adv-x="460" 
d="M35 0v667h393v-175h-180v-74h177v-166h-177v-77h187v-175h-400zM295 706h-110l-120 155h147z" /><glyph glyph-name="eacute" unicode="&#xe9;" horiz-adv-x="460" 
d="M35 0v667h393v-175h-180v-74h177v-166h-177v-77h187v-175h-400zM275 706h-110l83 155h147z" /><glyph glyph-name="ecircumflex" unicode="&#xea;" horiz-adv-x="460" 
d="M35 0v667h393v-175h-180v-74h177v-166h-177v-77h187v-175h-400zM73 706l83 155h146l83 -155h-114l-42 71l-42 -71h-114z" /><glyph glyph-name="edieresis" unicode="&#xeb;" horiz-adv-x="460" 
d="M35 0v667h393v-175h-180v-74h177v-166h-177v-77h187v-175h-400zM80 706v121h128v-121h-128zM252 706v121h128v-121h-128z" /><glyph glyph-name="igrave" unicode="&#xec;" horiz-adv-x="296" 
d="M35 0v667h226v-667h-226zM223 706h-110l-120 155h147z" /><glyph glyph-name="iacute" unicode="&#xed;" horiz-adv-x="296" 
d="M35 0v667h226v-667h-226zM183 706h-110l83 155h147z" /><glyph glyph-name="icircumflex" unicode="&#xee;" horiz-adv-x="296" 
d="M35 0v667h226v-667h-226zM-8 706l83 155h146l83 -155h-114l-42 71l-42 -71h-114z" /><glyph glyph-name="idieresis" unicode="&#xef;" horiz-adv-x="296" 
d="M35 0v667h226v-667h-226zM-2 706v121h128v-121h-128zM170 706v121h128v-121h-128z" /><glyph glyph-name="eth" unicode="&#xf0;" horiz-adv-x="635" 
d="M220 0h-185v266h-35v155h35v246h185q190 0 292.5 -85t102.5 -248t-103 -248.5t-292 -85.5zM248 266v-76q157 0 157 144q0 143 -157 143v-56h92v-155h-92z" /><glyph glyph-name="ntilde" unicode="&#xf1;" horiz-adv-x="638" 
d="M35 0v667h175l184 -257v257h209v-667h-176l-183 256v-256h-209zM244 706h-85q0 134 104 134q28 0 64.5 -16t42.5 -16q23 0 23 32h85q0 -134 -104 -134q-28 0 -64.5 15.5t-42.5 15.5q-23 0 -23 -31z" /><glyph glyph-name="ograve" unicode="&#xf2;" horiz-adv-x="740" 
d="M20 333q0 145 102.5 247.5t247.5 102.5t247.5 -102.5t102.5 -247.5t-102.5 -247.5t-247.5 -102.5t-247.5 102.5t-102.5 247.5zM230 333q0 -58 41 -99t99 -41t99 41t41 99t-41 99t-99 41t-99 -41t-41 -99zM445 706h-110l-120 155h147z" /><glyph glyph-name="oacute" unicode="&#xf3;" horiz-adv-x="740" 
d="M20 333q0 145 102.5 247.5t247.5 102.5t247.5 -102.5t102.5 -247.5t-102.5 -247.5t-247.5 -102.5t-247.5 102.5t-102.5 247.5zM230 333q0 -58 41 -99t99 -41t99 41t41 99t-41 99t-99 41t-99 -41t-41 -99zM405 706h-110l83 155h147z" /><glyph glyph-name="ocircumflex" unicode="&#xf4;" horiz-adv-x="740" 
d="M20 333q0 145 102.5 247.5t247.5 102.5t247.5 -102.5t102.5 -247.5t-102.5 -247.5t-247.5 -102.5t-247.5 102.5t-102.5 247.5zM230 333q0 -58 41 -99t99 -41t99 41t41 99t-41 99t-99 41t-99 -41t-41 -99zM213 706l83 155h146l83 -155h-114l-42 71l-42 -71h-114z" /><glyph glyph-name="otilde" unicode="&#xf5;" horiz-adv-x="740" 
d="M20 333q0 145 102.5 247.5t247.5 102.5t247.5 -102.5t102.5 -247.5t-102.5 -247.5t-247.5 -102.5t-247.5 102.5t-102.5 247.5zM230 333q0 -58 41 -99t99 -41t99 41t41 99t-41 99t-99 41t-99 -41t-41 -99zM295 706h-85q0 134 104 134q28 0 64.5 -16t42.5 -16q23 0 23 32
h85q0 -134 -104 -134q-28 0 -64.5 15.5t-42.5 15.5q-23 0 -23 -31z" /><glyph glyph-name="odieresis" unicode="&#xf6;" horiz-adv-x="740" 
d="M20 333q0 145 102.5 247.5t247.5 102.5t247.5 -102.5t102.5 -247.5t-102.5 -247.5t-247.5 -102.5t-247.5 102.5t-102.5 247.5zM230 333q0 -58 41 -99t99 -41t99 41t41 99t-41 99t-99 41t-99 -41t-41 -99zM220 706v121h128v-121h-128zM392 706v121h128v-121h-128z" /><glyph glyph-name="divide" unicode="&#xf7;" horiz-adv-x="460" 
d="M440 187h-420v166h420v-166zM296 377h-132v122h132v-122zM164 163h132v-122h-132v122z" /><glyph glyph-name="oslash" unicode="&#xf8;" horiz-adv-x="740" 
d="M230 333q0 -58 41 -99t99 -41t99 41t41 99t-41 99t-99 41t-99 -41t-41 -99zM20 333q0 145 102.5 247.5t247.5 102.5q70 0 139 -29l51 56l165 -148l-51 -56q46 -81 46 -173q0 -145 -102.5 -247.5t-247.5 -102.5q-71 0 -140 29l-50 -55l-165 148l50 56q-45 79 -45 172z" /><glyph glyph-name="ugrave" unicode="&#xf9;" horiz-adv-x="617" 
d="M308 -17q-130 0 -203 65.5t-73 194.5v424h213v-415q0 -72 63 -72t63 72v415h214v-424q0 -129 -73.5 -194.5t-203.5 -65.5zM383 706h-110l-120 155h147z" /><glyph glyph-name="uacute" unicode="&#xfa;" horiz-adv-x="617" 
d="M308 -17q-130 0 -203 65.5t-73 194.5v424h213v-415q0 -72 63 -72t63 72v415h214v-424q0 -129 -73.5 -194.5t-203.5 -65.5zM343 706h-110l83 155h147z" /><glyph glyph-name="ucircumflex" unicode="&#xfb;" horiz-adv-x="617" 
d="M308 -17q-130 0 -203 65.5t-73 194.5v424h213v-415q0 -72 63 -72t63 72v415h214v-424q0 -129 -73.5 -194.5t-203.5 -65.5zM152 706l83 155h146l83 -155h-114l-42 71l-42 -71h-114z" /><glyph glyph-name="udieresis" unicode="&#xfc;" horiz-adv-x="617" 
d="M308 -17q-130 0 -203 65.5t-73 194.5v424h213v-415q0 -72 63 -72t63 72v415h214v-424q0 -129 -73.5 -194.5t-203.5 -65.5zM158 706v121h128v-121h-128zM330 706v121h128v-121h-128z" /><glyph glyph-name="yacute" unicode="&#xfd;" horiz-adv-x="587" 
d="M187 0v287l-207 380h237l77 -141l76 141h237l-207 -380v-287h-213zM328 706h-110l83 155h147z" /><glyph glyph-name="thorn" unicode="&#xfe;" horiz-adv-x="569" 
d="M248 407v-148h9q79 0 79 74t-79 74h-9zM35 0v667h213v-80q66 0 120 -14t96.5 -43.5t66 -79.5t23.5 -117t-23.5 -117t-66 -79.5t-96.5 -43.5t-120 -14v-79h-213z" /><glyph glyph-name="ydieresis" unicode="&#xff;" horiz-adv-x="587" 
d="M187 0v287l-207 380h237l77 -141l76 141h237l-207 -380v-287h-213zM143 706v121h128v-121h-128zM315 706v121h128v-121h-128z" /><glyph glyph-name="Amacron" unicode="&#x100;" 
d="M-20 0l253 667h160l253 -667h-210l-22 60h-202l-22 -60h-210zM268 207h90l-45 117zM173 706v91h280v-91h-280z" /><glyph glyph-name="amacron" unicode="&#x101;" 
d="M-20 0l253 667h160l253 -667h-210l-22 60h-202l-22 -60h-210zM268 207h90l-45 117zM173 706v91h280v-91h-280z" /><glyph glyph-name="Abreve" unicode="&#x102;" 
d="M-20 0l253 667h160l253 -667h-210l-22 60h-202l-22 -60h-210zM268 207h90l-45 117zM313 701q-73 0 -108.5 49.5t-35.5 101.5h90q0 -2 0.5 -5.5t3.5 -12.5t8.5 -16t16 -12.5t25.5 -5.5q23 0 36.5 13t15.5 26l2 13h90q0 -52 -35.5 -101.5t-108.5 -49.5z" /><glyph glyph-name="abreve" unicode="&#x103;" 
d="M-20 0l253 667h160l253 -667h-210l-22 60h-202l-22 -60h-210zM268 207h90l-45 117zM313 701q-73 0 -108.5 49.5t-35.5 101.5h90q0 -2 0.5 -5.5t3.5 -12.5t8.5 -16t16 -12.5t25.5 -5.5q23 0 36.5 13t15.5 26l2 13h90q0 -52 -35.5 -101.5t-108.5 -49.5z" /><glyph glyph-name="Aogonek" unicode="&#x104;" 
d="M626 -209q-19 -10 -64 -10q-68 0 -108.5 30.5t-40.5 81.5q0 72 75 107h-52l-22 60h-202l-22 -60h-210l253 667h160l253 -667h-70q-6 -3 -15.5 -9.5t-23.5 -27.5t-14 -45q0 -28 18.5 -43.5t48.5 -15.5q13 0 27 2zM268 207h90l-45 117z" /><glyph glyph-name="aogonek" unicode="&#x105;" 
d="M626 -209q-19 -10 -64 -10q-68 0 -108.5 30.5t-40.5 81.5q0 72 75 107h-52l-22 60h-202l-22 -60h-210l253 667h160l253 -667h-70q-6 -3 -15.5 -9.5t-23.5 -27.5t-14 -45q0 -28 18.5 -43.5t48.5 -15.5q13 0 27 2zM268 207h90l-45 117z" /><glyph glyph-name="Cacute" unicode="&#x106;" horiz-adv-x="614" 
d="M20 333q0 156 102.5 253t249.5 97q42 0 82.5 -7.5t68 -17.5t49 -20.5t32.5 -17.5l10 -8l-105 -185q-6 5 -16 12.5t-43.5 20.5t-69.5 13q-61 0 -102.5 -41t-41.5 -99t43 -99t106 -41q38 0 71.5 13t47.5 26l15 13l105 -185q-4 -3 -11 -8.5t-30.5 -18.5t-50 -23t-68 -18.5
t-84.5 -8.5q-157 0 -258.5 97.5t-101.5 252.5zM382 706h-110l83 155h147z" /><glyph glyph-name="cacute" unicode="&#x107;" horiz-adv-x="614" 
d="M20 333q0 156 102.5 253t249.5 97q42 0 82.5 -7.5t68 -17.5t49 -20.5t32.5 -17.5l10 -8l-105 -185q-6 5 -16 12.5t-43.5 20.5t-69.5 13q-61 0 -102.5 -41t-41.5 -99t43 -99t106 -41q38 0 71.5 13t47.5 26l15 13l105 -185q-4 -3 -11 -8.5t-30.5 -18.5t-50 -23t-68 -18.5
t-84.5 -8.5q-157 0 -258.5 97.5t-101.5 252.5zM382 706h-110l83 155h147z" /><glyph glyph-name="Ccircumflex" unicode="&#x108;" horiz-adv-x="614" 
d="M20 333q0 156 102.5 253t249.5 97q42 0 82.5 -7.5t68 -17.5t49 -20.5t32.5 -17.5l10 -8l-105 -185q-6 5 -16 12.5t-43.5 20.5t-69.5 13q-61 0 -102.5 -41t-41.5 -99t43 -99t106 -41q38 0 71.5 13t47.5 26l15 13l105 -185q-4 -3 -11 -8.5t-30.5 -18.5t-50 -23t-68 -18.5
t-84.5 -8.5q-157 0 -258.5 97.5t-101.5 252.5zM200 706l83 155h146l83 -155h-114l-42 71l-42 -71h-114z" /><glyph glyph-name="ccircumflex" unicode="&#x109;" horiz-adv-x="614" 
d="M20 333q0 156 102.5 253t249.5 97q42 0 82.5 -7.5t68 -17.5t49 -20.5t32.5 -17.5l10 -8l-105 -185q-6 5 -16 12.5t-43.5 20.5t-69.5 13q-61 0 -102.5 -41t-41.5 -99t43 -99t106 -41q38 0 71.5 13t47.5 26l15 13l105 -185q-4 -3 -11 -8.5t-30.5 -18.5t-50 -23t-68 -18.5
t-84.5 -8.5q-157 0 -258.5 97.5t-101.5 252.5zM200 706l83 155h146l83 -155h-114l-42 71l-42 -71h-114z" /><glyph glyph-name="Cdotaccent" unicode="&#x10a;" horiz-adv-x="614" 
d="M20 333q0 156 102.5 253t249.5 97q42 0 82.5 -7.5t68 -17.5t49 -20.5t32.5 -17.5l10 -8l-105 -185q-6 5 -16 12.5t-43.5 20.5t-69.5 13q-61 0 -102.5 -41t-41.5 -99t43 -99t106 -41q38 0 71.5 13t47.5 26l15 13l105 -185q-4 -3 -11 -8.5t-30.5 -18.5t-50 -23t-68 -18.5
t-84.5 -8.5q-157 0 -258.5 97.5t-101.5 252.5zM283 706v121h128v-121h-128z" /><glyph glyph-name="cdotaccent" unicode="&#x10b;" horiz-adv-x="614" 
d="M20 333q0 156 102.5 253t249.5 97q42 0 82.5 -7.5t68 -17.5t49 -20.5t32.5 -17.5l10 -8l-105 -185q-6 5 -16 12.5t-43.5 20.5t-69.5 13q-61 0 -102.5 -41t-41.5 -99t43 -99t106 -41q38 0 71.5 13t47.5 26l15 13l105 -185q-4 -3 -11 -8.5t-30.5 -18.5t-50 -23t-68 -18.5
t-84.5 -8.5q-157 0 -258.5 97.5t-101.5 252.5zM283 706v121h128v-121h-128z" /><glyph glyph-name="Ccaron" unicode="&#x10c;" horiz-adv-x="614" 
d="M20 333q0 156 102.5 253t249.5 97q42 0 82.5 -7.5t68 -17.5t49 -20.5t32.5 -17.5l10 -8l-105 -185q-6 5 -16 12.5t-43.5 20.5t-69.5 13q-61 0 -102.5 -41t-41.5 -99t43 -99t106 -41q38 0 71.5 13t47.5 26l15 13l105 -185q-4 -3 -11 -8.5t-30.5 -18.5t-50 -23t-68 -18.5
t-84.5 -8.5q-157 0 -258.5 97.5t-101.5 252.5zM273 706l-83 155h114l42 -71l42 71h114l-83 -155h-146z" /><glyph glyph-name="ccaron" unicode="&#x10d;" horiz-adv-x="614" 
d="M20 333q0 156 102.5 253t249.5 97q42 0 82.5 -7.5t68 -17.5t49 -20.5t32.5 -17.5l10 -8l-105 -185q-6 5 -16 12.5t-43.5 20.5t-69.5 13q-61 0 -102.5 -41t-41.5 -99t43 -99t106 -41q38 0 71.5 13t47.5 26l15 13l105 -185q-4 -3 -11 -8.5t-30.5 -18.5t-50 -23t-68 -18.5
t-84.5 -8.5q-157 0 -258.5 97.5t-101.5 252.5zM273 706l-83 155h114l42 -71l42 71h114l-83 -155h-146z" /><glyph glyph-name="Dcaron" unicode="&#x10e;" horiz-adv-x="635" 
d="M220 0h-185v667h185q190 0 292.5 -85t102.5 -248t-103 -248.5t-292 -85.5zM248 477v-287q157 0 157 144q0 143 -157 143zM244 706l-83 155h114l42 -71l42 71h114l-83 -155h-146z" /><glyph glyph-name="dcaron" unicode="&#x10f;" horiz-adv-x="635" 
d="M220 0h-185v667h185q190 0 292.5 -85t102.5 -248t-103 -248.5t-292 -85.5zM248 477v-287q157 0 157 144q0 143 -157 143zM244 706l-83 155h114l42 -71l42 71h114l-83 -155h-146z" /><glyph glyph-name="Dcroat" unicode="&#x110;" horiz-adv-x="635" 
d="M220 0h-185v266h-35v155h35v246h185q190 0 292.5 -85t102.5 -248t-103 -248.5t-292 -85.5zM248 266v-76q157 0 157 144q0 143 -157 143v-56h92v-155h-92z" /><glyph glyph-name="dcroat" unicode="&#x111;" horiz-adv-x="635" 
d="M220 0h-185v266h-35v155h35v246h185q190 0 292.5 -85t102.5 -248t-103 -248.5t-292 -85.5zM248 266v-76q157 0 157 144q0 143 -157 143v-56h92v-155h-92z" /><glyph glyph-name="Emacron" unicode="&#x112;" horiz-adv-x="460" 
d="M35 0v667h393v-175h-180v-74h177v-166h-177v-77h187v-175h-400zM90 706v91h280v-91h-280z" /><glyph glyph-name="emacron" unicode="&#x113;" horiz-adv-x="460" 
d="M35 0v667h393v-175h-180v-74h177v-166h-177v-77h187v-175h-400zM90 706v91h280v-91h-280z" /><glyph glyph-name="Ebreve" unicode="&#x114;" horiz-adv-x="460" 
d="M35 0v667h393v-175h-180v-74h177v-166h-177v-77h187v-175h-400zM230 701q-73 0 -108.5 49.5t-35.5 101.5h90q0 -2 0.5 -5.5t3.5 -12.5t8.5 -16t16 -12.5t25.5 -5.5q23 0 36.5 13t15.5 26l2 13h90q0 -52 -35.5 -101.5t-108.5 -49.5z" /><glyph glyph-name="ebreve" unicode="&#x115;" horiz-adv-x="460" 
d="M35 0v667h393v-175h-180v-74h177v-166h-177v-77h187v-175h-400zM230 701q-73 0 -108.5 49.5t-35.5 101.5h90q0 -2 0.5 -5.5t3.5 -12.5t8.5 -16t16 -12.5t25.5 -5.5q23 0 36.5 13t15.5 26l2 13h90q0 -52 -35.5 -101.5t-108.5 -49.5z" /><glyph glyph-name="Edotaccent" unicode="&#x116;" horiz-adv-x="460" 
d="M35 0v667h393v-175h-180v-74h177v-166h-177v-77h187v-175h-400zM166 706v121h128v-121h-128z" /><glyph glyph-name="edotaccent" unicode="&#x117;" horiz-adv-x="460" 
d="M35 0v667h393v-175h-180v-74h177v-166h-177v-77h187v-175h-400zM166 706v121h128v-121h-128z" /><glyph glyph-name="Eogonek" unicode="&#x118;" horiz-adv-x="460" 
d="M35 0v667h393v-175h-180v-74h177v-166h-177v-77h187v-175h-49q-6 -3 -15 -9t-24 -27.5t-15 -45.5q0 -28 18.5 -43.5t48.5 -15.5q13 0 27 2l9 -70q-19 -10 -64 -10q-68 0 -108.5 30.5t-40.5 81.5q0 72 75 107h-262z" /><glyph glyph-name="eogonek" unicode="&#x119;" horiz-adv-x="460" 
d="M35 0v667h393v-175h-180v-74h177v-166h-177v-77h187v-175h-49q-6 -3 -15 -9t-24 -27.5t-15 -45.5q0 -28 18.5 -43.5t48.5 -15.5q13 0 27 2l9 -70q-19 -10 -64 -10q-68 0 -108.5 30.5t-40.5 81.5q0 72 75 107h-262z" /><glyph glyph-name="Ecaron" unicode="&#x11a;" horiz-adv-x="460" 
d="M35 0v667h393v-175h-180v-74h177v-166h-177v-77h187v-175h-400zM156 706l-83 155h114l42 -71l42 71h114l-83 -155h-146z" /><glyph glyph-name="ecaron" unicode="&#x11b;" horiz-adv-x="460" 
d="M35 0v667h393v-175h-180v-74h177v-166h-177v-77h187v-175h-400zM156 706l-83 155h114l42 -71l42 71h114l-83 -155h-146z" /><glyph glyph-name="Gcircumflex" unicode="&#x11c;" horiz-adv-x="697" 
d="M581 612l-121 -172q-38 33 -98 33q-58 0 -95 -39.5t-37 -100.5q0 -60 41 -100t99 -40q67 0 110 54h-60v140h257v-222q-46 -83 -128 -132.5t-179 -49.5q-145 0 -247.5 101.5t-102.5 248.5q0 146 98 248t242 102q41 0 79 -7.5t63 -17.5t43.5 -20.5t26.5 -17.5zM202 706
l83 155h146l83 -155h-114l-42 71l-42 -71h-114z" /><glyph glyph-name="gcircumflex" unicode="&#x11d;" horiz-adv-x="697" 
d="M581 612l-121 -172q-38 33 -98 33q-58 0 -95 -39.5t-37 -100.5q0 -60 41 -100t99 -40q67 0 110 54h-60v140h257v-222q-46 -83 -128 -132.5t-179 -49.5q-145 0 -247.5 101.5t-102.5 248.5q0 146 98 248t242 102q41 0 79 -7.5t63 -17.5t43.5 -20.5t26.5 -17.5zM202 706
l83 155h146l83 -155h-114l-42 71l-42 -71h-114z" /><glyph glyph-name="Gbreve" unicode="&#x11e;" horiz-adv-x="697" 
d="M581 612l-121 -172q-38 33 -98 33q-58 0 -95 -39.5t-37 -100.5q0 -60 41 -100t99 -40q67 0 110 54h-60v140h257v-222q-46 -83 -128 -132.5t-179 -49.5q-145 0 -247.5 101.5t-102.5 248.5q0 146 98 248t242 102q41 0 79 -7.5t63 -17.5t43.5 -20.5t26.5 -17.5zM358 701
q-73 0 -108.5 49.5t-35.5 101.5h90q0 -2 0.5 -5.5t3.5 -12.5t8.5 -16t16 -12.5t25.5 -5.5q23 0 36.5 13t15.5 26l2 13h90q0 -52 -35.5 -101.5t-108.5 -49.5z" /><glyph glyph-name="gbreve" unicode="&#x11f;" horiz-adv-x="697" 
d="M581 612l-121 -172q-38 33 -98 33q-58 0 -95 -39.5t-37 -100.5q0 -60 41 -100t99 -40q67 0 110 54h-60v140h257v-222q-46 -83 -128 -132.5t-179 -49.5q-145 0 -247.5 101.5t-102.5 248.5q0 146 98 248t242 102q41 0 79 -7.5t63 -17.5t43.5 -20.5t26.5 -17.5zM358 701
q-73 0 -108.5 49.5t-35.5 101.5h90q0 -2 0.5 -5.5t3.5 -12.5t8.5 -16t16 -12.5t25.5 -5.5q23 0 36.5 13t15.5 26l2 13h90q0 -52 -35.5 -101.5t-108.5 -49.5z" /><glyph glyph-name="Gdotaccent" unicode="&#x120;" horiz-adv-x="697" 
d="M581 612l-121 -172q-38 33 -98 33q-58 0 -95 -39.5t-37 -100.5q0 -60 41 -100t99 -40q67 0 110 54h-60v140h257v-222q-46 -83 -128 -132.5t-179 -49.5q-145 0 -247.5 101.5t-102.5 248.5q0 146 98 248t242 102q41 0 79 -7.5t63 -17.5t43.5 -20.5t26.5 -17.5zM294 706v121
h128v-121h-128z" /><glyph glyph-name="gdotaccent" unicode="&#x121;" horiz-adv-x="697" 
d="M581 612l-121 -172q-38 33 -98 33q-58 0 -95 -39.5t-37 -100.5q0 -60 41 -100t99 -40q67 0 110 54h-60v140h257v-222q-46 -83 -128 -132.5t-179 -49.5q-145 0 -247.5 101.5t-102.5 248.5q0 146 98 248t242 102q41 0 79 -7.5t63 -17.5t43.5 -20.5t26.5 -17.5zM294 706v121
h128v-121h-128z" /><glyph glyph-name="uni0122" unicode="&#x122;" horiz-adv-x="697" 
d="M581 612l-121 -172q-38 33 -98 33q-58 0 -95 -39.5t-37 -100.5q0 -60 41 -100t99 -40q67 0 110 54h-60v140h257v-222q-46 -83 -128 -132.5t-179 -49.5q-145 0 -247.5 101.5t-102.5 248.5q0 146 98 248t242 102q41 0 79 -7.5t63 -17.5t43.5 -20.5t26.5 -17.5zM323 -196
h-110l83 155h147z" /><glyph glyph-name="uni0123" unicode="&#x123;" horiz-adv-x="697" 
d="M581 612l-121 -172q-38 33 -98 33q-58 0 -95 -39.5t-37 -100.5q0 -60 41 -100t99 -40q67 0 110 54h-60v140h257v-222q-46 -83 -128 -132.5t-179 -49.5q-145 0 -247.5 101.5t-102.5 248.5q0 146 98 248t242 102q41 0 79 -7.5t63 -17.5t43.5 -20.5t26.5 -17.5zM323 -196
h-110l83 155h147z" /><glyph glyph-name="Hcircumflex" unicode="&#x124;" horiz-adv-x="616" 
d="M35 0v667h213v-227h119v227h214v-667h-214v247h-119v-247h-213zM151 706l83 155h146l83 -155h-114l-42 71l-42 -71h-114z" /><glyph glyph-name="hcircumflex" unicode="&#x125;" horiz-adv-x="616" 
d="M35 0v667h213v-227h119v227h214v-667h-214v247h-119v-247h-213zM151 706l83 155h146l83 -155h-114l-42 71l-42 -71h-114z" /><glyph glyph-name="Hbar" unicode="&#x126;" horiz-adv-x="616" 
d="M35 0v498h-35v105h35v64h213v-64h119v64h214v-64h35v-105h-35v-498h-214v247h-119v-247h-213zM248 440h119v58h-119v-58z" /><glyph glyph-name="hbar" unicode="&#x127;" horiz-adv-x="616" 
d="M35 0v498h-35v105h35v64h213v-64h119v64h214v-64h35v-105h-35v-498h-214v247h-119v-247h-213zM248 440h119v58h-119v-58z" /><glyph glyph-name="Itilde" unicode="&#x128;" horiz-adv-x="296" 
d="M35 0v667h226v-667h-226zM74 706h-85q0 134 104 134q28 0 64.5 -16t42.5 -16q23 0 23 32h85q0 -134 -104 -134q-28 0 -64.5 15.5t-42.5 15.5q-23 0 -23 -31z" /><glyph glyph-name="itilde" unicode="&#x129;" horiz-adv-x="296" 
d="M35 0v667h226v-667h-226zM74 706h-85q0 134 104 134q28 0 64.5 -16t42.5 -16q23 0 23 32h85q0 -134 -104 -134q-28 0 -64.5 15.5t-42.5 15.5q-23 0 -23 -31z" /><glyph glyph-name="Imacron" unicode="&#x12a;" horiz-adv-x="296" 
d="M35 0v667h226v-667h-226zM8 706v91h280v-91h-280z" /><glyph glyph-name="imacron" unicode="&#x12b;" horiz-adv-x="296" 
d="M35 0v667h226v-667h-226zM8 706v91h280v-91h-280z" /><glyph glyph-name="Ibreve" unicode="&#x12c;" horiz-adv-x="296" 
d="M35 0v667h226v-667h-226zM148 701q-73 0 -108.5 49.5t-35.5 101.5h90q0 -2 0.5 -5.5t3.5 -12.5t8.5 -16t16 -12.5t25.5 -5.5q23 0 36.5 13t15.5 26l2 13h90q0 -52 -35.5 -101.5t-108.5 -49.5z" /><glyph glyph-name="ibreve" unicode="&#x12d;" horiz-adv-x="296" 
d="M35 0v667h226v-667h-226zM148 701q-73 0 -108.5 49.5t-35.5 101.5h90q0 -2 0.5 -5.5t3.5 -12.5t8.5 -16t16 -12.5t25.5 -5.5q23 0 36.5 13t15.5 26l2 13h90q0 -52 -35.5 -101.5t-108.5 -49.5z" /><glyph glyph-name="Iogonek" unicode="&#x12e;" horiz-adv-x="296" 
d="M35 0v667h226v-667h-59q-6 -3 -15 -9t-24 -27.5t-15 -45.5q0 -28 18.5 -43.5t48.5 -15.5q13 0 27 2l9 -70q-19 -10 -64 -10q-68 0 -108.5 30.5t-40.5 81.5q0 72 75 107h-78z" /><glyph glyph-name="iogonek" unicode="&#x12f;" horiz-adv-x="296" 
d="M35 0v667h226v-667h-59q-6 -3 -15 -9t-24 -27.5t-15 -45.5q0 -28 18.5 -43.5t48.5 -15.5q13 0 27 2l9 -70q-19 -10 -64 -10q-68 0 -108.5 30.5t-40.5 81.5q0 72 75 107h-78z" /><glyph glyph-name="Idotaccent" unicode="&#x130;" horiz-adv-x="296" 
d="M35 0v667h226v-667h-226zM84 706v121h128v-121h-128z" /><glyph glyph-name="dotlessi" unicode="&#x131;" horiz-adv-x="296" 
d="M35 0v667h226v-667h-226z" /><glyph glyph-name="IJ" unicode="&#x132;" horiz-adv-x="675" 
d="M35 0v667h226v-667h-226zM296 0v160h73q30 0 42 11.5t12 34.5v461h220v-498q0 -92 -42 -130.5t-136 -38.5h-169z" /><glyph glyph-name="ij" unicode="&#x133;" horiz-adv-x="675" 
d="M35 0v667h226v-667h-226zM296 0v160h73q30 0 42 11.5t12 34.5v461h219v-498q0 -92 -42 -130.5t-136 -38.5h-168z" /><glyph glyph-name="Jcircumflex" unicode="&#x134;" horiz-adv-x="379" 
d="M0 0v160h73q30 0 42 11.5t12 34.5v461h220v-498q0 -92 -42 -130.5t-136 -38.5h-169zM80 706l83 155h146l83 -155h-114l-42 71l-42 -71h-114z" /><glyph glyph-name="jcircumflex" unicode="&#x135;" horiz-adv-x="379" 
d="M0 0v160h73q30 0 42 11.5t12 34.5v461h219v-498q0 -92 -42 -130.5t-136 -38.5h-168zM80 706l83 155h146l83 -155h-114l-42 71l-42 -71h-114z" /><glyph glyph-name="uni0136" unicode="&#x136;" horiz-adv-x="635" 
d="M35 0v667h216v-154l126 154h261l-235 -305l247 -362h-257l-142 206v-206h-216zM312 -196h-110l83 155h147z" /><glyph glyph-name="uni0137" unicode="&#x137;" horiz-adv-x="635" 
d="M35 0v667h216v-154l126 154h261l-235 -305l247 -362h-257l-142 206v-206h-216zM312 -196h-110l83 155h147z" /><glyph glyph-name="kgreenlandic" unicode="&#x138;" horiz-adv-x="635" 
d="M35 0v667h216v-154l126 154h261l-235 -305l247 -362h-257l-142 206v-206h-216z" /><glyph glyph-name="Lacute" unicode="&#x139;" horiz-adv-x="441" 
d="M35 0v667h222v-492h184v-175h-406zM183 706h-110l83 155h147z" /><glyph glyph-name="lacute" unicode="&#x13a;" horiz-adv-x="441" 
d="M35 0v667h222v-492h184v-175h-406zM183 706h-110l83 155h147z" /><glyph glyph-name="uni013B" unicode="&#x13b;" horiz-adv-x="441" 
d="M35 0v667h222v-492h184v-175h-406zM205 -196h-110l83 155h147z" /><glyph glyph-name="uni013C" unicode="&#x13c;" horiz-adv-x="441" 
d="M35 0v667h222v-492h184v-175h-406zM205 -196h-110l83 155h147z" /><glyph glyph-name="Lcaron" unicode="&#x13d;" horiz-adv-x="556" 
d="M35 0v667h222v-492h184v-175h-406zM279 397l87 270h190l-107 -270h-170z" /><glyph glyph-name="lcaron" unicode="&#x13e;" horiz-adv-x="556" 
d="M35 0v667h222v-492h184v-175h-406zM279 397l87 270h190l-107 -270h-170z" /><glyph glyph-name="Ldot" unicode="&#x13f;" horiz-adv-x="528" 
d="M35 0v667h222v-492h184v-175h-406zM304 250v167h214v-167h-214z" /><glyph glyph-name="ldot" unicode="&#x140;" horiz-adv-x="528" 
d="M35 0v667h222v-492h184v-175h-406zM304 250v167h214v-167h-214z" /><glyph glyph-name="Lslash" unicode="&#x141;" horiz-adv-x="441" 
d="M-23 352l58 23v292h220v-203l75 30l58 -144l-133 -54v-121h186v-175h-406v208z" /><glyph glyph-name="lslash" unicode="&#x142;" horiz-adv-x="441" 
d="M-23 352l58 23v292h220v-203l75 30l58 -144l-133 -54v-121h186v-175h-406v208z" /><glyph glyph-name="Nacute" unicode="&#x143;" horiz-adv-x="638" 
d="M35 0v667h175l184 -257v257h209v-667h-176l-183 256v-256h-209zM354 706h-110l83 155h147z" /><glyph glyph-name="nacute" unicode="&#x144;" horiz-adv-x="638" 
d="M35 0v667h175l184 -257v257h209v-667h-176l-183 256v-256h-209zM354 706h-110l83 155h147z" /><glyph glyph-name="uni0145" unicode="&#x145;" horiz-adv-x="638" 
d="M35 0v667h175l184 -257v257h209v-667h-176l-183 256v-256h-209zM314 -196h-110l83 155h147z" /><glyph glyph-name="uni0146" unicode="&#x146;" horiz-adv-x="638" 
d="M35 0v667h175l184 -257v257h209v-667h-176l-183 256v-256h-209zM314 -196h-110l83 155h147z" /><glyph glyph-name="Ncaron" unicode="&#x147;" horiz-adv-x="638" 
d="M35 0v667h175l184 -257v257h209v-667h-176l-183 256v-256h-209zM245 706l-83 155h114l42 -71l42 71h114l-83 -155h-146z" /><glyph glyph-name="ncaron" unicode="&#x148;" horiz-adv-x="638" 
d="M35 0v667h175l184 -257v257h209v-667h-176l-183 256v-256h-209zM245 706l-83 155h114l42 -71l42 71h114l-83 -155h-146z" /><glyph glyph-name="napostrophe" unicode="&#x149;" horiz-adv-x="901" 
d="M0 397l87 270h190l-107 -270h-170zM298 0v667h175l184 -257v257h209v-667h-176l-183 256v-256h-209z" /><glyph glyph-name="Eng" unicode="&#x14a;" horiz-adv-x="638" 
d="M271 -194v160h69q30 0 42 11.5t12 34.5v34l-150 210v-256h-209v667h175l184 -257v257h209v-692q0 -92 -42 -130.5t-136 -38.5h-154z" /><glyph glyph-name="eng" unicode="&#x14b;" horiz-adv-x="638" 
d="M271 -194v160h69q30 0 42 11.5t12 34.5v34l-150 210v-256h-209v667h175l184 -257v257h209v-692q0 -92 -42 -130.5t-136 -38.5h-154z" /><glyph glyph-name="Omacron" unicode="&#x14c;" horiz-adv-x="740" 
d="M20 333q0 145 102.5 247.5t247.5 102.5t247.5 -102.5t102.5 -247.5t-102.5 -247.5t-247.5 -102.5t-247.5 102.5t-102.5 247.5zM230 333q0 -58 41 -99t99 -41t99 41t41 99t-41 99t-99 41t-99 -41t-41 -99zM230 706v91h280v-91h-280z" /><glyph glyph-name="omacron" unicode="&#x14d;" horiz-adv-x="740" 
d="M20 333q0 145 102.5 247.5t247.5 102.5t247.5 -102.5t102.5 -247.5t-102.5 -247.5t-247.5 -102.5t-247.5 102.5t-102.5 247.5zM230 333q0 -58 41 -99t99 -41t99 41t41 99t-41 99t-99 41t-99 -41t-41 -99zM230 706v91h280v-91h-280z" /><glyph glyph-name="Obreve" unicode="&#x14e;" horiz-adv-x="740" 
d="M20 333q0 145 102.5 247.5t247.5 102.5t247.5 -102.5t102.5 -247.5t-102.5 -247.5t-247.5 -102.5t-247.5 102.5t-102.5 247.5zM230 333q0 -58 41 -99t99 -41t99 41t41 99t-41 99t-99 41t-99 -41t-41 -99zM370 701q-73 0 -108.5 49.5t-35.5 101.5h90q0 -2 0.5 -5.5
t3.5 -12.5t8.5 -16t16 -12.5t25.5 -5.5q23 0 36.5 13t15.5 26l2 13h90q0 -52 -35.5 -101.5t-108.5 -49.5z" /><glyph glyph-name="obreve" unicode="&#x14f;" horiz-adv-x="740" 
d="M20 333q0 145 102.5 247.5t247.5 102.5t247.5 -102.5t102.5 -247.5t-102.5 -247.5t-247.5 -102.5t-247.5 102.5t-102.5 247.5zM230 333q0 -58 41 -99t99 -41t99 41t41 99t-41 99t-99 41t-99 -41t-41 -99zM370 701q-73 0 -108.5 49.5t-35.5 101.5h90q0 -2 0.5 -5.5
t3.5 -12.5t8.5 -16t16 -12.5t25.5 -5.5q23 0 36.5 13t15.5 26l2 13h90q0 -52 -35.5 -101.5t-108.5 -49.5z" /><glyph glyph-name="Ohungarumlaut" unicode="&#x150;" horiz-adv-x="740" 
d="M20 333q0 145 102.5 247.5t247.5 102.5t247.5 -102.5t102.5 -247.5t-102.5 -247.5t-247.5 -102.5t-247.5 102.5t-102.5 247.5zM230 333q0 -58 41 -99t99 -41t99 41t41 99t-41 99t-99 41t-99 -41t-41 -99zM331 706h-95l83 155h127zM489 706h-95l83 155h127z" /><glyph glyph-name="ohungarumlaut" unicode="&#x151;" horiz-adv-x="740" 
d="M20 333q0 145 102.5 247.5t247.5 102.5t247.5 -102.5t102.5 -247.5t-102.5 -247.5t-247.5 -102.5t-247.5 102.5t-102.5 247.5zM230 333q0 -58 41 -99t99 -41t99 41t41 99t-41 99t-99 41t-99 -41t-41 -99zM331 706h-95l83 155h127zM489 706h-95l83 155h127z" /><glyph glyph-name="OE" unicode="&#x152;" horiz-adv-x="1012" 
d="M230 333q0 -58 41 -99t99 -41t99 41t41 99t-41 99t-99 41t-99 -41t-41 -99zM587 0v58q-96 -75 -217 -75q-145 0 -247.5 102.5t-102.5 247.5t102.5 247.5t247.5 102.5q120 0 217 -76v60h393v-175h-180v-74h177v-166h-177v-77h187v-175h-400z" /><glyph glyph-name="oe" unicode="&#x153;" horiz-adv-x="1012" 
d="M230 333q0 -58 41 -99t99 -41t99 41t41 99t-41 99t-99 41t-99 -41t-41 -99zM587 0v58q-96 -75 -217 -75q-145 0 -247.5 102.5t-102.5 247.5t102.5 247.5t247.5 102.5q120 0 217 -76v60h393v-175h-180v-74h177v-166h-177v-77h187v-175h-400z" /><glyph glyph-name="Racute" unicode="&#x154;" horiz-adv-x="583" 
d="M35 0v667h230q132 0 215 -68.5t83 -191.5q0 -37 -9.5 -70t-22.5 -53.5t-26 -35.5t-23 -22l-9 -6l125 -220h-250l-100 169v-169h-213zM248 487v-148h11q41 0 66 18t25 56t-25 56t-66 18h-11zM326 706h-110l83 155h147z" /><glyph glyph-name="racute" unicode="&#x155;" horiz-adv-x="583" 
d="M35 0v667h230q132 0 215 -68.5t83 -191.5q0 -37 -9.5 -70t-22.5 -53.5t-26 -35.5t-23 -22l-9 -6l125 -220h-250l-100 169v-169h-213zM248 487v-148h11q41 0 66 18t25 56t-25 56t-66 18h-11zM326 706h-110l83 155h147z" /><glyph glyph-name="uni0156" unicode="&#x156;" horiz-adv-x="583" 
d="M35 0v667h230q132 0 215 -68.5t83 -191.5q0 -37 -9.5 -70t-22.5 -53.5t-26 -35.5t-23 -22l-9 -6l125 -220h-250l-100 169v-169h-213zM248 487v-148h11q41 0 66 18t25 56t-25 56t-66 18h-11zM286 -196h-110l83 155h147z" /><glyph glyph-name="uni0157" unicode="&#x157;" horiz-adv-x="583" 
d="M35 0v667h230q132 0 215 -68.5t83 -191.5q0 -37 -9.5 -70t-22.5 -53.5t-26 -35.5t-23 -22l-9 -6l125 -220h-250l-100 169v-169h-213zM248 487v-148h11q41 0 66 18t25 56t-25 56t-66 18h-11zM286 -196h-110l83 155h147z" /><glyph glyph-name="Rcaron" unicode="&#x158;" horiz-adv-x="583" 
d="M35 0v667h230q132 0 215 -68.5t83 -191.5q0 -37 -9.5 -70t-22.5 -53.5t-26 -35.5t-23 -22l-9 -6l125 -220h-250l-100 169v-169h-213zM248 487v-148h11q41 0 66 18t25 56t-25 56t-66 18h-11zM218 706l-83 155h114l42 -71l42 71h114l-83 -155h-146z" /><glyph glyph-name="rcaron" unicode="&#x159;" horiz-adv-x="583" 
d="M35 0v667h230q132 0 215 -68.5t83 -191.5q0 -37 -9.5 -70t-22.5 -53.5t-26 -35.5t-23 -22l-9 -6l125 -220h-250l-100 169v-169h-213zM248 487v-148h11q41 0 66 18t25 56t-25 56t-66 18h-11zM218 706l-83 155h114l42 -71l42 71h114l-83 -155h-146z" /><glyph glyph-name="Sacute" unicode="&#x15a;" horiz-adv-x="450" 
d="M17 7v200q76 -22 143 -22q46 0 46 34q0 14 -19.5 31.5t-48 39t-56.5 48t-47.5 67t-19.5 86.5q0 91 62.5 141.5t158.5 50.5q29 0 62.5 -3.5t52.5 -6.5l19 -3v-187q-29 5 -57 5q-52 0 -52 -24q0 -9 18.5 -24.5t44.5 -37.5t52.5 -50t45 -69.5t18.5 -88.5q0 -94 -60.5 -152.5
t-181.5 -58.5q-44 0 -89 6t-69 12zM260 706h-110l83 155h147z" /><glyph glyph-name="sacute" unicode="&#x15b;" horiz-adv-x="450" 
d="M17 7v200q76 -22 143 -22q46 0 46 34q0 14 -19.5 31.5t-48 39t-56.5 48t-47.5 67t-19.5 86.5q0 91 62.5 141.5t158.5 50.5q29 0 62.5 -3.5t52.5 -6.5l19 -3v-187q-29 5 -57 5q-52 0 -52 -24q0 -9 18.5 -24.5t44.5 -37.5t52.5 -50t45 -69.5t18.5 -88.5q0 -94 -60.5 -152.5
t-181.5 -58.5q-44 0 -89 6t-69 12zM260 706h-110l83 155h147z" /><glyph glyph-name="Scircumflex" unicode="&#x15c;" horiz-adv-x="450" 
d="M17 7v200q76 -22 143 -22q46 0 46 34q0 14 -19.5 31.5t-48 39t-56.5 48t-47.5 67t-19.5 86.5q0 91 62.5 141.5t158.5 50.5q29 0 62.5 -3.5t52.5 -6.5l19 -3v-187q-29 5 -57 5q-52 0 -52 -24q0 -9 18.5 -24.5t44.5 -37.5t52.5 -50t45 -69.5t18.5 -88.5q0 -94 -60.5 -152.5
t-181.5 -58.5q-44 0 -89 6t-69 12zM58 706l83 155h146l83 -155h-114l-42 71l-42 -71h-114z" /><glyph glyph-name="scircumflex" unicode="&#x15d;" horiz-adv-x="450" 
d="M17 7v200q76 -22 143 -22q46 0 46 34q0 14 -19.5 31.5t-48 39t-56.5 48t-47.5 67t-19.5 86.5q0 91 62.5 141.5t158.5 50.5q29 0 62.5 -3.5t52.5 -6.5l19 -3v-187q-29 5 -57 5q-52 0 -52 -24q0 -9 18.5 -24.5t44.5 -37.5t52.5 -50t45 -69.5t18.5 -88.5q0 -94 -60.5 -152.5
t-181.5 -58.5q-44 0 -89 6t-69 12zM58 706l83 155h146l83 -155h-114l-42 71l-42 -71h-114z" /><glyph glyph-name="Scedilla" unicode="&#x15e;" horiz-adv-x="450" 
d="M17 7v200q76 -22 143 -22q46 0 46 34q0 14 -19.5 31.5t-48 39t-56.5 48t-47.5 67t-19.5 86.5q0 91 62.5 141.5t158.5 50.5q29 0 62.5 -3.5t52.5 -6.5l19 -3v-187q-29 5 -57 5q-52 0 -52 -24q0 -9 18.5 -24.5t44.5 -37.5t52.5 -50t45 -69.5t18.5 -88.5q0 -82 -46.5 -138
t-140.5 -69l-17 -35q4 0 10.5 -0.5t24 -6t30.5 -14.5t23.5 -28.5t10.5 -45.5q0 -47 -36.5 -82t-118.5 -35q-26 0 -52.5 3t-39.5 6l-14 3l20 77q36 -11 71 -11q27 0 43.5 10.5t16.5 29.5q0 36 -54 36l-42 -5l47 94q-40 1 -79.5 7t-59.5 12z" /><glyph glyph-name="scedilla" unicode="&#x15f;" horiz-adv-x="450" 
d="M17 7v200q76 -22 143 -22q46 0 46 34q0 14 -19.5 31.5t-48 39t-56.5 48t-47.5 67t-19.5 86.5q0 91 62.5 141.5t158.5 50.5q29 0 62.5 -3.5t52.5 -6.5l19 -3v-187q-29 5 -57 5q-52 0 -52 -24q0 -9 18.5 -24.5t44.5 -37.5t52.5 -50t45 -69.5t18.5 -88.5q0 -82 -46.5 -138
t-140.5 -69l-17 -35q4 0 10.5 -0.5t24 -6t30.5 -14.5t23.5 -28.5t10.5 -45.5q0 -47 -36.5 -82t-118.5 -35q-26 0 -52.5 3t-39.5 6l-14 3l20 77q36 -11 71 -11q27 0 43.5 10.5t16.5 29.5q0 36 -54 36l-42 -5l47 94q-40 1 -79.5 7t-59.5 12z" /><glyph glyph-name="Scaron" unicode="&#x160;" horiz-adv-x="450" 
d="M17 7v200q76 -22 143 -22q46 0 46 34q0 14 -19.5 31.5t-48 39t-56.5 48t-47.5 67t-19.5 86.5q0 91 62.5 141.5t158.5 50.5q29 0 62.5 -3.5t52.5 -6.5l19 -3v-187q-29 5 -57 5q-52 0 -52 -24q0 -9 18.5 -24.5t44.5 -37.5t52.5 -50t45 -69.5t18.5 -88.5q0 -94 -60.5 -152.5
t-181.5 -58.5q-44 0 -89 6t-69 12zM141 706l-83 155h114l42 -71l42 71h114l-83 -155h-146z" /><glyph glyph-name="scaron" unicode="&#x161;" horiz-adv-x="450" 
d="M17 7v200q76 -22 143 -22q46 0 46 34q0 14 -19.5 31.5t-48 39t-56.5 48t-47.5 67t-19.5 86.5q0 91 62.5 141.5t158.5 50.5q29 0 62.5 -3.5t52.5 -6.5l19 -3v-187q-29 5 -57 5q-52 0 -52 -24q0 -9 18.5 -24.5t44.5 -37.5t52.5 -50t45 -69.5t18.5 -88.5q0 -94 -60.5 -152.5
t-181.5 -58.5q-44 0 -89 6t-69 12zM141 706l-83 155h114l42 -71l42 71h114l-83 -155h-146z" /><glyph glyph-name="uni0162" unicode="&#x162;" horiz-adv-x="466" 
d="M123 0v492h-123v175h466v-175h-123v-492h-69l-24 -48q4 0 10.5 -0.5t24 -6t30.5 -14.5t23.5 -28.5t10.5 -45.5q0 -47 -36.5 -82t-118.5 -35q-26 0 -52.5 3t-39.5 6l-14 3l20 77q36 -11 71 -11q27 0 43.5 10.5t16.5 29.5q0 36 -54 36l-42 -5l56 111h-76z" /><glyph glyph-name="uni0163" unicode="&#x163;" horiz-adv-x="466" 
d="M123 0v492h-123v175h466v-175h-123v-492h-69l-24 -48q4 0 10.5 -0.5t24 -6t30.5 -14.5t23.5 -28.5t10.5 -45.5q0 -47 -36.5 -82t-118.5 -35q-26 0 -52.5 3t-39.5 6l-14 3l20 77q36 -11 71 -11q27 0 43.5 10.5t16.5 29.5q0 36 -54 36l-42 -5l56 111h-76z" /><glyph glyph-name="Tcaron" unicode="&#x164;" horiz-adv-x="466" 
d="M123 0v492h-123v175h466v-175h-123v-492h-220zM159 706l-83 155h114l42 -71l42 71h114l-83 -155h-146z" /><glyph glyph-name="tcaron" unicode="&#x165;" horiz-adv-x="466" 
d="M123 0v492h-123v175h466v-175h-123v-492h-220zM159 706l-83 155h114l42 -71l42 71h114l-83 -155h-146z" /><glyph glyph-name="Tbar" unicode="&#x166;" horiz-adv-x="466" 
d="M123 0v246h-82v155h82v91h-123v175h466v-175h-123v-91h82v-155h-82v-246h-220z" /><glyph glyph-name="tbar" unicode="&#x167;" horiz-adv-x="466" 
d="M123 0v246h-82v155h82v91h-123v175h466v-175h-123v-91h82v-155h-82v-246h-220z" /><glyph glyph-name="Utilde" unicode="&#x168;" horiz-adv-x="617" 
d="M308 -17q-130 0 -203 65.5t-73 194.5v424h213v-415q0 -72 63 -72t63 72v415h214v-424q0 -129 -73.5 -194.5t-203.5 -65.5zM234 706h-85q0 134 104 134q28 0 64.5 -16t42.5 -16q23 0 23 32h85q0 -134 -104 -134q-28 0 -64.5 15.5t-42.5 15.5q-23 0 -23 -31z" /><glyph glyph-name="utilde" unicode="&#x169;" horiz-adv-x="617" 
d="M308 -17q-130 0 -203 65.5t-73 194.5v424h213v-415q0 -72 63 -72t63 72v415h214v-424q0 -129 -73.5 -194.5t-203.5 -65.5zM234 706h-85q0 134 104 134q28 0 64.5 -16t42.5 -16q23 0 23 32h85q0 -134 -104 -134q-28 0 -64.5 15.5t-42.5 15.5q-23 0 -23 -31z" /><glyph glyph-name="Umacron" unicode="&#x16a;" horiz-adv-x="617" 
d="M308 -17q-130 0 -203 65.5t-73 194.5v424h213v-415q0 -72 63 -72t63 72v415h214v-424q0 -129 -73.5 -194.5t-203.5 -65.5zM168 706v91h280v-91h-280z" /><glyph glyph-name="umacron" unicode="&#x16b;" horiz-adv-x="617" 
d="M308 -17q-130 0 -203 65.5t-73 194.5v424h213v-415q0 -72 63 -72t63 72v415h214v-424q0 -129 -73.5 -194.5t-203.5 -65.5zM168 706v91h280v-91h-280z" /><glyph glyph-name="Ubreve" unicode="&#x16c;" horiz-adv-x="617" 
d="M308 -17q-130 0 -203 65.5t-73 194.5v424h213v-415q0 -72 63 -72t63 72v415h214v-424q0 -129 -73.5 -194.5t-203.5 -65.5zM308 701q-73 0 -108.5 49.5t-35.5 101.5h90q0 -2 0.5 -5.5t3.5 -12.5t8.5 -16t16 -12.5t25.5 -5.5q23 0 36.5 13t15.5 26l2 13h90
q0 -52 -35.5 -101.5t-108.5 -49.5z" /><glyph glyph-name="ubreve" unicode="&#x16d;" horiz-adv-x="617" 
d="M308 -17q-130 0 -203 65.5t-73 194.5v424h213v-415q0 -72 63 -72t63 72v415h214v-424q0 -129 -73.5 -194.5t-203.5 -65.5zM308 701q-73 0 -108.5 49.5t-35.5 101.5h90q0 -2 0.5 -5.5t3.5 -12.5t8.5 -16t16 -12.5t25.5 -5.5q23 0 36.5 13t15.5 26l2 13h90
q0 -52 -35.5 -101.5t-108.5 -49.5z" /><glyph glyph-name="Uring" unicode="&#x16e;" horiz-adv-x="617" 
d="M308 -17q-130 0 -203 65.5t-73 194.5v424h213v-415q0 -72 63 -72t63 72v415h214v-424q0 -129 -73.5 -194.5t-203.5 -65.5zM182 816q0 53 37 90t89 37q53 0 90 -37.5t37 -89.5t-37 -89t-90 -37t-89.5 37t-36.5 89zM264 816q0 -19 12.5 -31.5t31.5 -12.5t32 12.5t13 31.5
t-13 32t-32 13t-31.5 -13t-12.5 -32z" /><glyph glyph-name="uring" unicode="&#x16f;" horiz-adv-x="617" 
d="M308 -17q-130 0 -203 65.5t-73 194.5v424h213v-415q0 -72 63 -72t63 72v415h214v-424q0 -129 -73.5 -194.5t-203.5 -65.5zM182 816q0 53 37 90t89 37t89.5 -37.5t37.5 -89.5t-37 -89t-90 -37q-52 0 -89 37t-37 89zM264 816q0 -19 12.5 -31.5t31.5 -12.5t32 12.5t13 31.5
t-13 32t-32 13t-31.5 -13t-12.5 -32z" /><glyph glyph-name="Uhungarumlaut" unicode="&#x170;" horiz-adv-x="617" 
d="M308 -17q-130 0 -203 65.5t-73 194.5v424h213v-415q0 -72 63 -72t63 72v415h214v-424q0 -129 -73.5 -194.5t-203.5 -65.5zM259 706h-95l83 155h127zM417 706h-95l83 155h127z" /><glyph glyph-name="uhungarumlaut" unicode="&#x171;" horiz-adv-x="617" 
d="M308 -17q-130 0 -203 65.5t-73 194.5v424h213v-415q0 -72 63 -72t63 72v415h214v-424q0 -129 -73.5 -194.5t-203.5 -65.5zM259 706h-95l83 155h127zM417 706h-95l83 155h127z" /><glyph glyph-name="Uogonek" unicode="&#x172;" horiz-adv-x="617" 
d="M308 -17q-130 0 -203 65.5t-73 194.5v424h213v-415q0 -72 63 -72t63 72v415h214v-424q0 -192 -160 -243q-6 -3 -15.5 -9.5t-23.5 -27.5t-14 -45q0 -28 18.5 -43.5t48.5 -15.5q13 0 27 2l9 -70q-19 -10 -64 -10q-68 0 -108.5 30.5t-40.5 81.5q0 54 46 90z" /><glyph glyph-name="uogonek" unicode="&#x173;" horiz-adv-x="617" 
d="M308 -17q-130 0 -203 65.5t-73 194.5v424h213v-415q0 -72 63 -72t63 72v415h214v-424q0 -192 -160 -243q-6 -3 -15.5 -9.5t-23.5 -27.5t-14 -45q0 -28 18.5 -43.5t48.5 -15.5q13 0 27 2l9 -70q-19 -10 -64 -10q-68 0 -108.5 30.5t-40.5 81.5q0 54 46 90z" /><glyph glyph-name="Wcircumflex" unicode="&#x174;" horiz-adv-x="866" 
d="M200 0l-220 667h226l77 -233l77 233h146l77 -233l77 233h226l-220 -667h-166l-67 202l-67 -202h-166zM276 706l83 155h146l83 -155h-114l-42 71l-42 -71h-114z" /><glyph glyph-name="wcircumflex" unicode="&#x175;" horiz-adv-x="866" 
d="M200 0l-220 667h226l77 -233l77 233h146l77 -233l77 233h226l-220 -667h-166l-67 202l-67 -202h-166zM276 706l83 155h146l83 -155h-114l-42 71l-42 -71h-114z" /><glyph glyph-name="Ycircumflex" unicode="&#x176;" horiz-adv-x="587" 
d="M187 0v287l-207 380h237l77 -141l76 141h237l-207 -380v-287h-213zM137 706l83 155h146l83 -155h-114l-42 71l-42 -71h-114z" /><glyph glyph-name="ycircumflex" unicode="&#x177;" horiz-adv-x="587" 
d="M187 0v287l-207 380h237l77 -141l76 141h237l-207 -380v-287h-213zM137 706l83 155h146l83 -155h-114l-42 71l-42 -71h-114z" /><glyph glyph-name="Ydieresis" unicode="&#x178;" horiz-adv-x="587" 
d="M187 0v287l-207 380h237l77 -141l76 141h237l-207 -380v-287h-213zM143 706v121h128v-121h-128zM315 706v121h128v-121h-128z" /><glyph glyph-name="Zacute" unicode="&#x179;" horiz-adv-x="518" 
d="M-20 0l232 492h-184l68 175h427l-232 -492h219l-67 -175h-463zM336 706h-110l83 155h147z" /><glyph glyph-name="zacute" unicode="&#x17a;" horiz-adv-x="518" 
d="M-20 0l232 492h-184l68 175h427l-232 -492h219l-67 -175h-463zM336 706h-110l83 155h147z" /><glyph glyph-name="Zdotaccent" unicode="&#x17b;" horiz-adv-x="518" 
d="M-20 0l232 492h-184l68 175h427l-232 -492h219l-67 -175h-463zM227 706v121h128v-121h-128z" /><glyph glyph-name="zdotaccent" unicode="&#x17c;" horiz-adv-x="518" 
d="M-20 0l232 492h-184l68 175h427l-232 -492h219l-67 -175h-463zM227 706v121h128v-121h-128z" /><glyph glyph-name="Zcaron" unicode="&#x17d;" horiz-adv-x="518" 
d="M-20 0l232 492h-184l68 175h427l-232 -492h219l-67 -175h-463zM208 706l-83 155h114l42 -71l42 71h114l-83 -155h-146z" /><glyph glyph-name="zcaron" unicode="&#x17e;" horiz-adv-x="518" 
d="M-20 0l232 492h-184l68 175h427l-232 -492h219l-67 -175h-463zM208 706l-83 155h114l42 -71l42 71h114l-83 -155h-146z" /><glyph glyph-name="florin" unicode="&#x192;" horiz-adv-x="461" 
d="M299 407h103l-23 -160h-102l-62 -440h-225l61 440h-34l23 160h35l9 69q12 95 74.5 151t170.5 56q33 0 67.5 -4t51.5 -8l18 -4l-27 -186q-36 7 -64 7q-18 0 -30.5 -2.5t-25.5 -15.5t-16 -36z" /><glyph glyph-name="Ohorn" unicode="&#x1a0;" horiz-adv-x="815" 
d="M20 333q0 145 102.5 247.5t247.5 102.5q106 0 193.5 -58.5t127.5 -153.5q60 16 60 75h-64v121h128v-102q0 -106 -112 -125q17 -53 17 -107q0 -145 -102.5 -247.5t-247.5 -102.5t-247.5 102.5t-102.5 247.5zM230 333q0 -58 41 -99t99 -41t99 41t41 99t-41 99t-99 41
t-99 -41t-41 -99z" /><glyph glyph-name="ohorn" unicode="&#x1a1;" horiz-adv-x="815" 
d="M20 333q0 145 102.5 247.5t247.5 102.5q106 0 193.5 -58.5t127.5 -153.5q60 16 60 75h-64v121h128v-102q0 -106 -112 -125q17 -53 17 -107q0 -145 -102.5 -247.5t-247.5 -102.5t-247.5 102.5t-102.5 247.5zM230 333q0 -58 41 -99t99 -41t99 41t41 99t-41 99t-99 41
t-99 -41t-41 -99z" /><glyph glyph-name="Uhorn" unicode="&#x1af;" horiz-adv-x="745" 
d="M308 -17q-130 0 -203 65.5t-73 194.5v424h213v-415q0 -72 63 -72t63 72v415h214v-200q42 0 69 19.5t27 59.5h-64v121h128v-102q0 -69 -46 -99t-114 -30v-193q0 -129 -73.5 -194.5t-203.5 -65.5z" /><glyph glyph-name="uhorn" unicode="&#x1b0;" horiz-adv-x="745" 
d="M308 -17q-130 0 -203 65.5t-73 194.5v424h213v-415q0 -72 63 -72t63 72v415h214v-200q42 0 69 19.5t27 59.5h-64v121h128v-102q0 -69 -46 -99t-114 -30v-193q0 -129 -73.5 -194.5t-203.5 -65.5z" /><glyph glyph-name="uni0218" unicode="&#x218;" horiz-adv-x="450" 
d="M17 7v200q76 -22 143 -22q46 0 46 34q0 14 -19.5 31.5t-48 39t-56.5 48t-47.5 67t-19.5 86.5q0 91 62.5 141.5t158.5 50.5q29 0 62.5 -3.5t52.5 -6.5l19 -3v-187q-29 5 -57 5q-52 0 -52 -24q0 -9 18.5 -24.5t44.5 -37.5t52.5 -50t45 -69.5t18.5 -88.5q0 -94 -60.5 -152.5
t-181.5 -58.5q-44 0 -89 6t-69 12zM179 -196h-110l83 155h147z" /><glyph glyph-name="uni0219" unicode="&#x219;" horiz-adv-x="450" 
d="M17 7v200q76 -22 143 -22q46 0 46 34q0 14 -19.5 31.5t-48 39t-56.5 48t-47.5 67t-19.5 86.5q0 91 62.5 141.5t158.5 50.5q29 0 62.5 -3.5t52.5 -6.5l19 -3v-187q-29 5 -57 5q-52 0 -52 -24q0 -9 18.5 -24.5t44.5 -37.5t52.5 -50t45 -69.5t18.5 -88.5q0 -94 -60.5 -152.5
t-181.5 -58.5q-44 0 -89 6t-69 12zM179 -196h-110l83 155h147z" /><glyph glyph-name="uni021A" unicode="&#x21a;" horiz-adv-x="466" 
d="M123 0v492h-123v175h466v-175h-123v-492h-220zM192 -196h-110l83 155h147z" /><glyph glyph-name="uni021B" unicode="&#x21b;" horiz-adv-x="466" 
d="M123 0v492h-123v175h466v-175h-123v-492h-220zM192 -196h-110l83 155h147z" /><glyph glyph-name="circumflex" unicode="&#x2c6;" horiz-adv-x="362" 
d="M25 516l83 155h146l83 -155h-114l-42 71l-42 -71h-114z" /><glyph glyph-name="caron" unicode="&#x2c7;" horiz-adv-x="362" 
d="M108 516l-83 155h114l42 -71l42 71h114l-83 -155h-146z" /><glyph glyph-name="uni02C9" unicode="&#x2c9;" horiz-adv-x="330" 
d="M25 516v91h280v-91h-280z" /><glyph glyph-name="breve" unicode="&#x2d8;" horiz-adv-x="338" 
d="M169 511q-73 0 -108.5 49.5t-35.5 101.5h90q0 -2 0.5 -5.5t3.5 -12.5t8.5 -16t16 -12.5t25.5 -5.5q23 0 36.5 13t15.5 26l2 13h90q0 -52 -35.5 -101.5t-108.5 -49.5z" /><glyph glyph-name="dotaccent" unicode="&#x2d9;" horiz-adv-x="178" 
d="M25 516v121h128v-121h-128z" /><glyph glyph-name="ring" unicode="&#x2da;" horiz-adv-x="303" 
d="M25 626q0 53 37 90t89 37q53 0 90 -37.5t37 -89.5t-37 -89t-90 -37t-89.5 37t-36.5 89zM107 626q0 -19 12.5 -31.5t31.5 -12.5t32 12.5t13 31.5t-13 32t-32 13t-31.5 -13t-12.5 -32z" /><glyph glyph-name="ogonek" unicode="&#x2db;" horiz-adv-x="263" 
d="M238 -209q-19 -10 -64 -10q-68 0 -108.5 30.5t-40.5 81.5q0 40 25 69t50 38l25 10l64 -10q-6 -3 -15 -9t-24 -27.5t-15 -45.5q0 -28 18.5 -43.5t48.5 -15.5q13 0 27 2z" /><glyph glyph-name="tilde" unicode="&#x2dc;" horiz-adv-x="369" 
d="M110 516h-85q0 134 104 134q28 0 64.5 -16t42.5 -16q23 0 23 32h85q0 -134 -104 -134q-28 0 -64.5 15.5t-42.5 15.5q-23 0 -23 -31z" /><glyph glyph-name="hungarumlaut" unicode="&#x2dd;" horiz-adv-x="418" 
d="M120 516h-95l83 155h127zM278 516h-95l83 155h127z" /><glyph glyph-name="gravecomb" unicode="&#x300;" horiz-adv-x="280" 
d="M255 798h-110l-120 109h147z" /><glyph glyph-name="acutecomb" unicode="&#x301;" horiz-adv-x="280" 
d="M135 798h-110l83 109h147z" /><glyph glyph-name="uni0302" unicode="&#x302;" horiz-adv-x="362" 
d="M25 802l83 109h146l83 -109h-114l-42 50l-42 -50h-114z" /><glyph glyph-name="tildecomb" unicode="&#x303;" horiz-adv-x="369" 
d="M110 802h-85q0 94 104 94q28 0 64.5 -11t42.5 -11q23 0 23 22h85q0 -94 -104 -94q-28 0 -64.5 11t-42.5 11q-23 0 -23 -22z" /><glyph glyph-name="uni0306" unicode="&#x306;" horiz-adv-x="338" 
d="M169 797q-74 0 -109 34.5t-35 70.5h80q1 -4 3.5 -10t18.5 -16t42 -10q16 0 28.5 3.5t19 9t10.5 11t5 8.5l1 4h80q0 -36 -35 -70.5t-109 -34.5z" /><glyph glyph-name="hookabovecomb" unicode="&#x309;" horiz-adv-x="249" 
d="M36 974l-16 61q38 10 77 10q67 0 99.5 -28.5t32.5 -65.5q0 -36 -26.5 -58t-68.5 -22v-24h-66v76q4 -1 22 -1q17 0 28 8t11 23q0 30 -42 30q-12 0 -25 -2.5t-20 -4.5z" /><glyph glyph-name="uni031B" unicode="&#x31b;" horiz-adv-x="207" 
d="M20 436v31h9q40 0 67 20t27 59h-64v121h128v-102q0 -69 -45.5 -99t-112.5 -30h-9z" /><glyph glyph-name="dotbelowcomb" unicode="&#x323;" horiz-adv-x="178" 
d="M25 -162v121h128v-121h-128z" /><glyph glyph-name="uni037E" unicode="&#x37e;" horiz-adv-x="274" 
d="M0 -103l67 270h190l-87 -270h-170zM43 270v167h214v-167h-214z" /><glyph glyph-name="Delta" unicode="&#x394;" horiz-adv-x="746" 
d="M30 0l279 667h128l279 -667h-686zM298 166h134l-67 162z" /><glyph glyph-name="Delta" unicode="&#x2206;" horiz-adv-x="746" 
d="M30 0l279 667h128l279 -667h-686zM298 166h134l-67 162z" /><glyph glyph-name="Omega" unicode="&#x3a9;" horiz-adv-x="738" 
d="M368 479q-59 0 -97.5 -41t-38.5 -112q0 -55 33.5 -100t86.5 -58v-168h-316v169h61q-3 3 -7.5 8.5t-16 23.5t-20.5 38.5t-16 52.5t-7 66q0 145 96 235t242 90t243 -90t97 -235q0 -34 -7 -65.5t-17 -53t-20.5 -38t-17.5 -24.5l-7 -8h61v-169h-316v168q53 13 86.5 58
t33.5 100q0 71 -38.5 112t-97.5 41z" /><glyph glyph-name="Omega" unicode="&#x2126;" horiz-adv-x="738" 
d="M368 479q-59 0 -97.5 -41t-38.5 -112q0 -55 33.5 -100t86.5 -58v-168h-316v169h61q-3 3 -7.5 8.5t-16 23.5t-20.5 38.5t-16 52.5t-7 66q0 145 96 235t242 90t243 -90t97 -235q0 -34 -7 -65.5t-17 -53t-20.5 -38t-17.5 -24.5l-7 -8h61v-169h-316v168q53 13 86.5 58
t33.5 100q0 71 -38.5 112t-97.5 41z" /><glyph glyph-name="pi" unicode="&#x3c0;" horiz-adv-x="570" 
d="M473 -12q-83 0 -123.5 34t-40.5 113v142h-48v-277h-182v277h-49v161h510v-161h-49v-127q0 -38 34 -38z" /><glyph glyph-name="uni1E02" unicode="&#x1e02;" horiz-adv-x="561" 
d="M35 0v667h261q103 0 164 -46.5t61 -133.5q0 -37 -12.5 -67.5t-24.5 -42.5l-13 -12q3 -2 8.5 -5.5t19.5 -17t24.5 -29.5t19 -44t8.5 -59q0 -97 -66 -153.5t-178 -56.5h-272zM241 157h24q76 0 76 58t-76 58h-24v-116zM315 464q0 46 -50 46h-24v-92h24q50 0 50 46zM192 706
v121h128v-121h-128z" /><glyph glyph-name="uni1E03" unicode="&#x1e03;" horiz-adv-x="561" 
d="M35 0v667h261q103 0 164 -46.5t61 -133.5q0 -37 -12.5 -67.5t-24.5 -42.5l-13 -12q3 -2 8.5 -5.5t19.5 -17t24.5 -29.5t19 -44t8.5 -59q0 -97 -66 -153.5t-178 -56.5h-272zM241 157h24q76 0 76 58t-76 58h-24v-116zM315 464q0 46 -50 46h-24v-92h24q50 0 50 46zM192 706
v121h128v-121h-128z" /><glyph glyph-name="uni1E0A" unicode="&#x1e0a;" horiz-adv-x="635" 
d="M220 0h-185v667h185q190 0 292.5 -85t102.5 -248t-103 -248.5t-292 -85.5zM248 477v-287q157 0 157 144q0 143 -157 143zM215 706v121h128v-121h-128z" /><glyph glyph-name="uni1E0B" unicode="&#x1e0b;" horiz-adv-x="635" 
d="M220 0h-185v667h185q190 0 292.5 -85t102.5 -248t-103 -248.5t-292 -85.5zM248 477v-287q157 0 157 144q0 143 -157 143zM215 706v121h128v-121h-128z" /><glyph glyph-name="uni1E1E" unicode="&#x1e1e;" horiz-adv-x="448" 
d="M35 0v667h393v-175h-180v-74h177v-166h-177v-252h-213zM168 706v121h128v-121h-128z" /><glyph glyph-name="uni1E1F" unicode="&#x1e1f;" horiz-adv-x="448" 
d="M35 0v667h393v-175h-180v-74h177v-166h-177v-252h-213zM168 706v121h128v-121h-128z" /><glyph glyph-name="uni1E22" unicode="&#x1e22;" horiz-adv-x="616" 
d="M35 0v667h213v-227h119v227h214v-667h-214v247h-119v-247h-213zM244 706v121h128v-121h-128z" /><glyph glyph-name="uni1E23" unicode="&#x1e23;" horiz-adv-x="616" 
d="M35 0v667h213v-227h119v227h214v-667h-214v247h-119v-247h-213zM244 706v121h128v-121h-128z" /><glyph glyph-name="uni1E40" unicode="&#x1e40;" horiz-adv-x="769" 
d="M35 0v667h176l174 -256l173 256h176v-667h-213v240l-136 -200l-137 200v-240h-213zM320 706v121h128v-121h-128z" /><glyph glyph-name="uni1E41" unicode="&#x1e41;" horiz-adv-x="769" 
d="M35 0v667h176l174 -256l173 256h176v-667h-213v240l-136 -200l-137 200v-240h-213zM320 706v121h128v-121h-128z" /><glyph glyph-name="uni1E56" unicode="&#x1e56;" horiz-adv-x="569" 
d="M554 413q0 -67 -23.5 -117t-66 -79.5t-96.5 -43.5t-120 -14v-159h-213v667h213q66 0 120 -14t96.5 -43.5t66 -79.5t23.5 -117zM248 487v-148h9q79 0 79 74t-79 74h-9zM206 706v121h128v-121h-128z" /><glyph glyph-name="uni1E57" unicode="&#x1e57;" horiz-adv-x="569" 
d="M554 413q0 -67 -23.5 -117t-66 -79.5t-96.5 -43.5t-120 -14v-159h-213v667h213q66 0 120 -14t96.5 -43.5t66 -79.5t23.5 -117zM248 487v-148h9q79 0 79 74t-79 74h-9zM206 706v121h128v-121h-128z" /><glyph glyph-name="uni1E60" unicode="&#x1e60;" horiz-adv-x="450" 
d="M17 7v200q76 -22 143 -22q46 0 46 34q0 14 -19.5 31.5t-48 39t-56.5 48t-47.5 67t-19.5 86.5q0 91 62.5 141.5t158.5 50.5q29 0 62.5 -3.5t52.5 -6.5l19 -3v-187q-29 5 -57 5q-52 0 -52 -24q0 -9 18.5 -24.5t44.5 -37.5t52.5 -50t45 -69.5t18.5 -88.5q0 -94 -60.5 -152.5
t-181.5 -58.5q-44 0 -89 6t-69 12zM149 706v121h128v-121h-128z" /><glyph glyph-name="uni1E61" unicode="&#x1e61;" horiz-adv-x="450" 
d="M17 7v200q76 -22 143 -22q46 0 46 34q0 14 -19.5 31.5t-48 39t-56.5 48t-47.5 67t-19.5 86.5q0 91 62.5 141.5t158.5 50.5q29 0 62.5 -3.5t52.5 -6.5l19 -3v-187q-29 5 -57 5q-52 0 -52 -24q0 -9 18.5 -24.5t44.5 -37.5t52.5 -50t45 -69.5t18.5 -88.5q0 -94 -60.5 -152.5
t-181.5 -58.5q-44 0 -89 6t-69 12zM149 706v121h128v-121h-128z" /><glyph glyph-name="uni1E6A" unicode="&#x1e6a;" horiz-adv-x="466" 
d="M123 0v492h-123v175h466v-175h-123v-492h-220zM169 706v121h128v-121h-128z" /><glyph glyph-name="uni1E6B" unicode="&#x1e6b;" horiz-adv-x="466" 
d="M123 0v492h-123v175h466v-175h-123v-492h-220zM169 706v121h128v-121h-128z" /><glyph glyph-name="Wgrave" unicode="&#x1e80;" horiz-adv-x="866" 
d="M200 0l-220 667h226l77 -233l77 233h146l77 -233l77 233h226l-220 -667h-166l-67 202l-67 -202h-166zM502 706h-110l-120 155h147z" /><glyph glyph-name="wgrave" unicode="&#x1e81;" horiz-adv-x="866" 
d="M200 0l-220 667h226l77 -233l77 233h146l77 -233l77 233h226l-220 -667h-166l-67 202l-67 -202h-166zM502 706h-110l-120 155h147z" /><glyph glyph-name="Wacute" unicode="&#x1e82;" horiz-adv-x="866" 
d="M200 0l-220 667h226l77 -233l77 233h146l77 -233l77 233h226l-220 -667h-166l-67 202l-67 -202h-166zM485 706h-110l83 155h147z" /><glyph glyph-name="wacute" unicode="&#x1e83;" horiz-adv-x="866" 
d="M200 0l-220 667h226l77 -233l77 233h146l77 -233l77 233h226l-220 -667h-166l-67 202l-67 -202h-166zM485 706h-110l83 155h147z" /><glyph glyph-name="Wdieresis" unicode="&#x1e84;" horiz-adv-x="866" 
d="M200 0l-220 667h226l77 -233l77 233h146l77 -233l77 233h226l-220 -667h-166l-67 202l-67 -202h-166zM283 706v121h128v-121h-128zM455 706v121h128v-121h-128z" /><glyph glyph-name="wdieresis" unicode="&#x1e85;" horiz-adv-x="866" 
d="M200 0l-220 667h226l77 -233l77 233h146l77 -233l77 233h226l-220 -667h-166l-67 202l-67 -202h-166zM283 706v121h128v-121h-128zM455 706v121h128v-121h-128z" /><glyph glyph-name="uni1EA0" unicode="&#x1ea0;" 
d="M249 -162v121h128v-121h-128zM-20 0l253 667h160l253 -667h-210l-22 60h-202l-22 -60h-210zM268 207h90l-45 117z" /><glyph glyph-name="uni1EA1" unicode="&#x1ea1;" 
d="M249 -162v121h128v-121h-128zM-20 0l253 667h160l253 -667h-210l-22 60h-202l-22 -60h-210zM268 207h90l-45 117z" /><glyph glyph-name="uni1EA2" unicode="&#x1ea2;" 
d="M-20 0l253 667h160l253 -667h-210l-22 60h-202l-22 -60h-210zM268 207h90l-45 117zM247 820l-16 61q38 10 77 10q67 0 99.5 -28.5t32.5 -65.5q0 -36 -26.5 -58t-68.5 -22v-24h-66v76q4 -1 22 -1q17 0 28 8t11 23q0 30 -42 30q-12 0 -25 -2.5t-19 -4.5z" /><glyph glyph-name="uni1EA3" unicode="&#x1ea3;" 
d="M-20 0l253 667h160l253 -667h-210l-22 60h-202l-22 -60h-210zM268 207h90l-45 117zM247 820l-16 61q38 10 77 10q67 0 99.5 -28.5t32.5 -65.5q0 -36 -26.5 -58t-68.5 -22v-24h-66v76q4 -1 22 -1q17 0 28 8t11 23q0 30 -42 30q-12 0 -25 -2.5t-19 -4.5z" /><glyph glyph-name="uni1EA4" unicode="&#x1ea4;" 
d="M-20 0l253 667h160l253 -667h-210l-22 60h-202l-22 -60h-210zM268 207h90l-45 117zM156 706l83 155h146l83 -155h-114l-42 71l-42 -71h-114zM571 746h-110l83 155h147z" /><glyph glyph-name="uni1EA5" unicode="&#x1ea5;" 
d="M-20 0l253 667h160l253 -667h-210l-22 60h-202l-22 -60h-210zM268 207h90l-45 117zM156 706l83 155h146l83 -155h-114l-42 71l-42 -71h-114zM571 746h-110l83 155h147z" /><glyph glyph-name="uni1EA6" unicode="&#x1ea6;" 
d="M-20 0l253 667h160l253 -667h-210l-22 60h-202l-22 -60h-210zM268 207h90l-45 117zM156 706l83 155h146l83 -155h-114l-42 71l-42 -71h-114zM164 746h-110l-120 155h147z" /><glyph glyph-name="uni1EA7" unicode="&#x1ea7;" 
d="M-20 0l253 667h160l253 -667h-210l-22 60h-202l-22 -60h-210zM268 207h90l-45 117zM156 706l83 155h146l83 -155h-114l-42 71l-42 -71h-114zM164 746h-110l-120 155h147z" /><glyph glyph-name="uni1EA8" unicode="&#x1ea8;" 
d="M-20 0l253 667h160l253 -667h-210l-22 60h-202l-22 -60h-210zM268 207h90l-45 117zM156 706l83 155h146l83 -155h-114l-42 71l-42 -71h-114zM434 870l-16 61q38 10 77 10q67 0 99.5 -28.5t32.5 -65.5q0 -36 -26.5 -58t-68.5 -22v-24h-66v76q4 -1 22 -1q17 0 28 8t11 23
q0 30 -42 30q-12 0 -25 -2.5t-20 -4.5z" /><glyph glyph-name="uni1EA9" unicode="&#x1ea9;" 
d="M-20 0l253 667h160l253 -667h-210l-22 60h-202l-22 -60h-210zM268 207h90l-45 117zM156 706l83 155h146l83 -155h-114l-42 71l-42 -71h-114zM434 870l-16 61q38 10 77 10q67 0 99.5 -28.5t32.5 -65.5q0 -36 -26.5 -58t-68.5 -22v-24h-66v76q4 -1 22 -1q17 0 28 8t11 23
q0 30 -42 30q-12 0 -25 -2.5t-20 -4.5z" /><glyph glyph-name="uni1EAA" unicode="&#x1eaa;" 
d="M-20 0l253 667h160l253 -667h-210l-22 60h-202l-22 -60h-210zM268 207h90l-45 117zM156 683l83 109h146l83 -109h-114l-42 50l-42 -50h-114zM239 807h-85q0 94 104 94q28 0 64.5 -11t42.5 -11q23 0 23 22h85q0 -94 -104 -94q-28 0 -64.5 11t-42.5 11q-23 0 -23 -22z" /><glyph glyph-name="uni1EAB" unicode="&#x1eab;" 
d="M-20 0l253 667h160l253 -667h-210l-22 60h-202l-22 -60h-210zM268 207h90l-45 117zM156 683l83 109h146l83 -109h-114l-42 50l-42 -50h-114zM239 807h-85q0 94 104 94q28 0 64.5 -11t42.5 -11q23 0 23 22h85q0 -94 -104 -94q-28 0 -64.5 11t-42.5 11q-23 0 -23 -22z" /><glyph glyph-name="uni1EAC" unicode="&#x1eac;" 
d="M-20 0l253 667h160l253 -667h-210l-22 60h-202l-22 -60h-210zM268 207h90l-45 117zM156 706l83 155h146l83 -155h-114l-42 71l-42 -71h-114zM249 -162v121h128v-121h-128z" /><glyph glyph-name="uni1EAD" unicode="&#x1ead;" 
d="M-20 0l253 667h160l253 -667h-210l-22 60h-202l-22 -60h-210zM268 207h90l-45 117zM156 706l83 155h146l83 -155h-114l-42 71l-42 -71h-114zM249 -162v121h128v-121h-128z" /><glyph glyph-name="uni1EAE" unicode="&#x1eae;" 
d="M313 683q-74 0 -109 34.5t-35 70.5h90q0 -1 0.5 -3.5t3.5 -9t8.5 -11t16 -8.5t25.5 -4q23 0 36.5 9t15.5 18l2 9h90q0 -36 -35 -70.5t-109 -34.5zM368 798h-110l83 109h147zM-20 0l253 667h160l253 -667h-210l-22 60h-202l-22 -60h-210zM268 207h90l-45 117z" /><glyph glyph-name="uni1EAF" unicode="&#x1eaf;" 
d="M313 683q-74 0 -109 34.5t-35 70.5h90q0 -1 0.5 -3.5t3.5 -9t8.5 -11t16 -8.5t25.5 -4q23 0 36.5 9t15.5 18l2 9h90q0 -36 -35 -70.5t-109 -34.5zM368 798h-110l83 109h147zM-20 0l253 667h160l253 -667h-210l-22 60h-202l-22 -60h-210zM268 207h90l-45 117z" /><glyph glyph-name="uni1EB0" unicode="&#x1eb0;" 
d="M370 798h-110l-120 109h147zM313 683q-74 0 -109 34.5t-35 70.5h90q0 -1 0.5 -3.5t3.5 -9t8.5 -11t16 -8.5t25.5 -4q23 0 36.5 9t15.5 18l2 9h90q0 -36 -35 -70.5t-109 -34.5zM-20 0l253 667h160l253 -667h-210l-22 60h-202l-22 -60h-210zM268 207h90l-45 117z" /><glyph glyph-name="uni1EB1" unicode="&#x1eb1;" 
d="M370 798h-110l-120 109h147zM313 683q-74 0 -109 34.5t-35 70.5h90q0 -1 0.5 -3.5t3.5 -9t8.5 -11t16 -8.5t25.5 -4q23 0 36.5 9t15.5 18l2 9h90q0 -36 -35 -70.5t-109 -34.5zM-20 0l253 667h160l253 -667h-210l-22 60h-202l-22 -60h-210zM268 207h90l-45 117z" /><glyph glyph-name="uni1EB2" unicode="&#x1eb2;" 
d="M313 683q-74 0 -109 34.5t-35 70.5h90q0 -1 0.5 -3.5t3.5 -9t8.5 -11t16 -8.5t25.5 -4q23 0 36.5 9t15.5 18l2 9h90q0 -36 -35 -70.5t-109 -34.5zM247 875l-16 42q38 7 77 7q67 0 99.5 -19.5t32.5 -45.5q0 -25 -26.5 -40.5t-68.5 -15.5v-17h-66v53q4 -1 22 -1q39 0 39 22
q0 21 -42 21zM-20 0l253 667h160l253 -667h-210l-22 60h-202l-22 -60h-210zM268 207h90l-45 117z" /><glyph glyph-name="uni1EB3" unicode="&#x1eb3;" 
d="M313 683q-74 0 -109 34.5t-35 70.5h90q0 -1 0.5 -3.5t3.5 -9t8.5 -11t16 -8.5t25.5 -4q23 0 36.5 9t15.5 18l2 9h90q0 -36 -35 -70.5t-109 -34.5zM247 875l-16 42q38 7 77 7q67 0 99.5 -19.5t32.5 -45.5q0 -25 -26.5 -40.5t-68.5 -15.5v-17h-66v53q4 -1 22 -1q39 0 39 22
q0 21 -42 21zM-20 0l253 667h160l253 -667h-210l-22 60h-202l-22 -60h-210zM268 207h90l-45 117z" /><glyph glyph-name="uni1EB4" unicode="&#x1eb4;" 
d="M254 802h-85q0 94 104 94q28 0 64.5 -11t42.5 -11q23 0 23 22h85q0 -94 -104 -94q-28 0 -64.5 11t-42.5 11q-23 0 -23 -22zM313 683q-74 0 -109 34.5t-35 70.5h90q0 -1 0.5 -3.5t3.5 -9t8.5 -11t16 -8.5t25.5 -4q23 0 36.5 9t15.5 18l2 9h90q0 -36 -35 -70.5t-109 -34.5z
M-20 0l253 667h160l253 -667h-210l-22 60h-202l-22 -60h-210zM268 207h90l-45 117z" /><glyph glyph-name="uni1EB5" unicode="&#x1eb5;" 
d="M254 802h-85q0 94 104 94q28 0 64.5 -11t42.5 -11q23 0 23 22h85q0 -94 -104 -94q-28 0 -64.5 11t-42.5 11q-23 0 -23 -22zM313 683q-74 0 -109 34.5t-35 70.5h90q0 -1 0.5 -3.5t3.5 -9t8.5 -11t16 -8.5t25.5 -4q23 0 36.5 9t15.5 18l2 9h90q0 -36 -35 -70.5t-109 -34.5z
M-20 0l253 667h160l253 -667h-210l-22 60h-202l-22 -60h-210zM268 207h90l-45 117z" /><glyph glyph-name="uni1EB6" unicode="&#x1eb6;" 
d="M313 701q-73 0 -108.5 49.5t-35.5 101.5h90q0 -2 0.5 -5.5t3.5 -12.5t8.5 -16t16 -12.5t25.5 -5.5q23 0 36.5 13t15.5 26l2 13h90q0 -52 -35.5 -101.5t-108.5 -49.5zM249 -162v121h128v-121h-128zM-20 0l253 667h160l253 -667h-210l-22 60h-202l-22 -60h-210zM268 207h90
l-45 117z" /><glyph glyph-name="uni1EB7" unicode="&#x1eb7;" 
d="M313 701q-73 0 -108.5 49.5t-35.5 101.5h90q0 -2 0.5 -5.5t3.5 -12.5t8.5 -16t16 -12.5t25.5 -5.5q23 0 36.5 13t15.5 26l2 13h90q0 -52 -35.5 -101.5t-108.5 -49.5zM249 -162v121h128v-121h-128zM-20 0l253 667h160l253 -667h-210l-22 60h-202l-22 -60h-210zM268 207h90
l-45 117z" /><glyph glyph-name="uni1EB8" unicode="&#x1eb8;" horiz-adv-x="460" 
d="M35 0v667h393v-175h-180v-74h177v-166h-177v-77h187v-175h-400zM165 -162v121h128v-121h-128z" /><glyph glyph-name="uni1EB9" unicode="&#x1eb9;" horiz-adv-x="460" 
d="M35 0v667h393v-175h-180v-74h177v-166h-177v-77h187v-175h-400zM165 -162v121h128v-121h-128z" /><glyph glyph-name="uni1EBA" unicode="&#x1eba;" horiz-adv-x="460" 
d="M35 0v667h393v-175h-180v-74h177v-166h-177v-77h187v-175h-400zM149 820l-16 61q38 10 77 10q67 0 99.5 -28.5t32.5 -65.5q0 -36 -26.5 -58t-68.5 -22v-24h-66v76q4 -1 22 -1q17 0 28 8t11 23q0 30 -42 30q-12 0 -25 -2.5t-19 -4.5z" /><glyph glyph-name="uni1EBB" unicode="&#x1ebb;" horiz-adv-x="460" 
d="M35 0v667h393v-175h-180v-74h177v-166h-177v-77h187v-175h-400zM149 820l-16 61q38 10 77 10q67 0 99.5 -28.5t32.5 -65.5q0 -36 -26.5 -58t-68.5 -22v-24h-66v76q4 -1 22 -1q17 0 28 8t11 23q0 30 -42 30q-12 0 -25 -2.5t-19 -4.5z" /><glyph glyph-name="uni1EBC" unicode="&#x1ebc;" horiz-adv-x="460" 
d="M35 0v667h393v-175h-180v-74h177v-166h-177v-77h187v-175h-400zM159 706h-85q0 134 104 134q28 0 64.5 -16t42.5 -16q23 0 23 32h85q0 -134 -104 -134q-28 0 -64.5 15.5t-42.5 15.5q-23 0 -23 -31z" /><glyph glyph-name="uni1EBD" unicode="&#x1ebd;" horiz-adv-x="460" 
d="M35 0v667h393v-175h-180v-74h177v-166h-177v-77h187v-175h-400zM159 706h-85q0 134 104 134q28 0 64.5 -16t42.5 -16q23 0 23 32h85q0 -134 -104 -134q-28 0 -64.5 15.5t-42.5 15.5q-23 0 -23 -31z" /><glyph glyph-name="uni1EBE" unicode="&#x1ebe;" horiz-adv-x="460" 
d="M35 0v667h393v-175h-180v-74h177v-166h-177v-77h187v-175h-400zM73 706l83 155h146l83 -155h-114l-42 71l-42 -71h-114zM488 746h-110l83 155h147z" /><glyph glyph-name="uni1EBF" unicode="&#x1ebf;" horiz-adv-x="460" 
d="M35 0v667h393v-175h-180v-74h177v-166h-177v-77h187v-175h-400zM73 706l83 155h146l83 -155h-114l-42 71l-42 -71h-114zM488 746h-110l83 155h147z" /><glyph glyph-name="uni1EC0" unicode="&#x1ec0;" horiz-adv-x="460" 
d="M35 0v667h393v-175h-180v-74h177v-166h-177v-77h187v-175h-400zM73 706l83 155h146l83 -155h-114l-42 71l-42 -71h-114zM81 746h-110l-120 155h147z" /><glyph glyph-name="uni1EC1" unicode="&#x1ec1;" horiz-adv-x="460" 
d="M35 0v667h393v-175h-180v-74h177v-166h-177v-77h187v-175h-400zM73 706l83 155h146l83 -155h-114l-42 71l-42 -71h-114zM81 746h-110l-120 155h147z" /><glyph glyph-name="uni1EC2" unicode="&#x1ec2;" horiz-adv-x="460" 
d="M35 0v667h393v-175h-180v-74h177v-166h-177v-77h187v-175h-400zM156 706l-83 155h114l42 -71l42 71h114l-83 -155h-146zM361 870l-16 61q38 10 77 10q67 0 99.5 -28.5t32.5 -65.5q0 -36 -26.5 -58t-68.5 -22v-24h-66v76q4 -1 22 -1q17 0 28 8t11 23q0 30 -42 30
q-12 0 -25 -2.5t-19 -4.5z" /><glyph glyph-name="uni1EC3" unicode="&#x1ec3;" horiz-adv-x="460" 
d="M35 0v667h393v-175h-180v-74h177v-166h-177v-77h187v-175h-400zM156 706l-83 155h114l42 -71l42 71h114l-83 -155h-146zM361 870l-16 61q38 10 77 10q67 0 99.5 -28.5t32.5 -65.5q0 -36 -26.5 -58t-68.5 -22v-24h-66v76q4 -1 22 -1q17 0 28 8t11 23q0 30 -42 30
q-12 0 -25 -2.5t-19 -4.5z" /><glyph glyph-name="uni1EC4" unicode="&#x1ec4;" horiz-adv-x="460" 
d="M35 0v667h393v-175h-180v-74h177v-166h-177v-77h187v-175h-400zM73 683l83 109h146l83 -109h-114l-42 50l-42 -50h-114zM156 807h-85q0 94 104 94q28 0 64.5 -11t42.5 -11q23 0 23 22h85q0 -94 -104 -94q-28 0 -64.5 11t-42.5 11q-23 0 -23 -22z" /><glyph glyph-name="uni1EC5" unicode="&#x1ec5;" horiz-adv-x="460" 
d="M35 0v667h393v-175h-180v-74h177v-166h-177v-77h187v-175h-400zM73 683l83 109h146l83 -109h-114l-42 50l-42 -50h-114zM156 807h-85q0 94 104 94q28 0 64.5 -11t42.5 -11q23 0 23 22h85q0 -94 -104 -94q-28 0 -64.5 11t-42.5 11q-23 0 -23 -22z" /><glyph glyph-name="uni1EC6" unicode="&#x1ec6;" horiz-adv-x="460" 
d="M35 0v667h393v-175h-180v-74h177v-166h-177v-77h187v-175h-400zM73 706l83 155h146l83 -155h-114l-42 71l-42 -71h-114zM165 -162v121h128v-121h-128z" /><glyph glyph-name="uni1EC7" unicode="&#x1ec7;" horiz-adv-x="460" 
d="M35 0v667h393v-175h-180v-74h177v-166h-177v-77h187v-175h-400zM73 706l83 155h146l83 -155h-114l-42 71l-42 -71h-114zM165 -162v121h128v-121h-128z" /><glyph glyph-name="uni1EC8" unicode="&#x1ec8;" horiz-adv-x="296" 
d="M35 0v667h226v-667h-226zM82 820l-16 61q38 10 77 10q67 0 99.5 -28.5t32.5 -65.5q0 -36 -26.5 -58t-68.5 -22v-24h-66v76q4 -1 22 -1q17 0 28 8t11 23q0 30 -42 30q-12 0 -25 -2.5t-20 -4.5z" /><glyph glyph-name="uni1EC9" unicode="&#x1ec9;" horiz-adv-x="296" 
d="M35 0v667h226v-667h-226zM82 820l-16 61q38 10 77 10q67 0 99.5 -28.5t32.5 -65.5q0 -36 -26.5 -58t-68.5 -22v-24h-66v76q4 -1 22 -1q17 0 28 8t11 23q0 30 -42 30q-12 0 -25 -2.5t-20 -4.5z" /><glyph glyph-name="uni1ECA" unicode="&#x1eca;" horiz-adv-x="296" 
d="M35 0v667h226v-667h-226zM84 -162v121h128v-121h-128z" /><glyph glyph-name="uni1ECB" unicode="&#x1ecb;" horiz-adv-x="296" 
d="M35 0v667h226v-667h-226zM84 -162v121h128v-121h-128z" /><glyph glyph-name="uni1ECC" unicode="&#x1ecc;" horiz-adv-x="740" 
d="M20 333q0 145 102.5 247.5t247.5 102.5t247.5 -102.5t102.5 -247.5t-102.5 -247.5t-247.5 -102.5t-247.5 102.5t-102.5 247.5zM230 333q0 -58 41 -99t99 -41t99 41t41 99t-41 99t-99 41t-99 -41t-41 -99zM306 -162v121h128v-121h-128z" /><glyph glyph-name="uni1ECD" unicode="&#x1ecd;" horiz-adv-x="740" 
d="M20 333q0 145 102.5 247.5t247.5 102.5t247.5 -102.5t102.5 -247.5t-102.5 -247.5t-247.5 -102.5t-247.5 102.5t-102.5 247.5zM230 333q0 -58 41 -99t99 -41t99 41t41 99t-41 99t-99 41t-99 -41t-41 -99zM306 -162v121h128v-121h-128z" /><glyph glyph-name="uni1ECE" unicode="&#x1ece;" horiz-adv-x="740" 
d="M20 333q0 145 102.5 247.5t247.5 102.5t247.5 -102.5t102.5 -247.5t-102.5 -247.5t-247.5 -102.5t-247.5 102.5t-102.5 247.5zM230 333q0 -58 41 -99t99 -41t99 41t41 99t-41 99t-99 41t-99 -41t-41 -99zM308 820l-16 61q38 10 77 10q67 0 99.5 -28.5t32.5 -65.5
q0 -36 -26.5 -58t-68.5 -22v-24h-66v76q4 -1 22 -1q17 0 28 8t11 23q0 30 -42 30q-12 0 -25 -2.5t-20 -4.5z" /><glyph glyph-name="uni1ECF" unicode="&#x1ecf;" horiz-adv-x="740" 
d="M20 333q0 145 102.5 247.5t247.5 102.5t247.5 -102.5t102.5 -247.5t-102.5 -247.5t-247.5 -102.5t-247.5 102.5t-102.5 247.5zM230 333q0 -58 41 -99t99 -41t99 41t41 99t-41 99t-99 41t-99 -41t-41 -99zM308 820l-16 61q38 10 77 10q67 0 99.5 -28.5t32.5 -65.5
q0 -36 -26.5 -58t-68.5 -22v-24h-66v76q4 -1 22 -1q17 0 28 8t11 23q0 30 -42 30q-12 0 -25 -2.5t-20 -4.5z" /><glyph glyph-name="uni1ED0" unicode="&#x1ed0;" horiz-adv-x="740" 
d="M20 333q0 145 102.5 247.5t247.5 102.5t247.5 -102.5t102.5 -247.5t-102.5 -247.5t-247.5 -102.5t-247.5 102.5t-102.5 247.5zM230 333q0 -58 41 -99t99 -41t99 41t41 99t-41 99t-99 41t-99 -41t-41 -99zM213 706l83 155h146l83 -155h-114l-42 71l-42 -71h-114zM628 746
h-110l83 155h147z" /><glyph glyph-name="uni1ED1" unicode="&#x1ed1;" horiz-adv-x="740" 
d="M20 333q0 145 102.5 247.5t247.5 102.5t247.5 -102.5t102.5 -247.5t-102.5 -247.5t-247.5 -102.5t-247.5 102.5t-102.5 247.5zM230 333q0 -58 41 -99t99 -41t99 41t41 99t-41 99t-99 41t-99 -41t-41 -99zM213 706l83 155h146l83 -155h-114l-42 71l-42 -71h-114zM628 746
h-110l83 155h147z" /><glyph glyph-name="uni1ED2" unicode="&#x1ed2;" horiz-adv-x="740" 
d="M20 333q0 145 102.5 247.5t247.5 102.5t247.5 -102.5t102.5 -247.5t-102.5 -247.5t-247.5 -102.5t-247.5 102.5t-102.5 247.5zM230 333q0 -58 41 -99t99 -41t99 41t41 99t-41 99t-99 41t-99 -41t-41 -99zM213 706l83 155h146l83 -155h-114l-42 71l-42 -71h-114zM221 746
h-110l-120 155h147z" /><glyph glyph-name="uni1ED3" unicode="&#x1ed3;" horiz-adv-x="740" 
d="M20 333q0 145 102.5 247.5t247.5 102.5t247.5 -102.5t102.5 -247.5t-102.5 -247.5t-247.5 -102.5t-247.5 102.5t-102.5 247.5zM230 333q0 -58 41 -99t99 -41t99 41t41 99t-41 99t-99 41t-99 -41t-41 -99zM213 706l83 155h146l83 -155h-114l-42 71l-42 -71h-114zM221 746
h-110l-120 155h147z" /><glyph glyph-name="uni1ED4" unicode="&#x1ed4;" horiz-adv-x="740" 
d="M20 333q0 145 102.5 247.5t247.5 102.5t247.5 -102.5t102.5 -247.5t-102.5 -247.5t-247.5 -102.5t-247.5 102.5t-102.5 247.5zM230 333q0 -58 41 -99t99 -41t99 41t41 99t-41 99t-99 41t-99 -41t-41 -99zM213 706l83 155h146l83 -155h-114l-42 71l-42 -71h-114zM491 870
l-16 61q38 10 77 10q67 0 99.5 -28.5t32.5 -65.5q0 -36 -26.5 -58t-68.5 -22v-24h-66v76q4 -1 22 -1q17 0 28 8t11 23q0 30 -42 30q-12 0 -25 -2.5t-19 -4.5z" /><glyph glyph-name="uni1ED5" unicode="&#x1ed5;" horiz-adv-x="740" 
d="M20 333q0 145 102.5 247.5t247.5 102.5t247.5 -102.5t102.5 -247.5t-102.5 -247.5t-247.5 -102.5t-247.5 102.5t-102.5 247.5zM230 333q0 -58 41 -99t99 -41t99 41t41 99t-41 99t-99 41t-99 -41t-41 -99zM213 706l83 155h146l83 -155h-114l-42 71l-42 -71h-114zM491 870
l-16 61q38 10 77 10q67 0 99.5 -28.5t32.5 -65.5q0 -36 -26.5 -58t-68.5 -22v-24h-66v76q4 -1 22 -1q17 0 28 8t11 23q0 30 -42 30q-12 0 -25 -2.5t-19 -4.5z" /><glyph glyph-name="uni1ED6" unicode="&#x1ed6;" horiz-adv-x="740" 
d="M20 333q0 145 102.5 247.5t247.5 102.5t247.5 -102.5t102.5 -247.5t-102.5 -247.5t-247.5 -102.5t-247.5 102.5t-102.5 247.5zM230 333q0 -58 41 -99t99 -41t99 41t41 99t-41 99t-99 41t-99 -41t-41 -99zM213 683l83 109h146l83 -109h-114l-42 50l-42 -50h-114zM296 807
h-85q0 94 104 94q28 0 64.5 -11t42.5 -11q23 0 23 22h85q0 -94 -104 -94q-28 0 -64.5 11t-42.5 11q-23 0 -23 -22z" /><glyph glyph-name="uni1ED7" unicode="&#x1ed7;" horiz-adv-x="740" 
d="M20 333q0 145 102.5 247.5t247.5 102.5t247.5 -102.5t102.5 -247.5t-102.5 -247.5t-247.5 -102.5t-247.5 102.5t-102.5 247.5zM230 333q0 -58 41 -99t99 -41t99 41t41 99t-41 99t-99 41t-99 -41t-41 -99zM213 683l83 109h146l83 -109h-114l-42 50l-42 -50h-114zM296 807
h-85q0 94 104 94q28 0 64.5 -11t42.5 -11q23 0 23 22h85q0 -94 -104 -94q-28 0 -64.5 11t-42.5 11q-23 0 -23 -22z" /><glyph glyph-name="uni1ED8" unicode="&#x1ed8;" horiz-adv-x="740" 
d="M20 333q0 145 102.5 247.5t247.5 102.5t247.5 -102.5t102.5 -247.5t-102.5 -247.5t-247.5 -102.5t-247.5 102.5t-102.5 247.5zM230 333q0 -58 41 -99t99 -41t99 41t41 99t-41 99t-99 41t-99 -41t-41 -99zM213 706l83 155h146l83 -155h-114l-42 71l-42 -71h-114zM306 -162
v121h128v-121h-128z" /><glyph glyph-name="uni1ED9" unicode="&#x1ed9;" horiz-adv-x="740" 
d="M20 333q0 145 102.5 247.5t247.5 102.5t247.5 -102.5t102.5 -247.5t-102.5 -247.5t-247.5 -102.5t-247.5 102.5t-102.5 247.5zM230 333q0 -58 41 -99t99 -41t99 41t41 99t-41 99t-99 41t-99 -41t-41 -99zM213 706l83 155h146l83 -155h-114l-42 71l-42 -71h-114zM306 -162
v121h128v-121h-128z" /><glyph glyph-name="uni1EDA" unicode="&#x1eda;" horiz-adv-x="815" 
d="M405 706h-110l83 155h147zM20 333q0 145 102.5 247.5t247.5 102.5q106 0 193.5 -58.5t127.5 -153.5q60 16 60 75h-64v121h128v-102q0 -106 -112 -125q17 -53 17 -107q0 -145 -102.5 -247.5t-247.5 -102.5t-247.5 102.5t-102.5 247.5zM230 333q0 -58 41 -99t99 -41t99 41
t41 99t-41 99t-99 41t-99 -41t-41 -99z" /><glyph glyph-name="uni1EDB" unicode="&#x1edb;" horiz-adv-x="815" 
d="M405 706h-110l83 155h147zM20 333q0 145 102.5 247.5t247.5 102.5q106 0 193.5 -58.5t127.5 -153.5q60 16 60 75h-64v121h128v-102q0 -106 -112 -125q17 -53 17 -107q0 -145 -102.5 -247.5t-247.5 -102.5t-247.5 102.5t-102.5 247.5zM230 333q0 -58 41 -99t99 -41t99 41
t41 99t-41 99t-99 41t-99 -41t-41 -99z" /><glyph glyph-name="uni1EDC" unicode="&#x1edc;" horiz-adv-x="815" 
d="M445 706h-110l-120 155h147zM20 333q0 145 102.5 247.5t247.5 102.5q106 0 193.5 -58.5t127.5 -153.5q60 16 60 75h-64v121h128v-102q0 -106 -112 -125q17 -53 17 -107q0 -145 -102.5 -247.5t-247.5 -102.5t-247.5 102.5t-102.5 247.5zM230 333q0 -58 41 -99t99 -41
t99 41t41 99t-41 99t-99 41t-99 -41t-41 -99z" /><glyph glyph-name="uni1EDD" unicode="&#x1edd;" horiz-adv-x="815" 
d="M445 706h-110l-120 155h147zM20 333q0 145 102.5 247.5t247.5 102.5q106 0 193.5 -58.5t127.5 -153.5q60 16 60 75h-64v121h128v-102q0 -106 -112 -125q17 -53 17 -107q0 -145 -102.5 -247.5t-247.5 -102.5t-247.5 102.5t-102.5 247.5zM230 333q0 -58 41 -99t99 -41
t99 41t41 99t-41 99t-99 41t-99 -41t-41 -99z" /><glyph glyph-name="uni1EDE" unicode="&#x1ede;" horiz-adv-x="815" 
d="M20 333q0 145 102.5 247.5t247.5 102.5q106 0 193.5 -58.5t127.5 -153.5q60 16 60 75h-64v121h128v-102q0 -106 -112 -125q17 -53 17 -107q0 -145 -102.5 -247.5t-247.5 -102.5t-247.5 102.5t-102.5 247.5zM230 333q0 -58 41 -99t99 -41t99 41t41 99t-41 99t-99 41
t-99 -41t-41 -99zM308 820l-16 61q38 10 77 10q67 0 99.5 -28.5t32.5 -65.5q0 -36 -26.5 -58t-68.5 -22v-24h-66v76q4 -1 22 -1q17 0 28 8t11 23q0 30 -42 30q-12 0 -25 -2.5t-20 -4.5z" /><glyph glyph-name="uni1EDF" unicode="&#x1edf;" horiz-adv-x="815" 
d="M20 333q0 145 102.5 247.5t247.5 102.5q106 0 193.5 -58.5t127.5 -153.5q60 16 60 75h-64v121h128v-102q0 -106 -112 -125q17 -53 17 -107q0 -145 -102.5 -247.5t-247.5 -102.5t-247.5 102.5t-102.5 247.5zM230 333q0 -58 41 -99t99 -41t99 41t41 99t-41 99t-99 41
t-99 -41t-41 -99zM308 820l-16 61q38 10 77 10q67 0 99.5 -28.5t32.5 -65.5q0 -36 -26.5 -58t-68.5 -22v-24h-66v76q4 -1 22 -1q17 0 28 8t11 23q0 30 -42 30q-12 0 -25 -2.5t-20 -4.5z" /><glyph glyph-name="uni1EE0" unicode="&#x1ee0;" horiz-adv-x="815" 
d="M295 706h-85q0 134 104 134q28 0 64.5 -16t42.5 -16q23 0 23 32h85q0 -134 -104 -134q-28 0 -64.5 15.5t-42.5 15.5q-23 0 -23 -31zM20 333q0 145 102.5 247.5t247.5 102.5q106 0 193.5 -58.5t127.5 -153.5q60 16 60 75h-64v121h128v-102q0 -106 -112 -125
q17 -53 17 -107q0 -145 -102.5 -247.5t-247.5 -102.5t-247.5 102.5t-102.5 247.5zM230 333q0 -58 41 -99t99 -41t99 41t41 99t-41 99t-99 41t-99 -41t-41 -99z" /><glyph glyph-name="uni1EE1" unicode="&#x1ee1;" horiz-adv-x="815" 
d="M295 706h-85q0 134 104 134q28 0 64.5 -16t42.5 -16q23 0 23 32h85q0 -134 -104 -134q-28 0 -64.5 15.5t-42.5 15.5q-23 0 -23 -31zM20 333q0 145 102.5 247.5t247.5 102.5q106 0 193.5 -58.5t127.5 -153.5q60 16 60 75h-64v121h128v-102q0 -106 -112 -125
q17 -53 17 -107q0 -145 -102.5 -247.5t-247.5 -102.5t-247.5 102.5t-102.5 247.5zM230 333q0 -58 41 -99t99 -41t99 41t41 99t-41 99t-99 41t-99 -41t-41 -99z" /><glyph glyph-name="uni1EE2" unicode="&#x1ee2;" horiz-adv-x="815" 
d="M306 -162v121h128v-121h-128zM20 333q0 145 102.5 247.5t247.5 102.5q106 0 193.5 -58.5t127.5 -153.5q60 16 60 75h-64v121h128v-102q0 -106 -112 -125q17 -53 17 -107q0 -145 -102.5 -247.5t-247.5 -102.5t-247.5 102.5t-102.5 247.5zM230 333q0 -58 41 -99t99 -41
t99 41t41 99t-41 99t-99 41t-99 -41t-41 -99z" /><glyph glyph-name="uni1EE3" unicode="&#x1ee3;" horiz-adv-x="815" 
d="M306 -162v121h128v-121h-128zM20 333q0 145 102.5 247.5t247.5 102.5q106 0 193.5 -58.5t127.5 -153.5q60 16 60 75h-64v121h128v-102q0 -106 -112 -125q17 -53 17 -107q0 -145 -102.5 -247.5t-247.5 -102.5t-247.5 102.5t-102.5 247.5zM230 333q0 -58 41 -99t99 -41
t99 41t41 99t-41 99t-99 41t-99 -41t-41 -99z" /><glyph glyph-name="uni1EE4" unicode="&#x1ee4;" horiz-adv-x="617" 
d="M308 -17q-130 0 -203 65.5t-73 194.5v424h213v-415q0 -72 63 -72t63 72v415h214v-424q0 -129 -73.5 -194.5t-203.5 -65.5zM244 -162v121h128v-121h-128z" /><glyph glyph-name="uni1EE5" unicode="&#x1ee5;" horiz-adv-x="617" 
d="M308 -17q-130 0 -203 65.5t-73 194.5v424h213v-415q0 -72 63 -72t63 72v415h214v-424q0 -129 -73.5 -194.5t-203.5 -65.5zM244 -162v121h128v-121h-128z" /><glyph glyph-name="uni1EE6" unicode="&#x1ee6;" horiz-adv-x="617" 
d="M308 -17q-130 0 -203 65.5t-73 194.5v424h213v-415q0 -72 63 -72t63 72v415h214v-424q0 -129 -73.5 -194.5t-203.5 -65.5zM241 820l-16 61q38 10 77 10q67 0 99.5 -28.5t32.5 -65.5q0 -36 -26.5 -58t-68.5 -22v-24h-66v76q4 -1 22 -1q17 0 28 8t11 23q0 30 -42 30
q-12 0 -25 -2.5t-19 -4.5z" /><glyph glyph-name="uni1EE7" unicode="&#x1ee7;" horiz-adv-x="617" 
d="M308 -17q-130 0 -203 65.5t-73 194.5v424h213v-415q0 -72 63 -72t63 72v415h214v-424q0 -129 -73.5 -194.5t-203.5 -65.5zM241 820l-16 61q38 10 77 10q67 0 99.5 -28.5t32.5 -65.5q0 -36 -26.5 -58t-68.5 -22v-24h-66v76q4 -1 22 -1q17 0 28 8t11 23q0 30 -42 30
q-12 0 -25 -2.5t-19 -4.5z" /><glyph glyph-name="uni1EE8" unicode="&#x1ee8;" horiz-adv-x="745" 
d="M343 706h-110l83 155h147zM308 -17q-130 0 -203 65.5t-73 194.5v424h213v-415q0 -72 63 -72t63 72v415h214v-200q42 0 69 19.5t27 59.5h-64v121h128v-102q0 -69 -46 -99t-114 -30v-193q0 -129 -73.5 -194.5t-203.5 -65.5z" /><glyph glyph-name="uni1EE9" unicode="&#x1ee9;" horiz-adv-x="745" 
d="M343 706h-110l83 155h147zM308 -17q-130 0 -203 65.5t-73 194.5v424h213v-415q0 -72 63 -72t63 72v415h214v-200q42 0 69 19.5t27 59.5h-64v121h128v-102q0 -69 -46 -99t-114 -30v-193q0 -129 -73.5 -194.5t-203.5 -65.5z" /><glyph glyph-name="uni1EEA" unicode="&#x1eea;" horiz-adv-x="745" 
d="M383 706h-110l-120 155h147zM308 -17q-130 0 -203 65.5t-73 194.5v424h213v-415q0 -72 63 -72t63 72v415h214v-200q42 0 69 19.5t27 59.5h-64v121h128v-102q0 -69 -46 -99t-114 -30v-193q0 -129 -73.5 -194.5t-203.5 -65.5z" /><glyph glyph-name="uni1EEB" unicode="&#x1eeb;" horiz-adv-x="745" 
d="M383 706h-110l-120 155h147zM308 -17q-130 0 -203 65.5t-73 194.5v424h213v-415q0 -72 63 -72t63 72v415h214v-200q42 0 69 19.5t27 59.5h-64v121h128v-102q0 -69 -46 -99t-114 -30v-193q0 -129 -73.5 -194.5t-203.5 -65.5z" /><glyph glyph-name="uni1EEC" unicode="&#x1eec;" horiz-adv-x="745" 
d="M308 -17q-130 0 -203 65.5t-73 194.5v424h213v-415q0 -72 63 -72t63 72v415h214v-200q42 0 69 19.5t27 59.5h-64v121h128v-102q0 -69 -46 -99t-114 -30v-193q0 -129 -73.5 -194.5t-203.5 -65.5zM241 820l-16 61q38 10 77 10q67 0 99.5 -28.5t32.5 -65.5q0 -36 -26.5 -58
t-68.5 -22v-24h-66v76q4 -1 22 -1q17 0 28 8t11 23q0 30 -42 30q-12 0 -25 -2.5t-19 -4.5z" /><glyph glyph-name="uni1EED" unicode="&#x1eed;" horiz-adv-x="745" 
d="M308 -17q-130 0 -203 65.5t-73 194.5v424h213v-415q0 -72 63 -72t63 72v415h214v-200q42 0 69 19.5t27 59.5h-64v121h128v-102q0 -69 -46 -99t-114 -30v-193q0 -129 -73.5 -194.5t-203.5 -65.5zM241 820l-16 61q38 10 77 10q67 0 99.5 -28.5t32.5 -65.5q0 -36 -26.5 -58
t-68.5 -22v-24h-66v76q4 -1 22 -1q17 0 28 8t11 23q0 30 -42 30q-12 0 -25 -2.5t-19 -4.5z" /><glyph glyph-name="uni1EEE" unicode="&#x1eee;" horiz-adv-x="745" 
d="M234 706h-85q0 134 104 134q28 0 64.5 -16t42.5 -16q23 0 23 32h85q0 -134 -104 -134q-28 0 -64.5 15.5t-42.5 15.5q-23 0 -23 -31zM308 -17q-130 0 -203 65.5t-73 194.5v424h213v-415q0 -72 63 -72t63 72v415h214v-200q42 0 69 19.5t27 59.5h-64v121h128v-102
q0 -69 -46 -99t-114 -30v-193q0 -129 -73.5 -194.5t-203.5 -65.5z" /><glyph glyph-name="uni1EEF" unicode="&#x1eef;" horiz-adv-x="745" 
d="M234 706h-85q0 134 104 134q28 0 64.5 -16t42.5 -16q23 0 23 32h85q0 -134 -104 -134q-28 0 -64.5 15.5t-42.5 15.5q-23 0 -23 -31zM308 -17q-130 0 -203 65.5t-73 194.5v424h213v-415q0 -72 63 -72t63 72v415h214v-200q42 0 69 19.5t27 59.5h-64v121h128v-102
q0 -69 -46 -99t-114 -30v-193q0 -129 -73.5 -194.5t-203.5 -65.5z" /><glyph glyph-name="uni1EF0" unicode="&#x1ef0;" horiz-adv-x="745" 
d="M244 -162v121h128v-121h-128zM308 -17q-130 0 -203 65.5t-73 194.5v424h213v-415q0 -72 63 -72t63 72v415h214v-200q42 0 69 19.5t27 59.5h-64v121h128v-102q0 -69 -46 -99t-114 -30v-193q0 -129 -73.5 -194.5t-203.5 -65.5z" /><glyph glyph-name="uni1EF1" unicode="&#x1ef1;" horiz-adv-x="745" 
d="M244 -162v121h128v-121h-128zM308 -17q-130 0 -203 65.5t-73 194.5v424h213v-415q0 -72 63 -72t63 72v415h214v-200q42 0 69 19.5t27 59.5h-64v121h128v-102q0 -69 -46 -99t-114 -30v-193q0 -129 -73.5 -194.5t-203.5 -65.5z" /><glyph glyph-name="Ygrave" unicode="&#x1ef2;" horiz-adv-x="587" 
d="M187 0v287l-207 380h237l77 -141l76 141h237l-207 -380v-287h-213zM350 706h-110l-120 155h147z" /><glyph glyph-name="ygrave" unicode="&#x1ef3;" horiz-adv-x="587" 
d="M187 0v287l-207 380h237l77 -141l76 141h237l-207 -380v-287h-213zM350 706h-110l-120 155h147z" /><glyph glyph-name="uni1EF4" unicode="&#x1ef4;" horiz-adv-x="587" 
d="M187 0v287l-207 380h237l77 -141l76 141h237l-207 -380v-287h-213zM230 -162v121h128v-121h-128z" /><glyph glyph-name="uni1EF5" unicode="&#x1ef5;" horiz-adv-x="587" 
d="M187 0v287l-207 380h237l77 -141l76 141h237l-207 -380v-287h-213zM230 -162v121h128v-121h-128z" /><glyph glyph-name="uni1EF6" unicode="&#x1ef6;" horiz-adv-x="587" 
d="M187 0v287l-207 380h237l77 -141l76 141h237l-207 -380v-287h-213zM227 820l-16 61q38 10 77 10q67 0 99.5 -28.5t32.5 -65.5q0 -36 -26.5 -58t-68.5 -22v-24h-66v76q4 -1 22 -1q17 0 28 8t11 23q0 30 -42 30q-12 0 -25 -2.5t-19 -4.5z" /><glyph glyph-name="uni1EF7" unicode="&#x1ef7;" horiz-adv-x="587" 
d="M187 0v287l-207 380h237l77 -141l76 141h237l-207 -380v-287h-213zM227 820l-16 61q38 10 77 10q67 0 99.5 -28.5t32.5 -65.5q0 -36 -26.5 -58t-68.5 -22v-24h-66v76q4 -1 22 -1q17 0 28 8t11 23q0 30 -42 30q-12 0 -25 -2.5t-19 -4.5z" /><glyph glyph-name="uni1EF8" unicode="&#x1ef8;" horiz-adv-x="587" 
d="M187 0v287l-207 380h237l77 -141l76 141h237l-207 -380v-287h-213zM220 706h-85q0 134 104 134q28 0 64.5 -16t42.5 -16q23 0 23 32h85q0 -134 -104 -134q-28 0 -64.5 15.5t-42.5 15.5q-23 0 -23 -31z" /><glyph glyph-name="uni1EF9" unicode="&#x1ef9;" horiz-adv-x="587" 
d="M187 0v287l-207 380h237l77 -141l76 141h237l-207 -380v-287h-213zM220 706h-85q0 134 104 134q28 0 64.5 -16t42.5 -16q23 0 23 32h85q0 -134 -104 -134q-28 0 -64.5 15.5t-42.5 15.5q-23 0 -23 -31z" /><glyph glyph-name="endash" unicode="&#x2013;" horiz-adv-x="490" 
d="M30 256v155h430v-155h-430z" /><glyph glyph-name="emdash" unicode="&#x2014;" horiz-adv-x="740" 
d="M30 256v155h680v-155h-680z" /><glyph glyph-name="uni2015" unicode="&#x2015;" horiz-adv-x="740" 
d="M30 256v155h680v-155h-680z" /><glyph glyph-name="quoteleft" unicode="&#x2018;" horiz-adv-x="277" 
d="M277 667l-87 -270h-190l107 270h170z" /><glyph glyph-name="quoteright" unicode="&#x2019;" horiz-adv-x="277" 
d="M0 397l87 270h190l-107 -270h-170z" /><glyph glyph-name="quotesinglbase" unicode="&#x201a;" horiz-adv-x="277" 
d="M0 -103l87 270h190l-107 -270h-170z" /><glyph glyph-name="quotedblleft" unicode="&#x201c;" horiz-adv-x="510" 
d="M510 667l-87 -270h-190l107 270h170zM277 667l-87 -270h-190l107 270h170z" /><glyph glyph-name="quotedblright" unicode="&#x201d;" horiz-adv-x="510" 
d="M0 397l87 270h190l-107 -270h-170zM233 397l87 270h190l-107 -270h-170z" /><glyph glyph-name="quotedblbase" unicode="&#x201e;" horiz-adv-x="510" 
d="M0 -103l87 270h190l-107 -270h-170zM233 -103l87 270h190l-107 -270h-170z" /><glyph glyph-name="dagger" unicode="&#x2020;" horiz-adv-x="500" 
d="M169 -194l-22 565h-132v156h125l-5 140h230l-6 -140h126v-156h-133l-21 -565h-162z" /><glyph glyph-name="daggerdbl" unicode="&#x2021;" horiz-adv-x="500" 
d="M485 166h-140l-14 -360h-162l-15 360h-139v156h133l-1 49h-132v156h125l-5 140h230l-6 -140h126v-156h-133l-1 -49h134v-156z" /><glyph glyph-name="bullet" unicode="&#x2022;" horiz-adv-x="376" 
d="M65 334q0 51 36 87t87 36t87 -36t36 -87t-36 -87t-87 -36t-87 36t-36 87z" /><glyph glyph-name="ellipsis" unicode="&#x2026;" horiz-adv-x="822" 
d="M30 0v167h214v-167h-214zM304 0v167h214v-167h-214zM578 0v167h214v-167h-214z" /><glyph glyph-name="perthousand" unicode="&#x2030;" horiz-adv-x="1035" 
d="M704 183q0 -92 -39 -142t-109 -50t-109 50t-39 142t39 142.5t109 50.5t109 -50.5t39 -142.5zM591 183q0 86 -35 86t-35 -86t35 -86t35 86zM15 484q0 92 39 142t109 50t109 -50t39 -142t-39 -142.5t-109 -50.5t-109 50.5t-39 142.5zM128 484q0 -86 35 -86t35 86t-35 86
t-35 -86zM168 0l265 667h118l-265 -667h-118zM1020 183q0 -92 -39 -142t-109 -50t-109 50t-39 142t39 142.5t109 50.5t109 -50.5t39 -142.5zM907 183q0 86 -35 86t-35 -86t35 -86t35 86z" /><glyph glyph-name="guilsinglleft" unicode="&#x2039;" horiz-adv-x="310" 
d="M132 0l-132 227l132 226h168l-122 -226l122 -227h-168z" /><glyph glyph-name="guilsinglright" unicode="&#x203a;" horiz-adv-x="310" 
d="M310 227l-132 -227h-168l122 227l-122 226h168z" /><glyph glyph-name="fraction" unicode="&#x2044;" horiz-adv-x="353" 
d="M-15 0l265 667h118l-265 -667h-118z" /><glyph glyph-name="uni2070" unicode="&#x2070;" horiz-adv-x="316" 
d="M306 483q0 -92 -39 -142t-109 -50t-109 50t-39 142t39 142.5t109 50.5t109 -50.5t39 -142.5zM193 483q0 86 -35 86t-35 -86t35 -86t35 86z" /><glyph glyph-name="uni2074" unicode="&#x2074;" horiz-adv-x="270" 
d="M-5 409l160 258h93v-246h22v-70h-22v-51h-104v51h-149v58zM144 523l-63 -102h63v102z" /><glyph glyph-name="uni2075" unicode="&#x2075;" horiz-adv-x="215" 
d="M2 293v104q41 0 63 15t22 40q0 53 -92 53l66 162h149v-103h-68q7 -4 17.5 -13t28 -39t17.5 -65q0 -75 -56 -115t-133 -40z" /><glyph glyph-name="uni2076" unicode="&#x2076;" horiz-adv-x="303" 
d="M10 435q0 34 12 71t29 64.5t34.5 50t29.5 34.5l12 12h133q-43 -43 -77 -102q50 -10 80 -47.5t30 -88.5q0 -58 -39.5 -98t-98.5 -40q-62 0 -103.5 41t-41.5 103zM119 433q0 -14 9.5 -24t23.5 -10t23.5 9.5t9.5 23.5t-9.5 23.5t-23.5 9.5q-13 0 -23 -9.5t-10 -22.5z" /><glyph glyph-name="uni2077" unicode="&#x2077;" horiz-adv-x="248" 
d="M-10 300l105 266h-101l40 101h224l-144 -367h-124z" /><glyph glyph-name="uni2078" unicode="&#x2078;" horiz-adv-x="282" 
d="M141 397q13 0 21.5 9t8.5 21q0 13 -8.5 21.5t-21.5 8.5t-21.5 -8.5t-8.5 -21.5q0 -12 8.5 -21t21.5 -9zM141 543q8 0 13.5 5t5.5 13q0 19 -19 19t-19 -19q0 -8 5.5 -13t13.5 -5zM141 291q-57 0 -96.5 36t-39.5 91q0 27 10 50t21 32l10 10q-20 22 -20 59q0 45 33.5 76
t81.5 31t81.5 -31t33.5 -76q0 -16 -5 -31t-10 -22l-5 -6q5 -4 11.5 -11t18 -30.5t11.5 -50.5q0 -55 -39.5 -91t-96.5 -36z" /><glyph glyph-name="uni2079" unicode="&#x2079;" horiz-adv-x="303" 
d="M293 532q0 -34 -12 -71t-29 -64.5t-34.5 -50t-29.5 -34.5l-12 -12h-133q43 43 77 102q-50 10 -80 47.5t-30 88.5q0 58 39.5 98t98.5 40q62 0 103.5 -41t41.5 -103zM184 534q0 14 -9.5 24t-23.5 10q-13 0 -23 -10t-10 -23t10 -23t23 -10t23 9.5t10 22.5z" /><glyph glyph-name="uni2080" unicode="&#x2080;" horiz-adv-x="316" 
d="M306 183q0 -92 -39 -142t-109 -50t-109 50t-39 142t39 142.5t109 50.5t109 -50.5t39 -142.5zM193 183q0 86 -35 86t-35 -86t35 -86t35 86z" /><glyph glyph-name="uni2081" unicode="&#x2081;" horiz-adv-x="174" 
d="M35 0v224l-50 58l81 85h88v-367h-119z" /><glyph glyph-name="uni2082" unicode="&#x2082;" horiz-adv-x="230" 
d="M-20 0l92 176q19 37 19 54q0 37 -45 37l-23 -2v102q26 5 52 5q60 0 102 -27.5t42 -86.5q0 -27 -11.5 -55.5t-43.5 -91.5l-8 -15h69l-31 -96h-214z" /><glyph glyph-name="uni2083" unicode="&#x2083;" horiz-adv-x="216" 
d="M5 -4v102q8 -1 21 -1q62 0 62 43q0 33 -76 68q57 36 57 53t-25 17l-39 -6v95q33 4 75 4q52 0 81 -24t29 -64q0 -16 -8 -31.5t-16 -23.5l-9 -8q5 -4 13.5 -11.5t22 -32.5t13.5 -51q0 -64 -49 -96.5t-122 -32.5h-30z" /><glyph glyph-name="uni2084" unicode="&#x2084;" horiz-adv-x="270" 
d="M-5 109l160 258h93v-246h22v-70h-22v-51h-104v51h-149v58zM144 223l-63 -102h63v102z" /><glyph glyph-name="uni2085" unicode="&#x2085;" horiz-adv-x="215" 
d="M2 -7v104q41 0 63 15t22 40q0 53 -92 53l66 162h149v-103h-68q7 -4 17.5 -13t28 -39t17.5 -65q0 -75 -56 -115t-133 -40z" /><glyph glyph-name="uni2086" unicode="&#x2086;" horiz-adv-x="303" 
d="M10 135q0 34 12 71t29 64.5t34.5 50t29.5 34.5l12 12h133q-43 -43 -77 -102q50 -10 80 -47.5t30 -88.5q0 -58 -39.5 -98t-98.5 -40q-62 0 -103.5 41t-41.5 103zM119 133q0 -14 9.5 -24t23.5 -10t23.5 9.5t9.5 23.5t-9.5 23.5t-23.5 9.5q-13 0 -23 -9.5t-10 -22.5z" /><glyph glyph-name="uni2087" unicode="&#x2087;" horiz-adv-x="248" 
d="M-10 0l105 266h-101l40 101h224l-144 -367h-124z" /><glyph glyph-name="uni2088" unicode="&#x2088;" horiz-adv-x="282" 
d="M141 97q13 0 21.5 9t8.5 21q0 13 -8.5 21.5t-21.5 8.5t-21.5 -8.5t-8.5 -21.5q0 -12 8.5 -21t21.5 -9zM141 243q8 0 13.5 5t5.5 13q0 19 -19 19t-19 -19q0 -8 5.5 -13t13.5 -5zM141 -9q-57 0 -96.5 36t-39.5 91q0 27 10 50t21 32l10 10q-20 22 -20 59q0 45 33.5 76
t81.5 31t81.5 -31t33.5 -76q0 -16 -5 -31t-10 -22l-5 -6q5 -4 11.5 -11t18 -30.5t11.5 -50.5q0 -55 -39.5 -91t-96.5 -36z" /><glyph glyph-name="uni2089" unicode="&#x2089;" horiz-adv-x="303" 
d="M293 232q0 -34 -12 -71t-29 -64.5t-34.5 -50t-29.5 -34.5l-12 -12h-133q43 43 77 102q-50 10 -80 47.5t-30 88.5q0 58 39.5 98t98.5 40q62 0 103.5 -41t41.5 -103zM184 234q0 14 -9.5 24t-23.5 10q-13 0 -23 -10t-10 -23t10 -23t23 -10t23 9.5t10 22.5z" /><glyph glyph-name="dong" unicode="&#x20ab;" horiz-adv-x="533" 
d="M271 180h14v68h-14q-21 0 -32.5 -10t-11.5 -24t11.5 -24t32.5 -10zM498 0h-220q-117 0 -190 53.5t-73 160.5t73 160.5t190 53.5h7v48h-99v120h99v71h213v-71h35v-120h-35v-476zM46 -114v73h452v-73h-452z" /><glyph glyph-name="Euro" unicode="&#x20ac;" horiz-adv-x="503" 
d="M360 247h-380l35 160h31q23 128 101 202t194 74q49 0 92 -9.5t61 -19.5l19 -10l-85 -170q-28 17 -66 17q-80 0 -103 -84h136zM46 259h213q23 -84 103 -84q17 0 33.5 4.5t24.5 8.5l8 4l85 -170q-7 -4 -20 -10.5t-58 -17.5t-94 -11q-116 0 -194 74t-101 202z" /><glyph glyph-name="uni2116" unicode="&#x2116;" horiz-adv-x="1118" 
d="M35 0v667h175l184 -257v257h209v-667h-176l-183 256v-256h-209zM643 424q0 94 66.5 161t160.5 67t161 -67t67 -161t-67 -160.5t-161 -66.5t-160.5 66.5t-66.5 160.5zM663 20v143h415v-143h-415zM790 424q0 -33 23.5 -56.5t56.5 -23.5t56.5 23.5t23.5 56.5t-23.5 56.5
t-56.5 23.5t-56.5 -23.5t-23.5 -56.5z" /><glyph glyph-name="uni2117" unicode="&#x2117;" horiz-adv-x="740" 
d="M552 375q0 -77 -53 -115t-135 -38v-95h-124v400h128q82 0 133 -38t51 -114zM364 423v-97h10q24 0 37.5 13.5t13.5 35.5t-13.5 35t-37.5 13h-10zM20 333q0 145 102.5 247.5t247.5 102.5t247.5 -102.5t102.5 -247.5t-102.5 -247.5t-247.5 -102.5t-247.5 102.5t-102.5 247.5
zM57 333q0 -130 91.5 -221.5t221.5 -91.5t221.5 91.5t91.5 221.5t-91.5 221.5t-221.5 91.5t-221.5 -91.5t-91.5 -221.5z" /><glyph glyph-name="trademark" unicode="&#x2122;" horiz-adv-x="589" 
d="M67 367v225h-57v75h210v-75h-58v-225h-95zM255 367v300h76l81 -119l81 119h76v-300h-92v113l-65 -95l-65 95v-113h-92z" /><glyph glyph-name="estimated" unicode="&#x212e;" horiz-adv-x="783" 
d="M758 324h-601v-207q101 -110 234 -110q140 0 240 111h48q-52 -63 -128 -99t-161 -36q-152 0 -258.5 102t-106.5 248q0 144 106.5 247t258.5 103t260 -104.5t108 -254.5zM619 341v203q-93 115 -229 115t-233 -115v-203h462z" /><glyph glyph-name="partialdiff" unicode="&#x2202;" horiz-adv-x="586" 
d="M240 413q82 0 135 -46q-10 67 -60 104t-123 37q-20 0 -39 -3l-21 77q48 23 117 23q131 0 219 -89t88 -245q0 -127 -72.5 -204.5t-202.5 -77.5q-106 0 -178.5 58.5t-72.5 163.5q0 86 59.5 144t150.5 58zM393 248q0 5 -0.5 14.5t-0.5 15.5q-42 40 -95 40q-47 0 -75 -32
t-28 -79t27 -77t73 -30q54 0 76.5 42.5t22.5 105.5z" /><glyph glyph-name="product" unicode="&#x220f;" horiz-adv-x="851" 
d="M489 -121v709h-128v-709h-222v709h-109v171h791v-171h-108v-709h-224z" /><glyph glyph-name="summation" unicode="&#x2211;" horiz-adv-x="643" 
d="M30 33l210 311l-210 263v152h573v-173h-306l193 -242l-199 -292h322v-173h-583v154z" /><glyph glyph-name="minus" unicode="&#x2212;" horiz-adv-x="460" 
d="M440 187h-420v166h420v-166z" /><glyph glyph-name="uni2215" unicode="&#x2215;" horiz-adv-x="353" 
d="M-15 0l265 667h118l-265 -667h-118z" /><glyph glyph-name="uni2219" unicode="&#x2219;" horiz-adv-x="274" 
d="M30 250v167h214v-167h-214z" /><glyph glyph-name="radical" unicode="&#x221a;" horiz-adv-x="565" 
d="M57 98l-27 59l183 86l75 -161l157 686h90l-212 -926h-93l-130 276z" /><glyph glyph-name="infinity" unicode="&#x221e;" horiz-adv-x="848" 
d="M217 63q-86 0 -136.5 52.5t-50.5 137.5q0 83 55.5 139.5t140.5 56.5q56 0 107.5 -25.5t89.5 -61.5t73 -72t71.5 -61.5t71.5 -25.5q29 0 50.5 17.5t21.5 48.5q0 33 -22 50.5t-58 17.5q-31 0 -64 -20.5t-60.5 -50.5t-61.5 -66t-66 -66t-75 -50.5t-87 -20.5zM622 63
q-56 0 -107.5 25.5t-89.5 61.5t-73 72t-71.5 61.5t-71.5 25.5q-29 0 -50.5 -17.5t-21.5 -48.5q0 -32 22 -50t58 -18q31 0 64 20.5t60.5 50.5t61.5 66t66 66t75 50.5t87 20.5q86 0 136.5 -52.5t50.5 -137.5q0 -83 -55.5 -139.5t-140.5 -56.5z" /><glyph glyph-name="integral" unicode="&#x222b;" horiz-adv-x="552" 
d="M174 2v500q0 128 64 198.5t160 70.5q124 0 124 -75q0 -20 -14 -35.5t-36 -15.5q-25 0 -41 15.5t-16 41.5q0 5 2 19q-15 0 -27 -19.5t-12 -65.5v-500q0 -128 -64 -198.5t-160 -70.5q-124 0 -124 75q0 20 14 35.5t36 15.5q25 0 41 -15.5t16 -41.5q0 -5 -2 -19q15 0 27 19.5
t12 65.5z" /><glyph glyph-name="approxequal" unicode="&#x2248;" horiz-adv-x="532" 
d="M432 264l70 -101q-1 -3 -4 -8.5t-14.5 -19.5t-26 -24.5t-40.5 -19t-57 -8.5q-34 0 -100.5 15t-87.5 15q-24 0 -42 -8t-24 -16l-6 -8l-70 101q1 3 4 8.5t14.5 19.5t26 24.5t40.5 19t57 8.5q34 0 100.5 -15t87.5 -15q24 0 42 8t24 16zM432 457l70 -101q-1 -3 -4 -8.5
t-14.5 -19.5t-26 -24.5t-40.5 -19t-57 -8.5q-34 0 -100.5 15t-87.5 15q-24 0 -42 -8t-24 -16l-6 -8l-70 101q1 3 4 8.5t14.5 19.5t26 24.5t40.5 19t57 8.5q34 0 100.5 -15t87.5 -15q24 0 42 8t24 16z" /><glyph glyph-name="notequal" unicode="&#x2260;" horiz-adv-x="480" 
d="M450 506l-284 -454h-136l284 454h136zM450 267v-145h-420v145h420zM450 291h-420v145h420v-145z" /><glyph glyph-name="lessequal" unicode="&#x2264;" horiz-adv-x="470" 
d="M445 0h-420v166h420v-166zM445 191l-420 170v124l420 170v-166l-164 -66l164 -66v-166z" /><glyph glyph-name="greaterequal" unicode="&#x2265;" horiz-adv-x="470" 
d="M445 0h-420v166h420v-166zM445 361l-420 -170v166l164 66l-164 66v166l420 -170v-124z" /><glyph glyph-name="dotmath" unicode="&#x22c5;" horiz-adv-x="274" 
d="M30 250v167h214v-167h-214z" /><glyph glyph-name="lozenge" unicode="&#x25ca;" horiz-adv-x="531" 
d="M334 715l167 -382l-167 -382h-136l-168 382l168 382h136zM266 459l-56 -126l56 -126l55 126z" /><glyph glyph-name="uniF102" unicode="&#xf102;" horiz-adv-x="613" 
d="M157 -130q-11 -5 -24 -5q-23 0 -41.5 16t-27.5 38q-19 44 -19 107q0 55 19 93q14 29 22 81.5t43 103.5q-24 20 -24 54q0 28 14.5 55.5t32.5 38.5q-10 6 -30 6q-21 0 -66 -9q0 25 25 56.5t52 38.5q-35 30 -36 98q13 -13 23 -18q-11 51 -11 57q0 5 1 7q7 -19 38 -33
q0 2 -3.5 15t-6 25.5t-2.5 20.5q0 7 1 10q7 -13 26.5 -28.5t29.5 -16.5q-5 30 -5 42q0 41 23 52q0 -13 10 -33t23 -27q3 14 23 30t41 26q0 -5 -3 -20t-3 -23q0 -9 4 -13q7 4 18.5 21t11.5 23q7 -4 10.5 -18.5t4.5 -26.5l1 -12q8 0 20.5 6t14.5 10q0 -6 -3 -25t-3 -20
q40 12 48 20q0 -18 -17 -58.5t-43 -44.5q41 -21 79 -79.5t41 -136.5q2 -42 18 -103t16 -64q11 -62 45 -105q-13 -6 -29 -6t-28 7q-4 -4 -9 -19q0 -19 28 -59q-12 -2 -17 -2q-30 0 -55 23q15 -26 36 -47q-16 -6 -29 -6q-12 0 -33 7q1 -6 9 -16q-3 -1 -8 -1q-16 0 -24 8
q1 -5 4.5 -11t7.5 -11.5t5 -6.5q-10 -2 -15 -2q-20 0 -39.5 10t-26.5 20q6 -21 36 -70q-6 -1 -16 -1q-48 0 -84 46q0 -31 26 -86q-30 1 -55 26q14 -25 30 -40q-14 -7 -30 -7q-24 0 -42 18l11 -25q-3 -1 -11 -1q-33 0 -53 20zM105 192q0 -2 0.5 -5t0.5 -5q0 -14 -16.5 -55.5
t-20.5 -68.5q-2 -12 -2 -36q0 -55 18.5 -96.5t52.5 -41.5h4q-23 17 -36.5 73.5t-13.5 113.5q0 43 9 63q10 17 10 37q0 13 -6 21zM498 42q-24 28 -33 110.5t-13 153.5t-19 77q3 -10 3 -40q0 -18 -1.5 -70t-1.5 -81q0 -103 16 -126l7 15q22 -34 42 -39zM302 567
q52 -27 52 -126q1 3 5 8.5t5 7.5q11 -16 11 -64q0 -43 -11 -66q-3 27 -19 74q0 -24 -12.5 -52.5t-28.5 -36.5l-5 41q29 16 29 73q0 6 -0.5 13.5t-0.5 9.5q0 -8 -9.5 -30.5t-13.5 -23.5q0 4 -1 14t-1 16v9q-5 -13 -20.5 -36.5t-25.5 -32.5q0 7 6 24q-6 -6 -87 -78l-4 14
q-40 -25 -40 -101q0 -25 4 -47q-18 -22 -18 -78q0 -32 5.5 -64.5t10.5 -41.5l-14 4q0 -1 1 -4q33 -114 76 -125q-24 37 -40 89t-16 80q0 7 2 11q5 -9 10.5 -20.5t9.5 -16.5t10 -8q4 -37 28.5 -81.5t49.5 -48.5q-21 23 -50.5 109t-29.5 161q0 52 17 87q-1 -10 -1 -36
q0 -80 19.5 -159t66.5 -124q-12 26 -21.5 85t-9.5 107q0 17 1 25q1 -23 14.5 -48t24.5 -34q-2 -10 -2 -14q0 -29 23 -57t44 -34q-66 115 -66 234q0 53 18 91q1 -10 3.5 -50t7 -71t11.5 -40v14q0 28 10 39q1 -6 8.5 -60t19.5 -82.5t37 -36.5q-40 61 -40 162q0 110 39 203
q0 -4 -1 -11t-1 -11q0 -8 4 -13q-8 -40 -8 -54q0 -11 3 -20q10 -20 10 -49q0 -23 -7 -38q-9 -18 -9 -51q0 -68 29 -91q-4 16 -4 31v7q12 -29 51 -34q-51 55 -51 134q0 18 3 47.5t3 39.5q0 14 -2 20q-2 8 -2 16t2.5 35t2.5 46q0 90 -48 165q-22 34 -34.5 43.5t-32.5 10.5z
M133 336l25 11q-4 7 -4 16q0 14 12.5 41t12.5 35q-17 -6 -33 -33t-16 -52q0 -10 3 -18zM175 359l12 6q-1 2 -1 6q0 3 13 42q-8 -4 -17 -19t-9 -27q0 -4 2 -8zM166 550q8 3 32 19.5t52 28t59 11.5q-11 8 -27 8t-35.5 -9.5t-32 -18.5t-30 -23.5t-18.5 -15.5zM244 414
q14 9 25 9h5q10 10 20 32.5t10 39.5q0 4 -2 12q-2 -22 -12 -42.5t-20 -26.5q-26 -13 -26 -24zM121 472q34 -9 58 -9q7 1 7 5q0 10 -38 10q-16 0 -27 -6zM192 506q-1 -1 -1 -4q0 -6 7 -13q4 -4 8 -4t4 4q0 11 -18 17zM84 475q20 12 58 12q10 0 22.5 -1t14.5 -1q-15 22 -24 27
q0 11 11 26q-26 -2 -52 -21.5t-30 -41.5zM269 517l3 -8q9 2 16 11t7 19q0 13 -10 19q2 -4 2 -9q0 -22 -18 -32zM239 521l10 -3h1q20 4 20 25q0 4 -2 8q-4 4 -7 4q-1 0 -1 -3v-1q0 -1 0.5 -2.5t0.5 -4.5q0 -9 -8 -16t-14 -7zM234 531q3 0 4.5 1t3.5 5t2 5q1 1 1 4q0 8 -13 8
q-9 0 -9 -10q3 -11 11 -13zM253 460q10 0 10 11q0 7 -11 7q-12 0 -12 -8q0 -10 13 -10zM226 437q10 0 10 8t-10 8q-9 0 -9 -8t9 -8zM541 113q-49 62 -70 233q2 12 2 20q0 51 -33 115.5t-83 83.5q42 -54 47 -73l7 2q32 -32 52 -114q0 -179 32 -274l9 23q27 -16 37 -16z" /><glyph glyph-name="nonmarkingreturn.1" horiz-adv-x="200" 
 /><glyph glyph-name="K.alt01" horiz-adv-x="595" 
d="M35 0v667h216v-158l193 190l147 -148l-184 -183l203 -274l-173 -127l-186 251v-218h-216z" /><glyph glyph-name="Kcommaaccent.alt01" horiz-adv-x="595" 
d="M268 -196h-110l83 155h147zM35 0v667h216v-158l193 190l147 -148l-184 -183l203 -274l-173 -127l-186 251v-218h-216z" /><glyph glyph-name="S.alt01" horiz-adv-x="443" 
d="M5 0v200q82 -15 149 -15q34 0 34 27q0 15 -26.5 46t-58.5 63t-58.5 80.5t-26.5 95.5q0 91 62 138.5t159 47.5q29 0 62.5 -2.5t52.5 -5.5l19 -3v-187q-29 3 -57 3q-52 0 -52 -24q0 -10 25.5 -39.5t56.5 -63t56.5 -83t25.5 -94.5q0 -92 -62 -146.5t-184 -54.5
q-40 0 -84 4.5t-68 8.5z" /><glyph glyph-name="Sacute.alt01" horiz-adv-x="443" 
d="M260 706h-110l83 155h147zM5 0v200q82 -15 149 -15q34 0 34 27q0 15 -26.5 46t-58.5 63t-58.5 80.5t-26.5 95.5q0 91 62 138.5t159 47.5q29 0 62.5 -2.5t52.5 -5.5l19 -3v-187q-29 3 -57 3q-52 0 -52 -24q0 -10 25.5 -39.5t56.5 -63t56.5 -83t25.5 -94.5
q0 -92 -62 -146.5t-184 -54.5q-40 0 -84 4.5t-68 8.5z" /><glyph glyph-name="Scaron.alt01" horiz-adv-x="443" 
d="M58 706l83 155h146l83 -155h-114l-42 71l-42 -71h-114zM5 0v200q82 -15 149 -15q34 0 34 27q0 15 -26.5 46t-58.5 63t-58.5 80.5t-26.5 95.5q0 91 62 138.5t159 47.5q29 0 62.5 -2.5t52.5 -5.5l19 -3v-187q-29 3 -57 3q-52 0 -52 -24q0 -10 25.5 -39.5t56.5 -63t56.5 -83
t25.5 -94.5q0 -92 -62 -146.5t-184 -54.5q-40 0 -84 4.5t-68 8.5z" /><glyph glyph-name="Scedilla.alt01" horiz-adv-x="443" 
d="M5 0v200q82 -15 149 -15q34 0 34 27q0 15 -26.5 46t-58.5 63t-58.5 80.5t-26.5 95.5q0 91 62 138.5t159 47.5q29 0 62.5 -2.5t52.5 -5.5l19 -3v-187q-29 3 -57 3q-52 0 -52 -24q0 -10 25.5 -39.5t56.5 -63t56.5 -83t25.5 -94.5q0 -79 -46.5 -131.5t-138.5 -65.5l-17 -35
q4 0 10.5 -0.5t24 -6t30.5 -14.5t23.5 -28.5t10.5 -45.5q0 -47 -36.5 -82t-118.5 -35q-26 0 -52.5 3t-39.5 6l-14 3l20 77q36 -11 71 -11q27 0 43.5 10.5t16.5 29.5q0 36 -54 36l-42 -5l47 94q-37 1 -77 5t-62 8z" /><glyph glyph-name="Scircumflex.alt01" horiz-adv-x="443" 
d="M5 0v200q82 -15 149 -15q34 0 34 27q0 15 -26.5 46t-58.5 63t-58.5 80.5t-26.5 95.5q0 91 62 138.5t159 47.5q29 0 62.5 -2.5t52.5 -5.5l19 -3v-187q-29 3 -57 3q-52 0 -52 -24q0 -10 25.5 -39.5t56.5 -63t56.5 -83t25.5 -94.5q0 -92 -62 -146.5t-184 -54.5
q-40 0 -84 4.5t-68 8.5zM58 706l83 155h146l83 -155h-114l-42 71l-42 -71h-114z" /><glyph glyph-name="Scommaaccent.alt01" horiz-adv-x="443" 
d="M179 -196h-110l83 155h147zM5 0v200q82 -15 149 -15q34 0 34 27q0 15 -26.5 46t-58.5 63t-58.5 80.5t-26.5 95.5q0 91 62 138.5t159 47.5q29 0 62.5 -2.5t52.5 -5.5l19 -3v-187q-29 3 -57 3q-52 0 -52 -24q0 -10 25.5 -39.5t56.5 -63t56.5 -83t25.5 -94.5
q0 -92 -62 -146.5t-184 -54.5q-40 0 -84 4.5t-68 8.5z" /><glyph glyph-name="Y.alt01" horiz-adv-x="573" 
d="M173 0v281l-193 277l176 125l130 -183l131 183l176 -125l-194 -277v-281h-226z" /><glyph glyph-name="Yacute.alt01" horiz-adv-x="573" 
d="M328 706h-110l83 155h147zM173 0v281l-193 277l176 125l130 -183l131 183l176 -125l-194 -277v-281h-226z" /><glyph glyph-name="Ycircumflex.alt01" horiz-adv-x="573" 
d="M130 706l83 155h146l83 -155h-114l-42 71l-42 -71h-114zM173 0v281l-193 277l176 125l130 -183l131 183l176 -125l-194 -277v-281h-226z" /><glyph glyph-name="Ydieresis.alt01" horiz-adv-x="573" 
d="M136 706v121h128v-121h-128zM308 706v121h128v-121h-128zM173 0v281l-193 277l176 125l130 -183l131 183l176 -125l-194 -277v-281h-226z" /><glyph glyph-name="Ygrave.alt01" horiz-adv-x="573" 
d="M173 0v281l-193 277l176 125l130 -183l131 183l176 -125l-194 -277v-281h-226zM347 706h-110l-120 155h147z" /><glyph glyph-name="commaaccent" horiz-adv-x="280" 
d="M135 -196h-110l83 155h147z" /><glyph glyph-name="dollar.alt01" horiz-adv-x="450" 
d="M17 0v200q82 -15 149 -15q34 0 34 27q0 15 -26.5 46t-58.5 63t-58.5 80.5t-26.5 95.5q0 116 103 163v89h166v-68l86 -9v-187q-29 3 -57 3q-52 0 -52 -24q0 -10 25.5 -39.5t56.5 -63t56.5 -83t25.5 -94.5q0 -69 -35.5 -118t-105.5 -69v-80h-166v68q-29 2 -58 6t-43 7z" /><glyph glyph-name="germandbls.alt01" horiz-adv-x="886" 
d="M5 0v200q82 -15 149 -15q34 0 34 27q0 15 -26.5 46t-58.5 63t-58.5 80.5t-26.5 95.5q0 91 62 138.5t159 47.5q29 0 62.5 -2.5t52.5 -5.5l19 -3v-187q-29 3 -57 3q-52 0 -52 -24q0 -10 25.5 -39.5t56.5 -63t56.5 -83t25.5 -94.5q0 -92 -62 -146.5t-184 -54.5
q-40 0 -84 4.5t-68 8.5zM448 0v200q82 -15 149 -15q34 0 34 27q0 15 -26.5 46t-58.5 63t-58.5 80.5t-26.5 95.5q0 91 62 138.5t159 47.5q29 0 62.5 -2.5t52.5 -5.5l19 -3v-187q-29 3 -57 3q-52 0 -52 -24q0 -10 25.5 -39.5t56.5 -63t56.5 -83t25.5 -94.5q0 -92 -62 -146.5
t-184 -54.5q-40 0 -84 4.5t-69 8.5z" /><glyph glyph-name="k.alt01" horiz-adv-x="595" 
d="M35 0v667h216v-158l193 190l147 -148l-184 -183l203 -274l-173 -127l-186 251v-218h-216z" /><glyph glyph-name="kcommaaccent.alt01" horiz-adv-x="595" 
d="M268 -196h-110l83 155h147zM35 0v667h216v-158l193 190l147 -148l-184 -183l203 -274l-173 -127l-186 251v-218h-216z" /><glyph glyph-name="kgreenlandic.alt01" horiz-adv-x="595" 
d="M35 0v667h216v-158l193 190l147 -148l-184 -183l203 -274l-173 -127l-186 251v-218h-216z" /><glyph glyph-name="quotedblbase.alt01" horiz-adv-x="450" 
d="M0 -103l87 270h160l-107 -270h-140zM203 -103l87 270h160l-107 -270h-140z" /><glyph glyph-name="quotedblleft.alt01" horiz-adv-x="450" 
d="M450 667l-87 -270h-160l107 270h140zM247 667l-87 -270h-160l107 270h140z" /><glyph glyph-name="quotedblright.alt01" horiz-adv-x="450" 
d="M0 397l87 270h160l-107 -270h-140zM203 397l87 270h160l-107 -270h-140z" /><glyph glyph-name="s.alt01" horiz-adv-x="443" 
d="M5 0v200q82 -15 149 -15q34 0 34 27q0 15 -26.5 46t-58.5 63t-58.5 80.5t-26.5 95.5q0 91 62 138.5t159 47.5q29 0 62.5 -2.5t52.5 -5.5l19 -3v-187q-29 3 -57 3q-52 0 -52 -24q0 -10 25.5 -39.5t56.5 -63t56.5 -83t25.5 -94.5q0 -92 -62 -146.5t-184 -54.5
q-40 0 -84 4.5t-68 8.5z" /><glyph glyph-name="sacute.alt01" horiz-adv-x="443" 
d="M260 706h-110l83 155h147zM5 0v200q82 -15 149 -15q34 0 34 27q0 15 -26.5 46t-58.5 63t-58.5 80.5t-26.5 95.5q0 91 62 138.5t159 47.5q29 0 62.5 -2.5t52.5 -5.5l19 -3v-187q-29 3 -57 3q-52 0 -52 -24q0 -10 25.5 -39.5t56.5 -63t56.5 -83t25.5 -94.5
q0 -92 -62 -146.5t-184 -54.5q-40 0 -84 4.5t-68 8.5z" /><glyph glyph-name="scaron.alt01" horiz-adv-x="443" 
d="M5 0v200q82 -15 149 -15q34 0 34 27q0 15 -26.5 46t-58.5 63t-58.5 80.5t-26.5 95.5q0 91 62 138.5t159 47.5q29 0 62.5 -2.5t52.5 -5.5l19 -3v-187q-29 3 -57 3q-52 0 -52 -24q0 -10 25.5 -39.5t56.5 -63t56.5 -83t25.5 -94.5q0 -92 -62 -146.5t-184 -54.5
q-40 0 -84 4.5t-68 8.5zM141 706l-83 155h114l42 -71l42 71h114l-83 -155h-146z" /><glyph glyph-name="scedilla.alt01" horiz-adv-x="443" 
d="M5 0v200q82 -15 149 -15q34 0 34 27q0 15 -26.5 46t-58.5 63t-58.5 80.5t-26.5 95.5q0 91 62 138.5t159 47.5q29 0 62.5 -2.5t52.5 -5.5l19 -3v-187q-29 3 -57 3q-52 0 -52 -24q0 -10 25.5 -39.5t56.5 -63t56.5 -83t25.5 -94.5q0 -79 -46.5 -131.5t-138.5 -65.5l-17 -35
q4 0 10.5 -0.5t24 -6t30.5 -14.5t23.5 -28.5t10.5 -45.5q0 -47 -36.5 -82t-118.5 -35q-26 0 -52.5 3t-39.5 6l-14 3l20 77q36 -11 71 -11q27 0 43.5 10.5t16.5 29.5q0 36 -54 36l-42 -5l47 94q-37 1 -77 5t-62 8z" /><glyph glyph-name="scircumflex.alt01" horiz-adv-x="443" 
d="M5 0v200q82 -15 149 -15q34 0 34 27q0 15 -26.5 46t-58.5 63t-58.5 80.5t-26.5 95.5q0 91 62 138.5t159 47.5q29 0 62.5 -2.5t52.5 -5.5l19 -3v-187q-29 3 -57 3q-52 0 -52 -24q0 -10 25.5 -39.5t56.5 -63t56.5 -83t25.5 -94.5q0 -92 -62 -146.5t-184 -54.5
q-40 0 -84 4.5t-68 8.5zM58 706l83 155h146l83 -155h-114l-42 71l-42 -71h-114z" /><glyph glyph-name="scommaaccent.alt01" horiz-adv-x="443" 
d="M179 -196h-110l83 155h147zM5 0v200q82 -15 149 -15q34 0 34 27q0 15 -26.5 46t-58.5 63t-58.5 80.5t-26.5 95.5q0 91 62 138.5t159 47.5q29 0 62.5 -2.5t52.5 -5.5l19 -3v-187q-29 3 -57 3q-52 0 -52 -24q0 -10 25.5 -39.5t56.5 -63t56.5 -83t25.5 -94.5
q0 -92 -62 -146.5t-184 -54.5q-40 0 -84 4.5t-68 8.5z" /><glyph glyph-name="sterling.alt01" horiz-adv-x="464" 
d="M38 247h-43v160h44v21q0 127 67.5 191t181.5 64q47 0 93.5 -12t69.5 -24l23 -12l-90 -165q-27 19 -64 19q-60 0 -60 -55v-27h119v-160h-121v-72h196v-175h-416v247z" /><glyph glyph-name="sterling.alt02" horiz-adv-x="446" 
d="M240 175h216l-63 -175h-403l34 247h-34l22 160h35l12 84q27 192 243 192q29 0 63 -4t54 -8l20 -4l-27 -186q-33 7 -71 7q-55 0 -62 -42l-6 -39h101l-22 -160h-101z" /><glyph glyph-name="sterling.alt03" horiz-adv-x="470" 
d="M279 447l-6 -40h101l-22 -160h-101l-11 -72h230l-63 -175h-417l34 247h-34l22 160h35l9 66q14 101 73.5 155.5t159.5 54.5q56 0 106.5 -18.5t72.5 -36.5l22 -19l-102 -142q-24 22 -58 22q-18 0 -33 -11t-18 -31z" /><glyph glyph-name="uni1E60.alt01" horiz-adv-x="443" 
d="M5 0v200q82 -15 149 -15q34 0 34 27q0 15 -26.5 46t-58.5 63t-58.5 80.5t-26.5 95.5q0 91 62 138.5t159 47.5q29 0 62.5 -2.5t52.5 -5.5l19 -3v-187q-29 3 -57 3q-52 0 -52 -24q0 -10 25.5 -39.5t56.5 -63t56.5 -83t25.5 -94.5q0 -92 -62 -146.5t-184 -54.5
q-40 0 -84 4.5t-68 8.5zM140 706v121h128v-121h-128z" /><glyph glyph-name="uni1E61.alt01" horiz-adv-x="443" 
d="M5 0v200q82 -15 149 -15q34 0 34 27q0 15 -26.5 46t-58.5 63t-58.5 80.5t-26.5 95.5q0 91 62 138.5t159 47.5q29 0 62.5 -2.5t52.5 -5.5l19 -3v-187q-29 3 -57 3q-52 0 -52 -24q0 -10 25.5 -39.5t56.5 -63t56.5 -83t25.5 -94.5q0 -92 -62 -146.5t-184 -54.5
q-40 0 -84 4.5t-68 8.5zM140 706v121h128v-121h-128z" /><glyph glyph-name="uni1EF4.alt01" horiz-adv-x="573" 
d="M223 -162v121h128v-121h-128zM173 0v281l-193 277l176 125l130 -183l131 183l176 -125l-194 -277v-281h-226z" /><glyph glyph-name="uni1EF5.alt01" horiz-adv-x="573" 
d="M223 -162v121h128v-121h-128zM173 0v281l-193 277l176 125l130 -183l131 183l176 -125l-194 -277v-281h-226z" /><glyph glyph-name="uni1EF6.alt01" horiz-adv-x="573" 
d="M173 0v281l-193 277l176 125l130 -183l131 183l176 -125l-194 -277v-281h-226zM216 820l-16 61q38 10 77 10q67 0 99.5 -28.5t32.5 -65.5q0 -36 -26.5 -58t-68.5 -22v-24h-66v76q4 -1 22 -1q17 0 28 8t11 23q0 30 -42 30q-12 0 -25 -2.5t-20 -4.5z" /><glyph glyph-name="uni1EF7.alt01" horiz-adv-x="573" 
d="M173 0v281l-193 277l176 125l130 -183l131 183l176 -125l-194 -277v-281h-226zM216 820l-16 61q38 10 77 10q67 0 99.5 -28.5t32.5 -65.5q0 -36 -26.5 -58t-68.5 -22v-24h-66v76q4 -1 22 -1q17 0 28 8t11 23q0 30 -42 30q-12 0 -25 -2.5t-20 -4.5z" /><glyph glyph-name="uni1EF8.alt01" horiz-adv-x="573" 
d="M211 706h-85q0 134 104 134q28 0 64.5 -16t42.5 -16q23 0 23 32h85q0 -134 -104 -134q-28 0 -64.5 15.5t-42.5 15.5q-23 0 -23 -31zM173 0v281l-193 277l176 125l130 -183l131 183l176 -125l-194 -277v-281h-226z" /><glyph glyph-name="uni1EF9.alt01" horiz-adv-x="573" 
d="M211 706h-85q0 134 104 134q28 0 64.5 -16t42.5 -16q23 0 23 32h85q0 -134 -104 -134q-28 0 -64.5 15.5t-42.5 15.5q-23 0 -23 -31zM173 0v281l-193 277l176 125l130 -183l131 183l176 -125l-194 -277v-281h-226z" /><glyph glyph-name="y.alt01" horiz-adv-x="573" 
d="M173 0v281l-193 277l176 125l130 -183l131 183l176 -125l-194 -277v-281h-226z" /><glyph glyph-name="yacute.alt01" horiz-adv-x="573" 
d="M328 706h-110l83 155h147zM173 0v281l-193 277l176 125l130 -183l131 183l176 -125l-194 -277v-281h-226z" /><glyph glyph-name="ycircumflex.alt01" horiz-adv-x="573" 
d="M130 706l83 155h146l83 -155h-114l-42 71l-42 -71h-114zM173 0v281l-193 277l176 125l130 -183l131 183l176 -125l-194 -277v-281h-226z" /><glyph glyph-name="ydieresis.alt01" horiz-adv-x="573" 
d="M136 706v121h128v-121h-128zM308 706v121h128v-121h-128zM173 0v281l-193 277l176 125l130 -183l131 183l176 -125l-194 -277v-281h-226z" /><glyph glyph-name="ygrave.alt01" horiz-adv-x="573" 
d="M173 0v281l-193 277l176 125l130 -183l131 183l176 -125l-194 -277v-281h-226zM347 706h-110l-120 155h147z" /></font>
</defs>
</svg>
