<svg width="495" height="701" viewBox="0 0 495 701" fill="none" xmlns="http://www.w3.org/2000/svg"><path d="M183.671 646.697C185.959 646.828 188.364 647.109 190.683 646.87C190.735 646.978 190.782 647.076 190.819 647.158C213.166 655.396 228.701 654.961 251.061 663.165C261.58 667.026 280.093 672.571 291.064 668.815C299.747 665.843 312.439 656.299 317.89 649.041C331.564 630.835 332.053 604.618 337.657 583.127C343.84 559.415 347.212 538.222 354.6 514.858C361.978 491.523 366.487 466.248 374.616 443.181C374.779 439.347 376.288 435.751 377.504 432.099C379.078 427.373 380.68 422.657 382.225 417.921C385.16 408.924 387.991 399.893 390.716 390.829C396.167 372.704 401.197 354.458 405.805 336.093C410.349 317.983 414.524 299.782 418.33 281.49C422.127 263.208 424.931 244.494 430.902 226.754C433.218 219.875 436.976 211.099 445.941 213.031C448.209 213.526 450.289 214.653 451.942 216.283C452.131 215.542 453.311 215.219 453.673 216.022C456.261 221.671 458.379 227.522 460.007 233.518C461.718 239.908 463.299 246.323 464.865 252.75C467.803 264.798 470.269 277.146 474.826 288.712C479.056 299.446 484.912 309.832 485.786 321.557C486.692 333.705 480.02 342.362 473.712 351.959C460.941 371.391 455.123 394.037 450.523 416.562C445.389 441.692 440.684 466.917 435.678 492.074C432.933 505.866 430.833 520.042 426.395 533.419C425.04 537.541 423.473 541.591 421.7 545.551C426.942 562.741 431.465 580.129 437.795 596.989C444.662 615.394 453.012 633.21 462.763 650.262C467.639 658.751 472.864 667.026 478.438 675.087C481.221 679.114 484.089 683.081 487.042 686.988C489.852 690.707 493.626 694.448 493.963 699.348C494.548 707.835 484.041 715.346 478.114 719.843C428.45 757.526 363.874 775.594 302.308 777.647C292.454 777.976 282.259 778.442 272.991 774.496C255.049 766.858 248.293 747.63 240.265 731.481C235.273 721.437 230.808 711.866 223.957 703.069C217.79 695.151 213.62 687.346 209.733 678.081C206.389 670.112 200.123 661.801 193.517 655.851C190.046 652.723 185.261 651.576 181.922 648.283C181.406 647.772 180.937 647.217 180.518 646.624C181.582 646.582 182.657 646.639 183.671 646.697Z" fill="#FFE4D2"/><path d="M100.111 127.844C101.26 123.987 103.268 120.441 105.985 117.473C108.702 114.505 112.057 112.192 115.796 110.708C122.115 108.209 131.495 107.908 135.695 113.844C137.653 114.055 139.372 115.702 138.761 118.356C134.12 138.507 124.732 157.724 122.727 178.476C122.402 181.84 118.491 182.93 116.51 180.161C110.953 172.392 105.403 164.422 102.518 155.213C99.8915 146.83 97.5438 136.495 100.111 127.844Z" fill="#FFE4D2"/><path d="M59.528 225.306C66.8991 219.612 76.9499 214.771 86.3877 217.558C92.3738 219.326 97.6576 223.133 102.487 227.418C104.877 228.825 107.041 230.583 109.258 232.385C112.91 235.278 116.395 238.376 119.697 241.663C125.748 247.837 130.9 254.939 133.856 263.121C136.919 271.599 136.06 280.339 130.428 287.49C128.088 290.46 125.124 293.3 121.73 295.037C117.279 297.316 112.484 297.094 107.646 296.598C98.1931 295.629 89.8128 293.05 82.0721 287.421C74.6167 281.985 67.6574 275.9 61.2758 269.235C55.3661 263.076 47.6889 255.451 47.3166 246.357C46.9687 237.851 53.1578 230.227 59.528 225.306Z" fill="#FFE4D2"/><path d="M39.9756 312.312C44.5042 304.781 52.1202 300.696 60.697 299.848C61.2818 299.787 61.8723 299.883 62.4079 300.126C62.9434 300.368 63.4045 300.75 63.7438 301.23C74.1912 301.822 84.7374 309.179 92.6887 317.182C98.3741 320.909 103.768 325.256 109.011 329.368C116.39 335.156 123.639 341.256 130.294 347.874C135.94 353.487 141.115 360.53 140.363 368.917C139.636 377.025 133.351 385.537 127.319 390.728C112.621 403.377 92.7431 388.25 80.8283 379.052C72.618 372.713 64.2731 366.496 56.3328 359.819C49.7158 354.254 42.8322 348.096 39.2041 340.07C35.2642 331.354 34.939 320.687 39.9756 312.312Z" fill="#FFE4D2"/><path d="M1.7598 437.603C3.306 426.312 11.6819 419.242 22.035 418.035C34.1944 416.617 47.0849 418.406 59.0804 420.454C65.999 421.63 72.8445 423.202 79.5832 425.162C82.8341 426.111 86.0601 427.141 89.2613 428.255C92.1502 429.264 95.4303 430.084 97.7701 432.133C100.227 433.253 102.166 436.194 103.615 439.412C105.927 439.369 108.495 441.306 107.908 444.302C107.522 446.529 107.206 448.777 106.645 450.967C106.626 451.039 106.595 451.098 106.574 451.167C105.74 454.752 104.491 458.159 101.79 460.999C97.6237 465.378 90.9691 467.961 85.4918 470.156C78.7763 472.847 71.6688 473.765 64.4718 473.734C58.3127 473.707 51.9258 472.825 45.7373 473.374C43.7329 476.561 42.6595 480.361 42.2169 484.081C41.9035 486.713 39.1309 489.168 36.4638 487.383C27.2227 481.225 19.0374 473.614 12.2245 464.843C5.82239 456.577 0.253609 448.603 1.7598 437.603Z" fill="#FFE4D2"/><path d="M127.652 250.258C132.708 260.152 126.69 273.174 116.797 278.226C106.904 283.279 94.7 281.678 84.655 276.936C69.4882 269.774 58.1509 256.208 50.1958 241.438C48.908 251.7 52.9851 262.116 59.4546 270.184C65.924 278.252 74.6103 284.244 83.5708 289.404C90.6668 293.49 98.2111 297.19 106.344 298.136C114.477 299.082 123.361 296.852 128.744 290.68C133.191 285.579 134.727 278.36 133.828 271.652C132.929 264.944 129.805 258.701 127.652 250.258Z" fill="#FFA294"/><path d="M129.679 349.704C131.356 355.278 129.081 361.543 124.935 365.627C120.788 369.71 115.055 371.848 109.305 372.74C94.009 375.11 78.2872 369.218 66.0691 359.712C53.851 350.206 44.6806 337.362 36.5009 324.217C36.2068 333.193 40.0049 341.92 45.3914 349.105C50.7778 356.29 57.6962 362.155 64.5517 367.954C75.3098 377.055 86.324 386.311 99.432 391.477C105.709 393.951 112.608 395.438 119.218 394.083C128.775 392.123 136.629 383.923 138.588 374.362C140.546 364.801 136.726 354.383 129.679 349.704Z" fill="#FFA294"/><path d="M95.9223 431.385C99.0845 434.464 99.1449 439.787 97.0389 443.667C94.9329 447.547 91.1251 450.207 87.2031 452.232C77.0516 457.472 65.4697 459.332 54.0542 459.75C44.6231 460.095 35.0456 459.484 26.0669 456.576C17.0883 453.668 8.70399 448.308 3.345 440.537C4.78054 461.579 19.4119 481.144 39.1844 488.463C40.9578 483.666 42.7312 478.869 44.5046 474.072C58.005 474.374 71.7706 474.502 84.6756 470.524C93.4225 467.827 102.153 462.643 105.584 454.154C109.014 445.666 104.437 433.872 95.9223 431.385Z" fill="#FFA294"/><path d="M138.417 117.244C134.466 116.695 130.291 116.436 126.628 118.018C122.875 119.64 120.153 122.993 118.027 126.487C107.754 143.377 109.069 166.559 121.188 182.176C121.298 171.74 124.644 161.642 127.955 151.745C131.679 140.613 135.403 129.481 138.417 117.244Z" fill="#FFA294"/><path d="M443.688 212.931C431.053 228.208 429.883 249.757 430.713 269.568C431.474 287.754 433.422 305.871 436.542 323.803C437.173 327.432 437.854 331.144 437.219 334.772C436.563 338.519 434.553 341.879 432.427 345.033C422.452 359.795 409.216 372.064 393.743 380.891C402.743 328.359 415.675 276.578 432.429 225.985C434.097 220.947 436.339 215.337 443.688 212.931Z" fill="#FFA294"/><path d="M301.933 664.418C286.344 668.103 272.71 677.516 263.737 690.79C252.509 707.555 249.969 728.481 247.736 748.537C243.745 731.483 232.5 717.224 224.031 701.895C212.958 681.85 204.946 657.762 184.812 646.862C199.997 651.379 215.181 655.896 230.366 660.413C251.871 666.81 274.501 673.263 301.933 664.418Z" fill="#FFA294"/><path d="M20.932 562.478L43.9597 475.448C50.5626 476.258 57.2313 476.387 63.8605 475.832C69.0825 475.481 74.2707 474.737 79.3814 473.608C83.767 472.597 88.2169 471.622 92.3922 469.906C96.8067 468.092 100.742 465.438 103.534 461.507C106.271 457.739 107.707 453.182 107.626 448.524C107.52 443.805 105.687 439.288 102.475 435.831C99.1529 432.315 94.7224 429.671 90.2354 427.948C85.2356 426.029 79.8712 425.488 74.7684 423.914C69.4648 422.279 64.2643 420.297 58.7376 419.597L71.2159 372.436C74.3334 375.224 77.7071 377.704 81.4672 379.402C81.7413 379.543 82.0485 379.606 82.3558 379.585C82.6632 379.564 82.959 379.46 83.2114 379.283C87.5799 383.645 91.9739 388.082 96.8322 391.864C102.103 395.966 108.113 398.786 114.93 397.931C120.157 397.275 125.138 395.501 129.296 392.211C136.657 386.386 139.403 376.742 138.086 367.684C137.358 362.869 135.57 358.276 132.852 354.237C131.126 351.765 129.16 349.47 126.983 347.385C124.155 344.56 121.223 341.841 118.245 339.175C112.567 334.091 106.821 329.045 100.925 324.215C98.2061 321.987 95.4689 319.774 92.8994 317.372C90.8898 315.493 88.9284 313.497 87.4232 311.184L92.0629 293.649C96.874 295.84 101.995 297.239 107.43 297.292C113.062 297.32 118.628 296.079 123.715 293.662C127.232 291.991 130.452 289.603 132.656 286.356C136.687 280.416 135.94 272.825 133.666 266.376C130.964 258.714 126.415 251.769 121.512 245.349C117.537 240.185 113.279 235.244 108.758 230.55L161.688 30.5093C170.324 6.94803 198.242 -0.20086 208.793 2.62845L439.604 62.3172C450.155 65.1465 465.985 95.7434 463.156 106.299L322.236 647C319.408 657.555 285.335 673.758 274.783 670.928L47.1657 610.721C36.6149 607.892 19.0029 586.021 20.932 562.478Z" fill="#ACBEFF"/><path d="M38.7061 553.379L59.8502 475.047C66.0542 475.864 70.1055 474.039 76.2616 473.572C81.1396 473.201 86.0576 471.351 90.8291 470.251C94.95 469.301 97.5081 463.475 101.431 461.863C105.579 460.158 104.248 456.051 106.872 452.357C109.397 448.802 108.656 446.41 108.531 442.027C108.405 437.615 105.856 438.974 102.815 435.755C99.6935 432.452 96.3362 431.286 92.1199 429.668C87.422 427.864 86.0351 426.719 81.2404 425.24C76.2569 423.703 78.5044 423.499 73.3112 422.842L84.9283 382.259C87.8576 384.878 85.6364 382.692 89.1695 384.288C89.7248 384.539 93.1374 386.854 93.5951 386.502C97.6999 390.6 99.3563 390.881 103.921 394.434C108.874 398.289 116.203 395.036 122.609 394.232C127.52 393.616 129.149 388.67 133.056 385.579C139.973 380.106 141.116 373.799 139.879 365.287C139.225 360.789 137.794 357.439 135.269 353.666C133.682 351.293 132.12 349.959 130.106 347.947C127.449 345.293 124.791 343.074 121.992 340.568C116.657 335.792 112.227 331.456 106.687 326.918C104.132 324.825 102.279 325.116 99.8646 322.859C97.9762 321.094 103.492 318.946 102.077 316.772L106.503 297.771C111.024 299.83 111.353 297.722 116.46 297.771C121.7 297.822 123.164 294.853 127.893 292.606C131.198 291.036 131.17 285.881 133.241 282.829C137.028 277.248 136.299 275.054 134.163 268.994C131.624 261.795 133.4 256.892 128.794 250.86C125.076 245.993 125.669 244.643 121.439 240.217L172.632 46.2331C180.078 18.2989 202.501 15.5968 212.416 18.2553L432.999 78.5454C442.913 81.2039 449.443 105.274 446.786 115.192L312.86 627.461C310.202 637.379 293.232 658.097 283.317 655.438L58.0071 596.725C48.0932 594.066 34.7671 581.357 38.7061 553.379Z" fill="white"/><path d="M420.02 282.857C421.156 297.465 423.874 311.874 426.948 326.182C427.557 329.017 423.204 330.229 422.592 327.383C419.434 312.683 416.67 297.865 415.503 282.857C415.277 279.958 419.795 279.972 420.02 282.857Z" fill="black"/><path d="M481 305.381C471.174 288.796 466.21 270.037 461.751 251.441C459.569 242.34 457.874 232.882 454.83 224.022C453.61 220.468 451.276 215.699 447.192 214.875C442.449 213.918 438.554 218.696 435.79 221.879C433.88 224.078 430.697 220.871 432.596 218.684C437.726 212.777 445.475 206.781 452.908 212.817C460.123 218.676 461.335 230.348 463.372 238.78C468.679 260.753 473.242 283.423 484.9 303.1C486.386 305.607 482.482 307.883 481 305.381Z" fill="black"/><path d="M485.921 305.396C493.449 318.973 487.17 333.78 480.214 346.109C472.035 360.606 464.557 375.348 458.788 390.991C453.058 406.368 448.995 422.316 446.67 438.561C444.281 455.705 443.651 473.029 440.788 490.118C437.596 509.03 432.5 527.57 425.577 545.456C424.542 548.14 420.173 546.974 421.222 544.254C427.177 528.862 431.787 512.981 434.998 496.792C438.295 480.074 439.358 463.162 441.21 446.258C444.639 414.976 454.382 385.058 468.926 357.2C476.431 342.825 491.318 324.444 482.021 307.677C480.609 305.132 484.509 302.85 485.921 305.396Z" fill="black"/><path d="M138.243 116.913C135.098 114.5 131.396 112.919 127.479 112.315C123.562 111.71 119.556 112.102 115.831 113.455C107.346 116.522 102.369 124.412 101.145 133.099C98.4473 152.254 111.734 168.282 121.89 183.008C123.544 185.407 119.631 187.669 117.99 185.289C106.358 168.423 91.2206 149.127 97.8083 127.251C103.215 109.298 125.33 101.335 140.523 113.011C142.796 114.758 140.549 118.685 138.243 116.913Z" fill="black"/><path d="M106.529 299.83C96.1603 298.395 86.6749 293.292 78.103 287.503C70.0445 282.061 62.2609 276.008 56.1565 268.372C50.4232 261.201 45.6709 252.246 46.5137 242.778C47.17 235.406 51.0027 228.65 56.4755 223.757C62.01 218.762 68.9935 215.665 76.4095 214.916C84.7849 214.138 91.9723 217.706 98.9613 221.934C114.366 231.253 128.704 245.648 135.608 262.53C139.116 271.109 139.434 281.104 133.785 288.866C127.627 297.326 117.294 300.958 107.129 299.911C104.266 299.616 104.236 295.094 107.129 295.392C116.031 296.309 125.34 293.453 130.521 285.68C134.719 279.383 134.299 271.612 131.674 264.788C125.94 249.883 113.302 236.8 100.21 228.079C94.278 224.127 87.525 219.715 80.2114 219.341C73.6722 219.006 67.1221 221.332 61.8766 225.168C56.5378 229.071 52.3251 234.847 51.21 241.459C49.714 250.329 54.3366 258.999 59.7517 265.68C65.5296 272.81 72.8173 278.492 80.3827 283.602C88.6756 289.202 97.6982 294.084 107.73 295.473C110.597 295.87 109.376 300.224 106.529 299.83Z" fill="black"/><path d="M112.323 330.498C123.706 340.181 140.429 350.834 141.689 367.312C142.892 383.031 125.88 401.271 109.764 399.034C105.797 398.484 102.553 396.581 99.2681 394.425C94.0374 390.992 88.9689 387.308 83.917 383.62C81.5921 381.923 83.8435 378 86.1968 379.718C91.118 383.311 96.0569 386.894 101.141 390.255C104.557 392.514 107.857 394.612 112.103 394.714C122.301 394.961 131.481 385.783 135.357 377.056C143.714 358.237 121.21 343.969 109.129 333.693C106.911 331.807 110.119 328.624 112.323 330.498Z" fill="black"/><path d="M102.082 321.328C104.793 323.766 107.474 326.236 110.126 328.737C112.245 330.737 109.047 333.929 106.932 331.933C104.281 329.43 101.6 326.96 98.8876 324.524C96.721 322.576 99.9238 319.388 102.082 321.328Z" fill="black"/><path d="M36.8396 490.511C25.6398 483.001 15.7719 473.571 8.10682 462.447C1.45659 452.795 -3.21736 440.025 2.72971 428.848C8.03333 418.881 20.0027 416.266 30.3734 416.082C45.1343 415.82 60.2514 418.341 74.622 421.514C77.4592 422.141 76.2586 426.498 73.4212 425.872C60.7532 423.075 47.8298 421.141 34.8543 420.653C25.3284 420.295 12.8277 421.042 7.22513 430.097C0.643623 440.734 6.962 453.358 13.4977 462.255C20.5665 471.794 29.2355 480.034 39.1194 486.609C41.522 488.22 39.2634 492.136 36.8396 490.511Z" fill="black"/><path d="M60.7979 476.281C52.3091 476.306 43.8204 476.329 35.3316 476.351C32.4249 476.359 32.4207 471.84 35.3316 471.833C43.8204 471.812 52.3092 471.788 60.7979 471.763C63.7046 471.754 63.7087 476.273 60.7979 476.281Z" fill="black"/><path d="M424.345 547.361C425.008 553.764 427.532 560.166 429.697 566.173C433.314 576.213 437.448 586.067 441.754 595.828C451.867 618.751 462.98 641.288 475.209 663.156C481.222 673.909 487.507 684.551 494.592 694.638C496.267 697.022 492.352 699.283 490.692 696.919C477.094 677.561 465.958 656.383 455.38 635.267C444.693 613.936 434.521 592.18 426.226 569.792C423.56 562.598 420.624 555.052 419.828 547.361C419.529 544.471 424.048 544.492 424.345 547.361Z" fill="black"/><path d="M205.635 663.84C219.797 689.493 233.694 715.294 247.732 741.015C250.811 746.658 253.9 752.297 256.997 757.93C258.404 760.478 254.504 762.76 253.097 760.211C238.934 734.558 225.037 708.758 211 683.036C207.92 677.393 204.832 671.754 201.734 666.121C200.328 663.573 204.227 661.291 205.635 663.84Z" fill="black"/><path d="M85.1219 311.208C86.5065 305.592 87.8911 299.976 89.2757 294.36C89.9714 291.538 94.3285 292.733 93.6313 295.561C92.2467 301.177 90.8621 306.793 89.4775 312.409C88.7818 315.231 84.4247 314.036 85.1219 311.208Z" fill="black"/><path d="M106.931 229.08C113.122 205.315 119.313 181.551 125.503 157.787C130.248 139.574 135 121.362 139.759 103.153C143.799 87.773 147.839 72.393 151.878 57.0128C154.895 45.5274 156.963 32.5598 163.532 22.4715C175.198 4.55419 197.258 -3.67011 217.851 1.54757C223.24 2.91295 228.607 4.3742 233.983 5.78725C262.147 13.1892 290.312 20.5911 318.476 27.9931C347.917 35.7306 377.357 43.468 406.798 51.2055C413.598 52.9927 420.403 54.7642 427.199 56.5671C443.95 61.0111 457.542 73.1487 462.857 89.8199C467.63 104.791 463.279 118.425 459.519 132.744L445.072 187.753C437.843 215.28 430.614 242.806 423.385 270.333C414.897 302.654 406.409 334.974 397.921 367.295C389.328 400.014 380.736 432.733 372.143 465.452C364.575 494.268 357.008 523.084 349.44 551.901C344.112 572.188 338.784 592.474 333.457 612.761C331.222 621.272 329.417 630.063 326.601 638.411C319.242 660.23 296.994 674.537 274.076 671.884C267.799 671.158 261.594 669.154 255.498 667.552C228.748 660.521 201.997 653.491 175.246 646.46L83.9592 622.469C75.7731 620.317 67.5871 618.166 59.4011 616.014C45.9497 612.479 34.266 605.288 26.8595 593.187C20.8695 583.361 18.4659 571.763 20.0571 560.364C20.6342 556.268 21.8053 552.268 22.8388 548.269C26.6664 533.458 30.494 518.647 34.3217 503.836C36.7761 494.339 39.2304 484.842 41.6848 475.345C42.4119 472.531 46.7697 473.724 46.0405 476.546C39.7584 500.854 33.4764 525.162 27.1943 549.471C26.1496 553.513 24.9056 557.598 24.3924 561.747C22.9721 573.586 26.2595 585.509 33.5455 594.945C41.0178 604.582 51.336 609.222 62.712 612.212L132.529 630.561C163.632 638.735 194.735 646.909 225.838 655.084C236.541 657.896 247.244 660.709 257.947 663.522C264.825 665.33 271.763 667.579 278.925 667.686C299.701 667.999 317.837 653.745 323.246 633.854C323.948 631.273 324.606 628.678 325.285 626.091C329.297 610.815 333.309 595.539 337.32 580.263C343.919 555.137 350.518 530.01 357.117 504.884C365.254 473.9 373.39 442.916 381.527 411.932C390.046 379.494 398.565 347.055 407.084 314.617C414.951 284.661 422.818 254.705 430.685 224.749C436.746 201.671 442.807 178.592 448.868 155.513C452.065 143.341 455.261 131.169 458.458 118.998C460.759 110.235 461.468 101.394 458.951 92.5218C454.328 76.228 441.333 64.9547 425.257 60.7295L363.571 44.5177C332.09 36.244 300.609 27.9703 269.128 19.6966C251.666 15.1074 234.237 10.3634 216.735 5.9271C195.177 0.462299 172.182 11.343 163.54 32.0802C159.387 42.0456 157.508 53.3649 154.778 63.7578C149.596 83.4858 144.42 103.215 139.248 122.946C131.779 151.619 124.309 180.292 116.84 208.965C114.989 216.07 113.138 223.176 111.287 230.281C110.555 233.093 106.197 231.9 106.931 229.08Z" fill="black"/><path d="M57.9132 418.005C61.4811 403.152 65.0491 388.299 68.6171 373.446C69.296 370.619 73.6527 371.816 72.9726 374.647C69.4047 389.5 65.8368 404.353 62.2688 419.206C61.5899 422.032 57.2332 420.836 57.9132 418.005Z" fill="black"/><path d="M61.5779 476.546C55.5644 500.422 49.5509 524.297 43.5374 548.173C42.6029 551.883 41.6551 555.59 40.734 559.304C37.9985 570.332 41.0847 582.004 49.7886 589.574C55.8041 594.805 63.3026 596.252 70.7295 598.204C95.079 604.604 119.429 611.005 143.778 617.405L234.033 641.129L263.574 648.894C271.77 651.048 279.523 653.436 288.117 650.858C298.998 647.594 305.863 638.734 308.655 628.104C309.681 624.199 310.706 620.294 311.732 616.389C316.159 599.529 320.587 582.67 325.015 565.81C331.722 540.27 338.429 514.73 345.136 489.191C353.13 458.752 361.124 428.313 369.118 397.874C377.426 366.24 385.734 334.605 394.041 302.971C401.59 274.229 409.138 245.487 416.686 216.745C422.503 194.596 428.32 172.446 434.137 150.296L443.396 115.04C445.497 107.038 445.745 98.9238 441.797 91.3073C437.834 83.6632 430.933 78.4304 422.696 76.1717C420.899 75.6791 419.091 75.2243 417.289 74.7507C394.516 68.7649 371.743 62.7791 348.969 56.7934C318.455 48.7728 287.94 40.7522 257.425 32.7317C246.555 29.8745 235.684 27.0173 224.814 24.1601C220.104 22.9221 215.378 21.4131 210.589 20.4993C197.866 18.0722 184.867 24.5191 178.908 35.9725C177.501 38.677 176.717 41.5301 175.952 44.4435C173.937 52.1134 171.923 59.7834 169.909 67.4534C162.347 96.2436 154.786 125.034 147.224 153.824L126.658 232.13C125.567 236.283 124.477 240.436 123.386 244.589C122.648 247.4 118.29 246.208 119.03 243.388C123.3 227.133 127.569 210.877 131.838 194.621C140.028 163.439 148.218 132.257 156.407 101.074C161.59 81.3429 166.715 61.5956 171.954 41.8792C176.421 25.0676 192.127 13.3227 209.766 15.8059C215.182 16.5683 220.553 18.3672 225.827 19.7534C251.897 26.6057 277.967 33.458 304.037 40.3103C333.888 48.1565 363.74 56.0028 393.592 63.849C402.353 66.1519 411.114 68.4547 419.875 70.7575C430.673 73.5956 440.277 78.6067 445.697 89.0266C452.612 102.319 448.066 115.045 444.602 128.235C439.971 145.869 435.34 163.503 430.709 181.136C423.761 207.593 416.813 234.049 409.865 260.505L385.23 354.309C376.82 386.332 368.41 418.355 360.001 450.377C352.458 479.098 344.915 507.819 337.373 536.539C331.763 557.901 326.153 579.263 320.543 600.625C317.931 610.57 315.362 620.529 312.707 630.463C308.971 644.438 297.501 654.99 282.918 656.462C275.457 657.214 268.328 654.816 261.217 652.947C235.984 646.314 210.751 639.682 185.518 633.049L94.788 609.201C85.4091 606.736 76.0303 604.27 66.6514 601.805C57.0912 599.292 48.3281 596.124 42.012 587.769C35.547 579.216 33.8105 568.467 36.3621 558.167C37.2874 554.432 38.2419 550.704 39.1818 546.972C42.9689 531.936 46.756 516.9 50.5431 501.864C52.7695 493.024 54.9959 484.184 57.2223 475.345C57.9321 472.526 62.2895 473.72 61.5779 476.546Z" fill="#738EEC"/><path d="M87.235 382.27C83.5565 396.278 79.878 410.286 76.1996 424.294C75.4616 427.104 71.1035 425.912 71.844 423.092C75.5224 409.084 79.2009 395.076 82.8794 381.068C83.6173 378.258 87.9754 379.45 87.235 382.27Z" fill="black"/><path d="M108.882 299.691L103.012 322.489C102.288 325.303 97.9298 324.11 98.6565 321.287C100.613 313.688 102.57 306.089 104.526 298.49C105.251 295.676 109.609 296.868 108.882 299.691Z" fill="black"/><path d="M200.305 664.742C193.309 658.963 186.313 653.185 179.317 647.406C177.074 645.553 180.285 642.372 182.511 644.211C189.507 649.989 196.503 655.768 203.499 661.547C205.742 663.4 202.531 666.581 200.305 664.742Z" fill="black"/><path d="M96.3831 322.664C82.6888 310.011 55.328 289.304 41.1577 312.49C29.9448 330.837 47.266 349.703 60.5297 361.071C67.691 367.208 75.4454 372.579 83.3374 377.723C85.7638 379.304 83.5027 383.218 81.0576 381.624C64.4292 370.786 45.4677 357.952 36.6259 339.51C32.2108 330.301 31.6193 320.069 36.7815 311.014C42.8255 300.411 53.38 295.422 65.3115 298.192C78.4409 301.239 89.8876 310.516 99.577 319.469C101.717 321.446 98.5168 324.635 96.3831 322.664Z" fill="black"/><path d="M74.5024 421.608C89.3046 423.692 113.356 432.287 109.886 451.515C105.93 473.435 81.3754 476.12 63.3595 476.159C60.4528 476.165 60.4485 471.647 63.3595 471.64C79.0071 471.607 101.211 470.278 105.344 451.245C108.982 434.487 85.5306 427.687 73.3017 425.965C70.4352 425.562 71.6548 421.207 74.5024 421.608Z" fill="black"/><path d="M229.954 220.366C229.759 220.46 229.438 220.616 228.991 220.836C228.572 221.039 228.094 221.239 227.557 221.434C227.048 221.613 226.52 221.727 225.973 221.775C225.449 221.828 224.99 221.73 224.597 221.478C224.434 221.362 224.314 221.221 224.237 221.055C224.183 220.894 224.155 220.729 224.152 220.558C224.178 220.371 224.215 220.187 224.263 220.006C224.334 219.831 224.414 219.67 224.502 219.524L231.628 217.648L234.313 207.631C234.367 207.427 234.531 207.313 234.804 207.289C235.084 207.243 235.371 207.259 235.665 207.338C235.959 207.417 236.216 207.546 236.434 207.726C236.659 207.883 236.744 208.064 236.69 208.268L234.479 216.519C235.563 216.276 236.655 215.914 237.755 215.432C238.883 214.933 239.882 214.376 240.75 213.76C241.648 213.127 242.347 212.465 242.848 211.774C243.348 211.083 243.527 210.415 243.384 209.77C243.248 209.103 242.707 208.497 241.761 207.952C240.843 207.391 239.401 206.932 237.435 206.575C237.015 206.511 236.461 206.496 235.772 206.53C235.084 206.563 234.327 206.627 233.501 206.722C232.675 206.816 231.823 206.915 230.946 207.02C230.091 207.13 229.277 207.228 228.502 207.311C227.733 207.372 227.059 207.398 226.48 207.388C225.906 207.356 225.507 207.261 225.282 207.104C225.453 206.737 225.702 206.44 226.03 206.212C226.364 205.962 226.734 205.758 227.141 205.6C227.57 205.448 228.001 205.333 228.434 205.255C228.868 205.177 229.269 205.127 229.639 205.105C231.142 205.022 232.433 204.955 233.514 204.905C234.595 204.855 235.632 204.878 236.626 204.975C237.642 205.077 238.69 205.285 239.771 205.599C240.857 205.89 242.154 206.347 243.662 206.969C244.845 207.626 245.601 208.29 245.931 208.96C246.283 209.637 246.335 210.306 246.085 210.967C245.835 211.628 245.358 212.277 244.653 212.913C243.955 213.526 243.141 214.121 242.21 214.697C241.308 215.256 240.341 215.785 239.309 216.285C238.3 216.791 237.366 217.245 236.506 217.645C235.647 218.046 234.922 218.397 234.331 218.7C233.763 219.009 233.446 219.24 233.381 219.392L229.354 229.668L229.077 229.886C228.922 230.014 228.729 230.144 228.499 230.277C228.299 230.393 228.07 230.477 227.813 230.529C227.579 230.588 227.398 230.54 227.27 230.384L229.954 220.366ZM244.397 233.699C245.244 231.354 245.905 229.069 246.38 226.842C246.878 224.622 247.283 222.389 247.593 220.143C247.904 217.897 248.178 215.604 248.417 213.266C248.655 210.928 248.958 208.485 249.325 205.939C249.343 205.871 249.362 205.755 249.382 205.59C249.424 205.432 249.47 205.262 249.518 205.081C249.573 204.877 249.621 204.696 249.664 204.537C249.729 204.385 249.77 204.275 249.789 204.207L250.977 204.525C250.936 204.951 250.868 205.612 250.773 206.509C250.701 207.412 250.61 208.431 250.5 209.566C250.413 210.707 250.31 211.905 250.192 213.159C250.097 214.42 249.995 215.618 249.885 216.753C249.797 217.894 249.717 218.916 249.645 219.819C249.573 220.722 249.528 221.389 249.509 221.821C249.491 221.889 249.48 222.019 249.477 222.213C249.503 222.389 249.514 222.574 249.51 222.767C249.53 222.967 249.538 223.163 249.535 223.356C249.56 223.533 249.586 223.661 249.613 223.741C249.73 223.578 249.948 223.309 250.267 222.934C250.614 222.542 250.979 222.13 251.362 221.698C251.75 221.244 252.116 220.833 252.457 220.463C252.805 220.071 253.06 219.8 253.221 219.649C253.76 219.089 254.384 218.614 255.096 218.222C255.807 217.831 256.453 217.64 257.033 217.649C257.613 217.659 258.052 217.922 258.35 218.439C258.677 218.939 258.733 219.816 258.519 221.068C258.463 221.369 258.364 221.828 258.223 222.445C258.104 223.068 257.962 223.782 257.795 224.587C257.634 225.369 257.46 226.196 257.275 227.068C257.09 227.941 256.906 228.765 256.722 229.54C256.561 230.322 256.41 231.022 256.269 231.639C256.15 232.263 256.052 232.721 255.973 233.016C256.137 233.399 256.218 233.821 256.216 234.282C256.242 234.726 256.145 235.136 255.922 235.514C255.427 235.551 255.045 235.436 254.777 235.17C254.508 234.904 254.303 234.582 254.162 234.205C254.026 233.805 253.934 233.379 253.885 232.929C253.836 232.479 253.794 232.092 253.759 231.768C254.035 230.919 254.318 230 254.607 229.01C254.897 228.02 255.156 227.01 255.383 225.979C255.64 224.931 255.848 223.883 256.008 222.834C256.19 221.791 256.301 220.789 256.34 219.829C255.987 219.516 255.581 219.492 255.121 219.758C254.685 220.029 254.208 220.496 253.691 221.158C253.202 221.803 252.689 222.588 252.15 223.511C251.612 224.434 251.069 225.417 250.523 226.46C249.983 227.48 249.442 228.5 248.902 229.52C248.385 230.546 247.894 231.47 247.431 232.292C246.991 233.12 246.579 233.799 246.195 234.327C245.833 234.861 245.524 235.154 245.268 235.206L244.397 233.699ZM260.377 237.362C260.035 236.373 259.944 235.354 260.104 234.305C260.27 233.233 260.561 232.146 260.978 231.045C261.394 229.943 261.882 228.848 262.44 227.761C262.998 226.673 263.511 225.621 263.977 224.605C264.449 223.567 264.821 222.587 265.092 221.665C265.37 220.72 265.43 219.863 265.272 219.093C265.188 218.682 264.984 218.445 264.661 218.383C264.367 218.304 264.027 218.262 263.64 218.255C263.282 218.232 262.926 218.161 262.569 218.041C262.236 217.927 261.988 217.63 261.825 217.15C261.872 217.066 261.993 216.977 262.188 216.883C262.366 216.761 262.492 216.698 262.566 216.693C264.683 216.945 266.323 217.615 267.487 218.704C268.68 219.775 269.508 221.077 269.971 222.608C270.441 224.117 270.598 225.749 270.443 227.503C270.311 229.263 269.979 230.957 269.445 232.586C268.912 234.214 268.239 235.684 267.427 236.995C266.621 238.283 265.786 239.224 264.923 239.818C264.061 240.412 263.223 240.551 262.409 240.236C261.596 239.921 260.918 238.963 260.377 237.362ZM262.461 236.647C262.465 236.721 262.509 236.83 262.592 236.973C262.675 237.117 262.755 237.272 262.831 237.438C262.931 237.61 263.022 237.768 263.105 237.911C263.194 238.032 263.258 238.11 263.297 238.145C264.262 237.894 265.058 237.415 265.684 236.71C266.309 236.004 266.79 235.162 267.125 234.184C267.482 233.212 267.716 232.159 267.826 231.023C267.965 229.872 268.012 228.744 267.968 227.64C267.924 226.537 267.802 225.497 267.603 224.521C267.426 223.552 267.218 222.744 266.978 222.098C266.877 222.386 266.71 222.826 266.478 223.42C266.247 224.013 265.994 224.685 265.72 225.436C265.445 226.188 265.148 226.982 264.827 227.818C264.506 228.654 264.194 229.456 263.891 230.224C263.617 230.975 263.364 231.648 263.132 232.241C262.9 232.834 262.734 233.274 262.632 233.563C262.549 233.783 262.479 234.043 262.423 234.344C262.396 234.628 262.379 234.914 262.374 235.204C262.37 235.494 262.368 235.773 262.369 236.04C262.399 236.291 262.43 236.493 262.461 236.647ZM270.687 241.399C270.789 241.111 270.937 240.604 271.131 239.88L272.368 235.261C272.562 234.537 272.687 234.025 272.744 233.724C272.757 233.582 272.791 233.276 272.844 232.805C272.92 232.34 272.995 231.79 273.068 231.154C273.164 230.525 273.258 229.858 273.349 229.155C273.441 228.452 273.523 227.782 273.596 227.147C273.669 226.511 273.733 225.958 273.786 225.487C273.862 225.022 273.91 224.707 273.93 224.543C273.97 224.214 274.035 223.879 274.126 223.54C274.24 223.206 274.386 222.93 274.566 222.711C274.746 222.493 274.973 222.371 275.246 222.348C275.525 222.301 275.882 222.421 276.315 222.707C276.21 223.188 276.092 223.763 275.961 224.432C275.86 225.084 275.76 225.773 275.662 226.499C275.565 227.225 275.493 227.946 275.447 228.662C275.401 229.377 275.404 230.045 275.456 230.666C275.975 229.907 276.455 229.247 276.896 228.686C277.366 228.108 277.855 227.596 278.363 227.15C278.871 226.704 279.415 226.304 279.995 225.949C280.581 225.573 281.261 225.209 282.035 224.858C283.003 224.414 283.729 224.329 284.213 224.605C284.726 224.864 285.065 225.367 285.228 226.114C285.421 226.845 285.494 227.75 285.447 228.83C285.401 229.909 285.313 231.05 285.185 232.254C285.063 233.434 284.944 234.603 284.827 235.761C284.74 236.902 284.734 237.92 284.81 238.814C284.892 239.685 285.097 240.371 285.424 240.871C285.779 241.354 286.342 241.517 287.113 241.36C287.152 242.025 287.054 242.484 286.816 242.736C286.608 242.971 286.316 243.063 285.942 243.011C285.596 242.943 285.213 242.743 284.792 242.412C284.378 242.058 283.981 241.637 283.603 241.147C283.253 240.641 282.967 240.079 282.744 239.461C282.521 238.843 282.421 238.222 282.443 237.597C282.461 237.165 282.561 236.476 282.742 235.53C282.923 234.583 283.088 233.56 283.237 232.46C283.386 231.359 283.45 230.26 283.429 229.163C283.436 228.048 283.262 227.116 282.905 226.365L279.909 228.037C279.817 228.11 279.538 228.472 279.072 229.123C278.629 229.781 278.121 230.543 277.55 231.409C276.984 232.252 276.424 233.121 275.868 234.016C275.319 234.888 274.898 235.6 274.604 236.152C274.505 236.343 274.345 236.713 274.125 237.261C273.912 237.786 273.686 238.357 273.448 238.972C273.211 239.588 272.993 240.173 272.796 240.727C272.628 241.264 272.514 241.646 272.453 241.872C272.14 242.225 271.791 242.35 271.406 242.247C271.021 242.144 270.782 241.861 270.687 241.399ZM292.59 247.268C291.84 246.266 291.315 245.191 291.016 244.043C290.745 242.879 290.618 241.68 290.633 240.447C290.467 240.523 290.23 240.593 289.921 240.656C289.613 240.719 289.3 240.757 288.982 240.769C288.686 240.786 288.396 240.781 288.112 240.754C287.834 240.704 287.64 240.615 287.528 240.488C287.439 240.367 287.445 240.211 287.544 240.019C287.673 239.811 287.976 239.541 288.453 239.208C288.517 239.152 288.692 239.041 288.979 238.875C289.289 238.716 289.613 238.548 289.951 238.371C290.296 238.173 290.612 237.99 290.899 237.825C291.192 237.636 291.37 237.514 291.434 237.458C291.834 236.959 292.148 236.376 292.375 235.709C292.625 235.048 292.847 234.355 293.041 233.631C293.264 232.89 293.507 232.166 293.769 231.46C294.031 230.754 294.383 230.12 294.824 229.559C295.08 229.239 295.492 228.877 296.062 228.471C296.66 228.049 297.298 227.662 297.975 227.309C298.674 226.963 299.358 226.673 300.027 226.44C300.725 226.19 301.29 226.075 301.722 226.093C302.176 226.118 302.454 226.302 302.557 226.645C302.682 226.993 302.53 227.559 302.102 228.342C301.586 229.272 300.94 230.142 300.165 230.953C299.418 231.748 298.648 232.537 297.856 233.32C297.07 234.079 296.307 234.846 295.566 235.618C294.848 236.396 294.263 237.222 293.811 238.095C293.564 238.563 293.344 239.159 293.149 239.884C292.961 240.585 292.853 241.308 292.823 242.053C292.793 242.797 292.881 243.512 293.085 244.198C293.296 244.861 293.688 245.39 294.261 245.786C294.913 246.252 295.619 246.514 296.38 246.573C297.141 246.631 297.912 246.559 298.695 246.356C299.5 246.159 300.295 245.862 301.08 245.466C301.872 245.047 302.621 244.605 303.328 244.14C304.035 243.674 304.68 243.216 305.262 242.765C305.85 242.292 306.345 241.891 306.749 241.562L307.162 242.328C307.284 242.506 307.079 242.864 306.547 243.401C306.038 243.944 305.334 244.532 304.437 245.165C303.568 245.781 302.569 246.387 301.439 246.982C300.309 247.577 299.181 248.027 298.056 248.332C296.953 248.643 295.909 248.739 294.921 248.62C293.957 248.507 293.18 248.057 292.59 247.268ZM295.394 232.187C295.341 232.294 295.264 232.491 295.162 232.78C295.089 233.051 295.011 233.346 294.926 233.662C294.841 233.979 294.762 234.274 294.689 234.545C294.639 234.823 294.61 235.022 294.602 235.141C295.66 234.09 296.694 232.947 297.704 231.714C298.714 230.48 299.592 229.198 300.336 227.869C299.767 227.911 299.215 228.066 298.682 228.336C298.178 228.589 297.711 228.925 297.284 229.344C296.862 229.741 296.488 230.187 296.161 230.681C295.857 231.182 295.601 231.684 295.394 232.187ZM315.695 252.185C315.523 251.556 315.429 250.731 315.412 249.707C315.424 248.667 315.465 247.61 315.534 246.537C315.603 245.463 315.688 244.467 315.789 243.548C315.884 242.651 315.963 241.993 316.027 241.573C315.85 241.962 315.553 242.526 315.137 243.264C314.721 244.001 314.219 244.789 313.631 245.626C313.048 246.441 312.407 247.251 311.705 248.058C311.01 248.843 310.291 249.487 309.549 249.992C308.83 250.503 308.12 250.798 307.419 250.877C306.719 250.956 306.086 250.69 305.522 250.078C305.483 250.043 305.448 249.949 305.416 249.795C305.391 249.618 305.368 249.43 305.349 249.231C305.358 249.015 305.365 248.81 305.368 248.617C305.371 248.424 305.388 248.27 305.418 248.157L309.213 233.997C309.043 233.272 308.99 232.699 309.054 232.28C309.124 231.838 309.257 231.521 309.454 231.331C309.65 231.141 309.868 231.054 310.106 231.07C310.373 231.068 310.619 231.146 310.844 231.304C311.075 231.438 311.254 231.632 311.38 231.884C311.507 232.136 311.527 232.421 311.443 232.738L307.657 246.865L307.795 248.794C309.111 248.322 310.257 247.622 311.233 246.694C312.21 245.767 313.049 244.718 313.751 243.547C314.453 242.377 315.051 241.142 315.544 239.842C316.038 238.543 316.474 237.277 316.853 236.044C316.973 236.052 317.126 236.068 317.313 236.094C317.523 236.126 317.712 236.189 317.881 236.283C318.056 236.354 318.196 236.464 318.302 236.614C318.436 236.747 318.499 236.922 318.489 237.137L317.52 250.126L318.072 252.822C318.69 252.599 319.256 252.071 319.77 251.238C320.284 250.406 320.765 249.382 321.212 248.167C321.659 246.952 322.076 245.62 322.464 244.172C322.875 242.729 323.263 241.28 323.629 239.825C324.017 238.376 324.399 236.998 324.773 235.691C325.17 234.39 325.587 233.289 326.023 232.386C326.458 231.484 326.921 230.844 327.411 230.465C327.923 230.093 328.477 230.108 329.073 230.51C329.489 230.767 329.635 231.085 329.509 231.464C329.389 231.82 329.162 232.172 328.826 232.519C328.519 232.849 328.184 233.147 327.822 233.414C327.488 233.664 327.306 233.798 327.278 233.814L323.01 249.741C322.889 250.194 322.648 250.687 322.286 251.221C321.947 251.761 321.543 252.272 321.075 252.753C320.612 253.211 320.117 253.612 319.588 253.956C319.059 254.299 318.536 254.487 318.018 254.518C317.529 254.532 317.074 254.374 316.653 254.043C316.238 253.689 315.919 253.07 315.695 252.185ZM159.915 285C159.966 284.989 160.088 284.718 160.278 284.187C160.498 283.639 160.742 283.001 161.01 282.272C161.278 281.543 161.541 280.789 161.798 280.009C162.056 279.228 162.266 278.581 162.428 278.066C162.507 277.772 162.619 277.353 162.765 276.81C162.933 276.272 163.105 275.676 163.281 275.019C163.463 274.34 163.651 273.638 163.845 272.914C164.062 272.195 164.244 271.516 164.391 270.876C164.567 270.22 164.71 269.639 164.821 269.135C164.955 268.637 165.052 268.275 165.112 268.049C165.137 267.958 165.145 267.79 165.138 267.546C165.153 267.307 165.16 267.054 165.159 266.787C165.181 266.526 165.185 266.284 165.171 266.063C165.164 265.818 165.15 265.644 165.129 265.542C164.355 265.261 163.539 265.091 162.681 265.031C161.824 264.971 160.972 264.937 160.125 264.929C159.278 264.92 158.44 264.878 157.611 264.801C156.805 264.731 156.069 264.534 155.404 264.21C155.326 263.776 155.599 263.437 156.223 263.192C156.875 262.93 157.75 262.788 158.848 262.767C159.952 262.723 161.207 262.792 162.614 262.975C164.027 263.135 165.455 263.421 166.897 263.832C168.34 264.243 169.724 264.783 171.049 265.454C172.38 266.101 173.515 266.891 174.454 267.822C175.4 268.73 176.079 269.774 176.491 270.952C176.903 272.13 176.912 273.455 176.518 274.926C176.378 275.447 176.139 275.977 175.8 276.517C175.461 277.057 175.066 277.582 174.614 278.092C174.185 278.608 173.716 279.089 173.208 279.535C172.729 279.965 172.271 280.315 171.835 280.587C171.628 280.725 171.291 280.939 170.826 281.226C170.367 281.492 169.836 281.798 169.233 282.146C168.653 282.5 168.033 282.868 167.372 283.249C166.718 283.608 166.09 283.961 165.487 284.309C164.913 284.64 164.385 284.936 163.903 285.195C163.444 285.46 163.099 285.659 162.869 285.791C162.656 286.316 162.432 286.79 162.197 287.213C161.963 287.635 161.699 287.941 161.406 288.129C161.113 288.317 160.788 288.352 160.432 288.232C160.093 288.141 159.711 287.845 159.287 287.343C158.698 287.549 158.039 287.882 157.309 288.341C156.596 288.83 155.869 289.278 155.129 289.686C154.383 290.117 153.647 290.417 152.922 290.587C152.197 290.757 151.554 290.621 150.993 290.18L151.312 288.991L159.915 285ZM163.506 283.414C165.09 283.208 166.577 282.684 167.967 281.843C169.386 280.986 170.594 279.963 171.592 278.775C172.613 277.592 173.376 276.329 173.882 274.984C174.394 273.617 174.554 272.338 174.364 271.146C174.174 269.955 173.577 268.921 172.574 268.046C171.6 267.154 170.103 266.583 168.083 266.333L163.506 283.414ZM180.905 292.917C180.155 291.915 179.63 290.84 179.331 289.693C179.06 288.528 178.933 287.329 178.948 286.096C178.782 286.173 178.545 286.243 178.237 286.306C177.928 286.369 177.615 286.406 177.297 286.418C177.001 286.436 176.711 286.431 176.427 286.403C176.149 286.353 175.955 286.264 175.843 286.138C175.754 286.017 175.76 285.86 175.859 285.669C175.988 285.461 176.291 285.19 176.769 284.857C176.832 284.801 177.007 284.69 177.294 284.525C177.604 284.365 177.928 284.197 178.266 284.021C178.611 283.822 178.927 283.64 179.214 283.474C179.507 283.285 179.685 283.163 179.749 283.108C180.149 282.608 180.463 282.025 180.691 281.358C180.94 280.697 181.162 280.005 181.357 279.28C181.579 278.539 181.822 277.815 182.084 277.109C182.346 276.403 182.698 275.769 183.139 275.208C183.395 274.888 183.807 274.526 184.377 274.12C184.975 273.698 185.613 273.311 186.29 272.959C186.989 272.612 187.673 272.322 188.342 272.089C189.04 271.839 189.605 271.724 190.037 271.742C190.491 271.767 190.77 271.951 190.872 272.294C190.997 272.643 190.845 273.209 190.417 273.992C189.901 274.921 189.255 275.791 188.48 276.603C187.733 277.397 186.964 278.186 186.171 278.969C185.386 279.729 184.622 280.495 183.881 281.267C183.163 282.045 182.578 282.871 182.126 283.745C181.879 284.212 181.659 284.808 181.465 285.533C181.277 286.235 181.168 286.958 181.138 287.702C181.109 288.446 181.196 289.161 181.401 289.847C181.611 290.51 182.003 291.039 182.576 291.436C183.228 291.901 183.934 292.164 184.695 292.222C185.456 292.28 186.227 292.208 187.01 292.005C187.815 291.808 188.61 291.512 189.395 291.115C190.187 290.697 190.936 290.255 191.643 289.789C192.351 289.323 192.995 288.865 193.577 288.414C194.165 287.941 194.66 287.54 195.064 287.211L195.477 287.977C195.599 288.156 195.394 288.513 194.862 289.05C194.353 289.593 193.649 290.181 192.752 290.814C191.883 291.43 190.884 292.036 189.754 292.631C188.624 293.226 187.496 293.676 186.371 293.981C185.268 294.292 184.224 294.388 183.236 294.27C182.272 294.157 181.495 293.706 180.905 292.917ZM183.709 277.836C183.656 277.943 183.579 278.141 183.477 278.429C183.404 278.701 183.326 278.995 183.241 279.312C183.156 279.629 183.077 279.923 183.004 280.195C182.954 280.472 182.925 280.671 182.917 280.79C183.975 279.739 185.009 278.597 186.019 277.363C187.029 276.129 187.907 274.848 188.651 273.519C188.082 273.56 187.531 273.716 186.997 273.985C186.493 274.238 186.027 274.574 185.599 274.994C185.177 275.39 184.803 275.836 184.476 276.331C184.172 276.832 183.916 277.333 183.709 277.836ZM194.285 296.502C193.851 295.949 193.595 295.274 193.517 294.477C193.469 293.663 193.518 292.936 193.665 292.296C193.841 291.639 194.065 291.166 194.337 290.875C194.615 290.561 194.867 290.616 195.093 291.041C194.72 292.251 194.698 293.24 195.026 294.007C195.354 294.775 195.848 295.332 196.508 295.678C197.19 296.031 197.96 296.189 198.819 296.152C199.701 296.121 200.495 295.921 201.2 295.552C201.934 295.167 202.506 294.616 202.916 293.901C203.349 293.192 203.457 292.336 203.241 291.331C202.828 290.517 202.33 289.704 201.747 288.893C201.192 288.065 200.623 287.245 200.04 286.434C199.457 285.622 198.899 284.806 198.367 283.984C197.841 283.139 197.404 282.282 197.055 281.412C197.021 281.354 197.023 281.258 197.059 281.122C197.102 280.963 197.152 280.868 197.209 280.834C197.422 280.673 197.734 280.417 198.143 280.066C198.553 279.714 199.023 279.319 199.553 278.878C200.084 278.438 200.643 277.981 201.231 277.508C201.825 277.012 202.387 276.544 202.917 276.104C203.448 275.663 203.918 275.268 204.327 274.916C204.759 274.571 205.082 274.318 205.295 274.157C205.721 273.834 206.102 273.681 206.437 273.698C206.795 273.721 207.258 273.894 207.827 274.216C207.78 274.301 207.635 274.48 207.391 274.755C207.154 275.007 206.989 275.169 206.897 275.241C206.643 275.464 206.176 275.849 205.496 276.394C204.822 276.917 204.099 277.488 203.327 278.106C202.561 278.702 201.838 279.272 201.158 279.818C200.484 280.341 200.011 280.7 199.741 280.894C199.487 281.117 199.47 281.452 199.69 281.9C199.91 282.347 200.253 282.875 200.721 283.486C201.188 284.096 201.719 284.785 202.315 285.551C202.916 286.294 203.46 287.071 203.947 287.881C204.456 288.697 204.84 289.528 205.099 290.373C205.38 291.225 205.42 292.073 205.218 292.917C205.045 293.744 204.577 294.54 203.814 295.306C203.073 296.079 201.91 296.798 200.324 297.465C199.831 297.673 199.306 297.823 198.747 297.916C198.211 298.015 197.673 298.029 197.134 297.957C196.589 297.908 196.069 297.769 195.572 297.539C195.076 297.308 194.647 296.963 194.285 296.502ZM214.497 299.989C214.223 299.018 214.09 297.975 214.098 296.861C214.111 295.724 214.21 294.586 214.394 293.446C214.578 292.307 214.816 291.193 215.107 290.107C215.421 289.026 215.721 288.039 216.009 287.146C215.717 286.97 215.348 286.896 214.904 286.923C214.461 286.949 213.982 287.015 213.468 287.12C212.961 287.203 212.436 287.305 211.894 287.426C211.352 287.548 210.862 287.611 210.424 287.615C209.986 287.619 209.607 287.541 209.285 287.382C208.964 287.223 208.756 286.913 208.661 286.451C208.561 286.011 208.654 285.709 208.941 285.543C209.251 285.383 209.647 285.308 210.13 285.316C210.642 285.307 211.21 285.362 211.833 285.481C212.463 285.577 213.061 285.652 213.629 285.707C214.196 285.762 214.691 285.773 215.112 285.741C215.539 285.685 215.804 285.514 215.905 285.225L220.56 272.606C220.638 272.408 220.782 272.277 220.993 272.212C221.228 272.153 221.446 272.151 221.65 272.206C221.877 272.267 222.054 272.375 222.182 272.531C222.339 272.67 222.387 272.852 222.326 273.079L219.333 284.251C219.631 284.404 219.937 284.486 220.25 284.497C220.568 284.485 220.89 284.462 221.214 284.428C221.539 284.393 221.846 284.379 222.136 284.383C222.449 284.394 222.754 284.476 223.053 284.629C223.122 284.915 223.036 285.146 222.794 285.324C222.558 285.479 222.335 285.589 222.123 285.654L221.412 285.864C221.098 285.949 220.755 286.052 220.383 286.17C220.041 286.273 219.701 286.364 219.364 286.443C219.05 286.529 218.83 286.579 218.705 286.594C218.597 286.905 218.426 287.454 218.191 288.24C217.985 289.01 217.763 289.836 217.527 290.719C217.29 291.602 217.066 292.439 216.854 293.232C216.67 294.008 216.547 294.557 216.485 294.88C216.29 295.968 216.233 296.996 216.313 297.964C216.394 298.932 216.639 299.738 217.049 300.381C217.459 301.025 218.037 301.447 218.784 301.647C219.554 301.853 220.542 301.742 221.749 301.313C221.768 301.876 221.632 302.338 221.342 302.696C221.052 303.055 220.669 303.305 220.195 303.445C219.727 303.562 219.201 303.579 218.617 303.495C218.033 303.411 217.464 303.223 216.912 302.929C216.383 302.641 215.892 302.255 215.439 301.77C214.993 301.262 214.679 300.668 214.497 299.989ZM220.921 302.365C220.9 302.263 220.889 302.078 220.888 301.81C220.893 301.521 220.904 301.208 220.921 300.873C220.938 300.538 220.963 300.217 220.997 299.911C221.03 299.604 221.065 299.383 221.102 299.247L225.524 282.743C225.584 282.517 225.729 282.386 225.957 282.35C226.185 282.314 226.423 282.329 226.672 282.396C226.95 282.446 227.188 282.51 227.385 282.587C227.606 282.67 227.727 282.715 227.75 282.721L222.855 300.991C222.751 301.376 222.791 301.726 222.973 302.042C223.156 302.357 223.395 302.64 223.692 302.89C223.996 303.116 224.322 303.301 224.672 303.443C225.029 303.563 225.34 303.622 225.607 303.621C225.797 304.181 225.683 304.563 225.264 304.767C224.874 304.953 224.368 304.987 223.744 304.869C223.15 304.734 222.557 304.454 221.968 304.029C221.407 303.587 221.058 303.033 220.921 302.365ZM226.53 276.68C226.706 276.023 227.078 275.674 227.647 275.633C228.223 275.569 228.749 275.734 229.225 276.128L228.743 277.928C228.669 277.933 228.538 277.922 228.351 277.896C228.193 277.854 228.012 277.805 227.808 277.75C227.627 277.702 227.446 277.653 227.265 277.605C227.112 277.54 227.005 277.487 226.943 277.446C226.859 277.399 226.758 277.275 226.642 277.074C226.549 276.879 226.511 276.748 226.53 276.68ZM228.583 305.692C228.684 305.404 228.832 304.898 229.026 304.173L230.264 299.555C230.458 298.83 230.583 298.318 230.639 298.018C230.653 297.876 230.687 297.569 230.74 297.098C230.816 296.633 230.891 296.083 230.964 295.448C231.06 294.818 231.153 294.152 231.245 293.448C231.336 292.745 231.419 292.075 231.492 291.44C231.565 290.804 231.628 290.251 231.682 289.78C231.758 289.315 231.806 289.001 231.826 288.836C231.865 288.507 231.931 288.173 232.022 287.833C232.135 287.499 232.282 287.223 232.462 287.005C232.642 286.786 232.868 286.665 233.142 286.641C233.421 286.594 233.777 286.714 234.21 287C234.105 287.481 233.988 288.057 233.857 288.725C233.755 289.377 233.655 290.066 233.558 290.792C233.46 291.519 233.389 292.239 233.343 292.955C233.296 293.67 233.299 294.339 233.351 294.959C233.87 294.2 234.35 293.54 234.792 292.979C235.262 292.402 235.751 291.89 236.259 291.443C236.767 290.997 237.311 290.597 237.891 290.243C238.477 289.866 239.157 289.502 239.93 289.151C240.899 288.707 241.625 288.623 242.109 288.898C242.622 289.157 242.961 289.66 243.124 290.408C243.317 291.139 243.389 292.044 243.343 293.123C243.296 294.203 243.209 295.344 243.081 296.547C242.958 297.727 242.839 298.897 242.723 300.054C242.636 301.196 242.63 302.213 242.706 303.107C242.788 303.978 242.992 304.664 243.319 305.164C243.675 305.648 244.238 305.811 245.008 305.653C245.048 306.319 244.949 306.778 244.712 307.029C244.504 307.265 244.212 307.357 243.838 307.305C243.492 307.236 243.109 307.037 242.688 306.705C242.273 306.352 241.877 305.93 241.498 305.44C241.149 304.934 240.862 304.372 240.64 303.755C240.417 303.137 240.317 302.515 240.339 301.89C240.357 301.459 240.457 300.77 240.638 299.823C240.818 298.877 240.984 297.853 241.133 296.753C241.282 295.652 241.346 294.553 241.325 293.456C241.332 292.342 241.157 291.409 240.8 290.658L237.805 292.331C237.712 292.403 237.433 292.765 236.968 293.417C236.524 294.074 236.017 294.836 235.445 295.702C234.88 296.545 234.319 297.414 233.764 298.309C233.215 299.181 232.794 299.893 232.5 300.445C232.4 300.637 232.241 301.007 232.021 301.554C231.808 302.079 231.582 302.65 231.344 303.266C231.106 303.881 230.889 304.466 230.692 305.02C230.524 305.557 230.409 305.939 230.349 306.165C230.036 306.518 229.687 306.643 229.302 306.54C228.917 306.437 228.677 306.154 228.583 305.692ZM244.883 310.06C244.685 308.988 244.694 307.959 244.909 306.973C245.147 305.994 245.471 305.013 245.88 304.03C245.987 303.719 246.171 303.259 246.432 302.65C246.692 302.04 246.982 301.365 247.301 300.626C247.621 299.887 247.964 299.105 248.33 298.281C248.697 297.457 249.039 296.676 249.359 295.936C249.678 295.197 249.962 294.545 250.21 293.981C250.487 293.4 250.688 292.968 250.812 292.686C251.248 291.784 251.656 291.032 252.035 290.43C252.444 289.811 252.878 289.369 253.337 289.104C253.819 288.845 254.357 288.783 254.952 288.918C255.569 289.059 256.311 289.416 257.177 289.987C257.284 290.04 257.384 290.164 257.477 290.359C257.577 290.531 257.629 290.654 257.633 290.728C257.6 291.035 257.558 291.509 257.507 292.15C257.479 292.798 257.438 293.539 257.384 294.374C257.336 295.186 257.277 296.044 257.205 296.947C257.161 297.833 257.113 298.693 257.059 299.528C257.011 300.34 256.962 301.067 256.911 301.709C256.883 302.356 256.864 302.836 256.853 303.149C256.762 304.847 256.88 306.08 257.209 306.847C257.543 307.592 257.99 308.052 258.55 308.226C259.11 308.4 259.736 308.374 260.427 308.147C261.148 307.903 261.86 307.645 262.564 307.372C263.274 307.077 263.931 306.841 264.537 306.664C265.143 306.486 265.611 306.551 265.941 306.858C265.826 307.288 265.612 307.68 265.299 308.032C264.986 308.385 264.633 308.703 264.242 308.987C263.879 309.254 263.489 309.489 263.07 309.692C262.652 309.895 262.268 310.059 261.919 310.184C260.427 310.682 259.245 310.839 258.373 310.653C257.523 310.474 256.861 310.091 256.388 309.503C255.914 308.915 255.597 308.199 255.435 307.355C255.273 306.511 255.148 305.664 255.06 304.816C254.994 303.973 254.904 303.221 254.791 302.56C254.705 301.882 254.503 301.415 254.183 301.16C254.036 301.436 253.753 301.906 253.332 302.569C252.934 303.239 252.502 303.948 252.034 304.697C251.567 305.445 251.123 306.151 250.702 306.815C250.282 307.479 249.987 307.945 249.817 308.215C249.742 308.317 249.582 308.504 249.339 308.779C249.118 309.059 248.843 309.362 248.514 309.686C248.19 309.987 247.833 310.28 247.441 310.563C247.079 310.83 246.726 311.015 246.383 311.117C246.034 311.242 245.722 311.231 245.446 311.084C245.169 310.937 244.982 310.596 244.883 310.06ZM249.333 300.515C249.215 300.775 249.047 301.264 248.831 301.982C248.637 302.707 248.43 303.476 248.212 304.291C247.994 305.106 247.787 305.876 247.593 306.6C247.422 307.331 247.319 307.849 247.286 308.156C248.4 307.168 249.486 305.967 250.544 304.552C251.609 303.115 252.527 301.589 253.299 299.976C254.1 298.347 254.69 296.685 255.071 294.992C255.458 293.276 255.531 291.645 255.29 290.101C254.717 290.699 254.118 291.485 253.494 292.458C252.869 293.431 252.283 294.439 251.737 295.482C251.197 296.502 250.706 297.474 250.264 298.399C249.851 299.307 249.54 300.013 249.333 300.515ZM270.834 315.084C270.56 314.113 270.427 313.071 270.435 311.956C270.448 310.82 270.547 309.681 270.731 308.542C270.915 307.402 271.152 306.289 271.444 305.202C271.757 304.122 272.058 303.135 272.346 302.241C272.054 302.066 271.685 301.991 271.241 302.018C270.797 302.045 270.319 302.11 269.805 302.216C269.298 302.298 268.773 302.4 268.231 302.522C267.689 302.643 267.199 302.706 266.761 302.71C266.323 302.714 265.944 302.637 265.622 302.478C265.301 302.319 265.093 302.008 264.998 301.546C264.898 301.107 264.991 300.804 265.278 300.638C265.588 300.479 265.984 300.403 266.467 300.411C266.979 300.403 267.547 300.458 268.17 300.576C268.799 300.672 269.398 300.748 269.966 300.803C270.533 300.858 271.028 300.869 271.449 300.836C271.876 300.781 272.141 300.609 272.242 300.321L276.897 287.701C276.975 287.503 277.119 287.372 277.33 287.308C277.564 287.249 277.783 287.247 277.987 287.301C278.214 287.362 278.391 287.47 278.519 287.626C278.676 287.765 278.724 287.948 278.663 288.174L275.67 299.346C275.968 299.499 276.274 299.581 276.586 299.592C276.905 299.58 277.227 299.557 277.551 299.523C277.876 299.489 278.183 299.474 278.473 299.479C278.786 299.49 279.091 299.572 279.39 299.725C279.459 300.01 279.373 300.242 279.131 300.42C278.895 300.575 278.672 300.685 278.46 300.749L277.749 300.959C277.435 301.045 277.092 301.147 276.72 301.266C276.377 301.368 276.038 301.459 275.701 301.539C275.387 301.624 275.167 301.675 275.042 301.69C274.934 302 274.763 302.549 274.528 303.335C274.322 304.105 274.1 304.931 273.864 305.814C273.627 306.697 273.403 307.535 273.19 308.327C273.007 309.103 272.884 309.652 272.822 309.975C272.627 311.064 272.57 312.092 272.65 313.06C272.731 314.027 272.976 314.833 273.386 315.477C273.796 316.12 274.374 316.542 275.121 316.743C275.891 316.949 276.879 316.838 278.086 316.409C278.105 316.972 277.969 317.433 277.679 317.792C277.389 318.151 277.006 318.4 276.532 318.54C276.064 318.657 275.538 318.674 274.954 318.59C274.369 318.507 273.801 318.318 273.249 318.024C272.719 317.737 272.228 317.351 271.776 316.865C271.33 316.358 271.016 315.764 270.834 315.084ZM277.258 317.461C277.237 317.358 277.226 317.173 277.225 316.906C277.23 316.616 277.241 316.304 277.258 315.968C277.275 315.633 277.3 315.312 277.333 315.006C277.367 314.7 277.402 314.478 277.438 314.343L281.861 297.839C281.921 297.612 282.066 297.481 282.294 297.445C282.522 297.409 282.76 297.425 283.009 297.491C283.287 297.542 283.525 297.605 283.722 297.683C283.943 297.766 284.064 297.811 284.087 297.817L279.191 316.086C279.088 316.471 279.128 316.821 279.31 317.137C279.492 317.453 279.732 317.735 280.029 317.985C280.332 318.212 280.659 318.396 281.009 318.539C281.365 318.658 281.677 318.718 281.944 318.716C282.134 319.277 282.019 319.659 281.601 319.862C281.211 320.049 280.705 320.083 280.081 319.964C279.487 319.829 278.894 319.549 278.305 319.124C277.743 318.683 277.395 318.128 277.258 317.461ZM282.867 291.775C283.042 291.119 283.415 290.77 283.984 290.728C284.56 290.664 285.085 290.829 285.562 291.224L285.08 293.024C285.006 293.028 284.875 293.017 284.688 292.991C284.53 292.949 284.349 292.9 284.145 292.846C283.964 292.797 283.783 292.749 283.601 292.7C283.449 292.635 283.342 292.582 283.28 292.541C283.196 292.494 283.095 292.371 282.979 292.17C282.886 291.975 282.848 291.843 282.867 291.775ZM286.291 319.881C285.949 318.892 285.859 317.873 286.018 316.824C286.184 315.752 286.475 314.665 286.892 313.564C287.308 312.462 287.796 311.367 288.354 310.279C288.913 309.192 289.425 308.14 289.891 307.124C290.363 306.086 290.735 305.106 291.007 304.184C291.284 303.239 291.344 302.382 291.186 301.612C291.102 301.201 290.899 300.964 290.576 300.902C290.281 300.823 289.941 300.78 289.554 300.774C289.197 300.751 288.84 300.679 288.484 300.56C288.15 300.446 287.902 300.149 287.74 299.669C287.787 299.584 287.907 299.495 288.102 299.402C288.281 299.28 288.407 299.217 288.481 299.212C290.597 299.464 292.237 300.134 293.402 301.222C294.594 302.294 295.423 303.596 295.886 305.127C296.355 306.636 296.512 308.268 296.358 310.022C296.226 311.782 295.893 313.476 295.36 315.105C294.826 316.733 294.153 318.203 293.341 319.514C292.535 320.802 291.7 321.743 290.838 322.337C289.975 322.931 289.137 323.07 288.323 322.755C287.51 322.44 286.833 321.482 286.291 319.881ZM288.375 319.166C288.38 319.24 288.423 319.348 288.506 319.492C288.589 319.636 288.669 319.79 288.746 319.957C288.845 320.129 288.936 320.287 289.019 320.43C289.108 320.551 289.172 320.629 289.211 320.664C290.176 320.413 290.972 319.934 291.598 319.228C292.224 318.523 292.704 317.681 293.039 316.703C293.396 315.731 293.63 314.678 293.74 313.542C293.879 312.391 293.926 311.263 293.882 310.159C293.838 309.055 293.716 308.016 293.517 307.04C293.34 306.071 293.132 305.263 292.892 304.616C292.791 304.905 292.624 305.345 292.393 305.938C292.161 306.531 291.908 307.204 291.634 307.955C291.36 308.707 291.062 309.501 290.741 310.337C290.42 311.173 290.108 311.975 289.805 312.743C289.531 313.494 289.278 314.167 289.046 314.76C288.815 315.353 288.648 315.793 288.547 316.082C288.463 316.302 288.393 316.562 288.337 316.863C288.31 317.146 288.294 317.433 288.289 317.723C288.284 318.013 288.282 318.291 288.283 318.559C288.313 318.809 288.344 319.012 288.375 319.166ZM296.601 323.918C296.703 323.629 296.851 323.123 297.045 322.399L298.282 317.78C298.476 317.056 298.602 316.543 298.658 316.243C298.672 316.101 298.705 315.795 298.759 315.324C298.835 314.859 298.909 314.309 298.983 313.673C299.078 313.044 299.172 312.377 299.263 311.674C299.355 310.97 299.437 310.301 299.51 309.665C299.584 309.03 299.647 308.477 299.7 308.006C299.776 307.541 299.824 307.226 299.844 307.062C299.884 306.732 299.949 306.398 300.04 306.059C300.154 305.725 300.301 305.449 300.48 305.23C300.66 305.012 300.887 304.89 301.16 304.866C301.44 304.82 301.796 304.94 302.229 305.226C302.124 305.707 302.006 306.282 301.876 306.951C301.774 307.603 301.674 308.292 301.577 309.018C301.479 309.744 301.407 310.465 301.361 311.18C301.315 311.896 301.318 312.564 301.37 313.185C301.889 312.426 302.369 311.766 302.81 311.205C303.281 310.627 303.77 310.115 304.277 309.669C304.785 309.223 305.329 308.822 305.909 308.468C306.496 308.092 307.175 307.728 307.949 307.377C308.917 306.933 309.643 306.848 310.128 307.124C310.641 307.382 310.979 307.886 311.143 308.633C311.335 309.364 311.408 310.269 311.361 311.349C311.315 312.428 311.227 313.569 311.099 314.772C310.977 315.953 310.858 317.122 310.742 318.28C310.654 319.421 310.648 320.439 310.724 321.333C310.806 322.204 311.011 322.889 311.338 323.39C311.694 323.873 312.257 324.036 313.027 323.878C313.067 324.544 312.968 325.003 312.731 325.255C312.522 325.49 312.231 325.582 311.856 325.53C311.511 325.462 311.127 325.262 310.707 324.931C310.292 324.577 309.895 324.156 309.517 323.666C309.167 323.16 308.881 322.598 308.658 321.98C308.436 321.362 308.335 320.741 308.357 320.116C308.376 319.684 308.475 318.995 308.656 318.049C308.837 317.102 309.002 316.079 309.151 314.978C309.301 313.878 309.365 312.779 309.343 311.681C309.351 310.567 309.176 309.635 308.819 308.884L305.823 310.556C305.731 310.629 305.452 310.991 304.986 311.642C304.543 312.3 304.036 313.062 303.464 313.928C302.898 314.771 302.338 315.64 301.783 316.534C301.234 317.406 300.812 318.119 300.519 318.671C300.419 318.862 300.259 319.232 300.04 319.78C299.826 320.305 299.6 320.875 299.363 321.491C299.125 322.107 298.908 322.692 298.711 323.245C298.542 323.783 298.428 324.164 298.367 324.391C298.054 324.744 297.705 324.869 297.321 324.766C296.936 324.662 296.696 324.38 296.601 323.918ZM339.022 333.355C338.749 332.384 338.616 331.342 338.623 330.227C338.636 329.091 338.735 327.952 338.919 326.813C339.103 325.673 339.341 324.56 339.632 323.473C339.946 322.393 340.247 321.406 340.535 320.512C340.242 320.337 339.874 320.262 339.43 320.289C338.986 320.316 338.507 320.381 337.994 320.487C337.486 320.569 336.962 320.671 336.419 320.793C335.877 320.914 335.387 320.977 334.949 320.981C334.512 320.985 334.132 320.908 333.811 320.749C333.489 320.59 333.281 320.279 333.187 319.817C333.086 319.378 333.179 319.075 333.466 318.909C333.776 318.75 334.172 318.674 334.656 318.682C335.167 318.674 335.735 318.729 336.358 318.847C336.988 318.943 337.586 319.019 338.154 319.074C338.721 319.129 339.216 319.14 339.637 319.107C340.064 319.052 340.329 318.88 340.43 318.592L345.086 305.972C345.163 305.774 345.307 305.643 345.519 305.579C345.753 305.52 345.972 305.518 346.175 305.573C346.402 305.633 346.579 305.741 346.707 305.897C346.864 306.036 346.912 306.219 346.852 306.445L343.858 317.617C344.157 317.77 344.462 317.852 344.775 317.863C345.093 317.851 345.415 317.828 345.74 317.794C346.064 317.76 346.371 317.745 346.661 317.75C346.974 317.761 347.279 317.843 347.578 317.996C347.647 318.281 347.561 318.513 347.319 318.691C347.084 318.846 346.86 318.956 346.649 319.02L345.937 319.23C345.623 319.316 345.28 319.418 344.909 319.537C344.566 319.639 344.226 319.73 343.889 319.81C343.575 319.895 343.355 319.946 343.23 319.961C343.123 320.271 342.951 320.82 342.716 321.606C342.51 322.376 342.289 323.202 342.052 324.085C341.815 324.968 341.591 325.806 341.379 326.598C341.195 327.374 341.072 327.923 341.01 328.246C340.815 329.335 340.758 330.363 340.839 331.331C340.919 332.298 341.164 333.104 341.574 333.748C341.984 334.392 342.562 334.813 343.309 335.014C344.079 335.22 345.067 335.109 346.274 334.68C346.293 335.243 346.157 335.704 345.867 336.063C345.577 336.422 345.195 336.671 344.72 336.811C344.252 336.928 343.726 336.945 343.142 336.861C342.558 336.778 341.99 336.589 341.437 336.295C340.908 336.008 340.417 335.622 339.964 335.136C339.518 334.629 339.204 334.035 339.022 333.355ZM347.688 336.332C347.346 335.343 347.255 334.324 347.415 333.275C347.581 332.203 347.872 331.116 348.289 330.015C348.705 328.913 349.192 327.818 349.751 326.731C350.309 325.643 350.822 324.591 351.288 323.576C351.76 322.537 352.132 321.557 352.403 320.635C352.681 319.69 352.741 318.833 352.583 318.063C352.499 317.652 352.295 317.415 351.972 317.353C351.678 317.274 351.338 317.232 350.951 317.225C350.593 317.202 350.236 317.131 349.88 317.011C349.547 316.897 349.299 316.6 349.136 316.12C349.183 316.036 349.304 315.947 349.499 315.853C349.677 315.731 349.803 315.668 349.877 315.664C351.994 315.915 353.634 316.585 354.798 317.674C355.991 318.745 356.819 320.047 357.282 321.579C357.752 323.087 357.909 324.719 357.754 326.473C357.622 328.233 357.29 329.927 356.756 331.556C356.223 333.184 355.55 334.654 354.738 335.965C353.932 337.253 353.097 338.194 352.234 338.788C351.372 339.382 350.533 339.521 349.72 339.206C348.907 338.891 348.229 337.933 347.688 336.332ZM349.772 335.617C349.776 335.691 349.82 335.8 349.903 335.943C349.986 336.087 350.066 336.242 350.142 336.408C350.242 336.58 350.333 336.738 350.416 336.881C350.505 337.002 350.569 337.08 350.608 337.115C351.573 336.864 352.369 336.385 352.994 335.68C353.62 334.974 354.101 334.132 354.435 333.154C354.793 332.182 355.027 331.129 355.137 329.994C355.275 328.842 355.323 327.714 355.279 326.61C355.235 325.507 355.113 324.467 354.914 323.492C354.737 322.522 354.528 321.714 354.289 321.068C354.188 321.356 354.021 321.797 353.789 322.39C353.558 322.983 353.305 323.655 353.031 324.406C352.756 325.158 352.459 325.952 352.138 326.788C351.817 327.624 351.505 328.426 351.202 329.194C350.928 329.945 350.675 330.618 350.443 331.211C350.211 331.804 350.045 332.244 349.943 332.533C349.86 332.753 349.79 333.013 349.734 333.314C349.706 333.598 349.69 333.884 349.685 334.174C349.68 334.464 349.679 334.743 349.68 335.01C349.71 335.261 349.74 335.463 349.772 335.617ZM175.303 378.347C174.84 377.81 174.58 377.195 174.524 376.5C174.49 375.812 174.587 375.086 174.816 374.322C175.045 373.558 175.377 372.774 175.811 371.968C176.239 371.185 176.695 370.434 177.179 369.714C177.663 368.994 178.143 368.334 178.62 367.734C179.096 367.134 179.494 366.646 179.813 366.27C179.958 366.091 180.19 365.813 180.509 365.438C180.828 365.062 181.196 364.639 181.613 364.169L184.221 361.228C184.638 360.757 185.018 360.337 185.359 359.968C185.701 359.598 185.956 359.327 186.124 359.153C186.522 358.12 186.667 357.261 186.559 356.577C186.474 355.899 186.224 355.383 185.809 355.029C185.394 354.675 184.855 354.47 184.191 354.414C183.549 354.363 182.852 354.431 182.098 354.617C181.367 354.81 180.62 355.107 179.857 355.509C179.123 355.895 178.461 356.372 177.872 356.942C177.706 357.019 177.395 357.227 176.94 357.566C176.491 357.883 175.947 358.283 175.308 358.767C174.675 359.228 173.97 359.731 173.194 360.275C172.44 360.825 171.666 361.358 170.873 361.873C170.108 362.372 169.367 362.828 168.649 363.243C167.932 363.657 167.282 363.956 166.699 364.14C166.138 364.329 165.674 364.387 165.306 364.312C164.96 364.244 164.777 363.976 164.756 363.51C164.74 363.481 164.735 363.407 164.743 363.288C164.773 363.175 164.804 363.062 164.834 362.948C164.87 362.813 164.904 362.688 164.934 362.575C164.987 362.468 165.034 362.383 165.075 362.321C165.181 362.107 165.399 361.656 165.729 360.968C166.081 360.286 166.478 359.482 166.92 358.558C167.385 357.639 167.879 356.655 168.403 355.606C168.926 354.558 169.409 353.571 169.851 352.646C170.316 351.727 170.721 350.938 171.068 350.279C171.42 349.597 171.661 349.151 171.789 348.943C171.889 348.752 172.109 348.519 172.449 348.247C172.789 347.974 173.148 347.767 173.526 347.625C173.903 347.484 174.236 347.464 174.524 347.565C174.835 347.673 175.015 348 175.062 348.546C174.745 348.825 174.342 349.288 173.854 349.933C173.365 350.579 172.852 351.315 172.316 352.142C171.801 352.974 171.272 353.864 170.727 354.81C170.189 355.733 169.693 356.631 169.241 357.505C168.811 358.385 168.456 359.212 168.176 359.986C167.901 360.737 167.752 361.34 167.727 361.795C169.024 360.759 170.455 359.674 172.02 358.541C173.586 357.408 175.153 356.359 176.721 355.397C178.289 354.434 179.801 353.638 181.255 353.008C182.732 352.385 184.017 352.074 185.108 352.075C186.223 352.083 187.086 352.484 187.698 353.279C188.338 354.057 188.615 355.381 188.526 357.25L193.616 354.828L195.381 355.301C195.415 355.99 195.289 356.417 195.002 356.582C194.737 356.754 194.383 356.853 193.939 356.88C193.501 356.884 193.012 356.899 192.472 356.924C191.96 356.932 191.474 357.117 191.013 357.479C190.574 357.847 190.203 358.463 189.898 359.328C189.594 360.193 189.441 361.486 189.441 363.209C189.455 364.426 189.357 365.649 189.149 366.879C188.963 368.116 188.633 369.301 188.16 370.436C187.952 370.938 187.583 371.592 187.052 372.396C186.538 373.229 185.924 374.071 185.21 374.923C184.497 375.775 183.71 376.584 182.85 377.348C181.99 378.112 181.116 378.703 180.228 379.12C179.362 379.543 178.503 379.714 177.652 379.631C176.795 379.571 176.012 379.143 175.303 378.347ZM176.672 375.547C176.622 376.456 176.771 377.078 177.118 377.414C177.487 377.755 177.98 377.863 178.596 377.737C179.213 377.611 179.909 377.276 180.686 376.732C181.485 376.194 182.264 375.505 183.023 374.665C183.804 373.831 184.537 372.862 185.221 371.759C185.898 370.679 186.438 369.526 186.84 368.299C187.264 367.078 187.504 365.82 187.56 364.525C187.622 363.207 187.425 361.904 186.969 360.617C186.345 360.863 185.667 361.312 184.934 361.965C184.201 362.618 183.46 363.39 182.711 364.281C181.986 365.178 181.264 366.15 180.548 367.195C179.837 368.218 179.2 369.236 178.637 370.25C178.091 371.293 177.634 372.274 177.266 373.195C176.92 374.121 176.722 374.905 176.672 375.547ZM193.334 370.549C192.993 369.559 192.902 368.54 193.061 367.491C193.227 366.419 193.518 365.333 193.935 364.231C194.351 363.129 194.839 362.035 195.397 360.947C195.956 359.859 196.468 358.807 196.934 357.792C197.406 356.754 197.778 355.773 198.05 354.851C198.327 353.907 198.387 353.049 198.229 352.279C198.145 351.868 197.942 351.632 197.619 351.569C197.324 351.491 196.984 351.448 196.598 351.441C196.24 351.418 195.883 351.347 195.527 351.227C195.193 351.114 194.945 350.817 194.783 350.336C194.83 350.252 194.95 350.163 195.145 350.07C195.324 349.947 195.45 349.884 195.524 349.88C197.64 350.131 199.28 350.801 200.445 351.89C201.638 352.962 202.466 354.263 202.929 355.795C203.398 357.304 203.555 358.935 203.401 360.689C203.269 362.449 202.936 364.144 202.403 365.772C201.869 367.4 201.197 368.87 200.384 370.181C199.578 371.469 198.743 372.411 197.881 373.004C197.018 373.598 196.18 373.738 195.366 373.423C194.553 373.108 193.876 372.15 193.334 370.549ZM195.418 369.833C195.423 369.907 195.466 370.016 195.549 370.159C195.632 370.303 195.712 370.458 195.789 370.624C195.888 370.796 195.979 370.954 196.062 371.098C196.151 371.218 196.215 371.296 196.254 371.331C197.219 371.08 198.015 370.602 198.641 369.896C199.267 369.19 199.747 368.348 200.082 367.37C200.439 366.398 200.673 365.345 200.783 364.21C200.922 363.058 200.969 361.93 200.925 360.827C200.881 359.723 200.76 358.683 200.56 357.708C200.383 356.738 200.175 355.93 199.936 355.284C199.834 355.572 199.667 356.013 199.436 356.606C199.204 357.199 198.951 357.871 198.677 358.623C198.403 359.374 198.105 360.168 197.784 361.004C197.463 361.84 197.151 362.642 196.848 363.41C196.574 364.162 196.321 364.834 196.089 365.427C195.858 366.02 195.691 366.461 195.59 366.749C195.506 366.969 195.437 367.23 195.38 367.53C195.353 367.814 195.337 368.101 195.332 368.391C195.327 368.68 195.325 368.959 195.326 369.226C195.356 369.477 195.387 369.679 195.418 369.833ZM203.352 373.233C203.331 373.13 203.314 372.968 203.3 372.746C203.293 372.501 203.289 372.245 203.288 371.978C203.315 371.694 203.337 371.433 203.352 371.195C203.367 370.956 203.387 370.792 203.411 370.701L206.887 357.729C206.942 357.525 207.061 357.399 207.243 357.351C207.426 357.303 207.622 357.295 207.832 357.327C208.042 357.359 208.234 357.41 208.409 357.482C208.607 357.559 208.737 357.618 208.799 357.659C208.697 357.947 208.565 358.397 208.401 359.008C208.237 359.619 208.041 360.307 207.812 361.07C207.606 361.84 207.387 362.655 207.157 363.515C206.949 364.382 206.739 365.211 206.526 366.003L205.971 368.075C205.808 368.686 205.698 369.142 205.641 369.442C205.347 370.722 205.28 371.651 205.441 372.228C205.624 372.811 205.934 373.148 206.37 373.241C206.835 373.317 207.366 373.192 207.963 372.867C208.588 372.525 209.19 372.092 209.767 371.567C210.373 371.026 210.906 370.441 211.366 369.811C211.848 369.189 212.162 368.605 212.308 368.062L214.673 359.233L217.051 359.87C216.866 360.378 216.627 361.042 216.335 361.862C216.042 362.681 215.755 363.575 215.471 364.542C215.21 365.516 214.966 366.518 214.738 367.549C214.517 368.557 214.364 369.535 214.28 370.483C214.224 371.414 214.264 372.262 214.399 373.026C214.54 373.768 214.82 374.352 215.239 374.78C215.687 375.191 216.297 375.403 217.07 375.416C217.849 375.407 218.849 375.117 220.07 374.546C220.116 375.189 219.885 375.734 219.377 376.18C218.869 376.626 218.267 376.974 217.569 377.224C216.871 377.474 216.155 377.61 215.421 377.632C214.694 377.631 214.107 377.51 213.662 377.269C213.6 377.229 213.511 377.108 213.395 376.907C213.302 376.712 213.242 376.574 213.215 376.494C213.167 376.312 213.087 375.975 212.976 375.484C212.871 374.971 212.761 374.431 212.645 373.867C212.529 373.302 212.419 372.763 212.314 372.249C212.232 371.742 212.169 371.386 212.127 371.18C211.925 371.393 211.595 371.717 211.139 372.153C210.688 372.566 210.158 373.006 209.547 373.473C208.966 373.924 208.345 374.34 207.684 374.721C207.053 375.086 206.447 375.312 205.865 375.399C205.29 375.463 204.774 375.349 204.319 375.057C203.869 374.742 203.547 374.134 203.352 373.233ZM219.822 379.138C219.26 379.788 218.854 380.08 218.605 380.013C218.35 379.969 218.201 379.662 218.16 379.093C218.135 378.553 218.19 377.803 218.326 376.845C218.484 375.892 218.692 374.844 218.95 373.7C219.231 372.562 219.549 371.373 219.905 370.134C220.262 368.895 220.617 367.704 220.972 366.562C221.349 365.426 221.71 364.394 222.056 363.468C222.407 362.518 222.701 361.784 222.937 361.265C223.202 360.729 223.397 360.454 223.522 360.439C223.647 360.424 223.679 360.76 223.616 361.447C224.486 361.098 225.404 360.798 226.369 360.547C227.34 360.273 228.309 360.096 229.277 360.016C230.274 359.919 231.237 359.946 232.167 360.099C233.119 360.257 233.992 360.576 234.786 361.055C234.797 361.374 234.718 361.716 234.547 362.083C234.376 362.45 234.094 362.641 233.701 362.657C233.357 362.492 232.891 362.331 232.302 362.173C231.714 362.015 231.079 361.894 230.398 361.808C229.717 361.723 229.021 361.694 228.31 361.722C227.599 361.75 226.926 361.861 226.292 362.055C225.686 362.232 225.15 362.513 224.683 362.898C224.245 363.266 223.941 363.766 223.771 364.4L219.822 379.138ZM250.609 387.169C250.71 386.881 250.858 386.375 251.052 385.65L252.29 381.032C252.484 380.307 252.609 379.795 252.665 379.495C252.679 379.353 252.713 379.046 252.766 378.575C252.842 378.11 252.917 377.56 252.99 376.925C253.086 376.295 253.179 375.629 253.271 374.925C253.362 374.222 253.445 373.552 253.518 372.917C253.591 372.281 253.654 371.728 253.708 371.257C253.784 370.792 253.832 370.478 253.852 370.313C253.891 369.984 253.957 369.65 254.048 369.31C254.161 368.977 254.308 368.7 254.488 368.482C254.668 368.263 254.894 368.142 255.168 368.118C255.447 368.071 255.803 368.191 256.236 368.477C256.131 368.958 256.014 369.534 255.883 370.202C255.781 370.854 255.681 371.543 255.584 372.269C255.486 372.996 255.415 373.716 255.369 374.432C255.322 375.147 255.325 375.816 255.377 376.436C255.896 375.677 256.376 375.017 256.818 374.456C257.288 373.879 257.777 373.367 258.285 372.92C258.793 372.474 259.337 372.074 259.917 371.72C260.503 371.343 261.183 370.979 261.956 370.628C262.925 370.184 263.651 370.1 264.135 370.375C264.648 370.634 264.987 371.137 265.15 371.885C265.343 372.616 265.415 373.521 265.369 374.6C265.322 375.68 265.235 376.821 265.107 378.024C264.984 379.204 264.865 380.374 264.749 381.531C264.662 382.673 264.656 383.69 264.732 384.584C264.814 385.455 265.018 386.141 265.345 386.641C265.701 387.125 266.264 387.288 267.034 387.13C267.074 387.796 266.975 388.255 266.738 388.506C266.53 388.742 266.238 388.834 265.864 388.782C265.518 388.713 265.135 388.514 264.714 388.182C264.299 387.829 263.903 387.407 263.524 386.917C263.175 386.411 262.888 385.849 262.666 385.232C262.443 384.614 262.343 383.992 262.365 383.367C262.383 382.936 262.483 382.247 262.664 381.3C262.844 380.354 263.01 379.33 263.159 378.23C263.308 377.129 263.372 376.03 263.351 374.933C263.358 373.819 263.183 372.886 262.826 372.135L259.831 373.808C259.738 373.88 259.459 374.242 258.994 374.894C258.55 375.551 258.043 376.313 257.471 377.179C256.906 378.022 256.345 378.891 255.79 379.786C255.241 380.658 254.82 381.37 254.526 381.922C254.426 382.114 254.267 382.484 254.047 383.031C253.834 383.556 253.608 384.127 253.37 384.743C253.132 385.358 252.915 385.943 252.718 386.497C252.55 387.034 252.435 387.416 252.375 387.642C252.062 387.995 251.713 388.12 251.328 388.017C250.943 387.914 250.703 387.631 250.609 387.169ZM272.512 393.038C271.761 392.036 271.237 390.961 270.937 389.814C270.667 388.649 270.539 387.45 270.555 386.217C270.388 386.294 270.151 386.364 269.843 386.427C269.535 386.49 269.222 386.527 268.903 386.539C268.607 386.557 268.317 386.552 268.034 386.524C267.756 386.474 267.561 386.386 267.45 386.259C267.361 386.138 267.366 385.981 267.466 385.79C267.595 385.582 267.898 385.311 268.375 384.978C268.439 384.922 268.614 384.811 268.901 384.646C269.211 384.486 269.535 384.318 269.873 384.142C270.218 383.943 270.533 383.761 270.82 383.595C271.113 383.407 271.292 383.284 271.355 383.229C271.756 382.729 272.07 382.146 272.297 381.479C272.547 380.818 272.769 380.126 272.963 379.401C273.186 378.66 273.428 377.936 273.69 377.23C273.952 376.524 274.304 375.89 274.746 375.329C275.001 375.009 275.414 374.647 275.984 374.241C276.582 373.819 277.219 373.432 277.896 373.08C278.596 372.733 279.28 372.444 279.949 372.21C280.647 371.961 281.212 371.845 281.643 371.864C282.098 371.888 282.376 372.072 282.478 372.415C282.603 372.764 282.452 373.33 282.023 374.113C281.507 375.042 280.862 375.913 280.086 376.724C279.34 377.519 278.57 378.307 277.778 379.09C276.992 379.85 276.229 380.616 275.488 381.388C274.77 382.166 274.185 382.992 273.732 383.866C273.486 384.333 273.265 384.929 273.071 385.654C272.883 386.356 272.774 387.079 272.745 387.823C272.715 388.567 272.803 389.282 273.007 389.968C273.218 390.631 273.61 391.161 274.183 391.557C274.834 392.023 275.541 392.285 276.302 392.343C277.062 392.401 277.834 392.329 278.616 392.126C279.421 391.929 280.216 391.633 281.002 391.237C281.794 390.818 282.543 390.376 283.25 389.91C283.957 389.444 284.602 388.986 285.183 388.535C285.771 388.062 286.267 387.661 286.67 387.332L287.084 388.098C287.206 388.277 287.001 388.634 286.469 389.171C285.96 389.714 285.256 390.302 284.358 390.935C283.49 391.551 282.49 392.157 281.36 392.752C280.23 393.347 279.103 393.797 277.978 394.102C276.875 394.413 275.83 394.51 274.843 394.391C273.878 394.278 273.101 393.827 272.512 393.038ZM275.316 377.957C275.263 378.064 275.185 378.262 275.084 378.55C275.011 378.822 274.932 379.116 274.847 379.433C274.762 379.75 274.684 380.044 274.611 380.316C274.561 380.593 274.532 380.792 274.524 380.911C275.582 379.86 276.616 378.718 277.626 377.484C278.636 376.25 279.513 374.969 280.258 373.64C279.688 373.681 279.137 373.837 278.604 374.106C278.099 374.359 277.633 374.696 277.205 375.115C276.784 375.511 276.41 375.957 276.083 376.452C275.779 376.953 275.523 377.454 275.316 377.957ZM295.617 397.955C295.445 397.327 295.351 396.501 295.334 395.477C295.346 394.437 295.387 393.38 295.456 392.307C295.525 391.234 295.61 390.237 295.711 389.318C295.805 388.421 295.885 387.763 295.949 387.343C295.771 387.733 295.475 388.296 295.059 389.034C294.643 389.772 294.141 390.559 293.552 391.397C292.97 392.211 292.328 393.022 291.627 393.829C290.931 394.613 290.213 395.257 289.471 395.762C288.751 396.273 288.042 396.568 287.341 396.648C286.64 396.727 286.008 396.46 285.444 395.848C285.405 395.813 285.37 395.719 285.338 395.565C285.313 395.388 285.29 395.2 285.271 395.001C285.28 394.785 285.286 394.581 285.29 394.387C285.293 394.194 285.31 394.041 285.34 393.928L289.134 379.767C288.965 379.042 288.912 378.47 288.976 378.05C289.046 377.608 289.179 377.292 289.375 377.102C289.572 376.912 289.789 376.825 290.028 376.84C290.295 376.839 290.541 376.917 290.766 377.074C290.997 377.209 291.175 377.402 291.302 377.654C291.428 377.907 291.449 378.191 291.364 378.508L287.579 392.635L287.717 394.565C289.033 394.092 290.179 393.392 291.155 392.465C292.131 391.538 292.971 390.488 293.673 389.318C294.374 388.147 294.972 386.912 295.466 385.613C295.96 384.313 296.396 383.047 296.775 381.814C296.894 381.822 297.047 381.839 297.235 381.865C297.444 381.897 297.634 381.959 297.803 382.053C297.978 382.124 298.118 382.235 298.224 382.384C298.358 382.517 298.42 382.692 298.411 382.908L297.442 395.896L297.994 398.592C298.611 398.369 299.177 397.842 299.692 397.009C300.206 396.176 300.687 395.152 301.133 393.937C301.58 392.723 301.998 391.391 302.386 389.942C302.797 388.499 303.185 387.05 303.551 385.595C303.939 384.146 304.32 382.768 304.695 381.461C305.092 380.161 305.508 379.059 305.944 378.157C306.38 377.254 306.843 376.614 307.332 376.236C307.845 375.863 308.399 375.878 308.995 376.281C309.411 376.538 309.556 376.856 309.431 377.235C309.311 377.591 309.083 377.942 308.748 378.289C308.441 378.619 308.106 378.918 307.743 379.185C307.409 379.435 307.228 379.568 307.199 379.585L302.932 395.511C302.811 395.964 302.569 396.457 302.208 396.991C301.869 397.532 301.465 398.042 300.997 398.523C300.534 398.982 300.038 399.383 299.51 399.726C298.981 400.07 298.457 400.257 297.94 400.288C297.45 400.303 296.995 400.144 296.575 399.813C296.16 399.459 295.84 398.84 295.617 397.955ZM172.056 460.622C171.682 460.207 171.433 459.642 171.308 458.93C171.178 458.24 171.116 457.519 171.123 456.769C171.13 456.019 171.179 455.292 171.271 454.588C171.385 453.891 171.485 453.336 171.572 452.922C172.003 450.951 172.521 448.882 173.126 446.714C173.747 444.576 174.524 442.491 175.457 440.46C176.395 438.406 177.502 436.495 178.777 434.725C180.08 432.939 181.615 431.422 183.382 430.172C184.308 429.523 185.19 428.946 186.029 428.443C186.896 427.923 187.765 427.489 188.635 427.139C189.527 426.796 190.444 426.544 191.385 426.384C192.354 426.207 193.401 426.148 194.526 426.207C195.554 426.264 196.262 426.563 196.651 427.104C197.063 427.651 197.239 428.353 197.179 429.21C197.125 430.045 196.87 430.996 196.414 432.063C195.965 433.107 195.39 434.166 194.689 435.24C193.995 436.292 193.217 437.296 192.353 438.254C191.513 439.218 190.663 440.034 189.805 440.701C188.947 441.369 188.114 441.85 187.308 442.143C186.507 442.414 185.811 442.385 185.22 442.057C185.172 441.874 185.374 441.528 185.826 441.018C186.278 440.508 186.857 439.887 187.563 439.154C188.291 438.427 189.078 437.619 189.923 436.729C190.797 435.823 191.606 434.887 192.349 433.922C193.116 432.963 193.763 431.996 194.291 431.021C194.842 430.052 195.159 429.142 195.241 428.291C195.27 427.911 195.124 427.641 194.803 427.482C194.482 427.323 194.105 427.234 193.673 427.216C193.264 427.203 192.86 427.216 192.462 427.255C192.063 427.294 191.812 427.324 191.71 427.345C189.789 427.631 188.004 428.317 186.354 429.404C184.732 430.474 183.246 431.81 181.894 433.413C180.549 434.994 179.351 436.748 178.301 438.674C177.273 440.607 176.391 442.542 175.653 444.48C174.91 446.44 174.318 448.332 173.878 450.155C173.432 452.001 173.157 453.614 173.055 454.994C172.946 456.396 172.993 457.488 173.196 458.271C173.392 459.076 173.759 459.429 174.295 459.33C174.346 459.319 174.461 459.253 174.639 459.131C174.84 459.015 174.973 458.929 175.036 458.873C175.608 458.007 176.147 457.036 176.654 455.958C177.161 454.881 177.624 453.743 178.042 452.545C178.483 451.353 178.881 450.137 179.238 448.898C179.594 447.659 179.918 446.448 180.211 445.264C180.498 444.104 180.747 442.994 180.958 441.934C181.192 440.881 181.392 439.951 181.559 439.147C181.534 438.97 181.556 438.661 181.626 438.219C181.719 437.782 181.82 437.312 181.931 436.808C182.064 436.31 182.206 435.826 182.356 435.357C182.535 434.871 182.714 434.519 182.894 434.3C183.074 434.081 183.246 434.03 183.408 434.147C183.571 434.263 183.721 434.655 183.858 435.323C183.824 435.629 183.733 436.151 183.584 436.887C183.458 437.63 183.317 438.429 183.16 439.285C183.01 440.118 182.86 440.903 182.711 441.639C182.562 442.376 182.448 442.891 182.37 443.186C182.307 443.509 182.2 443.953 182.049 444.519C181.926 445.069 181.779 445.66 181.609 446.294L180.563 450.199C180.405 450.788 180.258 451.294 180.12 451.718C179.998 452.171 179.908 452.462 179.849 452.592C179.794 452.796 179.632 453.177 179.361 453.735C179.106 454.322 178.832 454.94 178.537 455.589C178.235 456.26 177.932 456.895 177.626 457.492C177.32 458.09 177.097 458.515 176.957 458.769C176.693 459.208 176.37 459.643 175.988 460.074C175.606 460.506 175.188 460.843 174.734 461.085C174.304 461.334 173.853 461.431 173.382 461.378C172.928 461.353 172.486 461.101 172.056 460.622ZM196.987 447.721C197.833 445.376 198.494 443.09 198.97 440.864C199.468 438.644 199.872 436.411 200.182 434.164C200.493 431.918 200.768 429.626 201.006 427.288C201.244 424.95 201.547 422.507 201.914 419.961C201.932 419.893 201.951 419.776 201.971 419.612C202.013 419.453 202.059 419.284 202.107 419.103C202.162 418.899 202.21 418.718 202.253 418.559C202.318 418.407 202.36 418.297 202.378 418.229L203.566 418.547C203.525 418.973 203.457 419.634 203.362 420.531C203.29 421.434 203.199 422.453 203.089 423.588C203.002 424.729 202.899 425.927 202.782 427.181C202.686 428.442 202.584 429.64 202.474 430.775C202.386 431.916 202.307 432.938 202.235 433.841C202.163 434.744 202.117 435.411 202.099 435.843C202.08 435.911 202.07 436.041 202.066 436.234C202.092 436.411 202.103 436.596 202.1 436.789C202.119 436.989 202.127 437.185 202.124 437.378C202.149 437.555 202.176 437.683 202.203 437.763C202.319 437.6 202.537 437.331 202.856 436.955C203.204 436.563 203.569 436.152 203.951 435.72C204.34 435.266 204.705 434.855 205.046 434.485C205.394 434.093 205.649 433.822 205.811 433.671C206.349 433.111 206.974 432.636 207.685 432.244C208.397 431.852 209.042 431.661 209.622 431.671C210.202 431.681 210.641 431.944 210.939 432.461C211.266 432.961 211.322 433.837 211.108 435.09C211.052 435.391 210.953 435.849 210.812 436.467C210.694 437.09 210.551 437.804 210.384 438.609C210.223 439.39 210.05 440.218 209.864 441.09C209.679 441.962 209.495 442.786 209.311 443.562C209.15 444.344 208.999 445.044 208.858 445.661C208.74 446.284 208.641 446.743 208.562 447.038C208.726 447.421 208.807 447.843 208.805 448.304C208.832 448.748 208.734 449.158 208.511 449.535C208.016 449.573 207.634 449.458 207.366 449.192C207.098 448.926 206.893 448.604 206.751 448.227C206.616 447.826 206.523 447.401 206.474 446.951C206.425 446.501 206.383 446.114 206.349 445.789C206.624 444.941 206.907 444.022 207.197 443.032C207.486 442.042 207.745 441.032 207.973 440.001C208.229 438.953 208.437 437.905 208.597 436.856C208.779 435.813 208.89 434.811 208.929 433.851C208.576 433.538 208.17 433.514 207.711 433.779C207.274 434.051 206.797 434.517 206.28 435.18C205.791 435.825 205.278 436.61 204.739 437.533C204.201 438.456 203.658 439.439 203.112 440.482C202.572 441.502 202.032 442.522 201.492 443.542C200.974 444.568 200.484 445.492 200.021 446.314C199.58 447.142 199.168 447.82 198.784 448.348C198.423 448.882 198.114 449.176 197.857 449.228L196.987 447.721ZM212.966 451.384C212.624 450.395 212.534 449.376 212.693 448.327C212.859 447.255 213.15 446.168 213.567 445.067C213.983 443.965 214.471 442.87 215.029 441.782C215.588 440.694 216.1 439.643 216.566 438.627C217.038 437.589 217.41 436.609 217.682 435.687C217.959 434.742 218.019 433.885 217.861 433.114C217.777 432.704 217.574 432.467 217.251 432.405C216.956 432.326 216.616 432.283 216.23 432.277C215.872 432.254 215.515 432.182 215.159 432.063C214.825 431.949 214.577 431.652 214.415 431.172C214.462 431.087 214.582 430.998 214.777 430.905C214.956 430.783 215.082 430.72 215.156 430.715C217.272 430.967 218.912 431.637 220.077 432.725C221.269 433.797 222.098 435.099 222.561 436.63C223.03 438.139 223.187 439.771 223.033 441.525C222.901 443.285 222.568 444.979 222.035 446.608C221.501 448.236 220.828 449.706 220.016 451.017C219.21 452.305 218.375 453.246 217.513 453.84C216.65 454.434 215.812 454.573 214.998 454.258C214.185 453.943 213.508 452.985 212.966 451.384ZM215.05 450.669C215.055 450.743 215.098 450.851 215.181 450.995C215.264 451.138 215.344 451.293 215.421 451.459C215.52 451.632 215.611 451.79 215.694 451.933C215.783 452.054 215.847 452.132 215.886 452.167C216.851 451.916 217.647 451.437 218.273 450.731C218.899 450.026 219.379 449.184 219.714 448.206C220.071 447.234 220.305 446.18 220.415 445.045C220.554 443.894 220.601 442.766 220.557 441.662C220.513 440.558 220.392 439.519 220.192 438.543C220.015 437.574 219.807 436.766 219.567 436.119C219.466 436.408 219.299 436.848 219.068 437.441C218.836 438.034 218.583 438.707 218.309 439.458C218.035 440.21 217.737 441.004 217.416 441.84C217.095 442.676 216.783 443.478 216.48 444.246C216.206 444.997 215.953 445.67 215.721 446.263C215.49 446.856 215.323 447.296 215.222 447.584C215.138 447.805 215.068 448.065 215.012 448.366C214.985 448.649 214.969 448.936 214.964 449.226C214.959 449.516 214.957 449.794 214.958 450.062C214.988 450.312 215.019 450.515 215.05 450.669ZM223.276 455.421C223.378 455.132 223.526 454.626 223.72 453.902L224.957 449.283C225.151 448.559 225.277 448.046 225.333 447.746C225.347 447.604 225.38 447.298 225.434 446.827C225.51 446.362 225.584 445.812 225.658 445.176C225.753 444.547 225.847 443.88 225.938 443.177C226.03 442.473 226.112 441.804 226.185 441.168C226.259 440.533 226.322 439.98 226.375 439.509C226.451 439.044 226.499 438.729 226.519 438.564C226.559 438.235 226.624 437.901 226.715 437.561C226.829 437.228 226.976 436.952 227.155 436.733C227.335 436.514 227.562 436.393 227.835 436.369C228.115 436.323 228.471 436.443 228.904 436.728C228.799 437.21 228.681 437.785 228.551 438.454C228.449 439.106 228.349 439.795 228.252 440.521C228.154 441.247 228.082 441.968 228.036 442.683C227.99 443.399 227.993 444.067 228.045 444.688C228.564 443.929 229.044 443.269 229.485 442.708C229.956 442.13 230.445 441.618 230.952 441.172C231.46 440.726 232.004 440.325 232.584 439.971C233.171 439.595 233.85 439.231 234.624 438.88C235.592 438.436 236.318 438.351 236.803 438.627C237.316 438.885 237.654 439.389 237.818 440.136C238.01 440.867 238.083 441.772 238.036 442.852C237.99 443.931 237.902 445.072 237.774 446.275C237.652 447.456 237.533 448.625 237.417 449.783C237.329 450.924 237.324 451.942 237.399 452.836C237.481 453.707 237.686 454.392 238.013 454.893C238.369 455.376 238.932 455.539 239.702 455.381C239.742 456.047 239.643 456.506 239.406 456.758C239.197 456.993 238.906 457.085 238.531 457.033C238.186 456.965 237.802 456.765 237.382 456.434C236.967 456.08 236.57 455.658 236.192 455.169C235.842 454.663 235.556 454.101 235.333 453.483C235.111 452.865 235.01 452.244 235.032 451.619C235.051 451.187 235.15 450.498 235.331 449.552C235.512 448.605 235.677 447.582 235.826 446.481C235.976 445.381 236.04 444.282 236.018 443.184C236.026 442.07 235.851 441.138 235.494 440.387L232.498 442.059C232.406 442.131 232.127 442.493 231.661 443.145C231.218 443.803 230.711 444.565 230.139 445.431C229.573 446.274 229.013 447.143 228.458 448.037C227.909 448.909 227.487 449.621 227.194 450.174C227.094 450.365 226.934 450.735 226.715 451.283C226.501 451.808 226.275 452.378 226.038 452.994C225.8 453.61 225.583 454.194 225.386 454.748C225.217 455.286 225.103 455.667 225.042 455.894C224.729 456.247 224.38 456.372 223.996 456.268C223.611 456.165 223.371 455.883 223.276 455.421ZM245.18 461.29C244.429 460.288 243.904 459.213 243.605 458.065C243.335 456.901 243.207 455.702 243.222 454.468C243.056 454.545 242.819 454.615 242.511 454.678C242.203 454.741 241.889 454.779 241.571 454.79C241.275 454.808 240.985 454.803 240.701 454.776C240.423 454.726 240.229 454.637 240.117 454.51C240.028 454.389 240.034 454.233 240.134 454.041C240.262 453.833 240.565 453.562 241.043 453.229C241.106 453.174 241.281 453.063 241.569 452.897C241.878 452.737 242.202 452.569 242.541 452.393C242.885 452.194 243.201 452.012 243.488 451.846C243.781 451.658 243.959 451.536 244.023 451.48C244.423 450.981 244.737 450.398 244.965 449.731C245.215 449.07 245.437 448.377 245.631 447.653C245.854 446.912 246.096 446.188 246.358 445.482C246.62 444.775 246.972 444.142 247.413 443.581C247.669 443.261 248.081 442.898 248.651 442.493C249.249 442.071 249.887 441.684 250.564 441.331C251.263 440.985 251.948 440.695 252.617 440.462C253.314 440.212 253.879 440.096 254.311 440.115C254.765 440.14 255.044 440.323 255.146 440.666C255.271 441.015 255.119 441.581 254.691 442.364C254.175 443.294 253.529 444.164 252.754 444.975C252.007 445.77 251.238 446.559 250.446 447.341C249.66 448.101 248.896 448.867 248.156 449.639C247.438 450.418 246.852 451.243 246.4 452.117C246.153 452.585 245.933 453.181 245.739 453.905C245.551 454.607 245.442 455.33 245.412 456.074C245.383 456.819 245.47 457.534 245.675 458.219C245.885 458.882 246.277 459.412 246.85 459.808C247.502 460.274 248.208 460.536 248.969 460.594C249.73 460.653 250.502 460.58 251.284 460.377C252.089 460.181 252.884 459.884 253.67 459.488C254.461 459.069 255.211 458.627 255.918 458.161C256.625 457.696 257.269 457.238 257.851 456.787C258.439 456.313 258.935 455.912 259.338 455.584L259.752 456.35C259.874 456.528 259.669 456.886 259.137 457.422C258.627 457.965 257.924 458.553 257.026 459.186C256.157 459.803 255.158 460.408 254.028 461.003C252.898 461.598 251.77 462.049 250.645 462.354C249.543 462.665 248.498 462.761 247.511 462.642C246.546 462.529 245.769 462.078 245.18 461.29ZM247.983 446.208C247.93 446.315 247.853 446.513 247.751 446.801C247.679 447.073 247.6 447.367 247.515 447.684C247.43 448.001 247.351 448.296 247.278 448.567C247.228 448.845 247.199 449.043 247.192 449.163C248.25 448.112 249.284 446.969 250.294 445.736C251.304 444.502 252.181 443.22 252.925 441.891C252.356 441.933 251.805 442.088 251.271 442.358C250.767 442.611 250.301 442.947 249.873 443.366C249.451 443.763 249.077 444.208 248.75 444.703C248.446 445.204 248.191 445.706 247.983 446.208Z" fill="#4468E9"/></svg>
