<svg width="567" height="423" viewBox="0 0 567 423" fill="none" xmlns="http://www.w3.org/2000/svg">
<rect x="214.487" y="164.487" width="351.067" height="257.536" rx="17.05" fill="white" stroke="#E456F0" stroke-width="0.974283"/>
<path d="M262.981 363.062L260.876 359.391V358.526H261.578C261.858 358.526 262.104 358.487 262.314 358.409C262.532 358.324 262.712 358.203 262.852 358.047C263 357.891 263.101 357.704 263.156 357.486H260.876V356.621H263.144C263.098 356.418 263.016 356.239 262.899 356.083C262.79 355.927 262.642 355.806 262.454 355.72C262.275 355.627 262.057 355.58 261.8 355.58H260.876V354.715H266.149V355.58H264.313C264.446 355.728 264.555 355.888 264.641 356.059C264.734 356.231 264.797 356.418 264.828 356.621H266.149V357.486H264.851C264.773 358.062 264.551 358.515 264.185 358.842C263.818 359.161 263.347 359.38 262.77 359.497L265.062 363.062H262.981ZM267.111 362.151L270.209 358.912C270.427 358.678 270.603 358.472 270.735 358.292C270.875 358.105 270.977 357.93 271.039 357.766C271.101 357.595 271.133 357.423 271.133 357.252C271.133 356.909 271.02 356.64 270.794 356.445C270.575 356.25 270.291 356.153 269.94 356.153C269.582 356.153 269.262 356.246 268.981 356.433C268.709 356.621 268.451 356.917 268.21 357.322L267.122 356.398C267.45 355.845 267.855 355.428 268.338 355.147C268.829 354.859 269.391 354.715 270.022 354.715C270.56 354.715 271.027 354.82 271.425 355.031C271.83 355.241 272.142 355.533 272.36 355.907C272.578 356.281 272.688 356.718 272.688 357.217C272.688 357.552 272.645 357.856 272.559 358.129C272.481 358.402 272.345 358.674 272.15 358.947C271.963 359.212 271.702 359.512 271.366 359.847L269.11 362.151H267.111ZM267.111 363.062V362.151L268.467 361.683H272.863V363.062H267.111ZM277.151 363.179C276.504 363.179 275.919 363.004 275.397 362.653C274.875 362.303 274.458 361.808 274.146 361.168C273.842 360.529 273.69 359.785 273.69 358.935C273.69 358.086 273.842 357.345 274.146 356.714C274.45 356.083 274.859 355.592 275.373 355.241C275.896 354.89 276.476 354.715 277.116 354.715C277.77 354.715 278.355 354.89 278.869 355.241C279.391 355.592 279.805 356.087 280.109 356.726C280.412 357.357 280.564 358.101 280.564 358.959C280.564 359.808 280.412 360.553 280.109 361.192C279.805 361.823 279.395 362.314 278.881 362.665C278.366 363.008 277.79 363.179 277.151 363.179ZM277.127 361.741C277.501 361.741 277.825 361.636 278.098 361.426C278.37 361.215 278.581 360.903 278.729 360.49C278.885 360.077 278.963 359.563 278.963 358.947C278.963 358.331 278.885 357.817 278.729 357.404C278.581 356.991 278.366 356.683 278.086 356.48C277.813 356.27 277.49 356.165 277.116 356.165C276.749 356.165 276.43 356.27 276.157 356.48C275.884 356.683 275.67 356.991 275.514 357.404C275.366 357.809 275.292 358.32 275.292 358.935C275.292 359.559 275.366 360.077 275.514 360.49C275.67 360.903 275.884 361.215 276.157 361.426C276.43 361.636 276.753 361.741 277.127 361.741ZM281.402 364.454L282.233 362.911L282.712 362.782C282.657 362.883 282.595 362.969 282.525 363.039C282.455 363.109 282.373 363.144 282.279 363.144C282.084 363.144 281.901 363.059 281.73 362.887C281.558 362.716 281.473 362.501 281.473 362.244C281.473 361.964 281.566 361.726 281.753 361.531C281.94 361.336 282.174 361.239 282.455 361.239C282.712 361.239 282.938 361.336 283.133 361.531C283.328 361.726 283.425 361.964 283.425 362.244C283.425 362.353 283.402 362.486 283.355 362.642C283.308 362.79 283.222 362.981 283.098 363.214L282.197 364.875L281.402 364.454ZM287.643 363.179C286.996 363.179 286.412 363.004 285.889 362.653C285.367 362.303 284.95 361.808 284.638 361.168C284.334 360.529 284.183 359.785 284.183 358.935C284.183 358.086 284.334 357.345 284.638 356.714C284.942 356.083 285.352 355.592 285.866 355.241C286.388 354.89 286.969 354.715 287.608 354.715C288.263 354.715 288.847 354.89 289.362 355.241C289.884 355.592 290.297 356.087 290.601 356.726C290.905 357.357 291.057 358.101 291.057 358.959C291.057 359.808 290.905 360.553 290.601 361.192C290.297 361.823 289.888 362.314 289.373 362.665C288.859 363.008 288.282 363.179 287.643 363.179ZM287.62 361.741C287.994 361.741 288.317 361.636 288.59 361.426C288.863 361.215 289.073 360.903 289.221 360.49C289.377 360.077 289.455 359.563 289.455 358.947C289.455 358.331 289.377 357.817 289.221 357.404C289.073 356.991 288.859 356.683 288.578 356.48C288.306 356.27 287.982 356.165 287.608 356.165C287.242 356.165 286.922 356.27 286.649 356.48C286.377 356.683 286.162 356.991 286.006 357.404C285.858 357.809 285.784 358.32 285.784 358.935C285.784 359.559 285.858 360.077 286.006 360.49C286.162 360.903 286.377 361.215 286.649 361.426C286.922 361.636 287.246 361.741 287.62 361.741ZM295.361 363.179C294.714 363.179 294.13 363.004 293.608 362.653C293.085 362.303 292.668 361.808 292.357 361.168C292.053 360.529 291.901 359.785 291.901 358.935C291.901 358.086 292.053 357.345 292.357 356.714C292.661 356.083 293.07 355.592 293.584 355.241C294.106 354.89 294.687 354.715 295.326 354.715C295.981 354.715 296.566 354.89 297.08 355.241C297.602 355.592 298.015 356.087 298.319 356.726C298.623 357.357 298.775 358.101 298.775 358.959C298.775 359.808 298.623 360.553 298.319 361.192C298.015 361.823 297.606 362.314 297.092 362.665C296.577 363.008 296 363.179 295.361 363.179ZM295.338 361.741C295.712 361.741 296.036 361.636 296.308 361.426C296.581 361.215 296.792 360.903 296.94 360.49C297.096 360.077 297.173 359.563 297.173 358.947C297.173 358.331 297.096 357.817 296.94 357.404C296.792 356.991 296.577 356.683 296.297 356.48C296.024 356.27 295.7 356.165 295.326 356.165C294.96 356.165 294.64 356.27 294.368 356.48C294.095 356.683 293.88 356.991 293.725 357.404C293.576 357.809 293.502 358.32 293.502 358.935C293.502 359.559 293.576 360.077 293.725 360.49C293.88 360.903 294.095 361.215 294.368 361.426C294.64 361.636 294.964 361.741 295.338 361.741ZM303.079 363.179C302.433 363.179 301.848 363.004 301.326 362.653C300.804 362.303 300.387 361.808 300.075 361.168C299.771 360.529 299.619 359.785 299.619 358.935C299.619 358.086 299.771 357.345 300.075 356.714C300.379 356.083 300.788 355.592 301.302 355.241C301.825 354.89 302.405 354.715 303.044 354.715C303.699 354.715 304.284 354.89 304.798 355.241C305.32 355.592 305.733 356.087 306.037 356.726C306.341 357.357 306.493 358.101 306.493 358.959C306.493 359.808 306.341 360.553 306.037 361.192C305.733 361.823 305.324 362.314 304.81 362.665C304.295 363.008 303.719 363.179 303.079 363.179ZM303.056 361.741C303.43 361.741 303.754 361.636 304.026 361.426C304.299 361.215 304.51 360.903 304.658 360.49C304.814 360.077 304.892 359.563 304.892 358.947C304.892 358.331 304.814 357.817 304.658 357.404C304.51 356.991 304.295 356.683 304.015 356.48C303.742 356.27 303.419 356.165 303.044 356.165C302.678 356.165 302.358 356.27 302.086 356.48C301.813 356.683 301.599 356.991 301.443 357.404C301.295 357.809 301.221 358.32 301.221 358.935C301.221 359.559 301.295 360.077 301.443 360.49C301.599 360.903 301.813 361.215 302.086 361.426C302.358 361.636 302.682 361.741 303.056 361.741Z" fill="#E456F0"/>
<path d="M410.422 363.062L408.318 359.391V358.526H409.019C409.3 358.526 409.545 358.487 409.756 358.409C409.974 358.323 410.153 358.203 410.293 358.047C410.441 357.891 410.543 357.704 410.597 357.486H408.318V356.62H410.586C410.539 356.418 410.457 356.238 410.34 356.083C410.231 355.927 410.083 355.806 409.896 355.72C409.717 355.627 409.498 355.58 409.241 355.58H408.318V354.715H413.59V355.58H411.755C411.887 355.728 411.996 355.888 412.082 356.059C412.176 356.231 412.238 356.418 412.269 356.62H413.59V357.486H412.293C412.215 358.062 411.993 358.514 411.626 358.842C411.26 359.161 410.788 359.38 410.212 359.497L412.503 363.062H410.422ZM417.171 363.179C416.602 363.179 416.084 363.082 415.616 362.887C415.148 362.684 414.759 362.396 414.447 362.022L415.499 360.981C415.655 361.215 415.877 361.402 416.166 361.542C416.462 361.683 416.785 361.753 417.136 361.753C417.456 361.753 417.732 361.694 417.966 361.578C418.208 361.461 418.395 361.297 418.527 361.087C418.668 360.868 418.738 360.615 418.738 360.327C418.738 360.023 418.668 359.765 418.527 359.555C418.395 359.345 418.215 359.185 417.989 359.076C417.763 358.966 417.51 358.912 417.23 358.912C416.933 358.912 416.664 358.951 416.423 359.029C416.189 359.099 415.963 359.216 415.745 359.38L415.838 358.374C415.986 358.218 416.142 358.094 416.306 358C416.47 357.899 416.653 357.825 416.855 357.778C417.066 357.723 417.311 357.696 417.592 357.696C418.192 357.696 418.691 357.821 419.088 358.07C419.494 358.312 419.802 358.639 420.012 359.052C420.223 359.458 420.328 359.906 420.328 360.397C420.328 360.935 420.195 361.414 419.93 361.835C419.665 362.256 419.295 362.587 418.82 362.829C418.352 363.062 417.802 363.179 417.171 363.179ZM415.745 359.38L414.985 358.631L415.359 354.843H416.797L416.376 358.69L415.745 359.38ZM415.604 356.223L415.359 354.843H419.872V356.223H415.604ZM424.592 363.179C423.945 363.179 423.36 363.004 422.838 362.653C422.316 362.302 421.899 361.808 421.587 361.168C421.283 360.529 421.131 359.785 421.131 358.935C421.131 358.086 421.283 357.345 421.587 356.714C421.891 356.083 422.3 355.592 422.815 355.241C423.337 354.89 423.918 354.715 424.557 354.715C425.212 354.715 425.796 354.89 426.311 355.241C426.833 355.592 427.246 356.087 427.55 356.726C427.854 357.357 428.006 358.101 428.006 358.959C428.006 359.808 427.854 360.553 427.55 361.192C427.246 361.823 426.837 362.314 426.322 362.665C425.808 363.008 425.231 363.179 424.592 363.179ZM424.569 361.741C424.943 361.741 425.266 361.636 425.539 361.426C425.812 361.215 426.022 360.903 426.17 360.49C426.326 360.077 426.404 359.563 426.404 358.947C426.404 358.331 426.326 357.817 426.17 357.404C426.022 356.991 425.808 356.683 425.527 356.48C425.254 356.27 424.931 356.164 424.557 356.164C424.191 356.164 423.871 356.27 423.598 356.48C423.325 356.683 423.111 356.991 422.955 357.404C422.807 357.809 422.733 358.32 422.733 358.935C422.733 359.559 422.807 360.077 422.955 360.49C423.111 360.903 423.325 361.215 423.598 361.426C423.871 361.636 424.194 361.741 424.569 361.741ZM428.844 364.454L429.674 362.91L430.153 362.782C430.099 362.883 430.036 362.969 429.966 363.039C429.896 363.109 429.814 363.144 429.721 363.144C429.526 363.144 429.343 363.058 429.171 362.887C429 362.716 428.914 362.501 428.914 362.244C428.914 361.963 429.007 361.726 429.195 361.531C429.382 361.336 429.615 361.239 429.896 361.239C430.153 361.239 430.379 361.336 430.574 361.531C430.769 361.726 430.866 361.963 430.866 362.244C430.866 362.353 430.843 362.486 430.796 362.641C430.75 362.79 430.664 362.981 430.539 363.214L429.639 364.875L428.844 364.454ZM435.085 363.179C434.438 363.179 433.853 363.004 433.331 362.653C432.809 362.302 432.392 361.808 432.08 361.168C431.776 360.529 431.624 359.785 431.624 358.935C431.624 358.086 431.776 357.345 432.08 356.714C432.384 356.083 432.793 355.592 433.307 355.241C433.83 354.89 434.41 354.715 435.049 354.715C435.704 354.715 436.289 354.89 436.803 355.241C437.325 355.592 437.739 356.087 438.042 356.726C438.346 357.357 438.498 358.101 438.498 358.959C438.498 359.808 438.346 360.553 438.042 361.192C437.739 361.823 437.329 362.314 436.815 362.665C436.3 363.008 435.724 363.179 435.085 363.179ZM435.061 361.741C435.435 361.741 435.759 361.636 436.032 361.426C436.304 361.215 436.515 360.903 436.663 360.49C436.819 360.077 436.897 359.563 436.897 358.947C436.897 358.331 436.819 357.817 436.663 357.404C436.515 356.991 436.3 356.683 436.02 356.48C435.747 356.27 435.424 356.164 435.049 356.164C434.683 356.164 434.364 356.27 434.091 356.48C433.818 356.683 433.604 356.991 433.448 357.404C433.3 357.809 433.226 358.32 433.226 358.935C433.226 359.559 433.3 360.077 433.448 360.49C433.604 360.903 433.818 361.215 434.091 361.426C434.364 361.636 434.687 361.741 435.061 361.741ZM442.803 363.179C442.156 363.179 441.571 363.004 441.049 362.653C440.527 362.302 440.11 361.808 439.798 361.168C439.494 360.529 439.342 359.785 439.342 358.935C439.342 358.086 439.494 357.345 439.798 356.714C440.102 356.083 440.511 355.592 441.026 355.241C441.548 354.89 442.129 354.715 442.768 354.715C443.422 354.715 444.007 354.89 444.521 355.241C445.044 355.592 445.457 356.087 445.761 356.726C446.065 357.357 446.217 358.101 446.217 358.959C446.217 359.808 446.065 360.553 445.761 361.192C445.457 361.823 445.047 362.314 444.533 362.665C444.019 363.008 443.442 363.179 442.803 363.179ZM442.779 361.741C443.153 361.741 443.477 361.636 443.75 361.426C444.023 361.215 444.233 360.903 444.381 360.49C444.537 360.077 444.615 359.563 444.615 358.947C444.615 358.331 444.537 357.817 444.381 357.404C444.233 356.991 444.019 356.683 443.738 356.48C443.465 356.27 443.142 356.164 442.768 356.164C442.401 356.164 442.082 356.27 441.809 356.48C441.536 356.683 441.322 356.991 441.166 357.404C441.018 357.809 440.944 358.32 440.944 358.935C440.944 359.559 441.018 360.077 441.166 360.49C441.322 360.903 441.536 361.215 441.809 361.426C442.082 361.636 442.405 361.741 442.779 361.741ZM450.521 363.179C449.874 363.179 449.289 363.004 448.767 362.653C448.245 362.302 447.828 361.808 447.516 361.168C447.212 360.529 447.06 359.785 447.06 358.935C447.06 358.086 447.212 357.345 447.516 356.714C447.82 356.083 448.229 355.592 448.744 355.241C449.266 354.89 449.847 354.715 450.486 354.715C451.141 354.715 451.725 354.89 452.239 355.241C452.762 355.592 453.175 356.087 453.479 356.726C453.783 357.357 453.935 358.101 453.935 358.959C453.935 359.808 453.783 360.553 453.479 361.192C453.175 361.823 452.766 362.314 452.251 362.665C451.737 363.008 451.16 363.179 450.521 363.179ZM450.497 361.741C450.872 361.741 451.195 361.636 451.468 361.426C451.741 361.215 451.951 360.903 452.099 360.49C452.255 360.077 452.333 359.563 452.333 358.947C452.333 358.331 452.255 357.817 452.099 357.404C451.951 356.991 451.737 356.683 451.456 356.48C451.183 356.27 450.86 356.164 450.486 356.164C450.119 356.164 449.8 356.27 449.527 356.48C449.254 356.683 449.04 356.991 448.884 357.404C448.736 357.809 448.662 358.32 448.662 358.935C448.662 359.559 448.736 360.077 448.884 360.49C449.04 360.903 449.254 361.215 449.527 361.426C449.8 361.636 450.123 361.741 450.497 361.741Z" fill="#E456F0"/>
<path d="M260.687 225.438V222.554H264.922C265.477 222.554 265.979 222.442 266.429 222.216C266.88 221.991 267.235 221.671 267.494 221.255C267.754 220.822 267.884 220.302 267.884 219.696C267.884 219.107 267.754 218.596 267.494 218.163C267.235 217.73 266.88 217.401 266.429 217.176C265.979 216.951 265.477 216.838 264.922 216.838H260.687V213.954H265.286C266.447 213.954 267.486 214.188 268.404 214.656C269.339 215.124 270.075 215.79 270.612 216.656C271.149 217.505 271.418 218.518 271.418 219.696C271.418 220.874 271.149 221.896 270.612 222.762C270.075 223.611 269.339 224.269 268.404 224.737C267.486 225.204 266.447 225.438 265.286 225.438H260.687ZM258.089 232.219V213.954H261.623V232.219H258.089ZM273.735 232.219V219.67H277.139V232.219H273.735ZM277.139 225.282L275.814 224.399C275.97 222.857 276.42 221.645 277.165 220.761C277.91 219.861 278.983 219.41 280.386 219.41C280.993 219.41 281.538 219.514 282.023 219.722C282.508 219.913 282.95 220.233 283.348 220.684L281.218 223.126C281.027 222.918 280.793 222.762 280.516 222.658C280.257 222.554 279.953 222.502 279.607 222.502C278.88 222.502 278.282 222.736 277.814 223.204C277.364 223.654 277.139 224.347 277.139 225.282ZM284.544 232.219V219.67H287.973V232.219H284.544ZM286.259 217.644C285.704 217.644 285.245 217.462 284.882 217.098C284.518 216.717 284.336 216.249 284.336 215.695C284.336 215.158 284.518 214.699 284.882 214.318C285.245 213.937 285.704 213.747 286.259 213.747C286.83 213.747 287.289 213.937 287.636 214.318C287.999 214.699 288.181 215.158 288.181 215.695C288.181 216.249 287.999 216.717 287.636 217.098C287.289 217.462 286.83 217.644 286.259 217.644ZM296.912 232.479C295.63 232.479 294.478 232.193 293.456 231.621C292.435 231.05 291.629 230.27 291.04 229.283C290.451 228.296 290.157 227.187 290.157 225.958C290.157 224.711 290.451 223.593 291.04 222.606C291.629 221.619 292.435 220.839 293.456 220.268C294.496 219.679 295.648 219.384 296.912 219.384C297.899 219.384 298.809 219.566 299.64 219.93C300.471 220.294 301.19 220.813 301.796 221.489L299.614 223.697C299.285 223.334 298.886 223.056 298.419 222.866C297.968 222.675 297.466 222.58 296.912 222.58C296.288 222.58 295.725 222.727 295.223 223.022C294.738 223.299 294.348 223.689 294.054 224.191C293.777 224.676 293.638 225.256 293.638 225.932C293.638 226.59 293.777 227.179 294.054 227.698C294.348 228.201 294.738 228.599 295.223 228.893C295.725 229.171 296.288 229.309 296.912 229.309C297.484 229.309 297.994 229.214 298.445 229.023C298.912 228.816 299.311 228.521 299.64 228.14L301.848 230.348C301.207 231.041 300.471 231.57 299.64 231.933C298.809 232.297 297.899 232.479 296.912 232.479ZM309.498 232.479C308.182 232.479 307.013 232.202 305.991 231.647C304.969 231.076 304.155 230.296 303.549 229.309C302.96 228.322 302.665 227.196 302.665 225.932C302.665 224.685 302.951 223.576 303.523 222.606C304.112 221.619 304.908 220.839 305.913 220.268C306.917 219.679 308.035 219.384 309.264 219.384C310.477 219.384 311.542 219.662 312.46 220.216C313.395 220.753 314.123 221.498 314.642 222.45C315.179 223.386 315.448 224.451 315.448 225.646C315.448 225.871 315.431 226.105 315.396 226.347C315.379 226.573 315.335 226.832 315.266 227.127L304.718 227.153V224.607L313.681 224.581L312.304 225.646C312.27 224.901 312.131 224.278 311.888 223.775C311.663 223.273 311.326 222.892 310.875 222.632C310.442 222.355 309.905 222.216 309.264 222.216C308.589 222.216 308 222.372 307.498 222.684C306.995 222.978 306.606 223.403 306.329 223.957C306.069 224.494 305.939 225.135 305.939 225.88C305.939 226.642 306.077 227.309 306.355 227.88C306.649 228.434 307.065 228.867 307.602 229.179C308.139 229.474 308.762 229.621 309.472 229.621C310.113 229.621 310.693 229.517 311.213 229.309C311.733 229.084 312.183 228.755 312.564 228.322L314.565 230.322C313.958 231.033 313.214 231.57 312.33 231.933C311.464 232.297 310.52 232.479 309.498 232.479ZM322.627 232.219V219.67H326.031V232.219H322.627ZM326.031 225.282L324.706 224.399C324.861 222.857 325.312 221.645 326.057 220.761C326.801 219.861 327.875 219.41 329.278 219.41C329.884 219.41 330.43 219.514 330.915 219.722C331.4 219.913 331.842 220.233 332.24 220.684L330.11 223.126C329.919 222.918 329.685 222.762 329.408 222.658C329.148 222.554 328.845 222.502 328.499 222.502C327.771 222.502 327.174 222.736 326.706 223.204C326.256 223.654 326.031 224.347 326.031 225.282ZM338.329 232.479C337.185 232.479 336.155 232.193 335.237 231.621C334.319 231.05 333.6 230.27 333.08 229.283C332.561 228.296 332.301 227.187 332.301 225.958C332.301 224.711 332.561 223.593 333.08 222.606C333.6 221.619 334.319 220.839 335.237 220.268C336.155 219.696 337.185 219.41 338.329 219.41C339.229 219.41 340.035 219.592 340.745 219.956C341.455 220.32 342.018 220.831 342.433 221.489C342.867 222.13 343.1 222.857 343.135 223.671V228.192C343.1 229.023 342.867 229.76 342.433 230.4C342.018 231.041 341.455 231.552 340.745 231.933C340.035 232.297 339.229 232.479 338.329 232.479ZM338.952 229.335C339.905 229.335 340.675 229.023 341.264 228.4C341.853 227.759 342.148 226.936 342.148 225.932C342.148 225.273 342.009 224.693 341.732 224.191C341.472 223.671 341.1 223.273 340.615 222.996C340.147 222.701 339.593 222.554 338.952 222.554C338.329 222.554 337.774 222.701 337.289 222.996C336.822 223.273 336.449 223.671 336.172 224.191C335.912 224.693 335.782 225.273 335.782 225.932C335.782 226.607 335.912 227.205 336.172 227.724C336.449 228.227 336.822 228.625 337.289 228.919C337.774 229.197 338.329 229.335 338.952 229.335ZM341.966 232.219V228.842L342.511 225.776L341.966 222.762V219.67H345.343V232.219H341.966ZM356.798 232.219V225.022C356.798 224.278 356.564 223.671 356.097 223.204C355.629 222.736 355.023 222.502 354.278 222.502C353.793 222.502 353.36 222.606 352.979 222.814C352.598 223.022 352.295 223.316 352.07 223.697C351.862 224.078 351.758 224.52 351.758 225.022L350.433 224.347C350.433 223.36 350.641 222.502 351.056 221.775C351.489 221.03 352.078 220.45 352.823 220.034C353.585 219.618 354.442 219.41 355.395 219.41C356.313 219.41 357.136 219.644 357.863 220.112C358.591 220.562 359.162 221.16 359.578 221.905C359.994 222.632 360.202 223.42 360.202 224.269V232.219H356.798ZM348.354 232.219V219.67H351.758V232.219H348.354ZM368.191 237.779C366.858 237.779 365.68 237.536 364.658 237.051C363.636 236.584 362.822 235.917 362.216 235.051L364.372 232.895C364.857 233.466 365.394 233.899 365.983 234.194C366.589 234.505 367.317 234.661 368.165 234.661C369.222 234.661 370.053 234.393 370.659 233.856C371.283 233.319 371.595 232.574 371.595 231.621V228.478L372.166 225.724L371.621 222.97V219.67H374.998V231.57C374.998 232.817 374.704 233.899 374.115 234.817C373.543 235.752 372.747 236.48 371.725 237C370.703 237.519 369.525 237.779 368.191 237.779ZM368.035 231.881C366.91 231.881 365.896 231.613 364.996 231.076C364.095 230.522 363.385 229.768 362.865 228.816C362.363 227.863 362.112 226.798 362.112 225.62C362.112 224.442 362.363 223.386 362.865 222.45C363.385 221.515 364.095 220.779 364.996 220.242C365.896 219.688 366.91 219.41 368.035 219.41C368.971 219.41 369.793 219.592 370.504 219.956C371.231 220.32 371.803 220.822 372.218 221.463C372.634 222.086 372.859 222.823 372.894 223.671V227.62C372.859 228.452 372.625 229.197 372.192 229.855C371.777 230.496 371.205 230.998 370.478 231.362C369.767 231.708 368.953 231.881 368.035 231.881ZM368.711 228.79C369.334 228.79 369.871 228.66 370.322 228.4C370.789 228.123 371.153 227.75 371.413 227.283C371.673 226.798 371.803 226.252 371.803 225.646C371.803 225.022 371.673 224.477 371.413 224.009C371.153 223.541 370.789 223.178 370.322 222.918C369.871 222.641 369.334 222.502 368.711 222.502C368.087 222.502 367.542 222.641 367.074 222.918C366.606 223.178 366.243 223.55 365.983 224.035C365.723 224.503 365.593 225.04 365.593 225.646C365.593 226.235 365.723 226.772 365.983 227.257C366.243 227.724 366.606 228.097 367.074 228.374C367.542 228.651 368.087 228.79 368.711 228.79ZM383.99 232.479C382.674 232.479 381.505 232.202 380.483 231.647C379.461 231.076 378.647 230.296 378.041 229.309C377.452 228.322 377.157 227.196 377.157 225.932C377.157 224.685 377.443 223.576 378.015 222.606C378.604 221.619 379.4 220.839 380.405 220.268C381.41 219.679 382.527 219.384 383.756 219.384C384.969 219.384 386.034 219.662 386.952 220.216C387.887 220.753 388.615 221.498 389.135 222.45C389.671 223.386 389.94 224.451 389.94 225.646C389.94 225.871 389.923 226.105 389.888 226.347C389.871 226.573 389.827 226.832 389.758 227.127L379.21 227.153V224.607L388.173 224.581L386.796 225.646C386.762 224.901 386.623 224.278 386.381 223.775C386.155 223.273 385.818 222.892 385.367 222.632C384.934 222.355 384.397 222.216 383.756 222.216C383.081 222.216 382.492 222.372 381.99 222.684C381.488 222.978 381.098 223.403 380.821 223.957C380.561 224.494 380.431 225.135 380.431 225.88C380.431 226.642 380.57 227.309 380.847 227.88C381.141 228.434 381.557 228.867 382.094 229.179C382.631 229.474 383.254 229.621 383.964 229.621C384.605 229.621 385.185 229.517 385.705 229.309C386.225 229.084 386.675 228.755 387.056 228.322L389.057 230.322C388.45 231.033 387.706 231.57 386.822 231.933C385.956 232.297 385.012 232.479 383.99 232.479Z" fill="#1C1C1C"/>
<path d="M259.874 266.284L257.296 261.782V261.182H257.596C258.078 261.182 258.483 261.137 258.81 261.046C259.147 260.955 259.411 260.805 259.601 260.596C259.792 260.387 259.906 260.1 259.942 259.736H257.296V258.863H259.929C259.865 258.527 259.738 258.254 259.547 258.045C259.356 257.827 259.097 257.668 258.769 257.568C258.451 257.468 258.06 257.418 257.596 257.418H257.296V256.545H262.943V257.418H260.365C260.574 257.59 260.747 257.795 260.884 258.031C261.02 258.268 261.106 258.545 261.143 258.863H262.943V259.736H261.17C261.106 260.4 260.852 260.919 260.406 261.291C259.97 261.655 259.388 261.887 258.66 261.987L261.266 266.284H259.874ZM264.406 266.284V265.356L267.925 261.619C268.362 261.155 268.676 260.759 268.867 260.432C269.058 260.105 269.153 259.768 269.153 259.423C269.153 258.995 269.012 258.663 268.73 258.427C268.457 258.181 268.107 258.059 267.68 258.059C266.798 258.059 266.089 258.527 265.552 259.464L264.461 258.563C265.207 257.254 266.298 256.599 267.735 256.599C268.326 256.599 268.844 256.717 269.289 256.954C269.735 257.19 270.081 257.522 270.326 257.95C270.572 258.368 270.694 258.854 270.694 259.409C270.694 259.809 270.644 260.168 270.544 260.487C270.453 260.796 270.294 261.11 270.067 261.428C269.84 261.737 269.526 262.101 269.126 262.519L266.848 264.879H270.885V266.284H264.406ZM275.891 266.42C275.173 266.42 274.514 266.22 273.914 265.82C273.323 265.411 272.85 264.838 272.495 264.101C272.14 263.365 271.963 262.496 271.963 261.496C271.963 260.496 272.136 259.632 272.481 258.904C272.836 258.168 273.309 257.6 273.9 257.199C274.491 256.799 275.146 256.599 275.864 256.599C276.592 256.599 277.251 256.799 277.842 257.199C278.433 257.6 278.901 258.168 279.247 258.904C279.601 259.632 279.779 260.5 279.779 261.51C279.779 262.51 279.601 263.378 279.247 264.115C278.901 264.851 278.433 265.42 277.842 265.82C277.26 266.22 276.61 266.42 275.891 266.42ZM275.864 264.947C276.564 264.947 277.128 264.66 277.555 264.088C277.983 263.515 278.197 262.651 278.197 261.496C278.197 260.35 277.983 259.495 277.555 258.932C277.128 258.359 276.564 258.072 275.864 258.072C275.173 258.072 274.614 258.354 274.186 258.918C273.759 259.482 273.545 260.341 273.545 261.496C273.545 262.651 273.759 263.515 274.186 264.088C274.614 264.66 275.173 264.947 275.864 264.947ZM280.841 267.88L281.646 266.365C281.473 266.32 281.318 266.215 281.182 266.052C281.045 265.888 280.977 265.688 280.977 265.452C280.977 265.161 281.073 264.915 281.264 264.715C281.464 264.506 281.709 264.401 282 264.401C282.273 264.401 282.509 264.506 282.709 264.715C282.919 264.915 283.023 265.161 283.023 265.452C283.023 265.57 282.996 265.711 282.941 265.874C282.896 266.029 282.81 266.229 282.682 266.475L281.673 268.33L280.841 267.88ZM287.933 266.42C287.215 266.42 286.555 266.22 285.955 265.82C285.364 265.411 284.891 264.838 284.537 264.101C284.182 263.365 284.005 262.496 284.005 261.496C284.005 260.496 284.177 259.632 284.523 258.904C284.878 258.168 285.35 257.6 285.942 257.199C286.533 256.799 287.187 256.599 287.906 256.599C288.633 256.599 289.292 256.799 289.883 257.199C290.475 257.6 290.943 258.168 291.288 258.904C291.643 259.632 291.82 260.5 291.82 261.51C291.82 262.51 291.643 263.378 291.288 264.115C290.943 264.851 290.475 265.42 289.883 265.82C289.301 266.22 288.651 266.42 287.933 266.42ZM287.906 264.947C288.606 264.947 289.17 264.66 289.597 264.088C290.024 263.515 290.238 262.651 290.238 261.496C290.238 260.35 290.024 259.495 289.597 258.932C289.17 258.359 288.606 258.072 287.906 258.072C287.215 258.072 286.655 258.354 286.228 258.918C285.801 259.482 285.587 260.341 285.587 261.496C285.587 262.651 285.801 263.515 286.228 264.088C286.655 264.66 287.215 264.947 287.906 264.947ZM296.871 266.42C296.152 266.42 295.493 266.22 294.893 265.82C294.302 265.411 293.829 264.838 293.475 264.101C293.12 263.365 292.943 262.496 292.943 261.496C292.943 260.496 293.115 259.632 293.461 258.904C293.816 258.168 294.288 257.6 294.879 257.199C295.47 256.799 296.125 256.599 296.844 256.599C297.571 256.599 298.23 256.799 298.821 257.199C299.412 257.6 299.881 258.168 300.226 258.904C300.581 259.632 300.758 260.5 300.758 261.51C300.758 262.51 300.581 263.378 300.226 264.115C299.881 264.851 299.412 265.42 298.821 265.82C298.239 266.22 297.589 266.42 296.871 266.42ZM296.844 264.947C297.544 264.947 298.108 264.66 298.535 264.088C298.962 263.515 299.176 262.651 299.176 261.496C299.176 260.35 298.962 259.495 298.535 258.932C298.108 258.359 297.544 258.072 296.844 258.072C296.152 258.072 295.593 258.354 295.166 258.918C294.738 259.482 294.525 260.341 294.525 261.496C294.525 262.651 294.738 263.515 295.166 264.088C295.593 264.66 296.152 264.947 296.844 264.947ZM305.809 266.42C305.09 266.42 304.431 266.22 303.831 265.82C303.24 265.411 302.767 264.838 302.412 264.101C302.058 263.365 301.88 262.496 301.88 261.496C301.88 260.496 302.053 259.632 302.399 258.904C302.753 258.168 303.226 257.6 303.817 257.199C304.408 256.799 305.063 256.599 305.781 256.599C306.509 256.599 307.168 256.799 307.759 257.199C308.35 257.6 308.819 258.168 309.164 258.904C309.519 259.632 309.696 260.5 309.696 261.51C309.696 262.51 309.519 263.378 309.164 264.115C308.819 264.851 308.35 265.42 307.759 265.82C307.177 266.22 306.527 266.42 305.809 266.42ZM305.781 264.947C306.482 264.947 307.045 264.66 307.473 264.088C307.9 263.515 308.114 262.651 308.114 261.496C308.114 260.35 307.9 259.495 307.473 258.932C307.045 258.359 306.482 258.072 305.781 258.072C305.09 258.072 304.531 258.354 304.104 258.918C303.676 259.482 303.463 260.341 303.463 261.496C303.463 262.651 303.676 263.515 304.104 264.088C304.531 264.66 305.09 264.947 305.781 264.947ZM313.822 263.515V262.096H318.446V263.515H313.822ZM325.663 266.284L323.085 261.782V261.182H323.385C323.867 261.182 324.272 261.137 324.599 261.046C324.936 260.955 325.199 260.805 325.39 260.596C325.581 260.387 325.695 260.1 325.731 259.736H323.085V258.863H325.718C325.654 258.527 325.527 258.254 325.336 258.045C325.145 257.827 324.886 257.668 324.558 257.568C324.24 257.468 323.849 257.418 323.385 257.418H323.085V256.545H328.732V257.418H326.154C326.363 257.59 326.536 257.795 326.672 258.031C326.809 258.268 326.895 258.545 326.932 258.863H328.732V259.736H326.959C326.895 260.4 326.641 260.919 326.195 261.291C325.759 261.655 325.177 261.887 324.449 261.987L327.054 266.284H325.663ZM333.182 266.42C331.855 266.42 330.827 265.965 330.1 265.056L331.164 263.992C331.355 264.283 331.623 264.515 331.968 264.688C332.323 264.861 332.719 264.947 333.155 264.947C333.746 264.947 334.228 264.783 334.601 264.456C334.983 264.129 335.174 263.687 335.174 263.133C335.174 262.742 335.087 262.419 334.915 262.164C334.751 261.901 334.528 261.705 334.246 261.578C333.973 261.441 333.678 261.373 333.36 261.373C332.996 261.373 332.669 261.414 332.378 261.496C332.096 261.578 331.818 261.723 331.546 261.932L330.686 261.073L331.109 256.736H336.224V258.141H332.391L332.132 260.446C332.505 260.218 333.014 260.105 333.66 260.105C334.333 260.105 334.896 260.246 335.351 260.528C335.815 260.809 336.165 261.187 336.401 261.66C336.638 262.123 336.756 262.642 336.756 263.215C336.756 263.833 336.601 264.383 336.292 264.865C335.992 265.347 335.574 265.729 335.037 266.011C334.501 266.284 333.883 266.42 333.182 266.42ZM341.734 266.42C341.015 266.42 340.356 266.22 339.756 265.82C339.165 265.411 338.692 264.838 338.337 264.101C337.983 263.365 337.805 262.496 337.805 261.496C337.805 260.496 337.978 259.632 338.324 258.904C338.678 258.168 339.151 257.6 339.742 257.199C340.333 256.799 340.988 256.599 341.706 256.599C342.434 256.599 343.093 256.799 343.684 257.199C344.275 257.6 344.743 258.168 345.089 258.904C345.444 259.632 345.621 260.5 345.621 261.51C345.621 262.51 345.444 263.378 345.089 264.115C344.743 264.851 344.275 265.42 343.684 265.82C343.102 266.22 342.452 266.42 341.734 266.42ZM341.706 264.947C342.406 264.947 342.97 264.66 343.398 264.088C343.825 263.515 344.039 262.651 344.039 261.496C344.039 260.35 343.825 259.495 343.398 258.932C342.97 258.359 342.406 258.072 341.706 258.072C341.015 258.072 340.456 258.354 340.029 258.918C339.601 259.482 339.387 260.341 339.387 261.496C339.387 262.651 339.601 263.515 340.029 264.088C340.456 264.66 341.015 264.947 341.706 264.947ZM346.683 267.88L347.488 266.365C347.315 266.32 347.16 266.215 347.024 266.052C346.888 265.888 346.819 265.688 346.819 265.452C346.819 265.161 346.915 264.915 347.106 264.715C347.306 264.506 347.551 264.401 347.842 264.401C348.115 264.401 348.352 264.506 348.552 264.715C348.761 264.915 348.865 265.161 348.865 265.452C348.865 265.57 348.838 265.711 348.783 265.874C348.738 266.029 348.652 266.229 348.524 266.475L347.515 268.33L346.683 267.88ZM353.775 266.42C353.057 266.42 352.397 266.22 351.797 265.82C351.206 265.411 350.733 264.838 350.379 264.101C350.024 263.365 349.847 262.496 349.847 261.496C349.847 260.496 350.02 259.632 350.365 258.904C350.72 258.168 351.193 257.6 351.784 257.199C352.375 256.799 353.029 256.599 353.748 256.599C354.475 256.599 355.135 256.799 355.726 257.199C356.317 257.6 356.785 258.168 357.131 258.904C357.485 259.632 357.662 260.5 357.662 261.51C357.662 262.51 357.485 263.378 357.131 264.115C356.785 264.851 356.317 265.42 355.726 265.82C355.144 266.22 354.493 266.42 353.775 266.42ZM353.748 264.947C354.448 264.947 355.012 264.66 355.439 264.088C355.867 263.515 356.08 262.651 356.08 261.496C356.08 260.35 355.867 259.495 355.439 258.932C355.012 258.359 354.448 258.072 353.748 258.072C353.057 258.072 352.497 258.354 352.07 258.918C351.643 259.482 351.429 260.341 351.429 261.496C351.429 262.651 351.643 263.515 352.07 264.088C352.497 264.66 353.057 264.947 353.748 264.947ZM362.713 266.42C361.995 266.42 361.335 266.22 360.735 265.82C360.144 265.411 359.671 264.838 359.317 264.101C358.962 263.365 358.785 262.496 358.785 261.496C358.785 260.496 358.957 259.632 359.303 258.904C359.658 258.168 360.13 257.6 360.722 257.199C361.313 256.799 361.967 256.599 362.686 256.599C363.413 256.599 364.072 256.799 364.664 257.199C365.255 257.6 365.723 258.168 366.068 258.904C366.423 259.632 366.6 260.5 366.6 261.51C366.6 262.51 366.423 263.378 366.068 264.115C365.723 264.851 365.255 265.42 364.664 265.82C364.082 266.22 363.431 266.42 362.713 266.42ZM362.686 264.947C363.386 264.947 363.95 264.66 364.377 264.088C364.804 263.515 365.018 262.651 365.018 261.496C365.018 260.35 364.804 259.495 364.377 258.932C363.95 258.359 363.386 258.072 362.686 258.072C361.995 258.072 361.435 258.354 361.008 258.918C360.581 259.482 360.367 260.341 360.367 261.496C360.367 262.651 360.581 263.515 361.008 264.088C361.435 264.66 361.995 264.947 362.686 264.947ZM371.651 266.42C370.933 266.42 370.273 266.22 369.673 265.82C369.082 265.411 368.609 264.838 368.255 264.101C367.9 263.365 367.723 262.496 367.723 261.496C367.723 260.496 367.895 259.632 368.241 258.904C368.596 258.168 369.068 257.6 369.659 257.199C370.251 256.799 370.905 256.599 371.624 256.599C372.351 256.599 373.01 256.799 373.601 257.199C374.192 257.6 374.661 258.168 375.006 258.904C375.361 259.632 375.538 260.5 375.538 261.51C375.538 262.51 375.361 263.378 375.006 264.115C374.661 264.851 374.192 265.42 373.601 265.82C373.019 266.22 372.369 266.42 371.651 266.42ZM371.624 264.947C372.324 264.947 372.888 264.66 373.315 264.088C373.742 263.515 373.956 262.651 373.956 261.496C373.956 260.35 373.742 259.495 373.315 258.932C372.888 258.359 372.324 258.072 371.624 258.072C370.933 258.072 370.373 258.354 369.946 258.918C369.519 259.482 369.305 260.341 369.305 261.496C369.305 262.651 369.519 263.515 369.946 264.088C370.373 264.66 370.933 264.947 371.624 264.947Z" fill="#A5A5A5"/>
<line x1="257.518" y1="325.082" x2="522.523" y2="325.082" stroke="#EFEFEF" stroke-width="2.59809" stroke-linecap="round"/>
<circle cx="284.148" cy="326.381" r="12.6657" fill="white" stroke="#E456F0" stroke-width="0.649522"/>
<circle cx="431.59" cy="326.381" r="12.6657" fill="white" stroke="#E456F0" stroke-width="0.649522"/>
<rect x="0.75" y="0.75" width="540.5" height="396.5" rx="26.25" fill="white" stroke="#E456F0" stroke-width="1.5"/>
<path d="M75.41 306L72.17 300.348V299.016H73.25C73.682 299.016 74.06 298.956 74.384 298.836C74.72 298.704 74.996 298.518 75.212 298.278C75.44 298.038 75.596 297.75 75.68 297.414H72.17V296.082H75.662C75.59 295.77 75.464 295.494 75.284 295.254C75.116 295.014 74.888 294.828 74.6 294.696C74.324 294.552 73.988 294.48 73.592 294.48H72.17V293.148H80.288V294.48H77.462C77.666 294.708 77.834 294.954 77.966 295.218C78.11 295.482 78.206 295.77 78.254 296.082H80.288V297.414H78.29C78.17 298.302 77.828 298.998 77.264 299.502C76.7 299.994 75.974 300.33 75.086 300.51L78.614 306H75.41ZM81.7688 304.596L86.5388 299.61C86.8748 299.25 87.1448 298.932 87.3488 298.656C87.5648 298.368 87.7208 298.098 87.8168 297.846C87.9128 297.582 87.9608 297.318 87.9608 297.054C87.9608 296.526 87.7868 296.112 87.4388 295.812C87.1028 295.512 86.6648 295.362 86.1248 295.362C85.5728 295.362 85.0808 295.506 84.6488 295.794C84.2288 296.082 83.8328 296.538 83.4608 297.162L81.7868 295.74C82.2908 294.888 82.9148 294.246 83.6588 293.814C84.4148 293.37 85.2788 293.148 86.2508 293.148C87.0788 293.148 87.7988 293.31 88.4108 293.634C89.0348 293.958 89.5148 294.408 89.8508 294.984C90.1868 295.56 90.3548 296.232 90.3548 297C90.3548 297.516 90.2888 297.984 90.1568 298.404C90.0368 298.824 89.8268 299.244 89.5268 299.664C89.2388 300.072 88.8368 300.534 88.3208 301.05L84.8468 304.596H81.7688ZM81.7688 306V304.596L83.8568 303.876H90.6248V306H81.7688ZM97.226 306.18C96.23 306.18 95.33 305.91 94.526 305.37C93.722 304.83 93.08 304.068 92.6 303.084C92.132 302.1 91.898 300.954 91.898 299.646C91.898 298.338 92.132 297.198 92.6 296.226C93.068 295.254 93.698 294.498 94.49 293.958C95.294 293.418 96.188 293.148 97.172 293.148C98.18 293.148 99.08 293.418 99.872 293.958C100.676 294.498 101.312 295.26 101.78 296.244C102.248 297.216 102.482 298.362 102.482 299.682C102.482 300.99 102.248 302.136 101.78 303.12C101.312 304.092 100.682 304.848 99.89 305.388C99.098 305.916 98.21 306.18 97.226 306.18ZM97.19 303.966C97.766 303.966 98.264 303.804 98.684 303.48C99.104 303.156 99.428 302.676 99.656 302.04C99.896 301.404 100.016 300.612 100.016 299.664C100.016 298.716 99.896 297.924 99.656 297.288C99.428 296.652 99.098 296.178 98.666 295.866C98.246 295.542 97.748 295.38 97.172 295.38C96.608 295.38 96.116 295.542 95.696 295.866C95.276 296.178 94.946 296.652 94.706 297.288C94.478 297.912 94.364 298.698 94.364 299.646C94.364 300.606 94.478 301.404 94.706 302.04C94.946 302.676 95.276 303.156 95.696 303.48C96.116 303.804 96.614 303.966 97.19 303.966ZM103.772 308.142L105.05 305.766L105.788 305.568C105.704 305.724 105.608 305.856 105.5 305.964C105.392 306.072 105.266 306.126 105.122 306.126C104.822 306.126 104.54 305.994 104.276 305.73C104.012 305.466 103.88 305.136 103.88 304.74C103.88 304.308 104.024 303.942 104.312 303.642C104.6 303.342 104.96 303.192 105.392 303.192C105.788 303.192 106.136 303.342 106.436 303.642C106.736 303.942 106.886 304.308 106.886 304.74C106.886 304.908 106.85 305.112 106.778 305.352C106.706 305.58 106.574 305.874 106.382 306.234L104.996 308.79L103.772 308.142ZM113.38 306.18C112.384 306.18 111.484 305.91 110.68 305.37C109.876 304.83 109.234 304.068 108.754 303.084C108.286 302.1 108.052 300.954 108.052 299.646C108.052 298.338 108.286 297.198 108.754 296.226C109.222 295.254 109.852 294.498 110.644 293.958C111.448 293.418 112.342 293.148 113.326 293.148C114.334 293.148 115.234 293.418 116.026 293.958C116.83 294.498 117.466 295.26 117.934 296.244C118.402 297.216 118.636 298.362 118.636 299.682C118.636 300.99 118.402 302.136 117.934 303.12C117.466 304.092 116.836 304.848 116.044 305.388C115.252 305.916 114.364 306.18 113.38 306.18ZM113.344 303.966C113.92 303.966 114.418 303.804 114.838 303.48C115.258 303.156 115.582 302.676 115.81 302.04C116.05 301.404 116.17 300.612 116.17 299.664C116.17 298.716 116.05 297.924 115.81 297.288C115.582 296.652 115.252 296.178 114.82 295.866C114.4 295.542 113.902 295.38 113.326 295.38C112.762 295.38 112.27 295.542 111.85 295.866C111.43 296.178 111.1 296.652 110.86 297.288C110.632 297.912 110.518 298.698 110.518 299.646C110.518 300.606 110.632 301.404 110.86 302.04C111.1 302.676 111.43 303.156 111.85 303.48C112.27 303.804 112.768 303.966 113.344 303.966ZM125.263 306.18C124.267 306.18 123.367 305.91 122.563 305.37C121.759 304.83 121.117 304.068 120.637 303.084C120.169 302.1 119.935 300.954 119.935 299.646C119.935 298.338 120.169 297.198 120.637 296.226C121.105 295.254 121.735 294.498 122.527 293.958C123.331 293.418 124.225 293.148 125.209 293.148C126.217 293.148 127.117 293.418 127.909 293.958C128.713 294.498 129.349 295.26 129.817 296.244C130.285 297.216 130.519 298.362 130.519 299.682C130.519 300.99 130.285 302.136 129.817 303.12C129.349 304.092 128.719 304.848 127.927 305.388C127.135 305.916 126.247 306.18 125.263 306.18ZM125.227 303.966C125.803 303.966 126.301 303.804 126.721 303.48C127.141 303.156 127.465 302.676 127.693 302.04C127.933 301.404 128.053 300.612 128.053 299.664C128.053 298.716 127.933 297.924 127.693 297.288C127.465 296.652 127.135 296.178 126.703 295.866C126.283 295.542 125.785 295.38 125.209 295.38C124.645 295.38 124.153 295.542 123.733 295.866C123.313 296.178 122.983 296.652 122.743 297.288C122.515 297.912 122.401 298.698 122.401 299.646C122.401 300.606 122.515 301.404 122.743 302.04C122.983 302.676 123.313 303.156 123.733 303.48C124.153 303.804 124.651 303.966 125.227 303.966ZM137.146 306.18C136.15 306.18 135.25 305.91 134.446 305.37C133.642 304.83 133 304.068 132.52 303.084C132.052 302.1 131.818 300.954 131.818 299.646C131.818 298.338 132.052 297.198 132.52 296.226C132.988 295.254 133.618 294.498 134.41 293.958C135.214 293.418 136.108 293.148 137.092 293.148C138.1 293.148 139 293.418 139.792 293.958C140.596 294.498 141.232 295.26 141.7 296.244C142.168 297.216 142.402 298.362 142.402 299.682C142.402 300.99 142.168 302.136 141.7 303.12C141.232 304.092 140.602 304.848 139.81 305.388C139.018 305.916 138.13 306.18 137.146 306.18ZM137.11 303.966C137.686 303.966 138.184 303.804 138.604 303.48C139.024 303.156 139.348 302.676 139.576 302.04C139.816 301.404 139.936 300.612 139.936 299.664C139.936 298.716 139.816 297.924 139.576 297.288C139.348 296.652 139.018 296.178 138.586 295.866C138.166 295.542 137.668 295.38 137.092 295.38C136.528 295.38 136.036 295.542 135.616 295.866C135.196 296.178 134.866 296.652 134.626 297.288C134.398 297.912 134.284 298.698 134.284 299.646C134.284 300.606 134.398 301.404 134.626 302.04C134.866 302.676 135.196 303.156 135.616 303.48C136.036 303.804 136.534 303.966 137.11 303.966Z" fill="#E456F0"/>
<path d="M302.41 306L299.17 300.348V299.016H300.25C300.682 299.016 301.06 298.956 301.384 298.836C301.72 298.704 301.996 298.518 302.212 298.278C302.44 298.038 302.596 297.75 302.68 297.414H299.17V296.082H302.662C302.59 295.77 302.464 295.494 302.284 295.254C302.116 295.014 301.888 294.828 301.6 294.696C301.324 294.552 300.988 294.48 300.592 294.48H299.17V293.148H307.288V294.48H304.462C304.666 294.708 304.834 294.954 304.966 295.218C305.11 295.482 305.206 295.77 305.254 296.082H307.288V297.414H305.29C305.17 298.302 304.828 298.998 304.264 299.502C303.7 299.994 302.974 300.33 302.086 300.51L305.614 306H302.41ZM312.801 306.18C311.925 306.18 311.127 306.03 310.407 305.73C309.687 305.418 309.087 304.974 308.607 304.398L310.227 302.796C310.467 303.156 310.809 303.444 311.253 303.66C311.709 303.876 312.207 303.984 312.747 303.984C313.239 303.984 313.665 303.894 314.025 303.714C314.397 303.534 314.685 303.282 314.889 302.958C315.105 302.622 315.213 302.232 315.213 301.788C315.213 301.32 315.105 300.924 314.889 300.6C314.685 300.276 314.409 300.03 314.061 299.862C313.713 299.694 313.323 299.61 312.891 299.61C312.435 299.61 312.021 299.67 311.649 299.79C311.289 299.898 310.941 300.078 310.605 300.33L310.749 298.782C310.977 298.542 311.217 298.35 311.469 298.206C311.721 298.05 312.003 297.936 312.315 297.864C312.639 297.78 313.017 297.738 313.449 297.738C314.373 297.738 315.141 297.93 315.753 298.314C316.377 298.686 316.851 299.19 317.175 299.826C317.499 300.45 317.661 301.14 317.661 301.896C317.661 302.724 317.457 303.462 317.049 304.11C316.641 304.758 316.071 305.268 315.339 305.64C314.619 306 313.773 306.18 312.801 306.18ZM310.605 300.33L309.435 299.178L310.011 293.346H312.225L311.577 299.268L310.605 300.33ZM310.389 295.47L310.011 293.346H316.959V295.47H310.389ZM324.226 306.18C323.23 306.18 322.33 305.91 321.526 305.37C320.722 304.83 320.08 304.068 319.6 303.084C319.132 302.1 318.898 300.954 318.898 299.646C318.898 298.338 319.132 297.198 319.6 296.226C320.068 295.254 320.698 294.498 321.49 293.958C322.294 293.418 323.188 293.148 324.172 293.148C325.18 293.148 326.08 293.418 326.872 293.958C327.676 294.498 328.312 295.26 328.78 296.244C329.248 297.216 329.482 298.362 329.482 299.682C329.482 300.99 329.248 302.136 328.78 303.12C328.312 304.092 327.682 304.848 326.89 305.388C326.098 305.916 325.21 306.18 324.226 306.18ZM324.19 303.966C324.766 303.966 325.264 303.804 325.684 303.48C326.104 303.156 326.428 302.676 326.656 302.04C326.896 301.404 327.016 300.612 327.016 299.664C327.016 298.716 326.896 297.924 326.656 297.288C326.428 296.652 326.098 296.178 325.666 295.866C325.246 295.542 324.748 295.38 324.172 295.38C323.608 295.38 323.116 295.542 322.696 295.866C322.276 296.178 321.946 296.652 321.706 297.288C321.478 297.912 321.364 298.698 321.364 299.646C321.364 300.606 321.478 301.404 321.706 302.04C321.946 302.676 322.276 303.156 322.696 303.48C323.116 303.804 323.614 303.966 324.19 303.966ZM330.772 308.142L332.05 305.766L332.788 305.568C332.704 305.724 332.608 305.856 332.5 305.964C332.392 306.072 332.266 306.126 332.122 306.126C331.822 306.126 331.54 305.994 331.276 305.73C331.012 305.466 330.88 305.136 330.88 304.74C330.88 304.308 331.024 303.942 331.312 303.642C331.6 303.342 331.96 303.192 332.392 303.192C332.788 303.192 333.136 303.342 333.436 303.642C333.736 303.942 333.886 304.308 333.886 304.74C333.886 304.908 333.85 305.112 333.778 305.352C333.706 305.58 333.574 305.874 333.382 306.234L331.996 308.79L330.772 308.142ZM340.38 306.18C339.384 306.18 338.484 305.91 337.68 305.37C336.876 304.83 336.234 304.068 335.754 303.084C335.286 302.1 335.052 300.954 335.052 299.646C335.052 298.338 335.286 297.198 335.754 296.226C336.222 295.254 336.852 294.498 337.644 293.958C338.448 293.418 339.342 293.148 340.326 293.148C341.334 293.148 342.234 293.418 343.026 293.958C343.83 294.498 344.466 295.26 344.934 296.244C345.402 297.216 345.636 298.362 345.636 299.682C345.636 300.99 345.402 302.136 344.934 303.12C344.466 304.092 343.836 304.848 343.044 305.388C342.252 305.916 341.364 306.18 340.38 306.18ZM340.344 303.966C340.92 303.966 341.418 303.804 341.838 303.48C342.258 303.156 342.582 302.676 342.81 302.04C343.05 301.404 343.17 300.612 343.17 299.664C343.17 298.716 343.05 297.924 342.81 297.288C342.582 296.652 342.252 296.178 341.82 295.866C341.4 295.542 340.902 295.38 340.326 295.38C339.762 295.38 339.27 295.542 338.85 295.866C338.43 296.178 338.1 296.652 337.86 297.288C337.632 297.912 337.518 298.698 337.518 299.646C337.518 300.606 337.632 301.404 337.86 302.04C338.1 302.676 338.43 303.156 338.85 303.48C339.27 303.804 339.768 303.966 340.344 303.966ZM352.263 306.18C351.267 306.18 350.367 305.91 349.563 305.37C348.759 304.83 348.117 304.068 347.637 303.084C347.169 302.1 346.935 300.954 346.935 299.646C346.935 298.338 347.169 297.198 347.637 296.226C348.105 295.254 348.735 294.498 349.527 293.958C350.331 293.418 351.225 293.148 352.209 293.148C353.217 293.148 354.117 293.418 354.909 293.958C355.713 294.498 356.349 295.26 356.817 296.244C357.285 297.216 357.519 298.362 357.519 299.682C357.519 300.99 357.285 302.136 356.817 303.12C356.349 304.092 355.719 304.848 354.927 305.388C354.135 305.916 353.247 306.18 352.263 306.18ZM352.227 303.966C352.803 303.966 353.301 303.804 353.721 303.48C354.141 303.156 354.465 302.676 354.693 302.04C354.933 301.404 355.053 300.612 355.053 299.664C355.053 298.716 354.933 297.924 354.693 297.288C354.465 296.652 354.135 296.178 353.703 295.866C353.283 295.542 352.785 295.38 352.209 295.38C351.645 295.38 351.153 295.542 350.733 295.866C350.313 296.178 349.983 296.652 349.743 297.288C349.515 297.912 349.401 298.698 349.401 299.646C349.401 300.606 349.515 301.404 349.743 302.04C349.983 302.676 350.313 303.156 350.733 303.48C351.153 303.804 351.651 303.966 352.227 303.966ZM364.146 306.18C363.15 306.18 362.25 305.91 361.446 305.37C360.642 304.83 360 304.068 359.52 303.084C359.052 302.1 358.818 300.954 358.818 299.646C358.818 298.338 359.052 297.198 359.52 296.226C359.988 295.254 360.618 294.498 361.41 293.958C362.214 293.418 363.108 293.148 364.092 293.148C365.1 293.148 366 293.418 366.792 293.958C367.596 294.498 368.232 295.26 368.7 296.244C369.168 297.216 369.402 298.362 369.402 299.682C369.402 300.99 369.168 302.136 368.7 303.12C368.232 304.092 367.602 304.848 366.81 305.388C366.018 305.916 365.13 306.18 364.146 306.18ZM364.11 303.966C364.686 303.966 365.184 303.804 365.604 303.48C366.024 303.156 366.348 302.676 366.576 302.04C366.816 301.404 366.936 300.612 366.936 299.664C366.936 298.716 366.816 297.924 366.576 297.288C366.348 296.652 366.018 296.178 365.586 295.866C365.166 295.542 364.668 295.38 364.092 295.38C363.528 295.38 363.036 295.542 362.616 295.866C362.196 296.178 361.866 296.652 361.626 297.288C361.398 297.912 361.284 298.698 361.284 299.646C361.284 300.606 361.398 301.404 361.626 302.04C361.866 302.676 362.196 303.156 362.616 303.48C363.036 303.804 363.534 303.966 364.11 303.966Z" fill="#E456F0"/>
<path d="M71.88 94.56V90.12H78.4C79.2533 90.12 80.0267 89.9467 80.72 89.6C81.4133 89.2533 81.96 88.76 82.36 88.12C82.76 87.4533 82.96 86.6533 82.96 85.72C82.96 84.8133 82.76 84.0267 82.36 83.36C81.96 82.6933 81.4133 82.1867 80.72 81.84C80.0267 81.4933 79.2533 81.32 78.4 81.32H71.88V76.88H78.96C80.7467 76.88 82.3467 77.24 83.76 77.96C85.2 78.68 86.3333 79.7067 87.16 81.04C87.9867 82.3467 88.4 83.9067 88.4 85.72C88.4 87.5333 87.9867 89.1067 87.16 90.44C86.3333 91.7467 85.2 92.76 83.76 93.48C82.3467 94.2 80.7467 94.56 78.96 94.56H71.88ZM67.88 105V76.88H73.32V105H67.88ZM91.9684 105V85.68H97.2084V105H91.9684ZM97.2084 94.32L95.1684 92.96C95.4084 90.5867 96.1018 88.72 97.2484 87.36C98.3951 85.9733 100.048 85.28 102.208 85.28C103.142 85.28 103.982 85.44 104.728 85.76C105.475 86.0533 106.155 86.5467 106.768 87.24L103.488 91C103.195 90.68 102.835 90.44 102.408 90.28C102.008 90.12 101.542 90.04 101.008 90.04C99.8884 90.04 98.9684 90.4 98.2484 91.12C97.5551 91.8133 97.2084 92.88 97.2084 94.32ZM108.609 105V85.68H113.889V105H108.609ZM111.249 82.56C110.396 82.56 109.689 82.28 109.129 81.72C108.569 81.1333 108.289 80.4133 108.289 79.56C108.289 78.7333 108.569 78.0267 109.129 77.44C109.689 76.8533 110.396 76.56 111.249 76.56C112.129 76.56 112.836 76.8533 113.369 77.44C113.929 78.0267 114.209 78.7333 114.209 79.56C114.209 80.4133 113.929 81.1333 113.369 81.72C112.836 82.28 112.129 82.56 111.249 82.56ZM127.651 105.4C125.678 105.4 123.904 104.96 122.331 104.08C120.758 103.2 119.518 102 118.611 100.48C117.704 98.96 117.251 97.2533 117.251 95.36C117.251 93.44 117.704 91.72 118.611 90.2C119.518 88.68 120.758 87.48 122.331 86.6C123.931 85.6933 125.704 85.24 127.651 85.24C129.171 85.24 130.571 85.52 131.851 86.08C133.131 86.64 134.238 87.44 135.171 88.48L131.811 91.88C131.304 91.32 130.691 90.8933 129.971 90.6C129.278 90.3067 128.504 90.16 127.651 90.16C126.691 90.16 125.824 90.3867 125.051 90.84C124.304 91.2667 123.704 91.8667 123.251 92.64C122.824 93.3867 122.611 94.28 122.611 95.32C122.611 96.3333 122.824 97.24 123.251 98.04C123.704 98.8133 124.304 99.4267 125.051 99.88C125.824 100.307 126.691 100.52 127.651 100.52C128.531 100.52 129.318 100.373 130.011 100.08C130.731 99.76 131.344 99.3067 131.851 98.72L135.251 102.12C134.264 103.187 133.131 104 131.851 104.56C130.571 105.12 129.171 105.4 127.651 105.4ZM147.029 105.4C145.002 105.4 143.202 104.973 141.629 104.12C140.055 103.24 138.802 102.04 137.869 100.52C136.962 99 136.509 97.2667 136.509 95.32C136.509 93.4 136.949 91.6933 137.829 90.2C138.735 88.68 139.962 87.48 141.509 86.6C143.055 85.6933 144.775 85.24 146.669 85.24C148.535 85.24 150.175 85.6667 151.589 86.52C153.029 87.3467 154.149 88.4933 154.949 89.96C155.775 91.4 156.189 93.04 156.189 94.88C156.189 95.2267 156.162 95.5867 156.109 95.96C156.082 96.3067 156.015 96.7067 155.909 97.16L139.669 97.2V93.28L153.469 93.24L151.349 94.88C151.295 93.7333 151.082 92.7733 150.709 92C150.362 91.2267 149.842 90.64 149.149 90.24C148.482 89.8133 147.655 89.6 146.669 89.6C145.629 89.6 144.722 89.84 143.949 90.32C143.175 90.7733 142.575 91.4267 142.149 92.28C141.749 93.1067 141.549 94.0933 141.549 95.24C141.549 96.4133 141.762 97.44 142.189 98.32C142.642 99.1733 143.282 99.84 144.109 100.32C144.935 100.773 145.895 101 146.989 101C147.975 101 148.869 100.84 149.669 100.52C150.469 100.173 151.162 99.6667 151.749 99L154.829 102.08C153.895 103.173 152.749 104 151.389 104.56C150.055 105.12 148.602 105.4 147.029 105.4ZM167.242 105V85.68H172.482V105H167.242ZM172.482 94.32L170.442 92.96C170.682 90.5867 171.375 88.72 172.522 87.36C173.669 85.9733 175.322 85.28 177.482 85.28C178.415 85.28 179.255 85.44 180.002 85.76C180.749 86.0533 181.429 86.5467 182.042 87.24L178.762 91C178.469 90.68 178.109 90.44 177.682 90.28C177.282 90.12 176.815 90.04 176.282 90.04C175.162 90.04 174.242 90.4 173.522 91.12C172.829 91.8133 172.482 92.88 172.482 94.32ZM191.416 105.4C189.656 105.4 188.069 104.96 186.656 104.08C185.242 103.2 184.136 102 183.336 100.48C182.536 98.96 182.136 97.2533 182.136 95.36C182.136 93.44 182.536 91.72 183.336 90.2C184.136 88.68 185.242 87.48 186.656 86.6C188.069 85.72 189.656 85.28 191.416 85.28C192.802 85.28 194.042 85.56 195.136 86.12C196.229 86.68 197.096 87.4667 197.736 88.48C198.402 89.4667 198.762 90.5867 198.816 91.84V98.8C198.762 100.08 198.402 101.213 197.736 102.2C197.096 103.187 196.229 103.973 195.136 104.56C194.042 105.12 192.802 105.4 191.416 105.4ZM192.376 100.56C193.842 100.56 195.029 100.08 195.936 99.12C196.842 98.1333 197.296 96.8667 197.296 95.32C197.296 94.3067 197.082 93.4133 196.656 92.64C196.256 91.84 195.682 91.2267 194.936 90.8C194.216 90.3467 193.362 90.12 192.376 90.12C191.416 90.12 190.562 90.3467 189.816 90.8C189.096 91.2267 188.522 91.84 188.096 92.64C187.696 93.4133 187.496 94.3067 187.496 95.32C187.496 96.36 187.696 97.28 188.096 98.08C188.522 98.8533 189.096 99.4667 189.816 99.92C190.562 100.347 191.416 100.56 192.376 100.56ZM197.016 105V99.8L197.856 95.08L197.016 90.44V85.68H202.216V105H197.016ZM219.851 105V93.92C219.851 92.7733 219.491 91.84 218.771 91.12C218.051 90.4 217.118 90.04 215.971 90.04C215.225 90.04 214.558 90.2 213.971 90.52C213.385 90.84 212.918 91.2933 212.571 91.88C212.251 92.4667 212.091 93.1467 212.091 93.92L210.051 92.88C210.051 91.36 210.371 90.04 211.011 88.92C211.678 87.7733 212.585 86.88 213.731 86.24C214.905 85.6 216.225 85.28 217.691 85.28C219.105 85.28 220.371 85.64 221.491 86.36C222.611 87.0533 223.491 87.9733 224.131 89.12C224.771 90.24 225.091 91.4533 225.091 92.76V105H219.851ZM206.851 105V85.68H212.091V105H206.851ZM237.392 113.56C235.339 113.56 233.526 113.187 231.952 112.44C230.379 111.72 229.126 110.693 228.192 109.36L231.512 106.04C232.259 106.92 233.086 107.587 233.992 108.04C234.926 108.52 236.046 108.76 237.352 108.76C238.979 108.76 240.259 108.347 241.192 107.52C242.152 106.693 242.632 105.547 242.632 104.08V99.24L243.512 95L242.672 90.76V85.68H247.872V104C247.872 105.92 247.419 107.587 246.512 109C245.632 110.44 244.406 111.56 242.832 112.36C241.259 113.16 239.446 113.56 237.392 113.56ZM237.152 104.48C235.419 104.48 233.859 104.067 232.472 103.24C231.086 102.387 229.992 101.227 229.192 99.76C228.419 98.2933 228.032 96.6533 228.032 94.84C228.032 93.0267 228.419 91.4 229.192 89.96C229.992 88.52 231.086 87.3867 232.472 86.56C233.859 85.7067 235.419 85.28 237.152 85.28C238.592 85.28 239.859 85.56 240.952 86.12C242.072 86.68 242.952 87.4533 243.592 88.44C244.232 89.4 244.579 90.5333 244.632 91.84V97.92C244.579 99.2 244.219 100.347 243.552 101.36C242.912 102.347 242.032 103.12 240.912 103.68C239.819 104.213 238.566 104.48 237.152 104.48ZM238.192 99.72C239.152 99.72 239.979 99.52 240.672 99.12C241.392 98.6933 241.952 98.12 242.352 97.4C242.752 96.6533 242.952 95.8133 242.952 94.88C242.952 93.92 242.752 93.08 242.352 92.36C241.952 91.64 241.392 91.08 240.672 90.68C239.979 90.2533 239.152 90.04 238.192 90.04C237.232 90.04 236.392 90.2533 235.672 90.68C234.952 91.08 234.392 91.6533 233.992 92.4C233.592 93.12 233.392 93.9467 233.392 94.88C233.392 95.7867 233.592 96.6133 233.992 97.36C234.392 98.08 234.952 98.6533 235.672 99.08C236.392 99.5067 237.232 99.72 238.192 99.72ZM261.716 105.4C259.69 105.4 257.89 104.973 256.316 104.12C254.743 103.24 253.49 102.04 252.556 100.52C251.65 99 251.196 97.2667 251.196 95.32C251.196 93.4 251.636 91.6933 252.516 90.2C253.423 88.68 254.65 87.48 256.196 86.6C257.743 85.6933 259.463 85.24 261.356 85.24C263.223 85.24 264.863 85.6667 266.276 86.52C267.716 87.3467 268.836 88.4933 269.636 89.96C270.463 91.4 270.876 93.04 270.876 94.88C270.876 95.2267 270.85 95.5867 270.796 95.96C270.77 96.3067 270.703 96.7067 270.596 97.16L254.356 97.2V93.28L268.156 93.24L266.036 94.88C265.983 93.7333 265.77 92.7733 265.396 92C265.05 91.2267 264.53 90.64 263.836 90.24C263.17 89.8133 262.343 89.6 261.356 89.6C260.316 89.6 259.41 89.84 258.636 90.32C257.863 90.7733 257.263 91.4267 256.836 92.28C256.436 93.1067 256.236 94.0933 256.236 95.24C256.236 96.4133 256.45 97.44 256.876 98.32C257.33 99.1733 257.97 99.84 258.796 100.32C259.623 100.773 260.583 101 261.676 101C262.663 101 263.556 100.84 264.356 100.52C265.156 100.173 265.85 99.6667 266.436 99L269.516 102.08C268.583 103.173 267.436 104 266.076 104.56C264.743 105.12 263.29 105.4 261.716 105.4Z" fill="#1C1C1C"/>
<path d="M70.628 157L66.659 150.07V149.146H67.121C67.863 149.146 68.486 149.076 68.99 148.936C69.508 148.796 69.914 148.565 70.208 148.243C70.502 147.921 70.677 147.48 70.733 146.92H66.659V145.576H70.712C70.614 145.058 70.418 144.638 70.124 144.316C69.83 143.98 69.431 143.735 68.927 143.581C68.437 143.427 67.835 143.35 67.121 143.35H66.659V142.006H75.353V143.35H71.384C71.706 143.616 71.972 143.931 72.182 144.295C72.392 144.659 72.525 145.086 72.581 145.576H75.353V146.92H72.623C72.525 147.942 72.133 148.74 71.447 149.314C70.775 149.874 69.879 150.231 68.759 150.385L72.77 157H70.628ZM77.6056 157V155.572L83.0236 149.818C83.6956 149.104 84.1786 148.495 84.4726 147.991C84.7666 147.487 84.9136 146.969 84.9136 146.437C84.9136 145.779 84.6966 145.268 84.2626 144.904C83.8426 144.526 83.3036 144.337 82.6456 144.337C81.2876 144.337 80.1956 145.058 79.3696 146.5L77.6896 145.114C78.8376 143.098 80.5176 142.09 82.7296 142.09C83.6396 142.09 84.4376 142.272 85.1236 142.636C85.8096 143 86.3416 143.511 86.7196 144.169C87.0976 144.813 87.2866 145.562 87.2866 146.416C87.2866 147.032 87.2096 147.585 87.0556 148.075C86.9156 148.551 86.6706 149.034 86.3206 149.524C85.9706 150 85.4876 150.56 84.8716 151.204L81.3646 154.837H87.5806V157H77.6056ZM95.2879 157.21C94.1819 157.21 93.1669 156.902 92.2429 156.286C91.3329 155.656 90.6049 154.774 90.0589 153.64C89.5129 152.506 89.2399 151.169 89.2399 149.629C89.2399 148.089 89.5059 146.759 90.0379 145.639C90.5839 144.505 91.3119 143.63 92.2219 143.014C93.1319 142.398 94.1399 142.09 95.2459 142.09C96.3659 142.09 97.3809 142.398 98.2909 143.014C99.2009 143.63 99.9219 144.505 100.454 145.639C101 146.759 101.273 148.096 101.273 149.65C101.273 151.19 101 152.527 100.454 153.661C99.9219 154.795 99.2009 155.67 98.2909 156.286C97.3949 156.902 96.3939 157.21 95.2879 157.21ZM95.2459 154.942C96.3239 154.942 97.1919 154.501 97.8499 153.619C98.5079 152.737 98.8369 151.407 98.8369 149.629C98.8369 147.865 98.5079 146.549 97.8499 145.681C97.1919 144.799 96.3239 144.358 95.2459 144.358C94.1819 144.358 93.3209 144.792 92.6629 145.66C92.0049 146.528 91.6759 147.851 91.6759 149.629C91.6759 151.407 92.0049 152.737 92.6629 153.619C93.3209 154.501 94.1819 154.942 95.2459 154.942ZM102.908 159.457L104.147 157.126C103.881 157.056 103.643 156.895 103.433 156.643C103.223 156.391 103.118 156.083 103.118 155.719C103.118 155.271 103.265 154.893 103.559 154.585C103.867 154.263 104.245 154.102 104.693 154.102C105.113 154.102 105.477 154.263 105.785 154.585C106.107 154.893 106.268 155.271 106.268 155.719C106.268 155.901 106.226 156.118 106.142 156.37C106.072 156.608 105.939 156.916 105.743 157.294L104.189 160.15L102.908 159.457ZM113.827 157.21C112.721 157.21 111.706 156.902 110.782 156.286C109.872 155.656 109.144 154.774 108.598 153.64C108.052 152.506 107.779 151.169 107.779 149.629C107.779 148.089 108.045 146.759 108.577 145.639C109.123 144.505 109.851 143.63 110.761 143.014C111.671 142.398 112.679 142.09 113.785 142.09C114.905 142.09 115.92 142.398 116.83 143.014C117.74 143.63 118.461 144.505 118.993 145.639C119.539 146.759 119.812 148.096 119.812 149.65C119.812 151.19 119.539 152.527 118.993 153.661C118.461 154.795 117.74 155.67 116.83 156.286C115.934 156.902 114.933 157.21 113.827 157.21ZM113.785 154.942C114.863 154.942 115.731 154.501 116.389 153.619C117.047 152.737 117.376 151.407 117.376 149.629C117.376 147.865 117.047 146.549 116.389 145.681C115.731 144.799 114.863 144.358 113.785 144.358C112.721 144.358 111.86 144.792 111.202 145.66C110.544 146.528 110.215 147.851 110.215 149.629C110.215 151.407 110.544 152.737 111.202 153.619C111.86 154.501 112.721 154.942 113.785 154.942ZM127.588 157.21C126.482 157.21 125.467 156.902 124.543 156.286C123.633 155.656 122.905 154.774 122.359 153.64C121.813 152.506 121.54 151.169 121.54 149.629C121.54 148.089 121.806 146.759 122.338 145.639C122.884 144.505 123.612 143.63 124.522 143.014C125.432 142.398 126.44 142.09 127.546 142.09C128.666 142.09 129.681 142.398 130.591 143.014C131.501 143.63 132.222 144.505 132.754 145.639C133.3 146.759 133.573 148.096 133.573 149.65C133.573 151.19 133.3 152.527 132.754 153.661C132.222 154.795 131.501 155.67 130.591 156.286C129.695 156.902 128.694 157.21 127.588 157.21ZM127.546 154.942C128.624 154.942 129.492 154.501 130.15 153.619C130.808 152.737 131.137 151.407 131.137 149.629C131.137 147.865 130.808 146.549 130.15 145.681C129.492 144.799 128.624 144.358 127.546 144.358C126.482 144.358 125.621 144.792 124.963 145.66C124.305 146.528 123.976 147.851 123.976 149.629C123.976 151.407 124.305 152.737 124.963 153.619C125.621 154.501 126.482 154.942 127.546 154.942ZM141.348 157.21C140.242 157.21 139.227 156.902 138.303 156.286C137.393 155.656 136.665 154.774 136.119 153.64C135.573 152.506 135.3 151.169 135.3 149.629C135.3 148.089 135.566 146.759 136.098 145.639C136.644 144.505 137.372 143.63 138.282 143.014C139.192 142.398 140.2 142.09 141.306 142.09C142.426 142.09 143.441 142.398 144.351 143.014C145.261 143.63 145.982 144.505 146.514 145.639C147.06 146.759 147.333 148.096 147.333 149.65C147.333 151.19 147.06 152.527 146.514 153.661C145.982 154.795 145.261 155.67 144.351 156.286C143.455 156.902 142.454 157.21 141.348 157.21ZM141.306 154.942C142.384 154.942 143.252 154.501 143.91 153.619C144.568 152.737 144.897 151.407 144.897 149.629C144.897 147.865 144.568 146.549 143.91 145.681C143.252 144.799 142.384 144.358 141.306 144.358C140.242 144.358 139.381 144.792 138.723 145.66C138.065 146.528 137.736 147.851 137.736 149.629C137.736 151.407 138.065 152.737 138.723 153.619C139.381 154.501 140.242 154.942 141.306 154.942ZM153.685 152.737V150.553H160.804V152.737H153.685ZM171.916 157L167.947 150.07V149.146H168.409C169.151 149.146 169.774 149.076 170.278 148.936C170.796 148.796 171.202 148.565 171.496 148.243C171.79 147.921 171.965 147.48 172.021 146.92H167.947V145.576H172C171.902 145.058 171.706 144.638 171.412 144.316C171.118 143.98 170.719 143.735 170.215 143.581C169.725 143.427 169.123 143.35 168.409 143.35H167.947V142.006H176.641V143.35H172.672C172.994 143.616 173.26 143.931 173.47 144.295C173.68 144.659 173.813 145.086 173.869 145.576H176.641V146.92H173.911C173.813 147.942 173.421 148.74 172.735 149.314C172.063 149.874 171.167 150.231 170.047 150.385L174.058 157H171.916ZM183.493 157.21C181.449 157.21 179.867 156.51 178.747 155.11L180.385 153.472C180.679 153.92 181.092 154.277 181.624 154.543C182.17 154.809 182.779 154.942 183.451 154.942C184.361 154.942 185.103 154.69 185.677 154.186C186.265 153.682 186.559 153.003 186.559 152.149C186.559 151.547 186.426 151.05 186.16 150.658C185.908 150.252 185.565 149.951 185.131 149.755C184.711 149.545 184.256 149.44 183.766 149.44C183.206 149.44 182.702 149.503 182.254 149.629C181.82 149.755 181.393 149.979 180.973 150.301L179.65 148.978L180.301 142.3H188.176V144.463H182.275L181.876 148.012C182.45 147.662 183.234 147.487 184.228 147.487C185.264 147.487 186.132 147.704 186.832 148.138C187.546 148.572 188.085 149.153 188.449 149.881C188.813 150.595 188.995 151.393 188.995 152.275C188.995 153.227 188.757 154.074 188.281 154.816C187.819 155.558 187.175 156.146 186.349 156.58C185.523 157 184.571 157.21 183.493 157.21ZM196.658 157.21C195.552 157.21 194.537 156.902 193.613 156.286C192.703 155.656 191.975 154.774 191.429 153.64C190.883 152.506 190.61 151.169 190.61 149.629C190.61 148.089 190.876 146.759 191.408 145.639C191.954 144.505 192.682 143.63 193.592 143.014C194.502 142.398 195.51 142.09 196.616 142.09C197.736 142.09 198.751 142.398 199.661 143.014C200.571 143.63 201.292 144.505 201.824 145.639C202.37 146.759 202.643 148.096 202.643 149.65C202.643 151.19 202.37 152.527 201.824 153.661C201.292 154.795 200.571 155.67 199.661 156.286C198.765 156.902 197.764 157.21 196.658 157.21ZM196.616 154.942C197.694 154.942 198.562 154.501 199.22 153.619C199.878 152.737 200.207 151.407 200.207 149.629C200.207 147.865 199.878 146.549 199.22 145.681C198.562 144.799 197.694 144.358 196.616 144.358C195.552 144.358 194.691 144.792 194.033 145.66C193.375 146.528 193.046 147.851 193.046 149.629C193.046 151.407 193.375 152.737 194.033 153.619C194.691 154.501 195.552 154.942 196.616 154.942ZM204.278 159.457L205.517 157.126C205.251 157.056 205.013 156.895 204.803 156.643C204.593 156.391 204.488 156.083 204.488 155.719C204.488 155.271 204.635 154.893 204.929 154.585C205.237 154.263 205.615 154.102 206.063 154.102C206.483 154.102 206.847 154.263 207.155 154.585C207.477 154.893 207.638 155.271 207.638 155.719C207.638 155.901 207.596 156.118 207.512 156.37C207.442 156.608 207.309 156.916 207.113 157.294L205.559 160.15L204.278 159.457ZM215.197 157.21C214.091 157.21 213.076 156.902 212.152 156.286C211.242 155.656 210.514 154.774 209.968 153.64C209.422 152.506 209.149 151.169 209.149 149.629C209.149 148.089 209.415 146.759 209.947 145.639C210.493 144.505 211.221 143.63 212.131 143.014C213.041 142.398 214.049 142.09 215.155 142.09C216.275 142.09 217.29 142.398 218.2 143.014C219.11 143.63 219.831 144.505 220.363 145.639C220.909 146.759 221.182 148.096 221.182 149.65C221.182 151.19 220.909 152.527 220.363 153.661C219.831 154.795 219.11 155.67 218.2 156.286C217.304 156.902 216.303 157.21 215.197 157.21ZM215.155 154.942C216.233 154.942 217.101 154.501 217.759 153.619C218.417 152.737 218.746 151.407 218.746 149.629C218.746 147.865 218.417 146.549 217.759 145.681C217.101 144.799 216.233 144.358 215.155 144.358C214.091 144.358 213.23 144.792 212.572 145.66C211.914 146.528 211.585 147.851 211.585 149.629C211.585 151.407 211.914 152.737 212.572 153.619C213.23 154.501 214.091 154.942 215.155 154.942ZM228.958 157.21C227.852 157.21 226.837 156.902 225.913 156.286C225.003 155.656 224.275 154.774 223.729 153.64C223.183 152.506 222.91 151.169 222.91 149.629C222.91 148.089 223.176 146.759 223.708 145.639C224.254 144.505 224.982 143.63 225.892 143.014C226.802 142.398 227.81 142.09 228.916 142.09C230.036 142.09 231.051 142.398 231.961 143.014C232.871 143.63 233.592 144.505 234.124 145.639C234.67 146.759 234.943 148.096 234.943 149.65C234.943 151.19 234.67 152.527 234.124 153.661C233.592 154.795 232.871 155.67 231.961 156.286C231.065 156.902 230.064 157.21 228.958 157.21ZM228.916 154.942C229.994 154.942 230.862 154.501 231.52 153.619C232.178 152.737 232.507 151.407 232.507 149.629C232.507 147.865 232.178 146.549 231.52 145.681C230.862 144.799 229.994 144.358 228.916 144.358C227.852 144.358 226.991 144.792 226.333 145.66C225.675 146.528 225.346 147.851 225.346 149.629C225.346 151.407 225.675 152.737 226.333 153.619C226.991 154.501 227.852 154.942 228.916 154.942ZM242.719 157.21C241.613 157.21 240.598 156.902 239.674 156.286C238.764 155.656 238.036 154.774 237.49 153.64C236.944 152.506 236.671 151.169 236.671 149.629C236.671 148.089 236.937 146.759 237.469 145.639C238.015 144.505 238.743 143.63 239.653 143.014C240.563 142.398 241.571 142.09 242.677 142.09C243.797 142.09 244.812 142.398 245.722 143.014C246.632 143.63 247.353 144.505 247.885 145.639C248.431 146.759 248.704 148.096 248.704 149.65C248.704 151.19 248.431 152.527 247.885 153.661C247.353 154.795 246.632 155.67 245.722 156.286C244.826 156.902 243.825 157.21 242.719 157.21ZM242.677 154.942C243.755 154.942 244.623 154.501 245.281 153.619C245.939 152.737 246.268 151.407 246.268 149.629C246.268 147.865 245.939 146.549 245.281 145.681C244.623 144.799 243.755 144.358 242.677 144.358C241.613 144.358 240.752 144.792 240.094 145.66C239.436 146.528 239.107 147.851 239.107 149.629C239.107 151.407 239.436 152.737 240.094 153.619C240.752 154.501 241.613 154.942 242.677 154.942Z" fill="#A5A5A5"/>
<line x1="67" y1="248" x2="475" y2="248" stroke="#EFEFEF" stroke-width="4" stroke-linecap="round"/>
<line x1="110" y1="248" x2="333" y2="248" stroke="#E456F0" stroke-width="4" stroke-linecap="round"/>
<circle cx="108" cy="250" r="19.5" fill="white" stroke="#E456F0"/>
<circle cx="335" cy="250" r="19.5" fill="white" stroke="#E456F0"/>
</svg>
