<svg width="675" height="648" viewBox="0 0 675 648" fill="none" xmlns="http://www.w3.org/2000/svg">
<g clip-path="url(#clip0_88_131)">
<path d="M160.554 312.559L159.886 312.661L159.366 312.227C157.021 310.268 153.873 309.777 150.509 310.328C147.145 310.88 143.749 312.454 141.181 314.349C138.129 316.606 135.628 319.526 133.868 322.889C132.107 326.253 131.132 329.973 131.016 333.768C130.765 342.292 135.439 351.337 140.122 358.763C145.124 366.694 152.345 372.838 159.725 378.939C160.562 379.631 161.413 379.589 161.994 379.252C162.58 378.911 163.042 378.182 162.867 377.117C161.151 366.664 161.353 356.141 161.886 345.722C162.003 343.42 162.137 341.125 162.27 338.837C162.742 330.725 163.209 322.697 162.948 314.702C162.917 313.745 162.557 313.216 162.175 312.925C161.762 312.61 161.176 312.464 160.554 312.559Z" stroke="#3A922B" stroke-opacity="0.49" stroke-width="3"/>
<path d="M164.303 774.14L164.271 684.114C170.862 683.206 177.341 681.623 183.607 679.389C188.565 677.711 193.389 675.664 198.04 673.263C202.021 671.163 206.072 669.08 209.669 666.352C213.471 663.468 216.596 659.894 218.288 655.379C219.968 651.036 220.189 646.263 218.918 641.782C217.607 637.247 214.678 633.351 210.687 630.831C206.576 628.283 201.616 626.862 196.837 626.346C191.513 625.772 186.189 626.623 180.853 626.409C175.307 626.186 169.773 625.602 164.251 626.342L164.234 577.558C167.961 579.454 171.857 580.987 175.927 581.666C176.228 581.731 176.541 581.714 176.833 581.615C177.125 581.516 177.384 581.339 177.583 581.104C182.923 584.201 188.307 587.365 193.971 589.776C200.117 592.392 206.649 593.578 213.019 591.006C217.905 589.033 222.265 586.041 225.441 581.796C231.065 574.281 231.249 564.255 227.656 555.836C225.719 551.369 222.814 547.387 219.152 544.178C216.851 542.231 214.362 540.516 211.724 539.059C208.266 537.052 204.736 535.174 201.174 533.36C194.384 529.9 187.537 526.494 180.601 523.335C177.402 521.879 174.189 520.44 171.09 518.776C168.666 517.475 166.259 516.048 164.211 514.197L164.205 496.059C169.417 496.944 174.725 496.986 179.992 495.645C185.444 494.229 190.506 491.604 194.805 487.965C197.777 485.449 200.277 482.316 201.576 478.612C203.951 471.838 201.285 464.692 197.435 459.04C192.861 452.325 186.684 446.777 180.301 441.827C175.135 437.854 169.754 434.168 164.182 430.789L164.109 223.864C166.422 198.877 191.577 184.816 202.501 184.848L440.901 183.427C451.825 183.46 474.963 208.981 474.933 219.909L477.205 778.668C477.175 789.595 448.388 813.985 437.464 813.952L202.019 814.054C191.095 814.021 168.469 797.391 164.303 774.14Z" fill="#D2FFDB"/>
<path d="M179.154 760.791L179.529 679.657C185.735 678.858 189.184 676.055 195.015 674.027C199.636 672.42 203.916 669.372 208.246 667.086C211.986 665.112 212.967 658.825 216.346 656.262C219.919 653.552 217.581 649.923 219.17 645.68C220.701 641.596 219.372 639.474 218.129 635.269C216.877 631.037 214.761 633.003 210.997 630.671C207.133 628.277 203.589 628.01 199.099 627.526C194.096 626.986 192.462 626.234 187.449 626.033C182.238 625.824 184.358 625.051 179.17 625.746L180.004 583.54C183.507 585.322 180.8 583.778 184.624 584.416C185.225 584.516 189.117 585.88 189.469 585.422C194.486 588.332 196.159 588.179 201.482 590.445C207.257 592.902 213.508 587.881 219.494 585.463C224.085 583.61 224.393 578.412 227.377 574.423C232.662 567.361 232.151 560.971 228.775 553.06C226.991 548.88 224.749 546.008 221.342 543.007C219.2 541.121 217.349 540.231 214.887 538.802C211.638 536.917 208.5 535.452 205.154 533.747C198.773 530.496 193.38 527.44 186.863 524.472C183.857 523.103 182.14 523.86 179.228 522.297C176.951 521.074 181.732 517.585 179.808 515.846L179.219 496.345C184.116 497.178 183.895 495.055 188.845 493.795C193.922 492.502 194.577 489.257 198.573 485.874C201.365 483.51 200.018 478.534 201.238 475.053C203.47 468.688 202.203 466.754 198.585 461.443C194.287 455.134 194.749 449.941 188.751 445.29C183.911 441.537 184.138 440.08 178.916 436.885L178.715 236.26C178.758 207.351 199.741 198.995 210.005 199.026L438.673 200.806C448.937 200.836 461.414 222.431 461.386 232.699L463.137 762.182C463.109 772.45 452.011 796.824 441.746 796.793L208.913 797.747C198.649 797.717 182.512 788.845 179.154 760.791Z" fill="white"/>
<path d="M478.457 401.627C483.297 415.456 489.615 428.689 496.251 441.731C497.567 444.316 493.669 446.603 492.349 444.008C485.53 430.607 479.063 416.992 474.091 402.784C473.13 400.038 477.501 398.895 478.457 401.627Z" fill="#3A922B" fill-opacity="0.49"/>
<path d="M543.173 407.779C529.427 394.265 519.824 377.403 510.75 360.569C506.31 352.331 502.249 343.623 497.037 335.837C494.948 332.715 491.47 328.703 487.311 328.952C482.481 329.242 479.94 334.858 478.084 338.643C476.801 341.258 472.902 338.973 474.178 336.372C477.624 329.349 483.578 321.568 492.309 325.499C500.784 329.315 504.946 340.287 509.074 347.916C519.832 367.797 530.049 388.541 546.359 404.576C548.437 406.619 545.247 409.819 543.173 407.779Z" fill="#3A922B" fill-opacity="0.49"/>
<path d="M547.933 406.534C558.688 417.73 556.411 433.651 552.845 447.351C548.652 463.459 545.199 479.624 543.63 496.223C542.029 512.555 542.186 529.012 544.1 545.311C546.181 562.494 550.01 579.401 551.62 596.654C553.378 615.752 553.2 634.979 551.09 654.041C550.777 656.902 546.255 656.893 546.572 653.996C548.387 637.591 548.775 621.06 547.732 604.588C546.638 587.584 543.333 570.963 540.794 554.148C536.096 523.032 537.851 491.617 544.774 460.963C548.347 445.145 558.03 423.564 544.747 409.738C542.731 407.639 545.916 404.435 547.933 406.534Z" fill="#3A922B" fill-opacity="0.49"/>
<path d="M179.772 498.329C169.381 499.597 158.906 497.094 149.137 493.694C139.953 490.497 130.879 486.64 123.022 480.822C115.643 475.359 108.756 467.92 107.146 458.552C105.892 451.258 107.866 443.746 111.903 437.614C115.974 431.368 121.931 426.586 128.908 423.962C136.804 421.064 144.666 422.673 152.505 424.97C169.782 430.032 187.329 440.275 198.327 454.825C203.916 462.219 206.783 471.799 203.31 480.749C199.525 490.504 190.467 496.662 180.373 498.253C177.53 498.701 176.342 494.338 179.216 493.885C188.055 492.492 196.322 487.346 199.34 478.505C201.784 471.344 199.388 463.939 195.103 458.015C185.743 445.076 170.175 435.666 155.286 430.59C148.54 428.289 140.882 425.754 133.716 427.265C127.309 428.617 121.573 432.543 117.485 437.594C113.325 442.735 110.732 449.397 111.347 456.073C112.173 465.031 118.862 472.228 125.808 477.3C133.219 482.711 141.719 486.337 150.341 489.339C159.792 492.628 169.764 495.036 179.817 493.809C182.689 493.458 182.625 497.98 179.772 498.329Z" fill="#3A922B" fill-opacity="0.49"/>
<path d="M193.227 526.49C206.711 532.934 225.604 538.949 231.043 554.553C236.232 569.44 224.46 591.429 208.308 593.395C204.332 593.879 200.71 592.87 196.982 591.628C191.047 589.649 185.204 587.386 179.376 585.115C176.694 584.07 177.865 579.702 180.58 580.759C186.257 582.972 191.949 585.171 197.724 587.117C201.605 588.426 205.332 589.608 209.463 588.62C219.383 586.246 225.907 575.024 227.418 565.595C230.676 545.262 205.268 537.235 190.958 530.396C188.331 529.141 190.617 525.242 193.227 526.49Z" fill="#3A922B" fill-opacity="0.49"/>
<path d="M180.979 520.249C184.224 521.911 187.449 523.611 190.654 525.35C193.214 526.741 190.94 530.645 188.385 529.257C185.181 527.517 181.956 525.816 178.71 524.156C176.117 522.828 178.397 518.926 180.979 520.249Z" fill="#3A922B" fill-opacity="0.49"/>
<path d="M161.247 700.498C148.497 696.108 136.543 689.52 126.284 680.73C117.384 673.104 109.595 661.957 112.481 649.63C115.055 638.636 125.955 633.043 135.933 630.209C150.134 626.175 165.393 624.74 180.097 624.126C183 624.005 182.955 628.524 180.052 628.646C167.09 629.187 154.103 630.628 141.435 633.48C132.135 635.573 120.243 639.497 117.146 649.685C113.509 661.653 122.85 672.237 131.446 679.164C140.723 686.574 151.213 692.319 162.451 696.143C165.186 697.084 164.006 701.448 161.247 700.498Z" fill="#3A922B" fill-opacity="0.49"/>
<path d="M161.993 514.81C161.893 509.027 161.793 503.243 161.693 497.46C161.643 494.554 166.161 494.593 166.211 497.506C166.311 503.289 166.411 509.072 166.511 514.855C166.561 517.761 162.043 517.722 161.993 514.81Z" fill="#3A922B" fill-opacity="0.49"/>
<path d="M162.039 429.835C161.936 405.278 161.834 380.721 161.731 356.164C161.652 337.343 161.581 318.522 161.518 299.701C161.483 283.8 161.449 267.898 161.414 251.996C161.389 240.121 160.066 227.056 163.832 215.622C170.52 195.314 189.738 181.714 210.98 181.483C216.539 181.423 222.101 181.461 227.66 181.449C256.78 181.391 285.901 181.332 315.021 181.273C345.462 181.212 375.902 181.15 406.343 181.089C413.374 181.075 420.405 181.044 427.437 181.046C444.767 181.051 461.014 189.303 470.422 204.057C478.87 217.306 478.157 231.599 478.19 246.404L478.315 303.278C478.377 331.738 478.44 360.198 478.503 388.658C478.576 422.074 478.65 455.491 478.723 488.908C478.798 522.736 478.872 556.565 478.946 590.393C479.012 620.186 479.078 649.98 479.143 679.773C479.189 700.748 479.235 721.722 479.281 742.697C479.301 751.496 479.808 760.456 479.224 769.247C477.699 792.223 459.858 811.752 437.025 815.057C430.772 815.963 424.26 815.615 417.957 815.627C390.298 815.683 362.639 815.739 334.98 815.795L240.593 815.985C232.129 816.003 223.665 816.02 215.201 816.037C201.293 816.065 188.157 812.106 177.898 802.306C169.591 794.342 164.297 783.746 162.916 772.32C162.425 768.213 162.532 764.047 162.507 759.916C162.413 744.619 162.319 729.322 162.226 714.024C162.166 704.215 162.106 694.406 162.046 684.597C162.028 681.691 166.546 681.728 166.564 684.643C166.717 709.749 166.871 734.855 167.025 759.962C167.05 764.137 166.894 768.404 167.461 772.547C169.12 784.354 175.352 795.037 184.812 802.293C194.503 809.694 205.665 811.536 217.428 811.513L289.615 811.367C321.774 811.302 353.933 811.237 386.093 811.172C397.159 811.15 408.226 811.128 419.293 811.105C426.404 811.091 433.686 811.488 440.637 809.758C460.8 804.738 474.68 786.315 474.814 765.702C474.832 763.027 474.802 760.35 474.797 757.675C474.762 741.881 474.727 726.088 474.692 710.294C474.635 684.315 474.578 658.337 474.521 632.358C474.45 600.324 474.38 568.289 474.309 536.255C474.236 502.717 474.162 469.178 474.088 435.64C474.02 404.668 473.952 373.697 473.884 342.725C473.831 318.864 473.779 295.003 473.726 271.142C473.699 258.557 473.671 245.972 473.643 233.388C473.623 224.328 472.044 215.6 467.338 207.669C458.696 193.103 443.248 185.534 426.625 185.567L362.845 185.696C330.295 185.762 297.745 185.827 265.195 185.893C247.14 185.929 229.077 185.808 211.023 186.002C188.784 186.242 169.343 202.649 166.301 224.908C164.839 235.605 165.921 247.028 165.945 257.773C165.989 278.17 166.038 298.568 166.093 318.965C166.217 348.594 166.341 378.224 166.465 407.854C166.495 415.196 166.526 422.539 166.557 429.881C166.569 432.786 162.051 432.75 162.039 429.835Z" fill="#239D0E" fill-opacity="0.49"/>
<path d="M163.046 625.013C162.691 609.742 162.335 594.471 161.98 579.199C161.912 576.293 166.43 576.334 166.498 579.245C166.853 594.516 167.209 609.788 167.564 625.059C167.632 627.965 163.114 627.924 163.046 625.013Z" fill="#3A922B" fill-opacity="0.49"/>
<path d="M181.583 680.663C181.885 705.283 182.188 729.902 182.49 754.522C182.537 758.347 182.571 762.173 182.631 765.999C182.812 777.36 188.785 787.852 199.137 792.94C206.292 796.456 213.911 795.934 221.59 795.919C246.767 795.869 271.943 795.819 297.12 795.769L390.441 795.584L420.985 795.523C429.46 795.507 437.565 795.829 445.212 791.136C454.894 785.194 459.261 774.871 459.237 763.881C459.228 759.843 459.219 755.806 459.21 751.768C459.172 734.337 459.134 716.906 459.095 699.475C459.037 673.069 458.979 646.663 458.921 620.257C458.852 588.786 458.783 557.315 458.713 525.844C458.641 493.137 458.57 460.43 458.498 427.723C458.432 398.007 458.367 368.29 458.301 338.574C458.251 315.673 458.201 292.772 458.15 269.872L458.07 233.42C458.052 225.146 456.213 217.24 450.446 210.889C444.657 204.515 436.646 201.224 428.105 201.15C426.242 201.134 424.378 201.158 422.515 201.161C398.968 201.208 375.421 201.255 351.875 201.302C320.323 201.365 288.772 201.428 257.221 201.491C245.981 201.513 234.742 201.536 223.502 201.558C218.632 201.568 213.678 201.319 208.814 201.663C195.894 202.575 184.98 212.137 182.153 224.734C181.486 227.709 181.459 230.668 181.466 233.68C181.483 241.61 181.5 249.54 181.517 257.47C181.582 287.237 181.647 317.003 181.712 346.77L181.889 427.732C181.898 432.025 181.908 436.319 181.917 440.613C181.924 443.519 177.406 443.483 177.399 440.568C177.363 423.761 177.326 406.954 177.289 390.147C177.219 357.907 177.148 325.667 177.078 293.428C177.034 273.027 176.93 252.626 176.944 232.225C176.957 214.83 189.13 199.454 206.817 197.337C212.247 196.686 217.9 197.05 223.352 197.039C250.308 196.985 277.264 196.931 304.219 196.878C335.085 196.816 365.95 196.755 396.816 196.693C405.875 196.675 414.933 196.657 423.992 196.639C435.157 196.617 445.723 199.001 453.632 207.685C463.72 218.763 462.585 232.228 462.615 245.866C462.655 264.098 462.696 282.329 462.736 300.561C462.796 327.914 462.856 355.268 462.916 382.621L463.13 479.606C463.202 512.714 463.275 545.823 463.348 578.931C463.413 608.626 463.479 638.32 463.544 668.015C463.593 690.101 463.641 712.187 463.69 734.273C463.712 744.556 463.78 754.84 463.758 765.123C463.726 779.588 455.341 792.727 441.622 797.884C434.603 800.523 427.097 800.031 419.745 800.045C393.655 800.097 367.565 800.149 341.474 800.201L247.663 800.387C237.965 800.406 228.268 800.425 218.57 800.444C208.685 800.464 199.403 799.646 191.158 793.187C182.718 786.576 178.286 776.63 178.114 766.02C178.052 762.172 178.02 758.324 177.972 754.476C177.782 738.972 177.591 723.467 177.401 707.963C177.289 698.848 177.177 689.732 177.065 680.617C177.029 677.711 181.547 677.75 181.583 680.663Z" fill="#73D862"/>
<path d="M182.237 582.96C182.269 597.443 182.301 611.926 182.333 626.409C182.34 629.314 177.822 629.278 177.815 626.363C177.783 611.88 177.751 597.397 177.719 582.915C177.712 580.009 182.23 580.045 182.237 582.96Z" fill="#3A922B" fill-opacity="0.49"/>
<path d="M182.011 497.591L182.176 521.132C182.197 524.038 177.679 524.001 177.658 521.087C177.603 513.24 177.548 505.393 177.493 497.546C177.473 494.64 181.99 494.677 182.011 497.591Z" fill="#3A922B" fill-opacity="0.49"/>
<path d="M175.813 522.999C159.335 514.276 127.583 501.268 119.824 527.31C113.684 547.917 135.26 561.717 150.993 569.308C159.487 573.407 168.359 576.612 177.305 579.563C180.055 580.47 178.872 584.833 176.1 583.918C157.251 577.7 135.634 570.151 122.364 554.589C115.737 546.818 112.545 537.079 115.216 527.004C118.342 515.207 127.267 507.681 139.51 507.302C152.982 506.885 166.423 512.92 178.082 519.093C180.657 520.456 178.38 524.359 175.813 522.999Z" fill="#3A922B" fill-opacity="0.49"/>
<path d="M180.005 624.247C194.847 622.47 220.297 624.618 221.868 644.094C223.658 666.295 200.611 675.181 183.206 679.833C180.398 680.583 179.236 676.217 182.049 675.465C197.166 671.425 218.289 664.453 217.408 644.996C216.633 627.866 192.222 627.299 179.96 628.767C177.086 629.111 177.15 624.589 180.005 624.247Z" fill="#3A922B" fill-opacity="0.49"/>
<path d="M244.618 364.23C242.378 364.223 240.683 364.712 239.534 365.695C238.385 366.652 237.807 368.104 237.802 370.051L237.797 371.771L249.317 371.803L249.303 377.003L237.783 376.971L237.754 387.171L231.274 387.153L231.322 370.073C231.332 366.473 232.46 363.676 234.705 361.682C236.977 359.688 240.14 358.697 244.193 358.708C245.793 358.713 247.3 358.89 248.712 359.241C250.124 359.565 251.35 360.048 252.388 360.691L250.374 365.806C248.777 364.761 246.858 364.236 244.618 364.23ZM265.326 382.567C266.446 382.57 267.433 382.413 268.287 382.095C269.168 381.751 269.983 381.22 270.731 380.502L274.041 384.111C272.008 386.426 269.045 387.578 265.152 387.567C262.725 387.56 260.58 387.087 258.716 386.149C256.852 385.184 255.415 383.86 254.407 382.177C253.398 380.494 252.897 378.586 252.903 376.453C252.908 374.346 253.407 372.454 254.398 370.777C255.416 369.073 256.793 367.757 258.529 366.828C260.292 365.873 262.267 365.399 264.453 365.405C266.507 365.41 268.372 365.856 270.05 366.74C271.727 367.598 273.057 368.855 274.039 370.511C275.048 372.141 275.549 374.076 275.543 376.316L259.615 379.351C260.065 380.419 260.769 381.221 261.728 381.757C262.713 382.293 263.912 382.563 265.326 382.567ZM264.44 370.125C262.867 370.12 261.585 370.623 260.596 371.634C259.607 372.645 259.083 374.043 259.024 375.83L269.51 373.819C269.22 372.698 268.622 371.803 267.717 371.134C266.813 370.465 265.72 370.128 264.44 370.125ZM301.607 365.828L301.547 387.348L295.587 387.331L295.594 384.851C294.042 386.714 291.799 387.641 288.866 387.633C286.839 387.627 285.001 387.169 283.35 386.257C281.726 385.346 280.449 384.049 279.521 382.367C278.592 380.684 278.131 378.736 278.137 376.523C278.143 374.309 278.615 372.364 279.553 370.687C280.491 369.009 281.775 367.72 283.404 366.817C285.06 365.915 286.901 365.467 288.928 365.473C291.674 365.48 293.819 366.353 295.36 368.091L295.367 365.811L301.607 365.828ZM289.96 382.516C291.534 382.52 292.842 381.99 293.885 380.927C294.928 379.836 295.452 378.384 295.457 376.571C295.462 374.758 294.946 373.316 293.909 372.247C292.872 371.15 291.567 370.6 289.993 370.596C288.393 370.591 287.072 371.134 286.029 372.225C284.986 373.288 284.462 374.727 284.457 376.54C284.452 378.354 284.968 379.808 286.005 380.905C287.042 381.974 288.36 382.511 289.96 382.516ZM320.287 386.36C319.672 386.812 318.911 387.156 318.004 387.394C317.123 387.604 316.203 387.709 315.243 387.706C312.656 387.699 310.672 387.04 309.289 385.729C307.906 384.419 307.218 382.497 307.225 379.964L307.277 361.084L313.517 361.101L313.502 366.341L318.822 366.356L318.809 371.156L313.489 371.141L313.465 379.901C313.462 380.808 313.687 381.515 314.139 382.023C314.591 382.504 315.244 382.746 316.097 382.748C317.057 382.751 317.911 382.487 318.659 381.955L320.287 386.36ZM345.548 365.95L345.488 387.47L339.568 387.454L339.575 384.894C338.746 385.825 337.757 386.542 336.609 387.045C335.461 387.522 334.221 387.759 332.887 387.755C330.061 387.747 327.823 386.928 326.174 385.296C324.525 383.665 323.705 381.249 323.714 378.049L323.748 365.889L329.988 365.907L329.957 377.147C329.947 380.613 331.396 382.351 334.302 382.359C335.796 382.363 336.997 381.886 337.906 380.929C338.816 379.945 339.273 378.493 339.279 376.573L339.308 365.933L345.548 365.95ZM357.281 368.823C358.031 367.785 359.033 367.001 360.288 366.471C361.569 365.941 363.037 365.679 364.69 365.683L364.674 371.443C363.981 371.388 363.514 371.36 363.274 371.359C361.487 371.354 360.086 371.857 359.07 372.868C358.054 373.852 357.543 375.343 357.537 377.343L357.509 387.503L351.269 387.486L351.329 365.966L357.289 365.983L357.281 368.823ZM378.997 382.883C380.117 382.886 381.104 382.729 381.958 382.411C382.839 382.067 383.654 381.536 384.403 380.818L387.713 384.427C385.68 386.742 382.717 387.893 378.823 387.883C376.397 387.876 374.251 387.403 372.387 386.465C370.523 385.5 369.087 384.176 368.078 382.493C367.069 380.81 366.568 378.902 366.574 376.769C366.58 374.662 367.078 372.77 368.07 371.093C369.088 369.389 370.465 368.073 372.201 367.144C373.963 366.189 375.938 365.715 378.125 365.721C380.178 365.726 382.044 366.171 383.721 367.056C385.399 367.914 386.729 369.171 387.711 370.827C388.719 372.457 389.221 374.391 389.215 376.631L373.286 379.667C373.736 380.735 374.441 381.537 375.399 382.073C376.385 382.609 377.584 382.879 378.997 382.883ZM378.112 370.441C376.538 370.436 375.257 370.939 374.267 371.95C373.278 372.96 372.754 374.359 372.696 376.146L383.181 374.135C382.891 373.014 382.294 372.119 381.389 371.45C380.484 370.78 379.392 370.444 378.112 370.441ZM400.617 387.943C398.831 387.938 397.085 387.72 395.379 387.289C393.674 386.831 392.315 386.267 391.304 385.597L393.396 381.123C394.355 381.739 395.513 382.249 396.872 382.653C398.231 383.03 399.564 383.22 400.871 383.224C403.511 383.231 404.832 382.582 404.836 381.275C404.838 380.662 404.479 380.221 403.76 379.952C403.04 379.683 401.934 379.453 400.442 379.263C398.682 378.991 397.23 378.68 396.084 378.331C394.938 377.981 393.94 377.365 393.089 376.482C392.265 375.6 391.855 374.345 391.86 372.719C391.864 371.359 392.254 370.16 393.03 369.122C393.833 368.058 394.982 367.234 396.477 366.652C397.998 366.069 399.786 365.781 401.839 365.786C403.359 365.791 404.865 365.968 406.358 366.319C407.877 366.643 409.129 367.1 410.114 367.689L408.021 372.124C406.131 371.052 404.066 370.513 401.826 370.506C400.493 370.503 399.492 370.687 398.824 371.058C398.157 371.43 397.822 371.909 397.82 372.495C397.819 373.162 398.177 373.63 398.897 373.898C399.616 374.167 400.762 374.424 402.334 374.668C404.094 374.966 405.533 375.29 406.652 375.64C407.771 375.963 408.742 376.566 409.567 377.448C410.391 378.33 410.801 379.558 410.796 381.131C410.793 382.465 410.389 383.65 409.587 384.688C408.784 385.726 407.608 386.536 406.06 387.118C404.538 387.674 402.724 387.949 400.617 387.943Z" fill="#73D862"/>
</g>
<path d="M110.973 35.651C110.844 35.1139 110.305 34.7825 109.767 34.911C109.23 35.0394 108.899 35.5789 109.027 36.1161L110.973 35.651ZM230.995 229.541C231.49 229.785 232.09 229.582 232.334 229.087L236.318 221.016C236.563 220.521 236.36 219.921 235.864 219.677C235.369 219.432 234.769 219.636 234.525 220.131L230.984 227.305L223.81 223.763C223.315 223.519 222.715 223.722 222.471 224.217C222.226 224.713 222.43 225.312 222.925 225.557L230.995 229.541ZM228.344 146.471L228.963 147.257L228.344 146.471ZM200.099 136.197L199.151 136.518L200.099 136.197ZM135.684 143.319L134.712 143.551L135.684 143.319ZM202.749 166.629L202.131 165.843L202.749 166.629ZM109.027 36.1161L110.098 40.5925L112.043 40.1275L110.973 35.651L109.027 36.1161ZM112.238 49.5455L114.378 58.4984L116.323 58.0334L114.183 49.0804L112.238 49.5455ZM116.519 67.4513L118.659 76.4043L120.604 75.9392L118.464 66.9863L116.519 67.4513ZM120.799 85.3572L122.94 94.3101L124.885 93.8451L122.745 84.8922L120.799 85.3572ZM125.08 103.263L127.22 112.216L129.166 111.751L127.025 102.798L125.08 103.263ZM129.361 121.169L131.501 130.122L133.446 129.657L131.306 120.704L129.361 121.169ZM133.641 139.075L134.712 143.551L136.657 143.086L135.587 138.61L133.641 139.075ZM134.712 143.551C135.052 144.974 135.456 146.359 135.919 147.705L137.81 147.054C137.368 145.77 136.982 144.447 136.657 143.086L134.712 143.551ZM139.527 155.546C141.013 158.068 142.734 160.391 144.646 162.5L146.128 161.156C144.305 159.147 142.666 156.934 141.251 154.531L139.527 155.546ZM151.065 168.274C153.399 169.983 155.894 171.448 158.503 172.655L159.342 170.84C156.852 169.688 154.472 168.29 152.246 166.661L151.065 168.274ZM166.655 175.488C169.45 176.16 172.316 176.558 175.206 176.665L175.281 174.667C172.524 174.564 169.79 174.185 167.122 173.544L166.655 175.488ZM183.823 176.116C186.631 175.648 189.421 174.893 192.151 173.836L191.429 171.971C188.828 172.978 186.17 173.698 183.494 174.143L183.823 176.116ZM199.845 169.924C201.043 169.156 202.219 168.32 203.368 167.414L202.131 165.843C201.032 166.708 199.909 167.507 198.766 168.24L199.845 169.924ZM203.368 167.414L206.567 164.894L205.33 163.323L202.131 165.843L203.368 167.414ZM212.966 159.855L219.365 154.816L218.127 153.244L211.729 158.284L212.966 159.855ZM225.763 149.776L228.963 147.257L227.725 145.685L224.526 148.205L225.763 149.776ZM228.963 147.257C230.191 146.289 231.273 145.214 232.21 144.056L230.655 142.799C229.812 143.841 228.836 144.811 227.725 145.685L228.963 147.257ZM236.169 135.902C236.85 132.925 236.853 129.821 236.178 126.842L234.228 127.284C234.836 129.97 234.833 132.771 234.219 135.456L236.169 135.902ZM232.237 118.679C231.303 117.519 230.223 116.442 228.997 115.472L227.756 117.041C228.864 117.918 229.839 118.89 230.679 119.934L232.237 118.679ZM228.997 115.472C227.889 114.596 226.744 113.866 225.574 113.273L224.67 115.057C225.718 115.588 226.751 116.246 227.756 117.041L228.997 115.472ZM217.71 111.279C214.941 111.213 212.233 111.781 209.757 112.853L210.552 114.688C212.776 113.725 215.198 113.22 217.662 113.279L217.71 111.279ZM203.144 117.516C201.303 119.488 199.859 121.849 198.992 124.479L200.891 125.105C201.663 122.765 202.952 120.653 204.606 118.881L203.144 117.516ZM198.229 132.556C198.395 133.857 198.698 135.181 199.151 136.518L201.046 135.876C200.634 134.662 200.362 133.469 200.213 132.303L198.229 132.556ZM199.151 136.518L200.718 141.141L202.613 140.498L201.046 135.876L199.151 136.518ZM203.852 150.385L206.986 159.63L208.88 158.988L205.746 149.743L203.852 150.385ZM210.12 168.875L213.254 178.119L215.148 177.477L212.014 168.232L210.12 168.875ZM216.388 187.364L219.522 196.609L221.416 195.966L218.282 186.722L216.388 187.364ZM222.656 205.853L225.79 215.098L227.684 214.456L224.55 205.211L222.656 205.853ZM228.924 224.343L230.491 228.965L232.385 228.323L230.818 223.7L228.924 224.343Z" fill="#6EC160" fill-opacity="0.7"/>
<rect x="68" y="30.8835" width="115" height="40" rx="20" fill="white" stroke="#73D862" stroke-width="2"/>
<rect x="33" y="6.88354" width="155" height="58" rx="29" fill="white" stroke="#73D862" stroke-width="2"/>
<path d="M65.5809 42.8835V31.4235H62.8609V28.7635H68.7009V42.8835H65.5809ZM70.4995 42.8835V41.1235L75.9195 35.5235C76.4129 35.0169 76.7662 34.5835 76.9795 34.2235C77.1929 33.8502 77.2995 33.4635 77.2995 33.0635C77.2995 32.5169 77.1195 32.0902 76.7595 31.7835C76.4129 31.4635 75.9529 31.3035 75.3795 31.3035C74.8195 31.3035 74.3129 31.4569 73.8595 31.7635C73.4195 32.0702 72.9929 32.5569 72.5795 33.2235L70.4795 31.4035C71.6129 29.4969 73.3195 28.5435 75.5995 28.5435C76.5595 28.5435 77.3995 28.7302 78.1195 29.1035C78.8395 29.4635 79.3929 29.9769 79.7795 30.6435C80.1795 31.2969 80.3795 32.0702 80.3795 32.9635C80.3795 33.5369 80.3062 34.0569 80.1595 34.5235C80.0129 34.9902 79.7729 35.4569 79.4395 35.9235C79.1195 36.3769 78.6862 36.8769 78.1395 37.4235L75.3395 40.2035H80.6595V42.8835H70.4995ZM89.3286 43.1035C88.2886 43.1035 87.3219 42.9169 86.4286 42.5435C85.5353 42.1702 84.7486 41.6569 84.0686 41.0035C83.4019 40.3369 82.8819 39.5635 82.5086 38.6835C82.1353 37.7902 81.9486 36.8302 81.9486 35.8035C81.9486 34.7769 82.1419 33.8235 82.5286 32.9435C82.9153 32.0635 83.4486 31.2969 84.1286 30.6435C84.8219 29.9769 85.6219 29.4635 86.5286 29.1035C87.4486 28.7302 88.4419 28.5435 89.5086 28.5435C90.7219 28.5435 91.8219 28.7635 92.8086 29.2035C93.8086 29.6435 94.6353 30.2502 95.2886 31.0235L93.1486 33.1635C92.2153 31.9902 90.9886 31.4035 89.4686 31.4035C88.6419 31.4035 87.9019 31.5902 87.2486 31.9635C86.5953 32.3235 86.0819 32.8369 85.7086 33.5035C85.3486 34.1569 85.1686 34.9235 85.1686 35.8035C85.1686 36.6835 85.3419 37.4569 85.6886 38.1235C86.0486 38.7902 86.5419 39.3102 87.1686 39.6835C87.7953 40.0569 88.5153 40.2435 89.3286 40.2435C90.3286 40.2435 91.1486 40.0169 91.7886 39.5635C92.4419 39.1102 92.8753 38.4569 93.0886 37.6035L89.0486 37.5435V34.8835H96.4686V35.3435C96.4686 37.0369 96.1619 38.4635 95.5486 39.6235C94.9486 40.7702 94.1086 41.6369 93.0286 42.2235C91.9619 42.8102 90.7286 43.1035 89.3286 43.1035ZM98.3717 42.8835V28.7635H104.432C105.338 28.7635 106.105 28.9302 106.732 29.2635C107.372 29.5969 107.858 30.0435 108.192 30.6035C108.525 31.1635 108.692 31.7835 108.692 32.4635C108.692 33.7435 108.112 34.7035 106.952 35.3435C107.672 35.6902 108.218 36.1635 108.592 36.7635C108.978 37.3502 109.172 38.0235 109.172 38.7835C109.172 39.5569 108.978 40.2569 108.592 40.8835C108.218 41.4969 107.672 41.9835 106.952 42.3435C106.245 42.7035 105.392 42.8835 104.392 42.8835H98.3717ZM103.832 31.2035H101.472V34.3435H103.832C104.338 34.3435 104.752 34.2169 105.072 33.9635C105.405 33.6969 105.572 33.2969 105.572 32.7635C105.572 32.2435 105.412 31.8569 105.092 31.6035C104.772 31.3369 104.352 31.2035 103.832 31.2035ZM104.092 36.7235H101.472V40.4435H104.092C104.692 40.4435 105.165 40.2702 105.512 39.9235C105.872 39.5635 106.052 39.1169 106.052 38.5835C106.052 38.0502 105.872 37.6102 105.512 37.2635C105.165 36.9035 104.692 36.7235 104.092 36.7235ZM114.993 42.8835V28.7635H120.753C121.686 28.7635 122.506 28.9435 123.213 29.3035C123.919 29.6502 124.473 30.1369 124.873 30.7635C125.273 31.3902 125.473 32.1102 125.473 32.9235C125.473 33.9902 125.146 34.8835 124.493 35.6035C123.839 36.3102 122.966 36.7635 121.873 36.9635L126.393 42.8835H122.673L118.473 37.0635H118.133V42.8835H114.993ZM120.393 31.2035H118.133V34.7435H120.373C120.999 34.7435 121.479 34.5835 121.813 34.2635C122.159 33.9435 122.333 33.5102 122.333 32.9635C122.333 32.4569 122.159 32.0369 121.813 31.7035C121.479 31.3702 121.006 31.2035 120.393 31.2035ZM126.257 42.8835L131.857 28.7635H134.697L140.237 42.8835H136.917L135.977 40.3235H130.457L129.517 42.8835H126.257ZM131.397 37.7635H135.057L133.237 32.7235L131.397 37.7635ZM141.731 42.8835V28.7635H143.971L148.951 36.5435L153.931 28.7635H156.191V42.8835H153.051V35.0635L149.991 39.8435H147.911L144.851 35.0635V42.8835H141.731Z" fill="#1C1C1C"/>
<path d="M330.121 222.856C330.442 223.305 331.066 223.409 331.516 223.088L338.837 217.853C339.286 217.532 339.39 216.907 339.068 216.458C338.747 216.009 338.122 215.905 337.673 216.226L331.166 220.879L326.512 214.372C326.191 213.923 325.567 213.819 325.117 214.14C324.668 214.461 324.564 215.086 324.886 215.535L330.121 222.856ZM401.168 69.7185L400.444 69.0284L401.168 69.7185ZM333.898 204.431L334.885 204.594L333.898 204.431ZM409.623 59.4024L407.329 61.8089L408.776 63.1891L411.071 60.7826L409.623 59.4024ZM402.739 66.6219L400.444 69.0284L401.892 70.4086L404.187 68.0021L402.739 66.6219ZM400.444 69.0284C399.341 70.1859 398.249 71.3528 397.168 72.529L398.641 73.882C399.713 72.7149 400.797 71.5571 401.892 70.4086L400.444 69.0284ZM390.814 79.7105C388.739 82.1462 386.711 84.6179 384.733 87.1241L386.302 88.3635C388.266 85.8768 390.277 83.4244 392.336 81.0076L390.814 79.7105ZM378.932 94.7593C377.045 97.3421 375.207 99.958 373.42 102.606L375.078 103.725C376.851 101.098 378.674 98.5019 380.547 95.9393L378.932 94.7593ZM368.205 110.652C366.516 113.368 364.878 116.113 363.293 118.888L365.03 119.88C366.603 117.127 368.227 114.403 369.903 111.709L368.205 110.652ZM358.692 127.301C357.211 130.133 355.783 132.994 354.408 135.879L356.214 136.739C357.578 133.876 358.995 131.038 360.465 128.227L358.692 127.301ZM350.447 144.612C349.182 147.546 347.971 150.505 346.815 153.486L348.68 154.209C349.827 151.251 351.028 148.315 352.284 145.404L350.447 144.612ZM343.516 162.49C342.473 165.509 341.486 168.55 340.556 171.61L342.469 172.192C343.393 169.156 344.372 166.139 345.407 163.143L343.516 162.49ZM337.937 180.835C337.123 183.922 336.365 187.028 335.665 190.15L337.617 190.588C338.311 187.49 339.063 184.408 339.871 181.345L337.937 180.835ZM333.742 199.544C333.451 201.115 333.174 202.689 332.912 204.267L334.885 204.594C335.145 203.029 335.42 201.467 335.708 199.909L333.742 199.544ZM332.912 204.267L332.171 208.728L334.144 209.055L334.885 204.594L332.912 204.267ZM330.689 217.65L329.947 222.111L331.92 222.438L332.662 217.977L330.689 217.65Z" fill="#6EC160"/>
<path d="M436.547 320.509C436.054 320.258 435.859 319.656 436.109 319.164L440.193 311.144C440.443 310.652 441.045 310.456 441.537 310.706C442.03 310.957 442.225 311.559 441.975 312.051L438.345 319.18L445.474 322.81C445.966 323.061 446.162 323.663 445.912 324.155C445.661 324.647 445.059 324.843 444.567 324.592L436.547 320.509ZM577.362 227.397L578.152 228.009L577.362 227.397ZM454.202 314.023L453.892 313.072L454.202 314.023ZM586.3 217.496L584.263 220.124L582.682 218.899L584.719 216.271L586.3 217.496ZM580.189 225.381L578.152 228.009L576.572 226.784L578.608 224.156L580.189 225.381ZM578.152 228.009C577.173 229.273 576.182 230.528 575.18 231.772L573.622 230.517C574.616 229.283 575.599 228.039 576.572 226.784L578.152 228.009ZM569.028 239.126C566.929 241.542 564.788 243.916 562.605 246.247L561.145 244.879C563.311 242.567 565.435 240.212 567.518 237.815L569.028 239.126ZM555.921 253.122C553.649 255.374 551.337 257.581 548.986 259.744L547.632 258.271C549.965 256.126 552.259 253.936 554.513 251.702L555.921 253.122ZM541.808 266.102C539.375 268.177 536.905 270.206 534.398 272.187L533.157 270.619C535.645 268.652 538.096 266.639 540.51 264.58L541.808 266.102ZM526.766 277.993C524.186 279.88 521.571 281.719 518.923 283.509L517.803 281.852C520.431 280.076 523.025 278.251 525.585 276.379L526.766 277.993ZM510.879 288.729C508.167 290.419 505.422 292.058 502.647 293.646L501.654 291.91C504.407 290.334 507.131 288.708 509.822 287.032L510.879 288.729ZM494.237 298.252C491.407 299.734 488.548 301.164 485.66 302.541L484.799 300.736C487.664 299.369 490.501 297.95 493.309 296.48L494.237 298.252ZM476.93 306.507C473.999 307.773 471.041 308.986 468.058 310.144L467.334 308.28C470.294 307.131 473.229 305.927 476.137 304.671L476.93 306.507ZM459.056 313.448C457.547 313.971 456.032 314.479 454.511 314.974L453.892 313.072C455.401 312.581 456.905 312.076 458.402 311.558L459.056 313.448ZM454.511 314.974L450.211 316.373L449.592 314.471L453.892 313.072L454.511 314.974ZM441.61 319.17L437.31 320.569L436.691 318.667L440.991 317.268L441.61 319.17Z" fill="#6EC160"/>
<rect x="413" y="47.8835" width="121" height="48" rx="24" fill="white" stroke="#73D862" stroke-width="2"/>
<rect x="390" y="31.8835" width="145" height="58" rx="29" fill="white" stroke="#73D862" stroke-width="2"/>
<rect x="555" y="178.884" width="119" height="48" rx="24" fill="white" stroke="#73D862" stroke-width="2"/>
<rect x="528" y="162.884" width="145" height="58" rx="29" fill="white" stroke="#73D862" stroke-width="2"/>
<path d="M566.79 198.884V184.764H572.45C573.503 184.764 574.483 184.937 575.39 185.284C576.296 185.63 577.083 186.117 577.75 186.744C578.416 187.37 578.936 188.117 579.31 188.984C579.683 189.837 579.87 190.784 579.87 191.824C579.87 192.85 579.683 193.797 579.31 194.664C578.936 195.53 578.416 196.277 577.75 196.904C577.083 197.53 576.303 198.017 575.41 198.364C574.516 198.71 573.543 198.884 572.49 198.884H566.79ZM572.41 187.504H569.93V196.124H572.41C573.69 196.124 574.716 195.744 575.49 194.984C576.263 194.224 576.65 193.164 576.65 191.804C576.65 190.457 576.256 189.404 575.47 188.644C574.696 187.884 573.676 187.504 572.41 187.504ZM583.128 187.824C582.648 187.824 582.248 187.664 581.928 187.344C581.621 187.01 581.468 186.61 581.468 186.144C581.468 185.677 581.621 185.284 581.928 184.964C582.248 184.63 582.648 184.464 583.128 184.464C583.608 184.464 584.001 184.63 584.308 184.964C584.614 185.284 584.768 185.677 584.768 186.144C584.768 186.61 584.614 187.01 584.308 187.344C584.001 187.664 583.608 187.824 583.128 187.824ZM581.588 198.884V189.164H584.648V198.884H581.588ZM590.343 199.124C589.476 199.124 588.643 198.964 587.843 198.644C587.043 198.324 586.396 197.884 585.903 197.324L587.643 195.564C588.309 196.297 589.169 196.664 590.223 196.664C590.969 196.664 591.343 196.464 591.343 196.064C591.343 195.824 591.223 195.644 590.983 195.524C590.756 195.39 590.463 195.277 590.103 195.184C589.743 195.09 589.363 194.984 588.963 194.864C588.563 194.73 588.183 194.557 587.823 194.344C587.463 194.13 587.169 193.837 586.943 193.464C586.716 193.09 586.603 192.604 586.603 192.004C586.603 191.084 586.949 190.337 587.643 189.764C588.349 189.177 589.303 188.884 590.503 188.884C591.329 188.884 592.089 189.03 592.783 189.324C593.489 189.604 594.063 190.024 594.503 190.584L592.763 192.344C592.456 191.984 592.109 191.73 591.723 191.584C591.349 191.437 590.983 191.364 590.623 191.364C589.929 191.364 589.583 191.557 589.583 191.944C589.583 192.157 589.696 192.324 589.923 192.444C590.149 192.55 590.443 192.657 590.803 192.764C591.163 192.857 591.543 192.97 591.943 193.104C592.343 193.224 592.716 193.397 593.063 193.624C593.423 193.85 593.716 194.157 593.943 194.544C594.183 194.93 594.303 195.424 594.303 196.024C594.303 196.984 593.943 197.744 593.223 198.304C592.516 198.85 591.556 199.124 590.343 199.124ZM595.963 202.984V189.164H599.023V189.844C599.356 189.564 599.736 189.35 600.163 189.204C600.603 189.044 601.069 188.964 601.563 188.964C602.483 188.964 603.296 189.184 604.003 189.624C604.723 190.064 605.283 190.67 605.683 191.444C606.096 192.204 606.303 193.064 606.303 194.024C606.303 194.997 606.096 195.864 605.683 196.624C605.283 197.384 604.723 197.984 604.003 198.424C603.296 198.864 602.483 199.084 601.563 199.084C601.056 199.084 600.583 199.01 600.143 198.864C599.703 198.704 599.316 198.49 598.983 198.224V202.984H595.963ZM601.023 196.324C601.663 196.324 602.183 196.11 602.583 195.684C602.996 195.244 603.203 194.69 603.203 194.024C603.203 193.344 602.996 192.79 602.583 192.364C602.183 191.937 601.663 191.724 601.023 191.724C600.369 191.724 599.843 191.937 599.443 192.364C599.043 192.79 598.843 193.344 598.843 194.024C598.843 194.704 599.043 195.257 599.443 195.684C599.843 196.11 600.369 196.324 601.023 196.324ZM607.857 198.884V184.364H610.917V198.884H607.857ZM617.132 199.084C616.239 199.084 615.439 198.864 614.732 198.424C614.039 197.984 613.486 197.384 613.072 196.624C612.672 195.864 612.472 194.997 612.472 194.024C612.472 193.064 612.672 192.204 613.072 191.444C613.486 190.67 614.039 190.064 614.732 189.624C615.439 189.184 616.239 188.964 617.132 188.964C617.666 188.964 618.159 189.057 618.612 189.244C619.079 189.417 619.479 189.657 619.812 189.964V189.164H622.812V198.884H619.812V198.084C619.479 198.404 619.079 198.65 618.612 198.824C618.159 198.997 617.666 199.084 617.132 199.084ZM617.752 196.324C618.406 196.324 618.932 196.11 619.332 195.684C619.732 195.257 619.932 194.704 619.932 194.024C619.932 193.344 619.732 192.79 619.332 192.364C618.932 191.937 618.412 191.724 617.772 191.724C617.132 191.724 616.606 191.944 616.192 192.384C615.779 192.81 615.572 193.357 615.572 194.024C615.572 194.704 615.772 195.257 616.172 195.684C616.586 196.11 617.112 196.324 617.752 196.324ZM625.467 202.984L627.667 198.224L623.967 189.164H627.267L629.207 195.084L631.187 189.164H634.487L630.327 198.924L628.607 202.984H625.467Z" fill="black"/>
<path d="M417.029 67.8835V57.5695H414.581V55.1755H419.837V67.8835H417.029ZM421.455 67.8835V66.2995L426.333 61.2595C426.777 60.8035 427.095 60.4135 427.287 60.0895C427.479 59.7535 427.575 59.4055 427.575 59.0455C427.575 58.5535 427.413 58.1695 427.089 57.8935C426.777 57.6055 426.363 57.4615 425.847 57.4615C425.343 57.4615 424.887 57.5995 424.479 57.8755C424.083 58.1515 423.699 58.5895 423.327 59.1895L421.437 57.5515C422.457 55.8355 423.993 54.9775 426.045 54.9775C426.909 54.9775 427.665 55.1455 428.313 55.4815C428.961 55.8055 429.459 56.2675 429.807 56.8675C430.167 57.4555 430.347 58.1515 430.347 58.9555C430.347 59.4715 430.281 59.9395 430.149 60.3595C430.017 60.7795 429.801 61.1995 429.501 61.6195C429.213 62.0275 428.823 62.4775 428.331 62.9695L425.811 65.4715H430.599V67.8835H421.455ZM436.242 68.0815C435.33 68.0815 434.532 67.9195 433.848 67.5955C433.164 67.2715 432.636 66.8335 432.264 66.2815C431.892 65.7175 431.706 65.0755 431.706 64.3555C431.706 63.6115 431.88 62.9635 432.228 62.4115C432.588 61.8475 433.068 61.4215 433.668 61.1335C433.2 60.8575 432.84 60.4795 432.588 59.9995C432.336 59.5075 432.21 58.9855 432.21 58.4335C432.21 57.7615 432.378 57.1675 432.714 56.6515C433.062 56.1235 433.536 55.7095 434.136 55.4095C434.748 55.1095 435.45 54.9595 436.242 54.9595C437.034 54.9595 437.73 55.1095 438.33 55.4095C438.93 55.7095 439.404 56.1235 439.752 56.6515C440.1 57.1675 440.274 57.7615 440.274 58.4335C440.274 58.9855 440.148 59.5075 439.896 59.9995C439.644 60.4795 439.278 60.8575 438.798 61.1335C439.41 61.4215 439.89 61.8475 440.238 62.4115C440.598 62.9635 440.778 63.6055 440.778 64.3375C440.778 65.0695 440.592 65.7175 440.22 66.2815C439.848 66.8335 439.32 67.2715 438.636 67.5955C437.964 67.9195 437.166 68.0815 436.242 68.0815ZM436.242 60.1615C436.662 60.1615 437.004 60.0295 437.268 59.7655C437.544 59.5015 437.682 59.1595 437.682 58.7395C437.682 58.3195 437.544 57.9775 437.268 57.7135C437.004 57.4375 436.662 57.2995 436.242 57.2995C435.822 57.2995 435.474 57.4315 435.198 57.6955C434.934 57.9595 434.802 58.3015 434.802 58.7215C434.802 59.1415 434.934 59.4895 435.198 59.7655C435.474 60.0295 435.822 60.1615 436.242 60.1615ZM436.242 65.6695C436.782 65.6695 437.226 65.5075 437.574 65.1835C437.922 64.8595 438.096 64.4455 438.096 63.9415C438.096 63.4495 437.922 63.0415 437.574 62.7175C437.226 62.3815 436.782 62.2135 436.242 62.2135C435.702 62.2135 435.258 62.3815 434.91 62.7175C434.574 63.0415 434.406 63.4495 434.406 63.9415C434.406 64.4455 434.574 64.8595 434.91 65.1835C435.258 65.5075 435.702 65.6695 436.242 65.6695ZM448.509 68.0815C447.573 68.0815 446.703 67.9135 445.899 67.5775C445.095 67.2415 444.387 66.7795 443.775 66.1915C443.175 65.5915 442.707 64.8955 442.371 64.1035C442.035 63.2995 441.867 62.4355 441.867 61.5115C441.867 60.5875 442.041 59.7295 442.389 58.9375C442.737 58.1455 443.217 57.4555 443.829 56.8675C444.453 56.2675 445.173 55.8055 445.989 55.4815C446.817 55.1455 447.711 54.9775 448.671 54.9775C449.763 54.9775 450.753 55.1755 451.641 55.5715C452.541 55.9675 453.285 56.5135 453.873 57.2095L451.947 59.1355C451.107 58.0795 450.003 57.5515 448.635 57.5515C447.891 57.5515 447.225 57.7195 446.637 58.0555C446.049 58.3795 445.587 58.8415 445.251 59.4415C444.927 60.0295 444.765 60.7195 444.765 61.5115C444.765 62.3035 444.921 62.9995 445.233 63.5995C445.557 64.1995 446.001 64.6675 446.565 65.0035C447.129 65.3395 447.777 65.5075 448.509 65.5075C449.409 65.5075 450.147 65.3035 450.723 64.8955C451.311 64.4875 451.701 63.8995 451.893 63.1315L448.257 63.0775V60.6835H454.935V61.0975C454.935 62.6215 454.659 63.9055 454.107 64.9495C453.567 65.9815 452.811 66.7615 451.839 67.2895C450.879 67.8175 449.769 68.0815 448.509 68.0815ZM456.648 67.8835V55.1755H462.102C462.918 55.1755 463.608 55.3255 464.172 55.6255C464.748 55.9255 465.186 56.3275 465.486 56.8315C465.786 57.3355 465.936 57.8935 465.936 58.5055C465.936 59.6575 465.414 60.5215 464.37 61.0975C465.018 61.4095 465.51 61.8355 465.846 62.3755C466.194 62.9035 466.368 63.5095 466.368 64.1935C466.368 64.8895 466.194 65.5195 465.846 66.0835C465.51 66.6355 465.018 67.0735 464.37 67.3975C463.734 67.7215 462.966 67.8835 462.066 67.8835H456.648ZM461.562 57.3715H459.438V60.1975H461.562C462.018 60.1975 462.39 60.0835 462.678 59.8555C462.978 59.6155 463.128 59.2555 463.128 58.7755C463.128 58.3075 462.984 57.9595 462.696 57.7315C462.408 57.4915 462.03 57.3715 461.562 57.3715ZM461.796 62.3395H459.438V65.6875H461.796C462.336 65.6875 462.762 65.5315 463.074 65.2195C463.398 64.8955 463.56 64.4935 463.56 64.0135C463.56 63.5335 463.398 63.1375 463.074 62.8255C462.762 62.5015 462.336 62.3395 461.796 62.3395ZM471.607 67.8835V55.1755H476.791C477.631 55.1755 478.369 55.3375 479.005 55.6615C479.641 55.9735 480.139 56.4115 480.499 56.9755C480.859 57.5395 481.039 58.1875 481.039 58.9195C481.039 59.8795 480.745 60.6835 480.157 61.3315C479.569 61.9675 478.783 62.3755 477.799 62.5555L481.867 67.8835H478.519L474.739 62.6455H474.433V67.8835H471.607ZM476.467 57.3715H474.433V60.5575H476.449C477.013 60.5575 477.445 60.4135 477.745 60.1255C478.057 59.8375 478.213 59.4475 478.213 58.9555C478.213 58.4995 478.057 58.1215 477.745 57.8215C477.445 57.5215 477.019 57.3715 476.467 57.3715ZM489.116 68.0995C488.156 68.0995 487.268 67.9315 486.452 67.5955C485.648 67.2595 484.94 66.7915 484.328 66.1915C483.716 65.5915 483.242 64.8955 482.906 64.1035C482.57 63.2995 482.402 62.4355 482.402 61.5115C482.402 60.5875 482.57 59.7295 482.906 58.9375C483.242 58.1335 483.71 57.4375 484.31 56.8495C484.91 56.2495 485.612 55.7875 486.416 55.4635C487.232 55.1275 488.12 54.9595 489.08 54.9595C490.028 54.9595 490.904 55.1275 491.708 55.4635C492.524 55.7875 493.232 56.2495 493.832 56.8495C494.444 57.4375 494.918 58.1335 495.254 58.9375C495.59 59.7295 495.758 60.5935 495.758 61.5295C495.758 62.4535 495.59 63.3175 495.254 64.1215C494.918 64.9135 494.45 65.6095 493.85 66.2095C493.25 66.7975 492.542 67.2595 491.726 67.5955C490.922 67.9315 490.052 68.0995 489.116 68.0995ZM489.08 65.5255C489.836 65.5255 490.496 65.3575 491.06 65.0215C491.624 64.6855 492.062 64.2175 492.374 63.6175C492.698 63.0175 492.86 62.3155 492.86 61.5115C492.86 60.7195 492.698 60.0235 492.374 59.4235C492.062 58.8235 491.618 58.3615 491.042 58.0375C490.478 57.7015 489.824 57.5335 489.08 57.5335C488.324 57.5335 487.658 57.7015 487.082 58.0375C486.518 58.3615 486.08 58.8235 485.768 59.4235C485.456 60.0235 485.3 60.7195 485.3 61.5115C485.3 62.3155 485.456 63.0175 485.768 63.6175C486.08 64.2175 486.518 64.6855 487.082 65.0215C487.658 65.3575 488.324 65.5255 489.08 65.5255ZM497.552 67.8835V55.1755H499.568L504.05 62.1775L508.532 55.1755H510.566V67.8835H507.74V60.8455L504.986 65.1475H503.114L500.36 60.8455V67.8835H497.552Z" fill="#1C1C1C"/>
<defs>
<clipPath id="clip0_88_131">
<rect width="674" height="539" fill="white" transform="translate(0 109)"/>
</clipPath>
</defs>
</svg>
