<svg width="107" height="32" viewBox="0 0 107 32" fill="none" xmlns="http://www.w3.org/2000/svg">
<g clip-path="url(#clip0_1_90)">
<path fill-rule="evenodd" clip-rule="evenodd" d="M66.3809 25.025C60.1629 29.5733 51.1504 32 43.3908 32C32.5105 32 22.7155 28.0064 15.3052 21.3642C14.723 20.8419 15.2446 20.13 15.9433 20.5368C23.9404 25.1544 33.8286 27.9324 44.0428 27.9324C50.9315 27.9324 58.5095 26.518 65.4773 23.5829C66.5299 23.1391 67.4102 24.267 66.3809 25.025Z" fill="#FF9900"/>
<path fill-rule="evenodd" clip-rule="evenodd" d="M68.9657 22.0898C68.1739 21.0822 63.7118 21.6137 61.7091 21.8495C61.0989 21.9234 61.0057 21.3965 61.5553 21.0175C65.1091 18.5353 70.9405 19.2518 71.6205 20.0838C72.3005 20.9204 71.4435 26.7214 68.104 29.4901C67.5916 29.9153 67.1026 29.6888 67.3308 29.1249C68.0807 27.2668 69.7621 23.1021 68.9657 22.0898Z" fill="#FF9900"/>
<path fill-rule="evenodd" clip-rule="evenodd" d="M61.849 3.4944V1.08157C61.849 0.716416 62.1284 0.471436 62.4638 0.471436H73.3487C73.698 0.471436 73.9775 0.721038 73.9775 1.08157V3.14773C73.9728 3.4944 73.6794 3.94738 73.1577 4.66383L67.5173 12.6557C69.6132 12.6049 71.8256 12.9146 73.7259 13.9777C74.1544 14.2181 74.2709 14.5694 74.3035 14.916V17.4906C74.3035 17.8419 73.9122 18.2533 73.5024 18.0407C70.1535 16.2981 65.7055 16.1086 62.0027 18.0592C61.6254 18.2626 61.2295 17.8558 61.2295 17.5045V15.0593C61.2295 14.6664 61.2341 13.9962 61.63 13.3999L68.1647 4.09992H62.4777C62.1284 4.09992 61.849 3.85494 61.849 3.4944Z" fill="white"/>
<path fill-rule="evenodd" clip-rule="evenodd" d="M22.1424 18.5491H18.8308C18.5141 18.526 18.2625 18.2903 18.2393 17.9898V1.12318C18.2393 0.785753 18.5234 0.517659 18.8774 0.517659H21.9654C22.2868 0.531516 22.5429 0.776505 22.5662 1.08157V3.2864H22.6268C23.4325 1.15553 24.9463 0.161743 26.9863 0.161743C29.059 0.161743 30.3538 1.15553 31.2853 3.2864C32.0864 1.15553 33.9076 0.161743 35.8591 0.161743C37.2471 0.161743 38.7655 0.730282 39.6924 2.00603C40.7403 3.42507 40.5261 5.4866 40.5261 7.29391L40.5214 17.939C40.5214 18.2764 40.2373 18.5491 39.8833 18.5491H36.5764C36.2457 18.526 35.9802 18.2626 35.9802 17.939V8.99952C35.9802 8.28769 36.0454 6.51274 35.8871 5.83789C35.6402 4.70544 34.8996 4.3865 33.9402 4.3865C33.1391 4.3865 32.3007 4.91806 31.9607 5.76856C31.6207 6.61906 31.6533 8.04271 31.6533 8.99952V17.939C31.6533 18.2764 31.3692 18.5491 31.0152 18.5491H27.7082C27.3729 18.526 27.1121 18.2626 27.1121 17.939L27.1074 8.99952C27.1074 7.11826 27.4195 4.34952 25.0674 4.34952C22.6873 4.34952 22.7805 7.04892 22.7805 8.99952V17.939C22.7805 18.2764 22.4963 18.5491 22.1424 18.5491" fill="white"/>
<path fill-rule="evenodd" clip-rule="evenodd" d="M83.3487 0.161743C88.2625 0.161743 90.922 4.34952 90.922 9.67438C90.922 14.819 87.9831 18.9004 83.3487 18.9004C78.5234 18.9004 75.8965 14.7126 75.8965 9.49411C75.8965 4.24321 78.556 0.161743 83.3487 0.161743ZM83.3767 3.60534C80.9361 3.60534 80.7823 6.90563 80.7823 8.96255C80.7823 11.0241 80.7497 15.4245 83.3487 15.4245C85.9151 15.4245 86.0362 11.8746 86.0362 9.71135C86.0362 8.28769 85.9756 6.5867 85.5425 5.23699C85.1698 4.06294 84.4293 3.60534 83.3767 3.60534Z" fill="white"/>
<path fill-rule="evenodd" clip-rule="evenodd" d="M97.2935 18.5491H93.9958C93.6652 18.526 93.3997 18.2626 93.3997 17.939L93.395 1.06771C93.423 0.758016 93.6978 0.517659 94.0331 0.517659H97.1025C97.3913 0.531516 97.6288 0.725661 97.694 0.989131V3.56836H97.7546C98.6814 1.26184 99.9809 0.161743 102.268 0.161743C103.754 0.161743 105.202 0.693305 106.134 2.14932C107 3.49902 107 5.76856 107 7.40022V18.0176C106.963 18.3134 106.688 18.5491 106.362 18.5491H103.041C102.738 18.526 102.487 18.3042 102.454 18.0176V8.85623C102.454 7.01195 102.668 4.31254 100.381 4.31254C99.5757 4.31254 98.8351 4.84873 98.4672 5.66224C98.0014 6.69301 97.9409 7.71916 97.9409 8.85623V17.939C97.9362 18.2764 97.6474 18.5491 97.2935 18.5491" fill="white"/>
<path fill-rule="evenodd" clip-rule="evenodd" d="M53.1718 10.4926C53.1718 11.7729 53.2044 12.8407 52.5524 13.9777C52.026 14.9022 51.1877 15.4707 50.2608 15.4707C48.9893 15.4707 48.244 14.5093 48.244 13.0903C48.244 10.2892 50.7731 9.78072 53.1718 9.78072V10.4926ZM56.5114 18.5029C56.2924 18.6971 55.9757 18.7109 55.7289 18.5815C54.6297 17.6756 54.4294 17.2549 53.8286 16.3906C52.0121 18.2302 50.7219 18.7803 48.3698 18.7803C45.5799 18.7803 43.4141 17.0747 43.4141 13.6588C43.4141 10.9918 44.8672 9.17521 46.9446 8.28773C48.7424 7.50194 51.2529 7.36328 53.1718 7.14603V6.72078C53.1718 5.93962 53.2324 5.01516 52.7666 4.34031C52.366 3.73479 51.5929 3.48519 50.9082 3.48519C49.646 3.48519 48.5235 4.12769 48.2487 5.4589C48.1928 5.75473 47.9739 6.04593 47.6711 6.0598L44.462 5.71775C44.1919 5.65766 43.8891 5.44041 43.9683 5.02903C44.7042 1.16482 48.2254 0 51.374 0C52.9855 0 55.0908 0.42525 56.3623 1.63628C57.9738 3.12928 57.8201 5.12148 57.8201 7.28932V12.4108C57.8201 13.95 58.4629 14.6249 59.0684 15.4569C59.278 15.7527 59.3246 16.1086 59.0544 16.3305C58.3791 16.8898 57.1774 17.9298 56.516 18.5122L56.5113 18.5029" fill="white"/>
<path fill-rule="evenodd" clip-rule="evenodd" d="M9.75776 10.4928C9.75776 11.7732 9.79036 12.8409 9.13829 13.978C8.61198 14.9024 7.77826 15.471 6.84673 15.471C5.57519 15.471 4.83463 14.5095 4.83463 13.0905C4.83463 10.2894 7.36373 9.78097 9.75776 9.78097V10.4928ZM13.0973 18.5032C12.8784 18.6973 12.5617 18.7112 12.3148 18.5818C11.2156 17.6758 11.02 17.2552 10.4145 16.3908C8.598 18.2305 7.3125 18.7805 4.95573 18.7805C2.17046 18.7805 0 17.0749 0 13.6591C0 10.992 1.45784 9.17545 3.53049 8.28798C5.32834 7.50219 7.83881 7.36352 9.75776 7.14628V6.72103C9.75776 5.93986 9.81831 5.01541 9.3572 4.34056C8.95198 3.73504 8.17882 3.48544 7.4988 3.48544C6.23658 3.48544 5.10943 4.12793 4.83463 5.45915C4.77874 5.75497 4.55983 6.04618 4.26174 6.06004L1.04797 5.71799C0.777826 5.65791 0.479736 5.44066 0.554259 5.02928C1.29482 1.16506 4.81134 0.000244141 7.95991 0.000244141C9.57145 0.000244141 11.6767 0.425494 12.9482 1.63653C14.5598 3.12952 14.4061 5.12172 14.4061 7.28957V12.411C14.4061 13.9503 15.0488 14.6251 15.6543 15.4571C15.8686 15.7529 15.9152 16.1089 15.645 16.3307C14.9697 16.89 13.768 17.93 13.1066 18.5124L13.0973 18.5032" fill="white"/>
</g>
<defs>
<clipPath id="clip0_1_90">
<rect width="107" height="32" fill="white"/>
</clipPath>
</defs>
</svg>
