<svg width="107" height="45" viewBox="0 0 107 45" fill="none" xmlns="http://www.w3.org/2000/svg"><path d="M30.1408 12.8485C31.0077 12.6904 32.0321 12.6114 32.7413 13.1647C33.2141 13.4808 33.3718 14.113 33.293 14.6663C33.293 15.6147 32.899 16.5631 32.1109 17.0373C31.4017 17.4325 30.5348 17.4325 29.7468 17.3535C29.1952 17.2744 28.6435 16.9583 28.4071 16.4841C27.7766 15.1405 28.5647 13.1647 30.1408 12.8485Z" fill="white"/><path d="M30.1408 12.8485C31.0077 12.6904 32.0321 12.6114 32.7413 13.1647C33.2141 13.4808 33.3718 14.113 33.293 14.6663C33.293 15.6147 32.899 16.5631 32.1109 17.0373C31.4017 17.4325 30.5348 17.4325 29.7468 17.3535C29.1952 17.2744 28.6435 16.9583 28.4071 16.4841C27.7766 15.1405 28.5647 13.1647 30.1408 12.8485Z" stroke="white" stroke-width="0.003175" stroke-miterlimit="22.926"/><path d="M4.21037 13.9122C4.28918 13.438 4.68324 12.9637 5.23487 12.9637C9.01747 12.9637 12.8 12.9637 16.5038 12.9637C16.8978 12.9637 17.3707 13.1219 17.5283 13.438C17.8435 13.9122 17.5283 14.4655 17.5283 15.0187C17.4495 15.73 17.4495 16.5993 16.6615 16.9155C13.9033 16.9945 11.1452 16.9155 8.38703 16.9155C8.15062 18.6543 7.91421 20.3931 7.59899 22.1319C7.59899 22.2109 7.59899 22.3689 7.59899 22.4479C9.6479 22.4479 11.618 22.4479 13.6669 22.4479C14.2185 22.4479 14.849 22.9222 14.7702 23.4754C14.6914 24.1077 14.6125 24.661 14.5337 25.2933C14.4549 25.6885 14.1397 26.0836 13.7457 26.1627C11.5391 26.2417 9.25384 26.0836 6.96852 26.2417C6.5745 28.6918 6.18048 31.2209 5.78646 33.671C5.70765 34.1452 5.31367 34.6194 4.84085 34.6194C3.8952 34.6194 2.94954 34.6194 2.0827 34.6194C1.45226 34.6194 0.979381 33.9871 1.13699 33.3548C2.16144 26.7949 3.18592 20.314 4.21037 13.9122Z" fill="white"/><path d="M4.21037 13.9122C4.28918 13.438 4.68324 12.9637 5.23487 12.9637C9.01747 12.9637 12.8 12.9637 16.5038 12.9637C16.8978 12.9637 17.3707 13.1219 17.5283 13.438C17.8435 13.9122 17.5283 14.4655 17.5283 15.0187C17.4495 15.73 17.4495 16.5993 16.6615 16.9155C13.9033 16.9945 11.1452 16.9155 8.38704 16.9155C8.15062 18.6543 7.91421 20.3931 7.59899 22.1319C7.59899 22.2109 7.59899 22.3689 7.59899 22.4479C9.6479 22.4479 11.618 22.4479 13.6669 22.4479C14.2185 22.4479 14.849 22.9222 14.7702 23.4754C14.6914 24.1077 14.6125 24.661 14.5337 25.2933C14.4549 25.6885 14.1397 26.0836 13.7457 26.1627C11.5391 26.2417 9.25384 26.0836 6.96852 26.2417C6.5745 28.6918 6.18048 31.2209 5.78646 33.671C5.70765 34.1452 5.31367 34.6194 4.84085 34.6194C3.89519 34.6194 2.94954 34.6194 2.0827 34.6194C1.45226 34.6194 0.979381 33.9871 1.13699 33.3548C2.16144 26.7949 3.18592 20.314 4.21037 13.9122Z" stroke="white" stroke-width="0.003175" stroke-miterlimit="22.926"/><path d="M20.8193 13.0457C21.6861 12.9667 22.553 13.0457 23.4199 13.0457C23.9715 13.0457 24.4443 13.4409 24.5232 13.9942C24.5232 14.3893 24.4443 14.8635 24.3655 15.2587C23.6562 19.6847 22.947 24.0316 22.3166 28.4576C22.2378 29.1689 22.0014 29.8802 22.2378 30.6706C22.4742 31.3819 23.5775 31.0658 23.8139 31.8561C23.9715 32.4884 23.8139 33.1207 23.7351 33.753C23.6563 34.5433 22.7894 34.7804 22.0801 34.9385C20.6617 35.1756 19.0068 35.0175 17.9824 33.832C17.2731 32.9626 17.1943 31.7771 17.3519 30.7496C18.2187 25.1381 19.0856 19.6057 19.9525 13.9942C20.1101 13.4409 20.4253 13.0457 20.8193 13.0457Z" fill="white"/><path d="M20.8193 13.0457C21.6861 12.9666 22.553 13.0457 23.4199 13.0457C23.9715 13.0457 24.4443 13.4409 24.5232 13.9942C24.5232 14.3893 24.4443 14.8635 24.3655 15.2587C23.6562 19.6847 22.947 24.0316 22.3166 28.4576C22.2378 29.1689 22.0014 29.8802 22.2378 30.6706C22.4742 31.3819 23.5775 31.0658 23.8139 31.8561C23.9715 32.4884 23.8139 33.1207 23.7351 33.753C23.6563 34.5433 22.7894 34.7804 22.0801 34.9385C20.6617 35.1756 19.0068 35.0175 17.9824 33.832C17.2731 32.9626 17.1943 31.777 17.3519 30.7496C18.2187 25.1381 19.0856 19.6057 19.9525 13.9942C20.1101 13.4409 20.4253 13.0457 20.8193 13.0457Z" stroke="white" stroke-width="0.003175" stroke-miterlimit="22.926"/><path d="M53.2822 13.9123C53.361 13.4381 53.755 12.9638 54.2278 12.9638H56.7496C57.3801 12.9638 57.8529 13.5962 57.6952 14.2284C57.1436 17.8641 56.5132 21.4996 55.9616 25.1352C56.8284 24.9772 57.7741 24.8192 58.4045 24.1078C59.429 22.9223 60.217 21.6577 60.8474 20.2351C61.0838 19.6818 61.1627 18.8915 61.8719 18.8124C62.8176 18.8124 63.7632 18.8124 64.7088 18.8124C65.3393 18.8124 65.8121 19.5237 65.5757 20.077C65.3393 20.9464 64.9452 21.7368 64.4724 22.5271C63.5267 24.1078 62.5023 25.6094 61.0839 26.795C61.7143 28.6128 62.4235 30.3516 63.1328 32.1694C63.2904 32.7226 63.8419 33.434 63.3691 33.9872C62.8963 34.6986 61.9507 34.3034 61.2414 34.3824C60.5322 34.3034 59.4289 34.6985 59.0349 33.8291C58.2468 32.0113 57.6165 30.1936 56.8284 28.4548C56.3556 28.4548 55.8827 28.4548 55.4099 28.4548C55.4099 28.5338 55.3311 28.6128 55.2523 28.6918C55.0159 30.3516 54.7795 31.9323 54.4643 33.5921C54.3855 33.9872 54.0703 34.3034 53.5975 34.3824C52.7306 34.3824 51.8637 34.3824 50.9969 34.3824C50.6029 34.3824 50.2877 34.1453 50.1301 33.8291C49.9724 33.513 50.0513 33.1179 50.1301 32.8017C51.3121 26.5579 52.2578 20.2351 53.2822 13.9123Z" fill="white"/><path d="M53.2822 13.9123C53.361 13.4381 53.755 12.9638 54.2278 12.9638H56.7496C57.3801 12.9638 57.8529 13.5962 57.6952 14.2284C57.1436 17.8641 56.5132 21.4996 55.9616 25.1352C56.8284 24.9772 57.7741 24.8192 58.4045 24.1078C59.429 22.9223 60.217 21.6577 60.8474 20.2351C61.0838 19.6818 61.1627 18.8915 61.8719 18.8124C62.8176 18.8124 63.7632 18.8124 64.7088 18.8124C65.3393 18.8124 65.8121 19.5237 65.5757 20.077C65.3393 20.9464 64.9452 21.7368 64.4724 22.5271C63.5267 24.1078 62.5023 25.6094 61.0839 26.795C61.7143 28.6128 62.4235 30.3516 63.1328 32.1694C63.2904 32.7226 63.8419 33.434 63.3691 33.9872C62.8963 34.6986 61.9507 34.3034 61.2414 34.3824C60.5322 34.3034 59.4289 34.6985 59.0349 33.8291C58.2468 32.0113 57.6165 30.1936 56.8284 28.4548C56.3556 28.4548 55.8827 28.4548 55.4099 28.4548C55.4099 28.5338 55.3311 28.6128 55.2523 28.6918C55.0159 30.3516 54.7795 31.9323 54.4643 33.5921C54.3855 33.9872 54.0703 34.3034 53.5975 34.3824C52.7306 34.3824 51.8637 34.3824 50.9969 34.3824C50.6029 34.3824 50.2877 34.1453 50.1301 33.8291C49.9724 33.513 50.0513 33.1179 50.1301 32.8017C51.3121 26.5579 52.2578 20.2351 53.2822 13.9123Z" stroke="white" stroke-width="0.003175" stroke-miterlimit="22.926"/><path d="M98.7147 15.6496C98.7935 15.1754 99.2663 14.8593 99.7391 14.8593C100.37 14.8593 101.079 14.8593 101.709 14.8593C102.261 14.8593 102.655 15.4126 102.576 15.9658C102.497 16.9142 102.261 17.8626 102.182 18.732C102.812 18.732 103.443 18.732 104.073 18.732C104.625 18.732 105.098 19.2853 105.019 19.9176C104.94 20.3918 104.861 20.945 104.704 21.4192C104.625 21.8144 104.231 22.2096 103.837 22.2886C103.049 22.3677 102.261 22.2886 101.552 22.3676C101.236 24.5806 100.842 26.7936 100.527 28.9276C100.448 29.4018 100.448 30.034 100.764 30.4292C101.236 30.9824 101.946 30.7453 102.576 30.8244C103.049 30.9824 103.364 31.5357 103.285 32.0099C103.206 32.5631 103.207 33.1165 103.049 33.6697C102.891 34.302 102.182 34.381 101.63 34.5391C100.133 34.9343 98.3995 34.9343 97.1386 34.0649C95.8778 33.1955 95.7201 31.6148 95.8777 30.1921C96.1929 27.5049 96.7445 24.8968 97.0598 22.2096C96.5869 22.2096 96.0353 22.2886 95.7201 21.8934C95.3261 21.4983 95.5625 20.866 95.5625 20.3918C95.6414 19.8385 95.6413 19.1272 96.2717 18.8901C96.7445 18.732 97.2962 18.811 97.769 18.811C98.0842 17.7836 98.3995 16.6771 98.7147 15.6496Z" fill="white"/><path d="M98.7147 15.6496C98.7935 15.1754 99.2663 14.8593 99.7391 14.8593C100.37 14.8593 101.079 14.8593 101.709 14.8593C102.261 14.8593 102.655 15.4126 102.576 15.9658C102.497 16.9142 102.261 17.8626 102.182 18.732C102.812 18.732 103.443 18.732 104.073 18.732C104.625 18.732 105.098 19.2853 105.019 19.9176C104.94 20.3918 104.861 20.945 104.704 21.4192C104.625 21.8144 104.231 22.2096 103.837 22.2886C103.049 22.3677 102.261 22.2886 101.552 22.3676C101.236 24.5806 100.842 26.7936 100.527 28.9276C100.448 29.4018 100.448 30.034 100.764 30.4292C101.236 30.9824 101.946 30.7453 102.576 30.8244C103.049 30.9824 103.364 31.5357 103.285 32.0099C103.206 32.5631 103.207 33.1165 103.049 33.6697C102.891 34.302 102.182 34.381 101.63 34.5391C100.133 34.9343 98.3995 34.9343 97.1386 34.0649C95.8778 33.1955 95.7201 31.6148 95.8777 30.1921C96.1929 27.5049 96.7445 24.8968 97.0598 22.2096C96.5869 22.2096 96.0353 22.2886 95.7201 21.8934C95.3261 21.4983 95.5625 20.866 95.5625 20.3918C95.6414 19.8385 95.6413 19.1272 96.2717 18.8901C96.7445 18.732 97.2962 18.811 97.769 18.811C98.0842 17.7836 98.3995 16.6771 98.7147 15.6496Z" stroke="white" stroke-width="0.003175" stroke-miterlimit="22.926"/><path d="M89.494 21.0066C90.5185 19.9792 91.7794 19.1098 93.1979 18.7146C93.8283 18.3984 94.6163 18.9518 94.6163 19.6631C94.5375 20.5325 94.3011 21.4808 94.1435 22.3502C94.0647 22.8244 93.6707 23.1406 93.2767 23.2197C91.7006 23.5358 90.2822 24.4842 89.1789 25.5907C88.8637 25.9068 88.4696 26.302 88.4696 26.7762C88.1544 29.0683 87.7604 31.3602 87.4452 33.6523C87.3663 34.1265 86.9724 34.6006 86.4995 34.6006H83.9777C83.4261 34.6006 82.8745 34.0475 82.9534 33.4942C83.6626 28.9892 84.3718 24.4051 85.081 19.9001C85.081 19.4259 85.475 19.0308 85.9479 18.9517C86.5783 18.9517 87.13 18.9517 87.7604 18.9517C88.2332 18.9517 88.706 19.4259 88.706 19.9001C88.706 20.6114 88.6272 21.3228 88.6272 22.0341C88.8636 21.718 89.1788 21.3228 89.494 21.0066Z" fill="white"/><path d="M89.494 21.0066C90.5185 19.9792 91.7794 19.1098 93.1979 18.7146C93.8283 18.3984 94.6163 18.9518 94.6163 19.6631C94.5375 20.5325 94.3011 21.4808 94.1435 22.3502C94.0647 22.8244 93.6707 23.1406 93.2767 23.2197C91.7006 23.5358 90.2822 24.4842 89.1789 25.5907C88.8637 25.9069 88.4696 26.302 88.4696 26.7762C88.1544 29.0683 87.7604 31.3602 87.4452 33.6523C87.3663 34.1265 86.9724 34.6006 86.4995 34.6006H83.9777C83.4261 34.6006 82.8745 34.0475 82.9534 33.4942C83.6626 28.9892 84.3718 24.4051 85.081 19.9001C85.081 19.4259 85.475 19.0308 85.9479 18.9517C86.5783 18.9517 87.13 18.9517 87.7604 18.9517C88.2332 18.9517 88.706 19.4259 88.706 19.9001C88.706 20.6114 88.6272 21.3228 88.6272 22.0341C88.8636 21.718 89.1788 21.3228 89.494 21.0066Z" stroke="white" stroke-width="0.003175" stroke-miterlimit="22.926"/><path d="M28.3296 18.8752C29.1965 18.7171 30.1421 18.8752 31.009 18.7961C31.4818 18.7171 32.0335 19.0332 32.1123 19.5865C32.1911 20.0607 32.0335 20.4558 32.0335 20.9301C31.3242 25.1189 30.6938 29.3868 30.0634 33.5757C29.9846 34.0499 29.5905 34.5242 29.1177 34.5242C28.2508 34.5242 27.3839 34.5242 26.4383 34.5242C25.8867 34.4451 25.4926 33.8128 25.6503 33.2595C26.3595 28.9126 26.99 24.4866 27.6992 20.1397C27.778 19.6655 27.8568 19.1123 28.3296 18.8752Z" fill="white"/><path d="M28.3296 18.8752C29.1965 18.7171 30.1421 18.8752 31.009 18.7961C31.4818 18.7171 32.0335 19.0332 32.1123 19.5865C32.1911 20.0607 32.0335 20.4558 32.0335 20.9301C31.3242 25.1189 30.6938 29.3868 30.0634 33.5757C29.9846 34.0499 29.5905 34.5242 29.1177 34.5242C28.2508 34.5242 27.3839 34.5242 26.4383 34.5242C25.8867 34.4451 25.4926 33.8128 25.6503 33.2595C26.3595 28.9126 26.99 24.4866 27.6992 20.1397C27.778 19.6655 27.8568 19.1123 28.3296 18.8752Z" stroke="white" stroke-width="0.003175" stroke-miterlimit="22.926"/><path d="M76.6507 26.8233C76.0202 28.0879 75.0746 29.1944 74.0502 30.1428C73.4986 30.617 72.7105 31.1702 71.9224 31.0121C71.1344 30.8541 70.7404 30.0637 70.5828 29.3524C70.1888 27.5346 70.5828 25.4797 71.6073 23.899C72.0801 23.1877 72.7893 22.6345 73.6562 22.3974C74.8382 22.0812 76.0991 22.2393 77.2811 22.5554L77.3599 22.6344C77.1235 23.978 76.8871 25.4007 76.6507 26.8233ZM81.2214 19.1569C78.7784 18.6827 76.3355 18.3666 73.8137 18.6037C71.6072 18.9198 69.4008 19.8682 68.0611 21.686C66.1698 24.0571 65.5393 27.2976 65.9333 30.3009C66.1697 31.7235 66.8001 33.1461 67.9822 34.0945C69.0855 34.9639 70.504 35.043 71.8436 34.8059C73.6561 34.4107 75.2322 33.2252 76.4931 31.9606C76.5719 32.5139 76.4143 33.0671 76.4931 33.6203C76.4931 34.0946 76.966 34.5687 77.5176 34.5687H79.1725C79.6453 34.5687 80.0393 34.0946 80.1181 33.6203C80.8273 29.1944 81.5366 24.7684 82.2458 20.3424C82.2458 19.7101 81.8518 19.1569 81.2214 19.1569Z" fill="white"/><path d="M76.6507 26.8233C76.0202 28.0879 75.0746 29.1944 74.0502 30.1428C73.4986 30.617 72.7105 31.1702 71.9224 31.0121C71.1344 30.8541 70.7404 30.0637 70.5828 29.3524C70.1888 27.5346 70.5828 25.4797 71.6073 23.899C72.0801 23.1877 72.7893 22.6345 73.6562 22.3974C74.8382 22.0812 76.0991 22.2393 77.2811 22.5554L77.3599 22.6344C77.1235 23.978 76.8871 25.4007 76.6507 26.8233ZM81.2214 19.1569C78.7784 18.6827 76.3355 18.3666 73.8137 18.6037C71.6072 18.9198 69.4008 19.8682 68.0611 21.686C66.1698 24.0571 65.5393 27.2976 65.9333 30.3009C66.1697 31.7235 66.8001 33.1461 67.9822 34.0945C69.0855 34.9639 70.504 35.043 71.8436 34.8059C73.6561 34.4107 75.2322 33.2252 76.4931 31.9606C76.5719 32.5139 76.4143 33.0671 76.4931 33.6203C76.4931 34.0946 76.966 34.5687 77.5176 34.5687H79.1725C79.6453 34.5687 80.0393 34.0946 80.1181 33.6203C80.8273 29.1944 81.5366 24.7684 82.2458 20.3424C82.2458 19.7101 81.8518 19.1569 81.2214 19.1569Z" stroke="white" stroke-width="0.003175" stroke-miterlimit="22.926"/><path d="M44.6027 26.0574C44.5239 27.5591 43.9722 29.0608 42.9477 30.1673C41.608 31.4319 39.5591 31.2738 37.8254 30.8787C37.8254 30.7996 37.7467 30.7205 37.7467 30.7205C37.9831 29.2979 38.1407 27.8753 38.4559 26.4526C39.4016 24.951 40.5048 23.4494 42.0809 22.58C42.6325 22.2638 43.4994 22.3428 43.8934 22.896C44.6027 23.7654 44.6815 24.951 44.6027 26.0574ZM49.1733 24.3977C49.1733 22.738 48.7004 20.9993 47.5972 19.8137C46.8091 18.9444 45.6271 18.4701 44.5238 18.5491C42.6325 18.4701 40.8201 19.4185 39.4804 20.6831C39.1652 20.9202 38.9287 21.3154 38.6135 21.4735C38.6135 20.9202 38.6923 20.367 38.6135 19.8137C38.6135 19.3395 38.1407 18.8653 37.6679 18.8653H36.013C35.4614 18.8653 35.0673 19.3395 35.0673 19.8137C34.0428 26.3737 33.0185 32.9335 31.994 39.4934C31.8364 40.1257 32.388 40.758 33.0184 40.679C33.9641 40.679 34.8309 40.758 35.7765 40.5999C36.4858 40.4419 36.4858 39.5725 36.5646 38.9402C36.801 37.5176 37.0375 36.0159 37.1951 34.5933C40.426 35.2256 44.1299 34.7513 46.5728 32.3803C48.3853 30.2463 49.2521 27.243 49.1733 24.3977Z" fill="white"/><path d="M44.6027 26.0574C44.5239 27.5591 43.9722 29.0608 42.9477 30.1673C41.608 31.4319 39.5591 31.2738 37.8254 30.8787C37.8254 30.7996 37.7467 30.7205 37.7467 30.7205C37.9831 29.2979 38.1407 27.8753 38.4559 26.4526C39.4016 24.951 40.5048 23.4494 42.0809 22.58C42.6325 22.2638 43.4994 22.3428 43.8934 22.896C44.6027 23.7654 44.6815 24.951 44.6027 26.0574ZM49.1733 24.3977C49.1733 22.738 48.7004 20.9993 47.5972 19.8137C46.8091 18.9444 45.6271 18.4701 44.5238 18.5491C42.6325 18.4701 40.8201 19.4185 39.4804 20.6831C39.1652 20.9202 38.9287 21.3154 38.6135 21.4735C38.6135 20.9202 38.6923 20.367 38.6135 19.8137C38.6135 19.3395 38.1407 18.8653 37.6679 18.8653H36.013C35.4614 18.8653 35.0673 19.3395 35.0673 19.8137C34.0428 26.3737 33.0185 32.9335 31.994 39.4934C31.8364 40.1257 32.388 40.758 33.0184 40.679C33.9641 40.679 34.8309 40.758 35.7765 40.5999C36.4858 40.4419 36.4858 39.5725 36.5646 38.9402C36.801 37.5176 37.0375 36.0159 37.1951 34.5933C40.426 35.2256 44.1299 34.7513 46.5728 32.3803C48.3853 30.2463 49.2521 27.243 49.1733 24.3977Z" stroke="white" stroke-width="0.003175" stroke-miterlimit="22.926"/></svg>