<svg width="674" height="539" viewBox="0 0 674 539" fill="none" xmlns="http://www.w3.org/2000/svg">
<path d="M160.554 203.559L159.886 203.661L159.366 203.227C157.021 201.268 153.873 200.777 150.509 201.328C147.145 201.88 143.749 203.454 141.181 205.349C138.129 207.606 135.628 210.526 133.868 213.889C132.107 217.253 131.132 220.973 131.016 224.768C130.765 233.292 135.439 242.337 140.122 249.763C145.124 257.694 152.345 263.838 159.725 269.939L159.725 269.939C160.562 270.631 161.413 270.589 161.994 270.252C162.58 269.911 163.042 269.182 162.867 268.117L162.867 268.117C161.151 257.664 161.353 247.141 161.886 236.722C162.003 234.42 162.137 232.125 162.27 229.837C162.742 221.725 163.209 213.697 162.948 205.702L162.948 205.702C162.917 204.745 162.557 204.216 162.175 203.925C161.762 203.61 161.176 203.464 160.554 203.559Z" stroke="#3A922B" stroke-opacity="0.49" stroke-width="3"/>
<path d="M164.303 665.14L164.271 575.114C170.862 574.206 177.341 572.623 183.607 570.389C188.565 568.711 193.389 566.664 198.04 564.263C202.021 562.163 206.072 560.08 209.669 557.352C213.471 554.468 216.596 550.894 218.288 546.379C219.968 542.036 220.189 537.263 218.918 532.782C217.607 528.247 214.678 524.351 210.687 521.831C206.576 519.283 201.616 517.862 196.837 517.346C191.513 516.772 186.189 517.623 180.853 517.409C175.307 517.186 169.773 516.602 164.251 517.342L164.234 468.558C167.961 470.454 171.857 471.987 175.927 472.666C176.228 472.731 176.541 472.714 176.833 472.615C177.125 472.516 177.384 472.339 177.583 472.104C182.923 475.201 188.307 478.365 193.971 480.776C200.117 483.392 206.649 484.578 213.019 482.006C217.905 480.033 222.265 477.041 225.441 472.796C231.065 465.281 231.249 455.255 227.656 446.836C225.719 442.369 222.814 438.387 219.152 435.178C216.851 433.231 214.362 431.516 211.724 430.059C208.266 428.052 204.736 426.174 201.174 424.36C194.384 420.9 187.537 417.494 180.601 414.335C177.402 412.879 174.189 411.44 171.09 409.776C168.666 408.475 166.259 407.048 164.211 405.197L164.205 387.059C169.417 387.944 174.725 387.986 179.992 386.645C185.444 385.229 190.506 382.604 194.805 378.965C197.777 376.449 200.277 373.316 201.576 369.612C203.951 362.838 201.285 355.692 197.435 350.04C192.861 343.325 186.684 337.777 180.301 332.827C175.135 328.854 169.754 325.168 164.182 321.789L164.109 114.864C166.422 89.8767 191.577 75.8157 202.501 75.8481L440.901 74.4272C451.825 74.4596 474.963 99.9814 474.933 110.909L477.205 669.668C477.175 680.595 448.388 704.985 437.464 704.952L202.019 705.054C191.095 705.021 168.469 688.391 164.303 665.14Z" fill="#D2FFDB"/>
<path d="M179.154 651.791L179.529 570.657C185.735 569.858 189.184 567.055 195.015 565.027C199.636 563.42 203.916 560.372 208.246 558.086C211.986 556.112 212.967 549.825 216.346 547.262C219.919 544.552 217.581 540.923 219.17 536.68C220.701 532.596 219.372 530.474 218.129 526.269C216.877 522.037 214.761 524.003 210.997 521.671C207.133 519.277 203.589 519.01 199.099 518.526C194.096 517.986 192.462 517.234 187.449 517.033C182.238 516.824 184.358 516.051 179.17 516.746L180.004 474.54C183.507 476.322 180.8 474.778 184.624 475.416C185.225 475.516 189.117 476.88 189.469 476.422C194.486 479.332 196.159 479.179 201.482 481.445C207.257 483.902 213.508 478.881 219.494 476.463C224.085 474.61 224.393 469.412 227.377 465.423C232.662 458.361 232.151 451.971 228.775 444.06C226.991 439.88 224.749 437.008 221.342 434.007C219.2 432.121 217.349 431.231 214.887 429.802C211.638 427.917 208.5 426.452 205.154 424.747C198.773 421.496 193.38 418.44 186.863 415.472C183.857 414.103 182.14 414.86 179.228 413.297C176.951 412.074 181.732 408.585 179.808 406.846L179.219 387.345C184.116 388.178 183.895 386.055 188.845 384.795C193.922 383.502 194.577 380.257 198.573 376.874C201.365 374.51 200.018 369.534 201.238 366.053C203.47 359.688 202.203 357.754 198.585 352.443C194.287 346.134 194.749 340.941 188.751 336.29C183.911 332.537 184.138 331.08 178.916 327.885L178.715 127.26C178.758 98.3507 199.741 89.9954 210.005 90.0258L438.673 91.8058C448.937 91.8363 461.414 113.431 461.386 123.699L463.137 653.182C463.109 663.45 452.011 687.824 441.746 687.793L208.913 688.747C198.649 688.717 182.512 679.845 179.154 651.791Z" fill="white"/>
<path d="M478.457 292.627C483.297 306.456 489.615 319.689 496.251 332.731C497.567 335.316 493.669 337.603 492.349 335.008C485.53 321.607 479.063 307.992 474.091 293.784C473.13 291.038 477.501 289.895 478.457 292.627Z" fill="#3A922B" fill-opacity="0.49"/>
<path d="M543.173 298.779C529.427 285.265 519.824 268.403 510.75 251.569C506.31 243.331 502.249 234.623 497.037 226.837C494.948 223.715 491.47 219.703 487.311 219.952C482.481 220.242 479.94 225.858 478.084 229.643C476.801 232.258 472.902 229.973 474.178 227.372C477.624 220.349 483.578 212.568 492.309 216.499C500.784 220.315 504.946 231.287 509.074 238.916C519.832 258.797 530.049 279.541 546.359 295.576C548.437 297.619 545.247 300.819 543.173 298.779Z" fill="#3A922B" fill-opacity="0.49"/>
<path d="M547.933 297.534C558.688 308.73 556.411 324.651 552.845 338.351C548.652 354.459 545.199 370.624 543.63 387.223C542.029 403.555 542.186 420.012 544.1 436.311C546.181 453.494 550.01 470.401 551.62 487.654C553.378 506.752 553.2 525.979 551.09 545.041C550.777 547.902 546.255 547.893 546.572 544.996C548.387 528.591 548.775 512.06 547.732 495.588C546.638 478.584 543.333 461.963 540.794 445.148C536.096 414.032 537.851 382.617 544.774 351.963C548.347 336.145 558.03 314.564 544.747 300.738C542.731 298.639 545.916 295.435 547.933 297.534Z" fill="#3A922B" fill-opacity="0.49"/>
<path d="M179.772 389.329C169.381 390.597 158.906 388.094 149.137 384.694C139.953 381.497 130.879 377.64 123.022 371.822C115.643 366.359 108.756 358.92 107.146 349.552C105.892 342.258 107.866 334.746 111.903 328.614C115.974 322.368 121.931 317.586 128.908 314.962C136.804 312.064 144.666 313.673 152.505 315.97C169.782 321.032 187.329 331.275 198.327 345.825C203.916 353.219 206.783 362.799 203.31 371.749C199.525 381.504 190.467 387.662 180.373 389.253C177.53 389.701 176.342 385.338 179.216 384.885C188.055 383.492 196.322 378.346 199.34 369.505C201.784 362.344 199.388 354.939 195.103 349.015C185.743 336.076 170.175 326.666 155.286 321.59C148.54 319.289 140.882 316.754 133.716 318.265C127.309 319.617 121.573 323.543 117.485 328.594C113.325 333.735 110.732 340.397 111.347 347.073C112.173 356.031 118.862 363.228 125.808 368.3C133.219 373.711 141.719 377.337 150.341 380.339C159.792 383.628 169.764 386.036 179.817 384.809C182.689 384.458 182.625 388.98 179.772 389.329Z" fill="#3A922B" fill-opacity="0.49"/>
<path d="M193.227 417.49C206.711 423.934 225.604 429.949 231.043 445.553C236.232 460.44 224.46 482.429 208.308 484.395C204.332 484.879 200.71 483.87 196.982 482.628C191.047 480.649 185.204 478.386 179.376 476.115C176.694 475.07 177.865 470.702 180.58 471.759C186.257 473.972 191.949 476.171 197.724 478.117C201.605 479.426 205.332 480.608 209.463 479.62C219.383 477.246 225.907 466.024 227.418 456.595C230.676 436.262 205.268 428.235 190.958 421.396C188.331 420.141 190.617 416.242 193.227 417.49Z" fill="#3A922B" fill-opacity="0.49"/>
<path d="M180.979 411.249C184.224 412.911 187.449 414.611 190.654 416.35C193.214 417.741 190.94 421.645 188.385 420.257C185.181 418.517 181.956 416.816 178.71 415.156C176.117 413.828 178.397 409.926 180.979 411.249Z" fill="#3A922B" fill-opacity="0.49"/>
<path d="M161.247 591.498C148.497 587.108 136.543 580.52 126.284 571.73C117.384 564.104 109.595 552.957 112.481 540.63C115.055 529.636 125.955 524.043 135.933 521.209C150.134 517.175 165.393 515.74 180.097 515.126C183 515.005 182.955 519.524 180.052 519.646C167.09 520.187 154.103 521.628 141.435 524.48C132.135 526.573 120.243 530.497 117.146 540.685C113.509 552.653 122.85 563.237 131.446 570.164C140.723 577.574 151.213 583.319 162.451 587.143C165.186 588.084 164.006 592.448 161.247 591.498Z" fill="#3A922B" fill-opacity="0.49"/>
<path d="M550.387 547.199C552.668 553.218 556.748 558.761 560.378 564.012C566.447 572.791 572.967 581.258 579.63 589.59C595.276 609.158 611.791 628.097 629.213 646.103C637.779 654.957 646.581 663.635 656.013 671.57C658.243 673.446 655.038 676.634 652.827 674.774C634.725 659.545 618.536 641.925 602.902 624.224C587.109 606.341 571.703 587.916 557.95 568.4C553.53 562.129 548.76 555.587 546.02 548.356C544.991 545.639 549.365 544.502 550.387 547.199Z" fill="#3A922B" fill-opacity="0.49"/>
<path d="M161.993 405.81C161.893 400.027 161.793 394.243 161.693 388.46C161.643 385.554 166.161 385.593 166.211 388.506C166.311 394.289 166.411 400.072 166.511 405.855C166.561 408.761 162.043 408.722 161.993 405.81Z" fill="#3A922B" fill-opacity="0.49"/>
<path d="M162.039 320.835C161.936 296.278 161.834 271.721 161.731 247.164C161.652 228.343 161.581 209.522 161.518 190.701C161.483 174.8 161.449 158.898 161.414 142.996C161.389 131.121 160.066 118.056 163.832 106.622C170.52 86.3144 189.738 72.714 210.98 72.4831C216.539 72.4227 222.101 72.4606 227.66 72.4494C256.78 72.3907 285.901 72.3319 315.021 72.2731C345.462 72.2117 375.902 72.1503 406.343 72.0888C413.374 72.0746 420.405 72.0442 427.437 72.0463C444.767 72.0514 461.014 80.3029 470.422 95.0566C478.87 108.306 478.157 122.599 478.19 137.404L478.315 194.278C478.377 222.738 478.44 251.198 478.503 279.658C478.576 313.074 478.65 346.491 478.723 379.908C478.798 413.736 478.872 447.565 478.946 481.393C479.012 511.186 479.078 540.98 479.143 570.773C479.189 591.748 479.235 612.722 479.281 633.697C479.301 642.496 479.808 651.456 479.224 660.247C477.699 683.223 459.858 702.752 437.025 706.057C430.772 706.963 424.26 706.615 417.957 706.627C390.298 706.683 362.639 706.739 334.98 706.795L240.593 706.985C232.129 707.003 223.665 707.02 215.201 707.037C201.293 707.065 188.157 703.106 177.898 693.306C169.591 685.342 164.297 674.746 162.916 663.32C162.425 659.213 162.532 655.047 162.507 650.916C162.413 635.619 162.319 620.322 162.226 605.024C162.166 595.215 162.106 585.406 162.046 575.597C162.028 572.691 166.546 572.728 166.564 575.643C166.717 600.749 166.871 625.855 167.025 650.962C167.05 655.137 166.894 659.404 167.461 663.547C169.12 675.354 175.352 686.037 184.812 693.293C194.503 700.694 205.665 702.536 217.428 702.513L289.615 702.367C321.774 702.302 353.933 702.237 386.093 702.172C397.159 702.15 408.226 702.128 419.293 702.105C426.404 702.091 433.686 702.488 440.637 700.758C460.8 695.738 474.68 677.315 474.814 656.702C474.832 654.027 474.802 651.35 474.797 648.675C474.762 632.881 474.727 617.088 474.692 601.294C474.635 575.315 474.578 549.337 474.521 523.358C474.45 491.324 474.38 459.289 474.309 427.255C474.236 393.717 474.162 360.178 474.088 326.64C474.02 295.668 473.952 264.697 473.884 233.725C473.831 209.864 473.779 186.003 473.726 162.142C473.699 149.557 473.671 136.972 473.643 124.388C473.623 115.328 472.044 106.6 467.338 98.6689C458.696 84.1027 443.248 76.5338 426.625 76.5673L362.845 76.696C330.295 76.7617 297.745 76.8274 265.195 76.8931C247.14 76.9295 229.077 76.8081 211.023 77.0024C188.784 77.2418 169.343 93.6493 166.301 115.908C164.839 126.605 165.921 138.028 165.945 148.773C165.989 169.17 166.038 189.568 166.093 209.965C166.217 239.594 166.341 269.224 166.465 298.854C166.495 306.196 166.526 313.539 166.557 320.881C166.569 323.786 162.051 323.75 162.039 320.835Z" fill="#239D0E" fill-opacity="0.49"/>
<path d="M163.046 516.013C162.691 500.742 162.335 485.471 161.98 470.199C161.912 467.293 166.43 467.334 166.498 470.245C166.853 485.516 167.209 500.788 167.564 516.059C167.632 518.965 163.114 518.924 163.046 516.013Z" fill="#3A922B" fill-opacity="0.49"/>
<path d="M181.583 571.663C181.885 596.283 182.188 620.902 182.49 645.522C182.537 649.347 182.571 653.173 182.631 656.999C182.812 668.36 188.785 678.852 199.137 683.94C206.292 687.456 213.911 686.934 221.59 686.919C246.767 686.869 271.943 686.819 297.12 686.769L390.441 686.584L420.985 686.523C429.46 686.507 437.565 686.829 445.212 682.136C454.894 676.194 459.261 665.871 459.237 654.881C459.228 650.843 459.219 646.806 459.21 642.768C459.172 625.337 459.134 607.906 459.095 590.475C459.037 564.069 458.979 537.663 458.921 511.257C458.852 479.786 458.783 448.315 458.713 416.844C458.641 384.137 458.57 351.43 458.498 318.723C458.432 289.007 458.367 259.29 458.301 229.574C458.251 206.673 458.201 183.772 458.15 160.872L458.07 124.42C458.052 116.146 456.213 108.24 450.446 101.889C444.657 95.5145 436.646 92.2237 428.105 92.1502C426.242 92.1342 424.378 92.1577 422.515 92.1613C398.968 92.2083 375.421 92.2552 351.875 92.3021C320.323 92.365 288.772 92.4279 257.221 92.4907C245.981 92.5131 234.742 92.5355 223.502 92.5579C218.632 92.5677 213.678 92.3193 208.814 92.6628C195.894 93.5753 184.98 103.137 182.153 115.734C181.486 118.709 181.459 121.668 181.466 124.68C181.483 132.61 181.5 140.54 181.517 148.47C181.582 178.237 181.647 208.003 181.712 237.77L181.889 318.732C181.898 323.025 181.908 327.319 181.917 331.613C181.924 334.519 177.406 334.483 177.399 331.568C177.363 314.761 177.326 297.954 177.289 281.147C177.219 248.907 177.148 216.667 177.078 184.428C177.034 164.027 176.93 143.626 176.944 123.225C176.957 105.83 189.13 90.4541 206.817 88.3366C212.247 87.6864 217.9 88.0497 223.352 88.0388C250.308 87.9851 277.264 87.9314 304.219 87.8777C335.085 87.8162 365.95 87.7546 396.816 87.6931C405.875 87.6751 414.933 87.6571 423.992 87.639C435.157 87.6168 445.723 90.001 453.632 98.6849C463.72 109.763 462.585 123.228 462.615 136.866C462.655 155.098 462.696 173.329 462.736 191.561C462.796 218.914 462.856 246.268 462.916 273.621L463.13 370.606C463.202 403.714 463.275 436.823 463.348 469.931C463.413 499.626 463.479 529.32 463.544 559.015C463.593 581.101 463.641 603.187 463.69 625.273C463.712 635.556 463.78 645.84 463.758 656.123C463.726 670.588 455.341 683.727 441.622 688.884C434.603 691.523 427.097 691.031 419.745 691.045C393.655 691.097 367.565 691.149 341.474 691.201L247.663 691.387C237.965 691.406 228.268 691.425 218.57 691.444C208.685 691.464 199.403 690.646 191.158 684.187C182.718 677.576 178.286 667.63 178.114 657.02C178.052 653.172 178.02 649.324 177.972 645.476C177.782 629.972 177.591 614.467 177.401 598.963C177.289 589.848 177.177 580.732 177.065 571.617C177.029 568.711 181.547 568.75 181.583 571.663Z" fill="#73D862"/>
<path d="M182.237 473.96C182.269 488.443 182.301 502.926 182.333 517.409C182.34 520.314 177.822 520.278 177.815 517.363C177.783 502.88 177.751 488.397 177.719 473.915C177.712 471.009 182.23 471.045 182.237 473.96Z" fill="#3A922B" fill-opacity="0.49"/>
<path d="M182.011 388.591L182.176 412.132C182.197 415.038 177.679 415.001 177.658 412.087C177.603 404.24 177.548 396.393 177.493 388.546C177.473 385.64 181.99 385.677 182.011 388.591Z" fill="#3A922B" fill-opacity="0.49"/>
<path d="M175.813 413.999C159.335 405.276 127.583 392.268 119.824 418.31C113.684 438.917 135.26 452.717 150.993 460.308C159.487 464.407 168.359 467.612 177.305 470.563C180.055 471.47 178.872 475.833 176.1 474.918C157.251 468.7 135.634 461.151 122.364 445.589C115.737 437.818 112.545 428.079 115.216 418.004C118.342 406.207 127.267 398.681 139.51 398.302C152.982 397.885 166.423 403.92 178.082 410.093C180.657 411.456 178.38 415.359 175.813 413.999Z" fill="#3A922B" fill-opacity="0.49"/>
<path d="M180.005 515.247C194.847 513.47 220.297 515.618 221.868 535.094C223.658 557.295 200.611 566.181 183.206 570.833C180.398 571.583 179.236 567.217 182.049 566.465C197.166 562.425 218.289 555.453 217.408 535.996C216.633 518.866 192.222 518.299 179.96 519.767C177.086 520.111 177.15 515.589 180.005 515.247Z" fill="#3A922B" fill-opacity="0.49"/>
<path d="M244.618 255.23C242.378 255.223 240.683 255.712 239.534 256.695C238.385 257.652 237.807 259.104 237.802 261.051L237.797 262.771L249.317 262.803L249.303 268.003L237.783 267.971L237.754 278.171L231.274 278.153L231.322 261.073C231.332 257.473 232.46 254.676 234.705 252.682C236.977 250.688 240.14 249.697 244.193 249.708C245.793 249.713 247.3 249.89 248.712 250.241C250.124 250.565 251.35 251.048 252.388 251.691L250.374 256.806C248.777 255.761 246.858 255.236 244.618 255.23ZM265.326 273.567C266.446 273.57 267.433 273.413 268.287 273.095C269.168 272.751 269.983 272.22 270.731 271.502L274.041 275.111C272.008 277.426 269.045 278.578 265.152 278.567C262.725 278.56 260.58 278.087 258.716 277.149C256.852 276.184 255.415 274.86 254.407 273.177C253.398 271.494 252.897 269.586 252.903 267.453C252.908 265.346 253.407 263.454 254.398 261.777C255.416 260.073 256.793 258.757 258.529 257.828C260.292 256.873 262.267 256.399 264.453 256.405C266.507 256.41 268.372 256.856 270.05 257.74C271.727 258.598 273.057 259.855 274.039 261.511C275.048 263.141 275.549 265.076 275.543 267.316L259.615 270.351C260.065 271.419 260.769 272.221 261.728 272.757C262.713 273.293 263.912 273.563 265.326 273.567ZM264.44 261.125C262.867 261.12 261.585 261.623 260.596 262.634C259.607 263.645 259.083 265.043 259.024 266.83L269.51 264.819C269.22 263.698 268.622 262.803 267.717 262.134C266.813 261.465 265.72 261.128 264.44 261.125ZM301.607 256.828L301.547 278.348L295.587 278.331L295.594 275.851C294.042 277.714 291.799 278.641 288.866 278.633C286.839 278.627 285.001 278.169 283.35 277.257C281.726 276.346 280.449 275.049 279.521 273.367C278.592 271.684 278.131 269.736 278.137 267.523C278.143 265.309 278.615 263.364 279.553 261.687C280.491 260.009 281.775 258.72 283.404 257.817C285.06 256.915 286.901 256.467 288.928 256.473C291.674 256.48 293.819 257.353 295.36 259.091L295.367 256.811L301.607 256.828ZM289.96 273.516C291.534 273.52 292.842 272.99 293.885 271.927C294.928 270.836 295.452 269.384 295.457 267.571C295.462 265.758 294.946 264.316 293.909 263.247C292.872 262.15 291.567 261.6 289.993 261.596C288.393 261.591 287.072 262.134 286.029 263.225C284.986 264.288 284.462 265.727 284.457 267.54C284.452 269.354 284.968 270.808 286.005 271.905C287.042 272.974 288.36 273.511 289.96 273.516ZM320.287 277.36C319.672 277.812 318.911 278.156 318.004 278.394C317.123 278.604 316.203 278.709 315.243 278.706C312.656 278.699 310.672 278.04 309.289 276.729C307.906 275.419 307.218 273.497 307.225 270.964L307.277 252.084L313.517 252.101L313.502 257.341L318.822 257.356L318.809 262.156L313.489 262.141L313.465 270.901C313.462 271.808 313.687 272.515 314.139 273.023C314.591 273.504 315.244 273.746 316.097 273.748C317.057 273.751 317.911 273.487 318.659 272.955L320.287 277.36ZM345.548 256.95L345.488 278.47L339.568 278.454L339.575 275.894C338.746 276.825 337.757 277.542 336.609 278.045C335.461 278.522 334.221 278.759 332.887 278.755C330.061 278.747 327.823 277.928 326.174 276.296C324.525 274.665 323.705 272.249 323.714 269.049L323.748 256.889L329.988 256.907L329.957 268.147C329.947 271.613 331.396 273.351 334.302 273.359C335.796 273.363 336.997 272.886 337.906 271.929C338.816 270.945 339.273 269.493 339.279 267.573L339.308 256.933L345.548 256.95ZM357.281 259.823C358.031 258.785 359.033 258.001 360.288 257.471C361.569 256.941 363.037 256.679 364.69 256.683L364.674 262.443C363.981 262.388 363.514 262.36 363.274 262.359C361.487 262.354 360.086 262.857 359.07 263.868C358.054 264.852 357.543 266.343 357.537 268.343L357.509 278.503L351.269 278.486L351.329 256.966L357.289 256.983L357.281 259.823ZM378.997 273.883C380.117 273.886 381.104 273.729 381.958 273.411C382.839 273.067 383.654 272.536 384.403 271.818L387.713 275.427C385.68 277.742 382.717 278.893 378.823 278.883C376.397 278.876 374.251 278.403 372.387 277.465C370.523 276.5 369.087 275.176 368.078 273.493C367.069 271.81 366.568 269.902 366.574 267.769C366.58 265.662 367.078 263.77 368.07 262.093C369.088 260.389 370.465 259.073 372.201 258.144C373.963 257.189 375.938 256.715 378.125 256.721C380.178 256.726 382.044 257.171 383.721 258.056C385.399 258.914 386.729 260.171 387.711 261.827C388.719 263.457 389.221 265.391 389.215 267.631L373.286 270.667C373.736 271.735 374.441 272.537 375.399 273.073C376.385 273.609 377.584 273.879 378.997 273.883ZM378.112 261.441C376.538 261.436 375.257 261.939 374.267 262.95C373.278 263.96 372.754 265.359 372.696 267.146L383.181 265.135C382.891 264.014 382.294 263.119 381.389 262.45C380.484 261.78 379.392 261.444 378.112 261.441ZM400.617 278.943C398.831 278.938 397.085 278.72 395.379 278.289C393.674 277.831 392.315 277.267 391.304 276.597L393.396 272.123C394.355 272.739 395.513 273.249 396.872 273.653C398.231 274.03 399.564 274.22 400.871 274.224C403.511 274.231 404.832 273.582 404.836 272.275C404.838 271.662 404.479 271.221 403.76 270.952C403.04 270.683 401.934 270.453 400.442 270.263C398.682 269.991 397.23 269.68 396.084 269.331C394.938 268.981 393.94 268.365 393.089 267.482C392.265 266.6 391.855 265.345 391.86 263.719C391.864 262.359 392.254 261.16 393.03 260.122C393.833 259.058 394.982 258.234 396.477 257.652C397.998 257.069 399.786 256.781 401.839 256.786C403.359 256.791 404.865 256.968 406.358 257.319C407.877 257.643 409.129 258.1 410.114 258.689L408.021 263.124C406.131 262.052 404.066 261.513 401.826 261.506C400.493 261.503 399.492 261.687 398.824 262.058C398.157 262.43 397.822 262.909 397.82 263.495C397.819 264.162 398.177 264.63 398.897 264.898C399.616 265.167 400.762 265.424 402.334 265.668C404.094 265.966 405.533 266.29 406.652 266.64C407.771 266.963 408.742 267.566 409.567 268.448C410.391 269.33 410.801 270.558 410.796 272.131C410.793 273.465 410.389 274.65 409.587 275.688C408.784 276.726 407.608 277.536 406.06 278.118C404.538 278.674 402.724 278.949 400.617 278.943Z" fill="#73D862"/>
</svg>
